<?xml version="1.0" standalone="yes"?>
<svg xmlns="http://www.w3.org/2000/svg" width="1528" height="608">
<path style="fill:#fefdfe; stroke:none;" d="M0 0L0 608L506 608L619 608L624 608L626 608L630 608L634 608L637 608L645 608L667 608L670 608L674 608L676 608L679 608L686 608L694 608L698 608L702 608L707 608L717 608L718 608L741 608L757 608L765 608L775 608L779 608L779 587L779 580L779 578L778.972 576L778.917 575L778.611 573L778.389 572L778.083 570L778 568L778 566L778 562L778 550L778 515L778 471L778 470L778 457L778 452L778 451L778.028 449L778.083 448L778.389 446L778.778 444.056L778.972 442.5L779 441L780 440L784 440L790 440L792 440L793 440L795 440.028L796 440.083L798 440.389L799 440.639L800 440.861L801 441.139L802 441.361L803 441.611L805 441.917L807 442L809 442L811 441.972L812 441.917L814 441.611L815 441.361L817 440.861L818 440.611L819 440.306L821 439.694L822 439.389L824 438.861L825 438.611L826 438.306L827 438L829 437.417L830 437.222L831 437.083L833 437.083L835 437.389L837 437.861L838 438.139L839 438.361L840 438.611L842 438.944L843 439.056L845 439.389L847 439.806L849 440.194L850 440.417L851 440.694L853 441.389L854 441.833L855 442.278L856 442.833L857 443.361L859 444.472L861 445.528L862 446.056L863 446.639L864 447.194L866 448.472L867 449.25L868 450.083L869 451.028L871 453L872.972 455L874.75 457L875.528 458L876.806 460L877.389 461L878.611 463L879.167 464L879.722 465L880.611 467L880.972 468L881.333 469L882.083 471L882.528 472L883.472 474L883.917 475L884.306 476L885 478L885.583 480L885.806 481L886.194 483L886.611 485L886.917 487L887.083 489L887.389 491L887.611 492L887.917 494L887.944 495L887.917 496L887.611 498L887.389 499L887.083 501L887.028 502L887 504L886.972 505L886.917 506L886.611 508L886.389 509L886.194 510L885.806 512L885.611 513L885.389 514L885 516L884.611 518L884.194 520L883.806 522L883.583 523L883.278 524L882.917 525L882.028 527L881.583 528L881.222 529L880.611 531L880.278 532L879.917 533L878.944 535L878.361 536L877.25 538L876.75 539L875.528 541L874.75 542L873.917 543L872 545L871 546L869 547.917L867 549.583L866 550.306L864 551.611L863 552.194L862 552.806L860 553.944L858 555L856 556.056L855 556.611L853 557.528L852 557.833L850 558.389L848 559L847 559.333L845 560L843 560.583L842 560.778L841 560.917L839 561L838 561L836 561.083L834 561.389L832 561.778L831 561.917L829 562L828 562L826 562L824 562L823 561.972L822 561.917L820 561.611L819 561.389L817 561.083L816 561.028L815 561L813 561L807 561L807 576L807 581L807 582L807.028 584L807.083 585L807.389 587L807.611 588L807.917 590L807.972 591L808 593L808 594L808 597L808 598L808 608L822 608L838 608L846 608L854 608L858 608L866 608L867 608L871 608L873 608L877 608L885 608L890 608L895 608L903 608L905 608L913 608L921 608L925 608L933 608L937 608L938 608L941 608L945 608L951 608L959 608L963 608L965 608L973 608L989 608L994 608L998 608L1000 608L1001 608L1003 608L1011 608L1015 608L1023 608L1031 608L1033 608L1034 608L1038 608L1040 608L1044 608L1045 608L1050 608L1052 608L1057 608L1058 608L1059 608L1067 608L1068 608L1072 608L1080 608L1081 608L1089 608L1090 608L1095 608L1103 608L1104 608L1106 608L1108 608L1109 608L1110 608L1112 608L1114.94 608L1115.94 608L1118 608L1118 604.944L1118 603L1118 602L1117.92 600L1117.78 599L1117.58 598L1117 596L1116.42 594L1116.08 592L1116.03 591L1116 590L1116 588L1116 583L1117.5 582.556L1118.06 582.333L1119.06 582L1121 581.417L1122 581.194L1124 580.806L1126 580.389L1128 580.056L1129 579.944L1131 579.611L1132 579.389L1134 579.056L1135 578.944L1137 578.611L1138 578.361L1140 577.861L1141 577.639L1142 577.361L1143 577.111L1145 576.389L1147 575.278L1147.97 574.583L1148.92 573.778L1150.5 571.972L1151.08 571L1151.97 569L1152.58 567L1152.92 565L1152.97 564L1153 563L1153 561L1153 560L1153 558L1153 553L1153 551L1153.03 549L1153.08 548L1153.39 546L1153.61 545L1153.92 543L1153.97 542L1154 540L1154 536L1154 535L1154 525L1154 522L1154 519L1154 491L1154 484L1154 482L1153.97 480L1153.92 479L1153.61 477L1153.39 476L1153.08 474L1152.97 472L1152.92 471L1152.58 469L1152.28 468.028L1151.36 466.25L1150.69 465.5L1148.97 464.5L1147 464.083L1145 463.917L1143 463.611L1141 463.222L1140 463.083L1138 462.917L1137 462.778L1135.06 462.389L1134.06 462.222L1133.5 462.083L1132 462L1132 459.944L1132 458.944L1131.97 457L1131.92 456L1131.61 454L1131.39 453L1131.11 451L1131.11 450L1131.39 448L1131.64 447L1132.14 445L1132.36 444.056L1132.75 442.5L1133 441L1134.5 440.917L1135.06 440.778L1136.06 440.611L1137 440.389L1139 440.083L1140 440.028L1142 440L1144 440L1145 440L1147 440L1148 440L1150 439.972L1151 439.917L1153 439.611L1154 439.389L1156 439.083L1157 439.028L1159 439L1160 439L1165 439L1167 439L1168 439L1172 439L1180 439L1180.44 440.5L1180.67 441.056L1181.31 443L1181.58 444L1181.92 446L1181.97 447L1182 449L1182.03 451L1182.08 452L1182.39 454L1182.61 455L1182.92 457L1182.97 458L1183 460L1183 462L1183 471L1183 472L1183 473L1183 483L1183 487L1182.97 489L1182.92 490L1182.61 492L1182.39 493L1182.08 495L1182 497L1182 498L1182 501L1182 508L1182 530L1182 538L1182 540L1181.97 542L1181.92 543L1181.61 545L1181.39 546L1181.08 548L1181.03 549L1181 551L1181 552L1181 555L1181 557L1180.97 559L1180.92 560L1180.61 562L1180.39 563L1180.08 565L1180.03 566L1179.92 568L1179.53 570L1179.17 571L1178.44 573L1177.86 575L1177.31 577L1176.61 579L1175.75 581L1175.22 582L1174.75 583L1174.14 584L1173.56 585L1172.14 587L1171.36 588L1170.61 589L1168.92 590.917L1167 592.611L1166 593.361L1165 594.111L1163 595.389L1161 596.361L1159 597.194L1158 597.611L1156 598.306L1155 598.583L1153 598.917L1151 599L1150 599L1148.06 599L1145 599L1144.97 601.056L1144.92 602.056L1144.61 604L1144.39 604.944L1144.22 605.944L1144.08 606.5L1144 608L1145.5 608L1147.06 608L1151 608L1152 608L1153 608L1155 608L1157 608L1158 608L1162 608L1164 608L1165 608L1167 608L1168 608L1169 608L1170 608L1174 608L1179 608L1183 608L1191 608L1192 608L1194 608L1195 608L1197 608L1205 608L1213 608L1214 608L1215 608L1219 608L1221 608L1222 608L1224 608L1228 608L1233 608L1234 608L1238 608L1240 608L1242 608L1243 608L1307 608L1308 608L1310 608L1311 608L1375 608L1379 608L1383 608L1387 608L1388 608L1389 608L1397 608L1398 608L1406 608L1407 608L1408 608L1410 608L1411 608L1412 608L1414 608L1416 608L1417 608L1418 608L1423 608L1425 608L1426 608L1428 608L1432 608L1434 608L1435 608L1439 608L1442 608L1443 608L1447 608L1448 608L1449 608L1453 608L1461 608L1463 608L1466 608L1470 608L1471 608L1472 608L1473 608L1477 608L1479 608L1480 608L1482 608L1486 608L1487 608L1488 608L1489 608L1490 608L1493 608L1494 608L1498 608L1499 608L1501 608L1503 608L1504 608L1506 608L1507 608L1509 608L1510 608L1511 608L1515 608L1516 608L1517 608L1521 608L1522 608L1523 608L1524.94 608L1526.5 608L1528 608L1528 603L1528 600L1528 560L1525.94 560L1524.94 560L1523 560L1522 560L1520 560L1519 560.028L1518 560.111L1516 560.611L1514 561.389L1512 561.889L1511 561.972L1509 562L1507 562L1505 562L1503 561.972L1502 561.917L1500 561.611L1499 561.389L1497 561.056L1496 560.944L1494 560.611L1493 560.389L1491 560.083L1489 559.917L1487 559.528L1486 559.167L1484 558.444L1483 558.139L1481 557.389L1480 556.917L1478 555.806L1477 555.167L1476 554.556L1475 553.833L1473 552.361L1472 551.611L1470.08 549.917L1468.39 548L1467.64 547L1466.14 545L1465.39 544L1464.03 542L1463.42 541L1462.42 539L1462.03 538L1461.42 536L1461.22 535L1461.08 534L1461 532L1461 531L1461 530L1461 528L1461 514L1461 466L1460 465L1458.5 464.917L1457.94 464.778L1456.94 464.583L1455 463.917L1453 462.917L1452 462.278L1450.11 460.778L1448.72 458.972L1448.11 457L1447.97 455L1447.92 454L1447.61 452L1447.39 451L1447.08 449L1447.03 448L1447 446L1447 445.056L1447 442L1448 441L1450.06 441L1452 440.972L1453 440.917L1455 440.611L1457 440.222L1458 440.083L1460 440L1461 440L1462 440L1464 440L1472 440L1474 440L1478 440L1486 440L1494 440L1495 440L1496 440L1500 440L1501 440L1505 440L1507 440L1509 440L1510 440L1511 440L1513 440.028L1514 440.083L1515.94 440.389L1517.5 440.75L1519 441L1519.08 442.5L1519.22 443.056L1519.39 444.056L1519.61 445L1519.92 447L1519.97 448L1520 450L1519.97 452L1519.92 453L1519.61 455L1519.36 456L1519.14 457L1518.86 458L1518.39 459.944L1518.22 460.944L1518.08 461.5L1518 463L1516.5 463.028L1514.94 463.222L1513 463.611L1511 463.917L1510 463.972L1509 464L1507 464L1505 464L1504 464L1502 463.917L1501 463.778L1499 463.389L1497 463.083L1496 463.028L1494.06 463L1493.06 463L1491 463L1490 464L1490 471L1490 473L1489.97 475L1489.92 476L1489.61 478L1489.39 479L1489.08 481L1489.03 482L1489 484L1489 485L1489 486L1489 490L1489 493L1489 495L1489 497L1489 505L1489 513L1489 515L1489.03 517L1489.08 518L1489.39 520L1489.61 521L1489.78 522L1490.06 524L1490.39 526L1490.64 527L1490.86 528L1491.44 530L1491.86 531L1492.25 532L1493.17 533.944L1493.5 534.5L1494 536L1495.5 536L1497.06 536L1498 536L1501 536L1503 536L1505 535.972L1506 535.917L1508 535.611L1509 535.361L1510 535.139L1511 534.861L1512 534.639L1513 534.389L1515 534.056L1516 533.944L1517 533.778L1518 533.611L1519 533.389L1521 533.083L1522 533.028L1524 533L1524.94 533L1525.94 533L1528 533L1528 481L1528 462L1528 452L1528 447L1528 446L1528 423L1528 422L1528 420L1528 410L1528 405L1528 400L1528 375L1528 370L1528 365L1528 340L1528 339L1528 326L1528 325L1528 317L1528 315L1528 295L1528 292L1528 289L1528 249L1528 245L1528 240L1528 238L1528 228L1528 225L1528 222L1528 221L1528 213L1528 211L1528 191L1528 190L1528 188L1528 184L1528 182L1528 167L1528 164L1528 161L1528 156L1528 131L1528 128L1528 127L1528 119L1528 114L1528 112L1528 108L1528 95L1528 94L1528 90L1528 80L1528 79L1528 53L1528 49L1528 48L1528 35L1528 9L1528 3.05554L1528 0L1496 0L1494 0L1492 0L1491 0L1483 0L1482 0L1478 0L1477 0L1473 0L1472 0L1464 0L1463 0L1459 0L1458 0L1456 0L1455 0L1453 0L1452 0L1448 0L1447 0L1439 0L1438 0L1434 0L1432 0L1431 0L1429 0L1428 0L1427 0L1423 0L1421 0L1420 0L1418 0L1417 0L1409 0L1408 0L1406 0L1402 0L1398 0L1397 0L1393 0L1385 0L1381 0L1379 0L1376 0L1375 0L1367 0L1366 0L1365 0L1361 0L1360 0L1352 0L1351 0L1350 0L1346 0L1345 0L1344 0L1343 0L1339 0L1338 0L1334 0L1333 0L1331 0L1327 0L1323 0L1322 0L1318 0L1314 0L1313 0L1309 0L1308 0L1307 0L1303 0L1299 0L1298 0L1297 0L1295 0L1292 0L1284 0L1282 0L1281 0L1277 0L1276 0L1272 0L1271 0L1270 0L1269 0L1267 0L1266 0L1264 0L1260 0L1259 0L1258 0L1254 0L1253 0L1245 0L1243 0L1239 0L1238 0L1234 0L1232 0L1228 0L1224 0L1222 0L1220 0L1219 0L1218 0L1214 0L1212 0L1211 0L1210 0L1209 0L1205 0L1201 0L1200 0L1199 0L1195 0L1187 0L1183 0L1179 0L1178 0L1177 0L1175 0L1172 0L1168 0L1164 0L1163 0L1159 0L1158 0L1157 0L1149 0L1147 0L1144 0L1136 0L1135 0L1134 0L1132 0L1131 0L1129 0L1128 0L1126 0L1125 0L1121 0L1117 0L1116 0L1115 0L1110 0L1102 0L1099 0L1096 0L1095 0L1094 0L1086 0L1085 0L1084 0L1081 0L1079 0L1077 0L1061 0L1059 0L1057 0L1056 0L1055 0L1047 0L1046 0L1038 0L1037 0L1029 0L1028 0L1027 0L1026 0L1021 0L1016 0L952 0L950 0L941 0L937 0L931 0L930 0L928 0L927 0L923 0L919 0L914 0L913 0L912 0L911 0L907 0L903 0L902 0L898 0L895 0L894 0L890 0L885 0L884 0L881 0L879 0L877 0L875 0L873 0L865 0L862 0L856 0L852 0L851 0L847 0L846 0L844 0L839 0L837 0L833 0L830 0L828 0L818 0L810 0L805 0L799 0L798 0L794 0L789 0L788 0L783 0L781 0L778 0L776 0L773 0L769 0L753 0L749 0L741 0L736 0L733 0L729 0L716 0L715 0L709 0L706 0L700 0L696 0L690 0L685 0L680 0L673 0L671 0L669 0L668 0L664 0L656 0L650 0L649 0L641 0L639 0L638 0L635 0L621 0L605 0L604 0L600 0L580 0L579 0L576 0L566 0L546 0L542 0L523 0L516 0L496 0L418 0L380 0L379 0L371 0L354 0L0 0z"/>
<path style="fill:#fa3081; stroke:none;" d="M653 2.38892L652 2.61108L650 2.91669L649 2.97223L647 3.02777L646 3.08331L644 3.38892L643 3.61108L642 3.77777L641 3.94446L640 4.05554L638 4.41669L637 4.69446L636 5L634 5.66669L632 6.33331L631 6.69446L629 7.61108L628 8.22223L626 9.63892L625 10.3889L623 12.0833L621 14L619.028 16L618.083 17L616.389 19L615.639 20L614.861 21L613.472 23L612.944 24L612.472 25L611.833 27L611.556 28L610.833 30L610.472 31L610.222 32L610 33L609.583 35L609 37L608.417 39L608.083 41L608 43L608 44L608 46L608 55L608 60L608 65L608 67L608 84L608 85L608 94L608 96L608 97L608.028 99L608.083 100L608.389 102L608.778 104L608.917 105L609 107L609 108L609 111L609 119L609 143L609 148L609 217L609 234L609 240L609 241L608.972 243L608.917 244L608.611 246L608.389 247L608.083 249L608.028 250L608 252L608 256L608 268L608 276L608 278L608 279L608.083 281L608.389 283L608.611 284L609 286L609.222 287L609.472 288L609.861 289L610.278 290L611.472 292L612.222 293L613.778 295L614.528 296L615.167 297L616.472 299L618.083 301L619.028 302L620 303L622 304.917L624 306.583L625 307.306L626 308L628 309.333L629 310L631 311.306L632 311.917L634 312.917L636 313.611L637 313.861L639 314.361L640 314.611L641 314.806L643 315.194L644 315.389L645 315.611L647 315.917L648 315.972L649 316L651 316L657 316L661 316L667 316L668 316L673 316L679 316L680 316L681 316L682 316L686 316L690 316L696 316L700 316L706 316L713 316L717 316L721 316L727 316L743 316L748 316L756 316L770 316L771 316L775 316L780 316L788 316L791 316L793 316.028L794 316.083L796 316.389L797 316.611L799 316.917L800 316.972L802 317L804 317L810 317L814 317L818 317L820 317L828 317L836 317L840 317L845 317L846 317L852 317L853 317L855 316.972L856 316.917L858 316.611L859 316.389L861 316.083L862 316.028L864 316L865 316L869 316L874 316L879 316L881 316L884 316L885 316L886 316L888 315.917L890 315.583L892 314.972L894 314.167L895 313.722L897 312.611L898 311.972L900 310.667L902 309.306L903 308.583L904.972 306.917L905.917 305.972L907.583 304L908.306 303L909.694 301L910.389 300L911.139 299L911.861 298L912.611 297L913.972 295L914.583 294L915.583 292L916.333 290L916.667 289L917.306 287L917.583 286L917.917 284L918 282L918.028 280L918.083 279L918.389 277L918.611 276L918.917 274L918.972 273L919 271L919 270L919 267L919 266L919.028 264L919.083 263L919.389 261L919.611 260L919.917 258L920 256L920 254L920 250L920 249L920 248L920 238L920 201L920 186L920 177L920 176L920 168L920 153L920 89L920 57L920 56L920 55L920 45L920 42L920 41L920 40L919.917 38L919.778 37L919.583 36L919 34L918.333 32L917.611 30L916.75 28L916.222 27L915.75 26L915.167 25L914.611 24L913.972 23L912.667 21L911.306 19L910.583 18L908.917 16L907 14L905 12.0833L903 10.4167L902 9.69446L900 8.38892L899 7.80554L898 7.19446L897 6.61108L895 5.41663L893 4.47223L892 4.16669L890 3.63892L889 3.38892L887 3.08331L886 3.02777L884 3L882 3L880 3L876 3L875 3L869 3L868 3L860 3L844 3L836 3L828 3L824 3L820 3L818 3L816 3L814 3.02777L813 3.08331L811 3.38892L810 3.61108L808 3.91669L806 4L804 4L800 4L792 4L788 4L780 4L779 4L777 4L775 3.97223L774 3.91669L772 3.61108L771 3.38892L769 3.08331L767 3L765 3L761 3L756 3L750 3L749 3L748 3L746 3L736 3L720 3L712 3L710 3L707 3L700 3L697 3L694 3L692 3L690 2.97223L689 2.91669L687 2.61108L686 2.38892L684 2.08331L683 2.02777L681 2L680 2L678 2L677 2L676 2L675 2L666 2L660 2L658 2L657 2L655 2.08331L653 2.38892z"/>
<path style="fill:#3e3a3d; stroke:none;" d="M261 5L261 15L261 18L261 22L261 35L261 45L261 47L261 48L261 50L261.083 52L261.389 54L261.611 55L261.917 57L262 59L262 61L262 66L262 68L262 73L262 81L262 85L262 125L262 190L262 211L262 218L262 221L262 222L261.917 224L261.611 226L261.389 227L261.083 229L261 231L261 232L261 234L261 240L261 259L261 314L262 315L263.5 315.083L264.056 315.222L265.056 315.389L266 315.611L268 315.917L269 315.972L271 316L273 316L281 316L306 316L371 316L448 316L473 316L482 316L485 316L486 316L488 316.083L490 316.389L491 316.611L493 316.917L494 316.972L496 317L498 317L504 317L522 317L548 317L552 317L557 317L560 317L561 317L563 316.917L564 316.778L566 316.389L568 316.083L569 316.028L570.944 316L573 316L573 292L573 284L573 281L573.028 279L573.083 278L573.389 276L573.611 275L573.917 273L574 271L574 270L574 268L574 263L574 246L574 196L574 188L574 181L574 177L574 174L574 75L574 35L574 22L574 17L574 15L573.917 13L573.611 11L573.389 10L573.083 8L573.028 7.05554L573 6.05554L573 4L568 4L561 4L560 4L558 4L556 4L553 4L547 4L546 4L530 4L377 4L312 4L290 4L283 4L280 4L279 4L277 4.08331L276 4.22223L274 4.61108L272 4.91669L271 4.97223L270 5L268 5L261 5M955 5L955 13L955 25L955 26L955 30L955 35L955 40L955 48L955 49L955 50L955 54L955 59L955 67L955 75L955 82L955 95L955 130L955 135L955 170L955 174L955 220L955 257L955 269L955 273L955 274L955.028 276L955.083 277L955.389 279L955.611 280L955.917 282L955.972 283L956 285L956 286L956 290L956 291L956 302L956 308L956 310L956 311L955.917 313L955.778 313.944L955.583 314.944L955 317L1019 317L1035 317L1036 317L1038 317L1039 317L1040 317L1042 317L1044 317L1047 317L1048 317L1050 317L1051 317L1053 316.917L1055 316.611L1056 316.389L1058 316.083L1059 316.028L1061 316L1065 316L1073 316L1075 316L1076 316L1078 316L1079 316L1083 316L1091 316L1095 316L1096 316L1098 316L1100 316.083L1102 316.389L1103 316.611L1105 316.917L1107 317L1109 317L1113 317L1115 317L1118 317L1123 317L1125 317L1133 317L1135 317L1143 317L1144 317L1152 317L1153 317L1155 317L1156 317L1158 317L1159 317L1160 317L1165 317L1167 317L1168 317L1172 317L1180 317L1185 317L1187 317L1189 317L1192 317L1193 317L1194 317L1195 317L1200 317L1202 317L1204 317L1206 317L1207 317L1211 317L1213 317L1215 316.917L1217 316.611L1218 316.389L1220 316.083L1222 316L1224 316L1227 316L1231 316L1232 316L1236 316L1240 316L1241 316L1242 316L1246 316L1247 316L1248 316L1252 316L1253 316L1261.94 316L1262.94 316L1265 316L1266 315L1266 307L1266 293L1266 287L1266 286L1266 216L1266 211L1266 183L1266 172L1266 168L1266 166L1266.08 164L1266.39 162L1266.61 161L1266.92 159L1267 157L1267 155L1267 151L1267 140L1267 139L1267 134L1267 106L1267 105L1267 104L1267 96L1267 92L1267 87L1267 76L1267 69L1267 68L1267 63L1267 62L1267 61L1267 53L1267 51L1267 50L1267 45L1267 41L1267 36L1267 34L1267 30L1267 28L1267 26L1267 10L1267 6L1266 5L1263.94 5L1262.94 5L1262 5L1258 5L1257 5L1256 5L1255 5L1251 5L1250 5L1248 5L1244 5L1243 5L1242 5L1240 5L1238 4.97223L1237 4.91669L1235 4.61108L1234 4.38892L1232 4.08331L1230 4L1228 4L1224 4L1223 4L1219 4L1218 4L1216 4L1215 4L1211 4L1210 4L1209 4L1193 4L1189 4L1188 4L1186 4L1184 4L1176 4L1174 4L1173 4L1172 4L1170 4L1154 4L1138 4L1136 4L1131 4L1129 4L1126 4L1124 4L1116 4L1114 4L1113 4L1109 4L1106 4L1104 4L1102 4L1098 4L1094 4L1093 4L1091 4L1090 4L1089 4L1088 4L1084 4L1081 4L1079 4L1077 4L1075 4L1074 4L1070 4L1062 4L1061 4L1060 4L1058 4L1056 4L1055 4L1054 4L1050 4L1042 4L1041 4L1040 4L1036 4L1028 4L1027 4L1025 4L1024 4L1021 4L1019 4L1017 4L1015 4L1014 4L1012 4L1011 4L1007 4L1005 4L997 4L991 4L990 4L982 4L980 4L976 4L974 4L972 4L971 4L969 4.08331L968 4.22223L966 4.61108L964 4.91669L963 4.97223L962 5L960 5L955 5z"/>
<path style="fill:#fa3081; stroke:none;" d="M954 36L954 39.0555L954 43L954 51L954 53L954 54L954 55L954 60L954 65L954 67L954 84L954 85L954 94L954 95L954 105L954 123L954 124L954 126L954 131L954 138L954 139L954 150L954 168L954 178L954 189L954 207L954 211L954 233L954 246L954 264L954 283L954 289L954 291L954 292L954.083 294L954.389 296L954.611 297L954.917 299L954.972 300L955 302L955 306L955 316L955.722 315.222L955.75 314.694L955.944 313.889L955.972 312.972L956 312L956 311L956 309L956 298L956 287L956 285L956 284L955.972 282L955.917 281L955.611 279L955.389 278L955.083 276L955.028 275L955 273L955 272L955 267L955 251L955 246L955 241L955 240L955 230L955 225L955 221L955 175L955 171L955 166L955 96L955 95L955 82L955 56L955 54L955 53L955 43L955 41L955 40L954.972 39.0278L954.944 38.1111L954.75 37.3055L954.722 36.7778L954 36z"/>
<path style="fill:#fefdfe; stroke:none;" d="M842 46.3889L841 46.6111L839 46.9167L837 47.0833L835 47.4722L834 47.8611L832 48.7778L831 49.25L829 50.3889L827 51.6667L826 52.3333L824 53.6945L823 54.4167L821.083 56.0833L820.222 57.0278L819.417 58L818.028 60L816.833 62L816.278 63L815.389 65L815.028 66L814.333 68L814 69L813.417 71L813.222 72L813.083 73L813 75L813 76L813 77L813 79L813 81L813.083 83L813.389 85L813.639 86L813.861 87L814.444 89L815.25 91L815.778 92L816.778 94L817.25 95L818.389 97L819.694 99L820.417 100L822.083 102L823.028 102.972L824 103.917L826 105.583L828 107L830 108.306L831 108.889L833 109.722L835 110.194L836 110.389L838 110.778L839 110.917L841 111L842 111L843 111L845 111L847 111L848 111L850 110.972L851 110.917L853 110.528L855 109.833L856 109.444L857 109.167L859 108.528L861 107.5L862 106.75L864 104.972L865.917 103L867.611 101L868.361 100L869.833 98L870.556 97L871.75 95L872.222 94L873.222 92L873.75 91L874.556 89L874.833 88L875.139 87L875.611 85L875.917 83L875.972 82L876 81L876 79L875.972 77L875.917 76L875.611 74L875.389 73L875 71L874.583 69L874 67L873.667 66L873.333 65L872.583 63L871.583 61L870.306 59L869.583 58L867.917 56L866.972 55.0278L866 54.0833L864 52.4167L863 51.6945L861 50.4166L860 49.8889L859 49.4166L857 48.6667L856 48.3333L854 47.6667L852 47L850 46.4167L849 46.2222L848 46.0833L846 46L844 46.0833L842 46.3889M1185 48.4167L1183 49L1181 49.6945L1180 50.0833L1178 51.0555L1176 52.1945L1175 52.8333L1174 53.4445L1172 54.8611L1171 55.6389L1170 56.3889L1168.08 58.0833L1167.22 59.0278L1165.64 61L1164.86 62L1163.47 64L1162.42 66L1162.03 67L1161.42 69L1161.06 71L1160.94 72L1160.78 73L1160.61 74L1160.39 75L1160.08 77L1160.03 78L1160 80L1160.08 82L1160.39 84L1160.81 86L1161.19 88L1161.42 89L1162.03 91L1162.39 92L1162.83 93L1163.28 94L1164.39 96L1165.03 97L1166.39 99L1167.14 100L1168.64 101.917L1169.39 102.778L1171.08 104.306L1173 105.667L1175 106.917L1177 107.917L1178 108.306L1179 108.667L1181 109.333L1183 110L1185 110.583L1187 110.917L1188 110.972L1190 111L1191 111L1193 111L1195 111L1196 111L1197 111L1199 110.917L1201 110.583L1202 110.306L1204 109.583L1206 108.528L1207 107.833L1209 106.361L1211 104.778L1212 103.917C1213.02 102.966 1214.02 101.993 1215 101L1216.92 99L1217.75 98L1218.53 97L1219.14 96L1220.22 94L1220.75 93L1221.56 91L1222.14 89L1222.36 88L1222.61 87L1222.92 85L1223 83L1223 82L1223 79L1223 77L1223 76L1223 75L1222.92 73L1222.53 71L1222.17 70L1221.39 68L1220.58 66L1219.58 64L1218.97 63L1217.67 61L1216.31 59.0278L1215.58 58.0833L1213.92 56.3889L1212.97 55.6111L1211 53.9445L1210 53.0555L1208 51.4722L1206 50.2778L1205 49.8611L1203 49.1667L1202 48.8611L1201 48.6389L1200 48.3889L1198 48.0833L1197 48.0278L1195 48L1194 48L1192 48L1190 48L1189 48L1187 48.0833L1185 48.4167M411 128.417L409 129L408 129.333L406 130.083L405 130.556L404 131.083L403 131.694L402 132.333L401 133L399 134.417L398 135.222L397 136.083L395 138L393.083 140L392.222 141L391.417 142L390.083 144L389.556 145L388.694 147L388.333 148L388 149L387.417 151L387.083 153L387.028 154L387 156L387 157L387 159L387 161L387 162L387 163L387.083 165L387.222 166L387.389 167L387.806 169L388.222 171L388.472 172L389.25 174L389.778 175L390.222 176L390.778 177L391.222 178L391.778 179L392.25 180L393.472 182L394.25 183L396.028 184.917L398 186.583L399 187.278L400 187.917L402 188.944L403 189.361L404 189.806L406 190.528L408 190.917L409 190.972L411 191L413 191.028L414 191.083L416 191.389L417 191.611L419 191.889L420 191.889L422 191.611L423 191.389L425 191.056L426 190.944L428 190.583L430 189.972L431 189.583L433 188.583L435 187.306L436.972 185.778L437.917 184.917L438.778 183.972L439.583 183L441 181L441.667 180L442.972 178L443.583 177L444.583 175L445.389 173L445.806 172L446.528 170L446.778 169L447 168L447.389 166L447.611 165L447.917 163L448 161L447.972 159L447.917 158L447.611 156L447.389 155L447.056 153L446.944 152L446.583 150L446 148L445.667 147L444.972 145L444.167 143L443.722 142L442.528 140L440.917 138L439 136L437 134.083L436 133.222L435 132.417L433 131.083L431 130.083L430 129.722L429 129.417L427 129.083L426 129.028L424 128.917L423 128.778L421 128.389L420 128.222L419 128.083L418 128.028L416 128L415 128L413 128.083L411 128.417M1104 129.389L1103 129.639L1102 129.861L1100 130.444L1098 131.25L1097 131.778L1095 132.833L1094 133.389L1093 134.028L1091 135.417L1089 137.083L1088 138.028L1086.08 140L1084.47 142L1083.28 144L1082.83 145L1082.39 146L1081.69 148L1081.42 149L1081.22 150L1081.06 151L1080.78 153L1080.39 155L1080.08 157L1080.03 158L1080.03 160L1080.08 161L1080.39 163L1080.78 165L1080.92 166L1081.08 168L1081.42 170L1082.03 172L1082.39 173L1082.83 174L1083.25 175L1083.78 176L1084.78 178L1085.25 179L1085.86 180L1086.47 181L1088.08 183L1089.03 184L1091 185.917L1093 187.5L1094 188.056L1095 188.528L1096 188.833L1097 189.139L1098 189.361L1100 189.806L1101 190L1103 190.389L1104 190.611L1106 190.917L1107 190.972L1109 191L1110 191L1113 191L1115 191L1116 191L1117 191L1119 190.917L1121 190.583L1122 190.306L1124 189.611L1126 188.722L1127 188.167L1128 187.611L1130 186.306L1131 185.583L1132.97 183.917L1134.78 182L1136.31 180L1136.97 179L1137.61 178L1138.17 177L1138.72 176L1139.17 175L1140 173L1140.81 171L1141.17 170L1141.75 168L1141.92 167L1142 165L1142 164L1142 163L1142 160L1142 157L1142 156L1142 155L1141.92 153L1141.78 152L1141.58 151L1141.31 150L1140.61 148L1139.75 146L1139.22 145L1138.22 143L1137.75 142L1137.14 141L1136.53 140L1134.92 138L1133.97 137L1133 136L1131 134.083L1129 132.472L1127 131.278L1126 130.861L1124 130.167L1123 129.861L1122 129.639L1121 129.389L1119 129.083L1118 129.028L1116 129L1115 129L1112 129L1109 129L1108 129L1106 129.083L1104 129.389z"/>
<path style="fill:#fa3081; stroke:none;" d="M1266 161L1266 164.056L1266 190L1266.72 189.222L1266.75 188.694L1266.94 187.889L1266.97 186.972L1267 185L1267 184L1267 182L1267 169L1267 167L1267 166L1266.97 164.028L1266.94 163.111L1266.75 162.306L1266.72 161.778L1266 161z"/>
<path style="fill:#fefdfe; stroke:none;" d="M681 207.389L679 207.806L677 208.194L676 208.417L674 209.028L673 209.417L671 210.417L670 211.028L668 212.389L667 213.139L665 214.639L664 215.389L662 217.083L660.083 219L658.389 221L656.861 223L656.167 224L655.444 225L654.833 226L653.639 228L653.083 229L652.278 231L652.028 232L651.611 234L651.389 235L651.083 237L651 239L651 240L651.083 242L651.389 244L651.639 245L651.861 246L652.139 247L652.639 249L652.861 250L653.167 251L653.472 252L654.417 254L655.611 256L656.833 258L657.444 259L658.167 260L659.639 261.972L660.389 262.917L662.083 264.611L664 266.194L665 267L667 268.5L668 269.056L669 269.528L671 270.167L672 270.444L673 270.833L675 271.528L677 271.917L678 271.972L680 272L681 272L684 272L687 272L688 272L690 271.972L691 271.889L693 271.389L695 270.583L697 269.861L698 269.528L700 268.583L702 267.306L703.889 265.778L705.389 264L705.972 263.083L707.056 261.389L708.194 259.806L708.806 259L709.361 258.194L709.944 257.389L710.917 255.778L711.667 253.972L712.306 252L712.611 251L713.139 249L713.361 248L713.639 247L713.861 246L714.139 245L714.611 243L714.917 241L714.972 240L715 239L715 237L714.972 235L714.889 234L714.389 232L713.611 230L713 228L712.306 226L711.111 224L709.611 222L707.917 220L706.083 218L704.389 216.083L702.778 214.389L700.972 212.861L699 211.444L698 210.861L697 210.278L695 209.444L694 209.167L693 208.861L691 208.389L689 208L687 207.611L686 207.389L684 207.111L683 207.111L681 207.389M1023 209.389L1022 209.639L1020 210.167L1019 210.444L1017 211.278L1016 211.861L1015 212.444L1014 213.167L1012 214.639L1011 215.389L1009.03 217.083L1008.08 218.028L1006.39 220L1005.64 221L1004.17 223L1003.44 224L1002.25 226L1001.78 227L1001.25 228L1000.86 229L1000.44 230L1000.17 231L999.861 232L999.389 234L999.083 236L999.028 237L999 238L999 240L999 242L999.028 244L999.083 245L999.389 247L999.639 248L1000.17 250L1000.44 251L1000.83 252L1001.19 253L1002.06 255L1003.08 257L1003.69 258L1005 260L1006.42 262L1007.22 263L1009.03 264.917L1011 266.583L1012 267.306L1014 268.611L1016 269.75L1017 270.222L1018 270.75L1019 271.167L1020 271.611L1022 272.306L1023 272.583L1025 272.917L1027 273L1028 273L1029 273L1031 273L1033 273L1034 273L1035 273L1037 272.917L1038 272.75L1039 272.528L1041 271.75L1042 271.222L1044 270.167L1045 269.611L1047 268.306L1048 267.583L1049.97 265.917L1050.92 264.972L1052.61 263L1053.36 262L1054.86 260L1055.61 259L1056.31 258L1057.61 256L1058.75 254L1059.22 253L1060.22 251L1060.75 250L1061.14 249L1061.53 248L1061.75 247L1061.92 246L1062 244L1062 242L1062 240L1061.97 238L1061.92 237L1061.61 235L1061.36 234L1061.14 233L1060.86 232L1060.61 231L1059.97 229L1059.58 228L1058.58 226L1057.97 225L1056.61 223L1055.86 222L1054.36 220L1053.61 219L1051.92 217L1050 215.083L1049 214.25L1048 213.472L1047 212.861L1046 212.25L1045 211.778L1043 210.778L1042 210.25L1040 209.472L1038 209.083L1036 209L1035 209L1033 209L1031 209L1030 209L1029 209L1027 209L1025 209.083L1023 209.389z"/>
<path style="fill:#3e3a3d; stroke:none;" d="M82 442L80.5 441.917L79.9444 441.778L78.9444 441.611L77 441.139L76 440.861L75 440.639L74 440.389L72 440.056L71 439.944L70 439.778L69 439.611L68 439.389L66 439.083L65 439.028L63 439L61 439L59 439L57 439.028L56 439.083L54 439.389L53 439.611L51 439.917L49 440L47 440.083L45 440.389L44 440.639L43 440.861L42 441.139L40 441.694L38 442.389L37 442.806L35 443.639L34 444.056L32 445.056L31 445.639L29 446.833L28 447.472L26 449.083L24 451L23 452L22 453L20.0833 455L18.4167 457L17.6944 458L16.3056 460L15.6111 461L14.8611 462L13.3889 464L12.0278 466L11.3889 467L10.2778 469L9.38889 471L8.61111 473L7.75 475L7.25 476L6.44444 478L6.16667 479L5.86111 480L5.38889 482L5 484L4.61111 486L4.22222 488L4.08333 489L4 491L4 492L4 495L4 505L4 508L4 510L4.02778 512L4.08333 513L4.38889 515L4.61111 516L4.77778 517L4.94444 518L5.05556 519L5.38889 521L5.63889 522L5.86111 523L6.38889 525L6.69444 526L7.33333 528L8.02778 530L8.38889 531L9.25 533L9.77778 534L10.7778 536L11.25 537L12.3889 539L13.0278 540L14.3333 542L15 543L16.4167 545L18 547L18.8056 547.972L20.3889 549.778L21.2222 550.611L23.0278 552.194L25 553.778L26 554.528L28 555.75L29 556.222L30 556.778L31 557.222L32 557.75L33 558.167L34 558.611L35 558.972L37 559.583L39 559.917L41 560.083L43 560.389L44 560.611L46 560.917L47 560.972L49 561L51 561L54 561L59 561L61 561L62 560.972L63 560.917L65 560.611L67 560.222L68 560.083L70 559.917L72 559.611L73 559.389L74 559.194L76 558.806L77 558.611L78 558.389L80 558.083L81 558.028L83 558L85 558L87 558L89 558L90 558.028L91 558.083L93 558.389L94 558.611L96 558.917L97 558.972L99 559L101 559L102 559L104 558.917L105.917 558.5L107.5 557.5L108.5 555.917L108.778 554.972L109.194 553L109.389 552L109.611 551L109.917 549L110.028 547L110.083 546L110.389 544L110.611 543L110.917 541L110.972 540L111 538L111 537L111 535L111 524L111 461L111 417L111 405L111 401L111 399L110.917 397L110.778 396.056L110.583 395.056L110 393L107.944 393L106.944 393.028L106 393.083L104 393.389L102 393.778L101 393.917L99 394.083L97 394.417L96 394.694L94 395.306L92 395.778L90 396.056L88 396.417L87 396.722L86.0278 397.111L84.3333 398.306L83.7222 399.111L83.3333 400.028L83.1111 401L83 403L83 405L83 410L83 424L83 428L83 429L82.9722 431L82.9167 432L82.6111 434L82.3889 435L82.0833 437L82.0278 438L82 439.944L82 442M287 451L286.472 449.5L286.111 448.944L285.583 447.944L284.389 446L283.806 445L282.528 443.083L280.917 441.5L279.972 440.917L278 440.028L276 439.417L275 439.222L274 439.083L272 439L271.056 439L270.056 439L268 439L267 440L266.972 442.056L266.917 443.056L266.611 445L266.389 446L266.083 448L266.028 449L266 451L266 455L266 465L266 468L266 470L265.917 472L265.611 474L265.389 475L265.083 477L265 479L265 480L265 482L265 488L265 505L265 558L291 558L292 557L292 491L292 489L292.028 487L292.083 486L292.389 484L292.611 483L292.944 481L293.056 480L293.389 478L293.806 476L294.028 475L294.639 473L295.111 472L296.417 470.028L297.222 469.083L298.083 468.222L300 466.694L302 465.417L304 464.5L306 464.083L308 464L310 464L312 464L313 464L315 464.083L317 464.472L318 464.861L320 465.778L322 466.861L323 467.472L325 469.083L326.917 471L327.75 472L328.528 473L329.722 475L330.167 476L330.972 478L331.583 480L331.917 482L332 484L332 486L332.028 488L332.083 489L332.389 491L332.611 492L332.917 494L332.972 495L333 497L333 498L333 500L333 510L333 558L335.056 558.028L336.056 558.083L338 558.389L339 558.611L341 558.917L342 558.972L343 559L345 559L347 559L348 558.972L349 558.917L351 558.611L352 558.389L354 558L355 557.778L355.944 557.556L356.944 557.139L357.5 556.972L359 556L359 541L359 536L359 535L359.028 533L359.083 532L359.389 530L359.611 529L359.917 527L360 525L360 524L360 521L360 513L360 489L360 486L360 485L360 484L360.083 482L360.389 480L360.611 479L360.778 478L361.083 476L361.639 474L362.694 472L363.333 471L364.694 469L366.222 467.083L368.028 465.472L370 464.278L371 463.861L372 463.472L374 463.083L375 463.028L377 463L379 463L380 463.028L381 463.083L383 463.389L384 463.639L386 464.167L387 464.444L389 465.278L390.972 466.472L392.75 468.083L393.528 469.028L394.722 471L395.167 472L395.611 473L395.972 474L396.611 476L396.861 477L397.139 478L397.611 480L397.806 481L398.194 483L398.389 484L398.611 485L398.917 487L398.972 488L399 490L399 491L399 493L399 503L399 506L399.028 508L399.083 509L399.389 511L399.611 512L399.917 514L399.972 515L400 517L400 520L400 530L400 558L402.056 558L403.056 558.028L404 558.083L406 558.389L407 558.611L409 558.917L410 558.972L412 559L414 559L416 559L417 558.972L418 558.917L420 558.611L420.944 558.389L421.944 558.222L422.5 558.083L424 558L424.583 555.944L424.917 554L425.028 552L425.083 551L425.389 549L425.611 548L425.917 546L425.972 545L426 543L426 542L426 538L426 526L426 522L426.028 520L426.083 519L426.389 517L426.611 516L426.917 514L426.972 513L427 511L427 510L427 504L427 488L427 481L427 479L426.972 478L426.917 477L426.611 475L426.389 474L426.083 472L426.028 471L425.917 469L425.778 468L425.611 467L425.361 466L424.861 464L424.611 463L424.306 462L423.611 460L422.75 458L422.222 457L421.75 456L420.528 454L419.75 453L418.917 452L417 450L415 448.028L414 447.083L412 445.472L410 444.25L408 443.222L407 442.778L406 442.25L405 441.833L404 441.389L402 440.611L400 439.833L399 439.444L398 439.167L397 438.861L395 438.389L393 438.083L391 437.917L390 437.778L388 437.389L386 437.083L384 437.083L383 437.222L382 437.417L380 438L379 438.306L378 438.611L376 439.139L375 439.361L374 439.639L373 439.861L371 440.444L369 441.278L368 441.833L366 443.028L365 443.667L364 444.333L362 445.667L361 446.333L359 447.611L358 448.167L356 449.222L355 449.722L353 450.222L351 449.806L349 448.667L347 447.306L346 446.611L344 445.139L343 444.389L341 443.083L339 442.056L338 441.639L336 440.75L335 440.25L333 439.389L331 438.694L330 438.417L328 438L326 437.611L325 437.389L323 437.083L322 437.028L320 437L318 437.083L316 437.472L315 437.833L313 438.528L311 439L309 439.389L307 439.806L306 440L304 440.5L303 440.944L302 441.5L300 443.056L299 443.944L297 445.528L295 446.75L294 447.25L292 448.389L290.056 449.583L289.056 450.111L288.5 450.472L287 451M695 437.389L694 437.639L693 437.861L691 438.444L689 439.167L688 439.556L686 440.139L685 440.389L683 441L682 441.333L681 441.694L680 442.083L678 443.056L677 443.639L676 444.194L675 444.806L674 445.389L672 446.694L670 448.194L669 449L667 450.611L665.083 452.222L663.389 454.028L661.806 456L660.194 458L659.417 459L658 461L657.333 462L656 464L654.667 466L654.028 467L652.833 469L652.278 470L651.833 471L651.389 472L650.611 474L650.194 475L649.472 477L649.222 478L648.722 480L648.389 481L647.611 483L647.306 484L646.944 486L646.778 487L646.611 488L646.389 489L646.083 491L646 493L646 494L646 495L646 497L646 502L646 504L646.083 506L646.222 507L646.389 508L646.778 510L646.917 511L647.028 513L647.083 514L647.25 515L647.472 516L648.167 518L648.528 519L649 521L649.194 522L649.694 524L650.389 526L650.806 527L651.611 529L652.389 531L652.833 532L653.278 533L653.833 534L654.389 535L655.611 537L656.833 539L657.472 540L659.083 542L660.028 543L661.917 545L663.611 546.917L665.222 548.611L666.083 549.389L668 551L669 551.806L670 552.611L671 553.361L673 554.833L674 555.556L676 556.75L677 557.222L678 557.778L679 558.222L680 558.75L682 559.556L684 560.139L685 560.361L686 560.611L688 560.944L689 561.056L691 561.389L692 561.611L694 561.917L696 562L698 562L703 562L704 562L707 562L709 562L711 561.917L713 561.611L714 561.361L716 560.861L717 560.639L718 560.361L719 560.139L720 559.861L721 559.611L723 558.972L725 558.167L726 557.75L727 557.222L729 556.222L730 555.75L731 555.167L732 554.611L733 553.972L735 552.667L736 552L738 550.583L739 549.778L741 547.972L743 546L744 545L745.917 543L747.583 541L748.306 540L749.667 538L750.972 536L751.611 535L752.75 533L753.222 532L753.778 531L754.222 530L754.75 529L755.611 527L755.972 526L756.333 525L757 523L757.667 521L758.306 519L758.583 518L758.944 516L759.056 515L759.222 514L759.389 513L759.611 512L759.917 510L759.972 509L760 507L760 505L760 498L760 493L760 491L759.972 490L759.917 489L759.611 487L759.389 486L759.083 484L758.917 482L758.583 480L758.306 479L757.611 477L757.194 476L756.389 474L756 473L755.167 471L754.75 470L754.222 469L753.222 467L752.75 466L751.611 464L750.972 463L749.611 461L748.861 460L748.139 459L747.361 458L746.611 457L744.917 455L743.972 454L742 452.083L740 450.389L739 449.611L737 448L736 447.222L735 446.472L733 445.278L731 444.389L729 443.611L727 442.806L726 442.361L725 441.944L723 441.028L722 440.583L720 439.861L719 439.556L717 438.806L716 438.389L714 437.694L713 437.417L711 437.083L709 437L708 437L707 437L705 437L702 437L701 437L699 437L697 437.083L695 437.389z"/>
<path style="fill:#fa3081; stroke:none;" d="M780 440L779 441L778.917 442.5L778.778 443.056L778.611 444.056L778.389 445L778.083 447L778.028 448L778 450L778 451L778 453L778 464L778 496L778 498L778 545L778 561L778 566L778 568L778 569L778.083 571L778.389 573L778.611 574L778.917 576L778.972 577L779 579L779 581L779 588L779 608L783 608L799 608L803 608L804.944 608L808 608L808 596L808 592L807.972 590L807.917 589L807.611 587L807.389 586L807.083 584L807.028 583L807 581L807 580L807 575L807 561L811 561L812 561L814 561L815 561.028L816 561.083L818 561.389L819 561.611L821 561.917L822 561.972L823 562L825 562L828 562L830 562L832 561.917L833 561.778L835 561.389L837 561.083L839 561L840 561L842 560.917L843 560.778L844 560.583L846 560L848 559.333L849 559L851 558.389L853 557.833L854 557.528L856 556.611L857 556.056L859 555L861 553.944L863 552.806L864 552.194L865 551.611L867 550.306L868 549.583L870 547.917L872 546L873.917 544L874.75 543L875.528 542L876.75 540L877.25 539L878.361 537L878.944 536L879.917 534L880.278 533L880.611 532L881.222 530L881.583 529L882.028 528L882.917 526L883.278 525L883.583 524L883.806 523L884.194 521L884.611 519L885 517L885.389 515L885.611 514L885.806 513L886.194 511L886.389 510L886.611 509L886.917 507L886.972 506L887 505L887.028 503L887.083 502L887.389 500L887.611 499L887.917 497L888 495L887.917 493L887.611 491L887.222 489L887.083 488L886.917 486L886.611 484L886.194 482L885.806 480L885.583 479L885.306 478L884.667 476L883.917 474L883.472 473L882.528 471L882.083 470L881.333 468L880.972 467L880.611 466L879.722 464L879.167 463L878.611 462L877.389 460L876.167 458L875.528 457L873.917 455L872 453L871 452L869 450.083L868 449.25L867 448.472L865 447.194L863 446.056L862 445.528L860 444.472L858 443.361L857 442.833L856 442.278L855 441.833L854 441.389L852 440.694L851 440.417L850 440.194L848 439.806L846 439.389L844 439.056L843 438.944L841 438.611L840 438.361L838 437.861L837 437.639L836 437.389L834 437.083L832 437L831 437.028L830 437.083L828 437.417L826 438L825 438.306L824 438.611L823 438.861L821 439.389L820 439.694L818 440.306L817 440.611L816 440.861L814 441.361L813 441.611L811 441.917L809 442L808 442L806 441.917L804 441.611L803 441.361L802 441.139L801 440.861L800 440.639L799 440.389L797 440.083L796 440.028L794 440L793 440L791 440L780 440M1237 510L1238.5 509.917L1239.06 509.778L1240.06 509.611L1241 509.389L1243 509.111L1244 509.111L1246 509.389L1247 509.611L1249 509.917L1250 509.972L1252 510L1253 510.028L1254 510.083L1256 510.389L1257 510.611L1259 510.917L1260 510.972L1262 511L1264 511L1272 511L1273 511L1281 511L1285 511L1286 511L1290 511L1291 511L1292 511L1293 511L1294 511L1298 511L1299 511L1301 511L1303 511L1304 511L1306 510.917L1307 510.778L1308 510.611L1310 510.222L1311 510.083L1313 509.972L1314 509.917L1316 509.528L1317.94 508.778L1318.94 508.222L1319.5 508L1321 507L1321 494L1321 491L1321 490L1320.97 488L1320.92 487L1320.61 485L1320.39 484L1320.22 483L1320.06 482L1319.94 481L1319.58 479L1319 477L1318.67 476L1318 474L1317.33 472L1316.97 471L1316.61 470L1315.75 468L1315.22 467L1314.78 466L1314.22 465L1313.75 464L1312.61 462L1311.97 461L1310.61 459L1309.86 458L1308.36 456L1307.61 455L1305.92 453L1304 451.028L1303 450.083L1301 448.417L1300 447.694L1298 446.333L1296 445.028L1295 444.389L1293 443.25L1292 442.778L1291 442.222L1290 441.778L1289 441.25L1287 440.444L1286 440.167L1284 439.556L1282 438.833L1281 438.472L1279 438.083L1277 437.917L1276 437.778L1274 437.389L1273 437.222L1272 437.083L1270 437L1269 437L1267 437L1265 437L1264 437.028L1263 437.083L1261 437.389L1260 437.639L1259 437.861L1258 438.139L1256 438.611L1254 439L1253 439.222L1252 439.472L1251 439.833L1249 440.611L1247 441.389L1246 441.806L1245 442.194L1244 442.611L1242 443.333L1241 443.667L1239 444.389L1238 444.833L1237 445.278L1236 445.833L1235 446.389L1234 447.028L1232 448.333L1230 449.694L1228 451.222L1226.08 453.028L1224.39 455L1223.61 456L1222 458L1220.42 460L1219.69 461L1218.39 463L1217.81 464L1216.61 466L1215.39 468L1214.83 469L1214.25 470L1213.78 471L1212.75 473L1212.17 474L1211.64 475L1211.06 476L1210.08 478L1209.69 479L1209.33 480L1209 481L1208.39 483L1208.14 484L1207.61 486L1207.31 487L1206.69 489L1206.42 490L1206.08 492L1206 494L1206 496L1206 498L1206 502L1206 504L1206 505L1206.03 507L1206.08 508L1206.39 510L1206.61 511L1206.94 513L1207.06 514L1207.39 516L1207.61 517L1207.94 519L1208.06 520L1208.42 522L1208.69 523L1209.33 525L1210.03 527L1210.39 528L1211.25 530L1211.78 531L1212.22 532L1212.78 533L1213.25 534L1214.39 536L1215.69 538L1216.42 539L1218.08 541L1219.03 542L1221 544L1223 546L1224 546.972L1226 548.778L1227 549.583L1228 550.306L1230 551.694L1231 552.389L1232 553.139L1234 554.556L1236 555.75L1237 556.222L1238 556.75L1240 557.556L1241 557.833L1243 558.444L1245 559.167L1246 559.528L1248 559.944L1249 560.056L1251 560.389L1252 560.639L1254 561.139L1255 561.361L1256 561.611L1258 561.917L1260 562L1262 562L1264 562L1268 562L1269 562L1273 562L1274 562L1276 562L1277 561.972L1278 561.917L1280 561.611L1281 561.389L1283 561L1285 560.611L1287 560.139L1288 559.861L1289 559.639L1290 559.361L1291 559.139L1293 558.556L1295 557.75L1296 557.25L1298 556.389L1300 555.583L1302 554.5L1303.89 552.917L1305.28 551L1305.89 549L1306 547L1305.92 545L1305.53 543L1305.17 542L1304.39 540L1303.61 538L1302.72 536L1302.17 535L1300.97 533.083L1299.58 531.5L1297.92 530.5L1296 530.111L1295 530.111L1293 530.472L1291 531.278L1290 531.833L1288 532.944L1286 533.917L1284 534.611L1282 535.139L1281 535.361L1280 535.611L1278 535.917L1276 536.028L1275 536.083L1274 536.222L1272 536.611L1270 536.917L1268 536.917L1266 536.611L1265 536.361L1263 535.861L1262 535.639L1261 535.361L1260 535.139L1259 534.861L1257 534.389L1256 534.194L1254 533.722L1253 533.361L1251 532.361L1249 531.167L1248 530.556L1246 529.139L1245.03 528.361L1243.22 526.778L1242.42 525.917L1241.69 524.972L1240.39 523L1239.83 522L1239.28 521L1238.83 520L1238.39 519L1237.69 517L1237.42 516L1237.08 514L1237.03 513.056L1237 512.056L1237 510M1393 437.389L1392 437.611L1390 437.944L1389 438.056L1387 438.389L1385 438.806L1383 439.194L1382 439.417L1381 439.694L1379 440.389L1378 440.806L1376 441.556L1375 441.833L1373 442.444L1372 442.833L1370 443.611L1368 444.389L1367 444.833L1366 445.25L1365 445.778L1364 446.222L1363 446.778L1362 447.25L1360 448.444L1359 449.167L1357 450.639L1356 451.389L1354.08 453.083L1352.39 455L1351.64 456L1350.86 457L1350.14 458L1349.39 459L1348.03 461L1347.39 462L1346.25 464L1345.75 465L1344.61 467L1343.39 469L1342.83 470L1342.25 471L1341.22 473L1340.78 474L1340.22 475L1339.78 476L1339.25 477L1338.44 479L1338.17 480L1337.86 481L1337.39 483L1337.06 485L1336.94 486L1336.78 487L1336.61 488L1336.39 489L1336.08 491L1336.03 492L1336 494L1336 496L1336 504L1336 509L1336 511L1336.03 512L1336.08 513L1336.39 515L1336.61 516L1336.78 517L1336.94 518L1337.06 519L1337.42 521L1338 523L1338.61 525L1339.17 527L1339.44 528L1340.25 530L1340.78 531L1341.22 532L1341.78 533L1342.25 534L1343.39 536L1344.03 537L1345.33 539L1346.69 541L1347.42 542L1349.08 544L1350.03 545L1352 546.917L1354 548.611L1355 549.361L1357 550.861L1358 551.611L1359 552.306L1361 553.611L1363 554.75L1364 555.222L1365 555.778L1366 556.222L1367 556.75L1368 557.167L1369 557.611L1371 558.306L1372 558.583L1373 558.806L1375 559.194L1377 559.611L1379 559.944L1380 560.056L1382 560.389L1383 560.611L1384 560.806L1386 561.194L1387 561.389L1388 561.611L1390 561.917L1391 561.972L1393 562L1394 562L1396 562L1398 562L1400 561.972L1401 561.917L1403 561.611L1404 561.389L1406 561.056L1407 560.944L1409 560.611L1410 560.389L1412 560L1414 559.611L1415 559.361L1416 559.139L1418 558.556L1419 558.167L1421 557.444L1422 557.139L1424 556.417L1425 555.972L1426 555.5L1427 555L1429 553.917L1430 553.278L1431.89 551.778L1433.28 549.972L1433.89 548L1433.97 547L1433.92 545L1433.53 543L1433.17 542L1432.47 540L1432.22 539L1431.78 537L1431.53 536L1430.72 534L1430.14 533L1428.75 531.111L1426.97 529.75L1426 529.417L1424 529.5L1422 530.278L1421 530.861L1420 531.444L1418 532.833L1417 533.528L1415 534.583L1413 535.306L1411 535.861L1409 536.361L1408 536.639L1407 536.861L1406 537.139L1405 537.361L1404 537.611L1402 537.917L1401 537.972L1399 538L1397 538L1395 538L1393 538L1392 537.972L1391 537.917L1389 537.611L1388 537.389L1387 537.194L1385 536.778L1384 536.528L1382 535.722L1381 535.139L1380 534.528L1379 533.75L1378 532.917L1376 531L1374.08 529L1373.22 528L1372.42 527L1371.69 526L1370.39 524L1369.28 522L1368.83 521L1368.39 520L1367.61 518L1366.83 516L1366.44 515L1366.17 514L1365.86 513L1365.39 511L1365.19 510L1364.81 508L1364.61 507L1364.39 506L1364.08 504L1364.03 503L1364 501L1364 500L1364.08 498L1364.39 496L1364.61 495L1364.78 494L1364.94 493L1365.06 492L1365.39 490L1365.86 488L1366.17 487L1366.44 486L1367.25 484L1367.78 483L1368.22 482L1368.78 481L1369.25 480L1370.39 478L1371.69 476L1372.42 475L1374.08 473.083L1376 471.389L1377 470.639L1379 469.139L1380 468.389L1382 467.083L1384 466.083L1386 465.417L1387 465.222L1388 465.083L1390 465L1391 465L1392 465L1394 465L1396 465L1397 465L1399 465L1401 465.028L1402 465.083L1404 465.389L1405 465.611L1407 465.944L1408 466.056L1410 466.417L1412 467.028L1414 467.806L1415 468.194L1416 468.611L1418 469.306L1419 469.583L1420 469.778L1422 469.972L1424 469.889L1425 469.667L1425.97 469.278L1427.69 467.889L1428.89 466L1429.31 465L1429.67 464L1430.39 462L1431.17 460L1431.53 459L1431.92 457L1432 455L1431.97 454L1431.75 452L1431.5 451L1430.5 449.083L1428.92 447.417L1427.97 446.694L1426 445.389L1425 444.806L1423 443.611L1421 442.389L1419 441.278L1417 440.389L1416 440.028L1414 439.417L1412 439L1411 438.806L1410 438.611L1408 438.139L1407 437.861L1406 437.639L1404 437.222L1403 437.083L1401 437L1399 437L1397 437L1395 437.083L1393 437.389z"/>
<path style="fill:#3e3a3d; stroke:none;" d="M177 438.417L176 438.694L175 439L173 439.667L171 440.306L170 440.583L168 441L166 441.472L164 442.25L163 442.778L161 443.778L160 444.222L159 444.778L158 445.25L156 446.389L155 447.028L153 448.417L151 450.083L149 452L148 453L146.028 455L145.083 456L143.389 458L141.861 460L141.167 461L140.444 462L139.25 464L138.778 465L138.222 466L137.778 467L136.778 469L136.25 470L135.833 471L135.389 472L134.611 474L133.833 476L133.444 477L133.167 478L132.861 479L132.639 480L132.139 482L131.861 483L131.389 485L131.194 486L130.806 488L130.611 489L130.389 490L130.083 492L130.028 493L130 495L130 496L130 498L130 500L130.028 502L130.083 503L130.389 505L130.611 506L130.917 508L130.972 509L131.028 511L131.083 512L131.389 514L131.611 515L131.806 516L132.194 518L132.389 519L132.611 520L133 522L133.417 524L133.694 525L134.389 527L134.806 528L135.611 530L136.389 532L136.833 533L137.25 534L137.778 535L138.25 536L139.389 538L140.028 539L141.333 541L142.694 543L143.417 544L145.083 546L147 548L148 548.972L149 549.917L151 551.583L153 552.972L154 553.611L156 554.75L157 555.222L159 556.222L160 556.75L162 557.611L164 558.306L165 558.611L166 558.861L168 559.361L169 559.611L171 559.944L172 560.056L173 560.222L174 560.389L175 560.611L177 560.917L178 560.972L180 561L181 561L184 561L190 561L192 561L193 561L195 560.917L196 560.778L197 560.611L199 560.222L200 560.083L202 559.917L204 559.528L205 559.167L207 558.389L209 557.611L210 557.167L211 556.75L212 556.222L213 555.75L214 555.167L215 554.611L216 553.972L218 552.667L220 551.306L221 550.611L222 549.861L224 548.361L225 547.611L226.917 545.917L227.778 544.972L228.611 544L230.194 542L231.806 540L232.583 539L233.972 537L234.611 536L235.75 534L236.222 533L236.778 532L237.222 531L237.75 530L238.611 528L238.972 527L239.333 526L240 524L240.667 522L241 521L241.583 519L241.917 517L242.028 515L242.083 514L242.389 512L242.611 511L242.917 509L242.972 508L243 507L243 505L243 499L243 496L243 494L242.972 492L242.917 491L242.611 489L242.389 488L242.056 486L241.944 485L241.611 483L241.139 481L240.861 480L240.639 479L240.361 478L240.139 477L239.611 475L238.972 473L238.611 472L237.75 470L237.222 469L236.778 468L236.222 467L235.778 466L235.222 465L234.75 464L233.611 462L232.972 461L231.611 459L230.861 458L229.361 456L228.611 455L226.917 453.028L225.972 452.083L224 450.389L223 449.639L222 448.861L220 447.444L218 446.25L217 445.778L215 444.778L214 444.222L213 443.778L212 443.25L210 442.389L209 442.028L207 441.333L205 440.694L204 440.389L202 439.861L201 439.639L200 439.361L199 439.139L198 438.861L197 438.639L196 438.389L194 438.083L193 438.028L192 438L190 438L185 438L183 438L182 438L181 438L179 438.083L177 438.417M545 448L544.722 446.5L544.528 445.944L543.722 444.083L543.139 443.25L542.528 442.5L540.917 441.472L539.972 441.167L539 440.861L538 440.639L536 440.222L535 440.083L533 439.917L532 439.778L530 439.417L529 439.333L528.028 439.417L527.083 439.75L526.25 440.333L524.861 442.028L524.278 443L523.472 445L523.083 447L523 449L523 450L523 452L523 460L523 484L523 558L526.056 558L528 558L530 558.028L531 558.083L533 558.389L535 558.778L536 558.917L538 559L540 558.972L541 558.917L543 558.611L544 558.389L545.944 558.083L546.944 558.028L549 558L550 557L550 498L550 488L550 486L550 485L550 484L550.083 482L550.222 481L550.611 479L551.028 477L551.278 476L552.111 474L552.722 473.028L553.417 472.083L555.083 470.417L556.028 469.694L558 468.333L560 467.028L561 466.417L563 465.5L564 465.222L565 465L567 464.611L568 464.389L570 464.083L572 464L573 464L574 464L575 464L577 464.083L578 464.222L580 464.611L581 464.806L582 465L584 465.5L586 466.5L587.917 468.083L589.583 470L590.972 472L592.167 474L592.722 475L593.556 477L593.833 478L594.139 479L594.611 481L594.778 482L595 484L595.083 485L595.389 487L595.611 488L595.917 490L595.972 491L596 493L596 494L596 497L596 510L596 513L596 514L596.028 516L596.083 517L596.389 519L596.778 521L596.917 522L597 524L597 526L597 530L597 531L597 541L597 545L597.028 547L597.083 548L597.389 550L597.611 551L597.917 553L597.972 554L598 555.944L598 558L599.5 558.25L601.056 558.611L603 558.917L604 558.972L606 559L608 559L612 559L614 559L616 558.917L618 558.583L619 558.278L619.972 557.889L621.667 556.694L622.278 555.889L622.694 554.972L623.194 553L623.389 552L623.611 551L623.917 549L623.972 548L624 546L624 544L624 543L624.028 542L624.083 541L624.389 539L624.611 538L624.917 536L624.972 535L625 533L625 532L625 529L625 491L625 482L625 480L625 479L624.972 477L624.917 476L624.611 474L624.361 473L624.139 472L623.861 471L623.389 469L623 467L622.778 466L622.528 465L621.75 463L621.222 462L620.222 460L619.75 459L618.556 457L617.833 456L616.361 454L615.611 453L613.917 451.083L612 449.389L611 448.611L610 447.778L608 446.056L607 445.25L606 444.472L604 443.25L603 442.778L602 442.25L600 441.444L599 441.167L598 440.861L596 440.306L594 439.611L593 439.194L591 438.472L589 438.083L588 438.028L586 438L584 438L580 438L577 438L576 438L575 438L573 438.083L571 438.417L569 439L568 439.333L566 440L564 440.667L563 441L561 441.694L560 442.083L558 443.056L557 443.639L556 444.167L555 444.75L554 445.222L553 445.75L551 446.528L549 447L548.056 447.194L547.056 447.417L545 448z"/>
<path style="fill:#fa3081; stroke:none;" d="M936 446L935.667 444.5L934.889 443.028L933.583 441.472L931.917 440.278L930.972 439.861L930 439.472L928 439.083L926 439L925 439L923 439L922 439.028L921 439.083L919 439.389L918.056 439.611L917.056 439.778L916.5 439.917L915 440L914.306 441.5L913.944 442.056L912.917 444L912.5 445L912.083 447L912 449L911.972 451L911.917 452L911.611 454L911.389 455L911.083 457L911.028 458L911 460L911 461L911 463L911 464L911 473L911 475L911 476L910.972 478L910.917 479L910.611 481L910.389 482L910.083 484L910.028 485L910 487L910 489L910 495L910 503L910 506L910 507L910.083 509L910.222 510L910.611 512L910.917 514L910.972 515L911 517L911 519L911 527L911 528L911 529L911 546L911 549L911 551L911 552L911.083 554L911.444 555.944L912.028 557.5L913 559L914.5 559.028L916.056 559.222L918 559.611L920 559.917L921 559.972L923 560L924 560L926 560L928 560L929 560L931 559.972L932 559.917L934 559.528L935.944 558.806L936.5 558.5L938 558L938 554L938 548L938 546L938 545L937.972 543L937.917 542L937.611 540L937.222 538L937.083 537L937 535L937 534L937 532L937 525L937 522L937 520L937.028 518L937.083 517L937.389 515L937.778 513L937.917 512L938 510L938 509L938 507L938 501L938 499L938.028 497L938.083 496L938.389 494L938.611 493L938.917 491L938.972 490L939.028 488L939.083 487L939.389 485L939.861 483L940.139 482L940.389 481L941.028 479L941.417 478L942.417 476L943.028 475L944.417 473L945.222 472L947.028 470L949 468.083L950 467.25L951 466.5L953 465.472L955 464.861L956 464.611L957 464.306L958 464L960 463.417L962 463.167L963 463.25L965 463.639L966 463.889L968 464.667L969 465.222L971 466.306L972 466.667L973 466.889L975 466.917L977 466.528L978 466.167L979.972 465.361L980.917 464.917L982.583 463.694L983.972 461.972L984.583 461L985.528 459L985.833 458L986.389 456L986.694 455L987 454L987.583 452L987.778 451L987.972 449L988 447L988 446L987.917 444L987.5 442.028L986.5 440.306L984.917 439.111L983 438.417L982 438.222L981 438.083L979 438L978 438L977 438L975 438L974 438L972 438.083L971 438.222L970 438.389L968 438.778L967 438.917L965 439.083L964 439.222L963 439.389L961 439.861L960 440.139L959 440.361L958 440.639L956 441.167L955 441.444L953 442.25L952 442.778L951 443.222L950 443.778L949 444.222L948 444.75L946 445.528L944 445.917L942 446L941 446L939.056 446L937.5 446L936 446M1049 438.389L1047 438.806L1045 439.194L1044 439.417L1043 439.694L1041 440.306L1040 440.583L1039 440.806L1037 441.194L1036 441.417L1034 442L1033 442.333L1032 442.667L1030 443.417L1029 443.889L1028 444.417L1026 445.667L1024 447L1022 448.417L1021 449.194L1020 450L1018.08 451.611L1017.22 452.389L1015.61 454.083L1013.94 456L1012.25 458L1011.47 459L1010.86 460L1010.25 461L1009.75 462L1008.61 464L1007.97 465L1007.33 466L1006.03 468L1005.42 469L1004.42 471L1003.67 473L1003.33 474L1002.97 475L1002.19 477L1001.83 478L1001.47 479L1001.08 481L1000.92 483L1000.61 485L1000.36 486L1000.14 487L999.861 488L999.639 489L999.389 490L999.083 492L999.028 493L999 495L999 497L999 500L999 505L999 507L999.028 508L999.083 509L999.389 511L999.611 512L999.944 514L1000.06 515L1000.42 517L1000.69 518L1001.31 520L1001.61 521L1002.22 523L1002.58 524L1003.42 526L1003.81 527L1004.58 529L1005.47 531L1005.94 532L1006.36 533L1007.28 535L1008.39 537L1009.03 538L1010.33 540L1011.69 542L1012.42 543L1014.08 545L1016 547L1018 548.972L1020 550.778L1021 551.583L1022 552.306L1024 553.667L1025 554.306L1026 554.917L1028 556L1029 556.5L1031 557.389L1032 557.722L1034 558.194L1035 558.389L1037 558.861L1038 559.139L1039 559.361L1040 559.611L1042 559.944L1043 560.056L1045 560.389L1046 560.611L1048 560.917L1050 561.083L1051 561.222L1053 561.611L1054 561.778L1055 561.917L1057 562L1058 562L1059 562L1060 562L1062 561.917L1064 561.611L1065 561.361L1066 561.139L1067 560.861L1069 560.389L1070 560.194L1072 559.806L1073 559.583L1075 559L1076 558.667L1078 557.917L1080 556.944L1081 556.361L1082 555.833L1083 555.25L1084 554.778L1085 554.222L1086 553.75L1088 552.611L1090 551.306L1091 550.583L1093 548.917L1094.97 547L1095.92 546L1096.78 545L1097.58 544L1099 542L1099.67 541L1100.97 539L1101.61 538L1102.17 537L1102.75 536L1103.22 535L1103.75 534L1104.17 533L1104.61 532L1105.39 530L1106.17 528L1106.56 527L1106.83 526L1107.14 525L1107.36 524L1107.86 522L1108.36 520L1108.64 519L1108.86 518L1109.14 517L1109.61 515L1109.92 513L1110.08 511L1110.39 509L1110.61 508L1110.92 506L1110.97 505L1111.08 503L1111.22 502L1111.61 500L1111.78 499L1111.92 498L1112 496L1112 495L1112 494L1111.97 492L1111.92 491L1111.61 489L1111.39 488L1111.22 487L1110.94 485L1110.58 483L1110.31 482L1109.61 480L1109.19 479L1108.39 477L1107.61 475L1107.19 474L1106.39 472L1105.61 470L1105.19 469L1104.81 468L1104.36 467L1103.44 465L1102.92 464L1101.67 462L1100.33 460L1099 458L1098.31 457L1097.58 456L1095.92 454L1094 452L1093 451.028L1092 450.083L1090 448.417L1088 447.028L1087 446.389L1086 445.833L1085 445.278L1084 444.833L1083 444.389L1081 443.611L1079 442.75L1078 442.25L1077 441.833L1075 441.028L1073 440.389L1072 440.139L1070 439.639L1069 439.389L1068 439.222L1066 439L1065 438.917L1063 438.611L1062 438.389L1060 438.083L1059 438.028L1058 438L1056 438L1054 438L1053 438L1051 438.083L1049 438.389M1133 441L1132.39 443.056L1132.14 444.056L1131.86 445L1131.64 446L1131.39 447L1131.08 449L1131.03 450L1131.08 452L1131.39 454L1131.61 455L1131.92 457L1131.97 458L1132 459.944L1132 462L1133.5 462.25L1134.06 462.389L1136 462.778L1137 462.917L1139 463.083L1140 463.222L1142 463.611L1144 463.917L1146 464.083L1147 464.25L1148 464.5L1149.89 465.5L1151.36 467.083L1152.28 469L1152.58 470L1152.92 472L1152.97 473L1153.08 475L1153.39 477L1153.61 478L1153.92 480L1153.97 481L1154 482L1154 484L1154 490L1154 493L1154 496L1154 524L1154 525L1154 535L1154 538L1154 539L1153.97 541L1153.92 542L1153.61 544L1153.39 545L1153.08 547L1153.03 548L1153 550L1153 552L1153 558L1153 560L1153 562L1152.97 563L1152.92 564L1152.58 566L1151.97 568L1151.58 569L1151.08 570L1150.5 571L1148.92 572.917L1147.97 573.778L1147 574.583L1145 575.889L1144 576.389L1142 577.111L1141 577.361L1140 577.639L1139 577.861L1137 578.361L1136 578.611L1134 578.944L1133 579.056L1131 579.389L1130 579.611L1128 579.944L1127 580.056L1125 580.389L1123 580.806L1121 581.194L1119.06 581.667L1118.06 582.028L1117.5 582.194L1116 583L1116 589L1116 591L1116.03 592L1116.08 593L1116.42 595L1117 597L1117.58 599L1117.78 600L1117.92 601L1118 603L1118 604L1118 604.944L1118 608L1120.06 608L1121.06 608L1124 608L1125 608L1126 608L1130 608L1131 608L1133 608L1138 608L1140 608L1140.94 608L1141.94 608L1144 608L1144.25 606.5L1144.61 604.944L1144.92 603L1144.97 602.056L1145 601.056L1145 599L1147.06 599L1148.06 599L1150 599L1152 599L1153 598.972L1154 598.917L1156 598.583L1157 598.306L1159 597.611L1160 597.194L1162 596.361L1163 595.917L1165 594.778L1167 593.361L1168.92 591.778L1170.61 589.972L1171.36 589L1172.83 587L1173.56 586L1174.75 584L1175.22 583L1175.75 582L1176.17 581L1176.61 580L1177.31 578L1177.61 577L1177.86 576L1178.44 574L1178.83 573L1179.17 572L1179.75 570L1179.92 569L1179.97 568L1180.08 566L1180.22 565L1180.61 563L1180.92 561L1180.97 560L1181 558L1181 553L1181 552L1181.03 550L1181.08 549L1181.39 547L1181.61 546L1181.92 544L1181.97 543L1182 541L1182 538L1182 530L1182 506L1182 500L1182 498L1182.03 497L1182.08 496L1182.39 494L1182.61 493L1182.92 491L1182.97 490L1183 489L1183 487L1183 480L1183 465L1183 460L1183 458L1182.97 457L1182.92 456L1182.61 454L1182.39 453L1182.08 451L1182.03 450L1182 448L1181.97 446L1181.92 445L1181.58 443L1181.33 442.056L1180.97 441.056L1180.81 440.5L1180 439L1177.94 439L1175 439L1173 439L1171 439L1167 439L1166 439L1164 439L1162 439L1161 439L1159 439L1158 439L1156 439.028L1155 439.083L1153 439.389L1152 439.611L1150 439.917L1149 439.972L1147 440L1146 440L1144 440L1143 440L1141 440L1139 440.028L1138 440.083L1136.06 440.389L1134.5 440.75L1133 441z"/>
<path style="fill:#3e3a3d; stroke:none;" d="M449 460L450 461L451.5 461.083L453.056 461.472L455 462.25L456 462.75L457.944 463.528L459.5 463.917L461 464L461 466.056L461.028 467.056L461.083 468L461.389 470L461.611 471L461.917 473L461.972 474L462 475L462 477L462 483L462 484L462.028 486L462.083 487L462.389 489L462.611 490L462.917 492L462.972 493L463 495L463 499L463 509L463 531L463 538L463 541L463 542L463 544L463.028 545L463.083 546L463.389 548L463.611 549L463.917 551L463.972 552L464 554L464 554.944L464 558L466.056 558.611L467.056 558.861L468 559.139L469 559.361L471 559.778L472 559.917L474 560L476 560L478 560L480 559.972L481 559.917L483 559.611L484 559.361L485 559.111L486.889 558.306L487.667 557.667L488.278 556.889L488.667 555.972L488.889 555L489 553L489 552L489 549L489 548L489.083 546L489.222 545L489.611 543L489.917 541L489.972 540L490 538L490 537L490 535L490 526L490 523L490 521L490.028 519L490.083 518L490.389 516L490.778 514L490.917 513L491 511L491 510L491 508L491 502L491 483L491 464L491 458L491 456L491 455L490.917 453L490.778 452L490.389 450L490.083 448L490.028 447L490 445L490 444.056L490 441L489 440L485.944 440L485 440L483 440.028L482 440.083L480 440.389L479 440.611L477 440.917L476 440.972L474 441L471 441L461 441L459 441L458 441L456 441.083L454 441.417L453.028 441.722L452.111 442.111L450.639 443.306L449.722 445.028L449.417 446L449.083 448L449.028 449L449 451L449 453L449 460z"/>
<path style="fill:#fa3081; stroke:none;" d="M1448 441L1447 442L1447 445.056L1447 447L1447.03 449L1447.08 450L1447.39 452L1447.61 453L1447.92 455L1447.97 456L1448.11 458L1448.72 459.917L1449.33 460.778L1451.03 462.278L1452 462.917L1454 463.917L1456 464.583L1456.94 464.778L1458.5 464.972L1460 465L1461 466L1461 470L1461 472L1461 475L1461 483L1461 515L1461 529L1461 531L1461 532L1461 533L1461.08 535L1461.22 536L1461.42 537L1462.03 539L1462.42 540L1463.42 542L1464.03 543L1465.39 545L1466.14 546L1466.86 547L1468.39 548.972L1470.08 550.778L1472 552.361L1474 553.833L1475 554.556L1477 555.806L1479 556.917L1480 557.389L1482 558.139L1483 558.444L1485 559.167L1486 559.528L1488 559.917L1490 560.083L1492 560.389L1493 560.611L1495 560.944L1496 561.056L1498 561.389L1499 561.611L1501 561.917L1502 561.972L1504 562L1505 562L1507 562L1509 562L1510 562L1512 561.972L1513 561.889L1515 561.389L1517 560.611L1519 560.111L1520 560.028L1521 560L1523 560L1524.94 560L1526.5 560L1528 560L1528 533L1525.94 533L1524.94 533L1524 533L1522 533L1520 533.083L1519 533.222L1517 533.611L1515 533.944L1514 534.056L1512 534.389L1511 534.639L1510 534.861L1509 535.139L1508 535.361L1507 535.611L1505 535.917L1504 535.972L1503 536L1501 536L1499 536L1498 536L1494 536L1493.72 534.5L1493.14 532.944L1492.75 532L1492.25 531L1491.44 529L1491.17 528L1490.86 527L1490.39 525L1490.06 523L1489.94 522L1489.61 520L1489.39 519L1489.08 517L1489.03 516L1489 514L1489 512L1489 504L1489 490L1489 486L1489 485L1489.03 483L1489.08 482L1489.39 480L1489.61 479L1489.92 477L1489.97 476L1490 474L1490 472L1490 464L1491 463L1493.06 463L1495 463.028L1496 463.083L1498 463.389L1499 463.611L1501 463.917L1502 463.972L1504 464L1506 464L1507 464L1509 464L1511 463.972L1512 463.917L1514 463.611L1514.94 463.389L1515.94 463.222L1516.5 463.083L1518 463L1518.25 461.5L1518.64 459.944L1518.86 459L1519.14 458L1519.36 457L1519.61 456L1519.92 454L1519.97 453L1520 452L1520 450L1520 448L1519.97 447L1519.92 446L1519.61 444.056L1519.25 442.5L1519 441L1516.94 440.417L1515.94 440.222L1515 440.083L1513 440L1512 440L1511 440L1508 440L1506 440L1498 440L1496 440L1495 440L1487 440L1485 440L1484 440L1483 440L1481 440L1480 440L1478 440L1477 440L1473 440L1471 440L1463 440L1460 440L1459 440L1457 440.083L1455 440.389L1454 440.611L1452 440.917L1451.06 440.972L1450.06 441L1448 441z"/>
<path style="fill:#fefdfe; stroke:none;" d="M180 463.472L179 463.861L178 464.25L177 464.778L175 465.833L174 466.389L172 467.694L171 468.417L169 470.083L167.083 472L165.472 474L164.861 475L164.25 476L163.778 477L162.778 479L162.25 480L161.472 482L161.056 484L160.944 485L160.611 487L160.389 488L160.056 490L159.944 491L159.611 493L159.389 494L159.083 496L159.028 497L159 499L159 501L159 503L159 504L159.083 506L159.222 507L159.389 508L159.778 510L159.917 511L160.083 513L160.472 515L160.833 516L161.611 518L162.389 520L162.833 521L163.778 523L164.222 524L164.778 525L165.25 526L166.389 528L167.694 530L168.417 531L169.222 532L171.028 533.917L173 535.528L174 536.139L175 536.722L177 537.556L178 537.833L180 538.361L181 538.611L183 538.917L185 539L186 539L188 538.917L190 538.611L191 538.361L192 538.139L194 537.556L196 536.75L197 536.222L199 535.139L200 534.528L201 533.75L202 532.917L203.972 531L205.778 529L206.583 528L207.306 527L208.611 525L209.167 524L209.722 523L210.167 522L210.611 521L210.972 520L211.667 518L212.306 516L212.583 515L212.917 513L213 511L213 509L213.028 508L213.083 507L213.389 505L213.611 504L213.917 502L213.972 501L214 500L213.917 498L213.611 496L213.222 494L213.083 493L212.917 491L212.583 489L212.306 488L211.694 486L211.389 485L210.861 483L210.611 482L209.972 480L209.611 479L208.75 477L208.222 476L207.75 475L207.167 474L205.972 472L204.583 470L202.917 468.083L201 466.417L200 465.722L199 465.111L197 464.278L195 463.806L194 463.611L193 463.389L191 463.083L190 463.028L189 463L187 463L185 463L184 463L182 463.083L180 463.472M1048 463.611L1046 464.417L1045 464.806L1043 465.694L1041.08 467.111L1040.22 468.028L1038.61 470L1036.92 472L1035.03 474L1034.08 475L1032.42 477L1031.08 479L1030.56 480L1030.08 481L1029.33 483C1028.99 483.988 1028.68 484.989 1028.42 486L1028.22 487L1028.08 488L1027.97 490L1027.92 491L1027.78 492L1027.39 494L1027.22 495L1027.08 496L1027 498L1027 499L1027 500L1027 503L1027 505L1027 506L1027.08 508L1027.42 510L1028 512L1028.31 513L1028.61 514L1029.14 516L1029.39 517L1029.69 518L1030.39 520L1030.83 521L1031.78 523L1032.22 524L1032.78 525L1033.22 526L1033.78 527L1034.25 528L1035.47 530L1036.25 531L1038.03 532.972L1040 534.778L1041 535.583L1043 536.917L1045 537.917L1047 538.583L1049 538.917L1051 539L1052 539L1054 539L1056 539L1057 539L1059 538.917L1061 538.528L1062 538.167L1064 537.389L1066 536.583L1067 536.083L1068 535.5L1069 534.778L1069.97 534L1070.92 533.194L1072.58 531.611L1073.31 530.778L1074.61 528.972L1075.17 528L1075.75 527L1076.22 526L1077.22 524L1077.75 523L1078.53 521L1078.94 519L1079.06 518L1079.39 516L1079.64 515L1079.86 514L1080.14 513L1080.61 511L1080.81 510L1081.19 508L1081.39 507L1081.61 506L1081.92 504L1081.97 503L1082 501L1082 499L1082 496L1082 493L1082 492L1082 491L1081.92 489L1081.78 488L1081.58 487L1081 485L1080.39 483L1080.14 482L1079.53 480L1079.06 479L1078.5 478L1076.94 476L1075.22 474L1073.61 472.028L1072.78 471.083L1071.92 470.222L1070.97 469.417L1070 468.694L1068 467.333L1066 466.028L1065 465.389L1063 464.278L1062 463.861L1061 463.472L1060 463.25L1059 463.083L1057 463L1056 463L1054 463L1052 463L1051 463.028L1050 463.111L1048 463.611M57 464.389L56 464.639L54 465.139L53 465.389L51 466.083L50 466.556L48 467.694L46 469L44 470.417L42 472.083L40.0833 474L38.4167 476L37.6944 477L36.4167 479L35.4167 481L35.0278 482L34.3889 484L34.1389 485L33.6389 487L33.3611 488L33.1389 489L32.6389 491L32.3889 492L32.0833 494L32.0278 495L32 497L32 499L32 501L32 502L32 503L32.0833 505L32.3889 507L32.6111 508L32.7778 509L33.0556 511L33.2222 512L33.4167 513L33.6944 514L34.3889 516L34.8056 517L35.6111 519L36.4167 521L36.8889 522L38.0278 524L39.3333 526L40 527L41.4167 529L43.0833 530.917L44.0278 531.75L45 532.528L47 533.75L48 534.222L49 534.75L51 535.611L53 536.306L54 536.583L56 536.917L57 536.972L59 537L60 537L63 537L65 537L66 537L67 537L69 536.917L71 536.611L72 536.389L73 536.222L75 535.917L77 535.278L78.8889 533.889L80.3611 532L80.8889 531L81.5833 529L81.9444 527L82.0556 526L82.3889 524L82.6111 523L82.9167 521L82.9722 520L83 518L83 516L83 509L83 492L83 486L83 484L82.9167 482L82.6111 480L82.3889 479L82.0833 477L81.9167 475L81.7778 474L81.3056 472L80.9722 471L80.0833 469.083L79.5 468.25L78.75 467.472L76.9722 466.278L75 465.472L73 465.083L72 465.028L70 464.972L69 464.917L67 464.611L66 464.389L64 464.083L62 464L61 464L59 464.083L57 464.389M696 464.472L695 464.861L694 465.278L692 466.472L690 468.083L688 470L687 471L686 472L685 473L683.083 475L681.472 477L680.278 479L679.833 480L679.389 481L678.694 483L678.389 484L678.139 485L677.639 487L677.389 488L677.083 490L677.028 491L677 492L677 494L677 501L677 506L677 508L677 510L677.083 512L677.222 513L677.417 514L678 516L678.333 517L679.028 519L679.389 520L680.25 522L680.778 523L681.25 524L682.389 526L683.028 527L684.333 529L685 530L686.417 532L687.222 532.972L688.083 533.917L690 535.528L692 536.722L693 537.167L694 537.611L696 538.306L697 538.583L699 538.917L700 538.972L701 539L703 538.917L705 538.611L706 538.361L708 537.861L709 537.611L711 536.917L713 535.944L714 535.361L716 534.194L717 533.611L718.917 532.306L720.583 530.778L721.972 528.972L722.611 528L723.722 526L724.167 525L724.611 524L725.389 522L726.167 520L726.556 519L726.833 518L727.139 517L727.611 515L727.778 514L727.944 513L728.222 511L728.389 510L728.611 509L728.917 507L728.972 506L729 505L729 503L729 498L729 493L729 491L728.972 490L728.917 489L728.611 487L728.389 486L728 484L727.528 482L726.806 480L726.361 479L725.444 477L724.917 476L723.583 474L721.917 472L720.972 471L719 469.083L717 467.472L716 466.861L714 465.778L712 464.861L711 464.472L709 464.083L707 464L706 464L705 464L703 464L701 464L699 464.028L698 464.083L696 464.472M811 467L810.25 468.417L809.778 468.833L809.139 469.667L808.472 470.389L807.5 472.083L807.25 473.028L807.028 475L807 477L807 478L807 479L807 482L807 489L807 515L807 520L807 522L807 524L807.083 526L807.472 528L807.833 529L808.639 531L809.639 532.889L811.111 534.361L812.028 534.889L814 535.583L816 535.944L817 536.056L819 536.389L820 536.611L822 536.917L824 537L825 537L826 537L828 537L830 537L832 536.972L833 536.917L835 536.611L836 536.361L837 536.139L838 535.861L840 535.389L841 535.194L843 534.722L845 533.917L846 533.361L847 532.806L848.972 531.528L849.917 530.75L850.778 529.917L851.583 528.972L852.889 527L853.389 526L854.111 524L854.639 522L854.861 521L855.139 520L855.611 518L855.806 517L856 516L856.389 514L856.611 513L856.917 511L856.972 510L857 508L857.028 506L857.083 505L857.389 503L857.611 502L857.917 500L857.972 499L858 497L858 496L857.972 494L857.917 493L857.611 491L857.389 490L857.083 488L857.028 487L856.917 485L856.611 483L856.361 482L855.778 480L855.389 479L854.889 478L853.583 476L852.778 475L850.972 473.083L849 471.389L848 470.639L846 469.167L845 468.444L843 467.25L842 466.778L841 466.25L839 465.472L837 465.056L836 464.944L834 464.611L833 464.389L831 464.083L829 464L828 464L826 464.083L824 464.389L823 464.611L822 464.806L820 465.194L819 465.389L817 465.861L816 466.139L815 466.361L814.056 466.611L813.056 466.778L812.5 466.917L811 467M1240 487L1242.06 487L1243.06 487L1244 487L1245 487L1249 487L1250 487L1251 487L1254 487L1255 487L1257 486.972L1258 486.917L1260 486.611L1261 486.389L1263 486.083L1264 486.028L1265 486L1267 486L1269 486L1271 486.028L1272 486.083L1274 486.389L1275 486.611L1277 486.917L1278 486.972L1280 487L1281 487L1283 487L1285 487L1286 487L1288 486.917L1289.94 486.556L1291.5 485.972L1293 485L1293 482.944L1292.92 481L1292.75 480L1292.53 479L1291.72 477.083L1290.61 475.389L1289.97 474.611L1288.58 473L1287.78 472.194L1286.92 471.417L1285 470L1284 469.333L1283 468.667L1281 467.417L1279 466.389L1278 465.944L1276 465.028L1274 464.306L1273 464.111L1272 464.028L1270 464L1268 464.028L1267 464.083L1265 464.389L1264 464.611L1262 465L1260 465.389L1259 465.611L1257 466L1255 466.472L1254 466.833L1252 467.639L1250 468.639L1249 469.306L1248 470.111L1247 471.028L1245 473L1243.11 475L1242.31 476L1241.64 477L1240.72 479L1240.22 481L1240.08 482L1240.03 483L1240 484.944L1240 487z"/>
<path style="fill:#fa3081; stroke:none;" d="M560 466L561 467L560 466M365 467L366 468L365 467M553 471L554 472L553 471M395 472L396 473L395 472M593 476L594 477L593 476M3 495L3 509L3.72222 508.222L3.75 507.694L3.94444 506.889L3.97222 505.972L4 505L4 504L4 502L4 500L4 499L3.97222 498.028L3.94444 497.111L3.75 496.306L3.72222 495.778L3 495M646 508L646 511L646.694 510.25L646.694 509.194L646.694 508.75L646 508M4 515L4 518L4.69444 517.25L4.69444 516.806L4.69444 515.75L4 515M648 518L648 521L648.694 520.25L648.694 519.194L648.694 518.75L648 518M5 521L6 522L5 521M655 536L656 537L655 536M271 558L271.778 558.722L272.306 558.75L273.111 558.944L274.028 558.972L275 559L276 559L278 559L288 559L287.222 558.278L286.694 558.25L285.889 558.056L284.972 558.028L284 558L283 558L281 558L271 558M402 558L402.778 558.722L403.306 558.75L404.056 558.944L404.972 558.972L407 559L406.222 558.278L405.694 558.25L404.944 558.056L404.028 558.028L402 558M420.667 558.333L420.667 558.667L421.333 558.667L421.333 558.333L420.667 558.333M528 558L528.778 558.722L529.306 558.75L530.111 558.944L530.972 558.972L531.944 559L534 559L533.222 558.278L532.694 558.25L531.889 558.056L531.028 558.028L530.056 558L528 558M42.6667 560.333L43 560.667L43.3333 560.667L43 560.333L42.6667 560.333M690.667 561.333L690.667 561.667L691.333 561.667L691 561.333L690.667 561.333z"/>
</svg>
