<svg width="2100" height="800.0000000000001" xmlns="http://www.w3.org/2000/svg">

 <g>
  <title>Layer 1</title>
  <g stroke="null" id="svg_16">
   <path stroke="null" id="svg_1" fill="#fefdfe" d="m43.14307,8.57138l0,762.28556l666.84502,0l148.91994,0l6.58938,0l2.63575,0l5.2715,0l5.2715,0l3.95363,0l10.543,0l28.99326,0l3.95363,0l5.2715,0l2.63575,0l3.95363,0l9.22513,0l10.543,0l5.2715,0l5.2715,0l6.58938,0l13.17876,0l1.31788,0l30.31114,0l21.08601,0l10.543,0l13.17876,0l5.2715,0l0,-26.32894l0,-8.77631l0,-2.50752l-0.0369,-2.50752l-0.07248,-1.25376l-0.40327,-2.50752l-0.29257,-1.25376l-0.40327,-2.50752l-0.10938,-2.50752l0,-2.50752l0,-5.01504l0,-15.04511l0,-43.88157l0,-55.1654l0,-1.25376l0,-16.29887l0,-6.2688l0,-1.25376l0.0369,-2.50752l0.07248,-1.25376l0.40327,-2.50752l0.51265,-2.43731l0.25567,-1.95085l0.0369,-1.88064l1.31788,-1.25376l5.2715,0l7.90725,0l2.63575,0l1.31788,0l2.63575,0.03511l1.31788,0.06896l2.63575,0.38365l1.31788,0.31344l1.31788,0.27833l1.31788,0.34855l1.31788,0.27833l1.31788,0.31344l2.63575,0.38365l2.63575,0.10406l2.63575,0l2.63575,-0.03511l1.31788,-0.06896l2.63575,-0.38365l1.31788,-0.31344l2.63575,-0.62688l1.31788,-0.31344l1.31788,-0.3824l2.63575,-0.7673l1.31788,-0.3824l2.63575,-0.66198l1.31788,-0.31344l1.31788,-0.3824l1.31788,-0.38365l2.63575,-0.73094l1.31788,-0.24448l1.31788,-0.17427l2.63575,0l2.63575,0.38365l2.63575,0.59177l1.31788,0.34855l1.31788,0.27833l1.31788,0.31344l2.63575,0.4175l1.31788,0.14042l2.63575,0.4175l2.63575,0.52282l2.63575,0.48646l1.31788,0.27959l1.31788,0.34729l2.63575,0.87136l1.31788,0.55667l1.31788,0.55792l1.31788,0.69584l1.31788,0.66198l2.63575,1.39293l2.63575,1.32397l1.31788,0.66198l1.31788,0.73094l1.31788,0.69584l2.63575,1.6023l1.31788,0.97542l1.31788,1.04438l1.31788,1.1848l2.63575,2.47241l2.59885,2.50752l2.34318,2.50752l1.02531,1.25376l1.68424,2.50752l0.76832,1.25376l1.61044,2.50752l0.73274,1.25376l0.73142,1.25376l1.17159,2.50752l0.47575,1.25376l0.47575,1.25376l0.98841,2.50752l0.58645,1.25376l1.24407,2.50752l0.58645,1.25376l0.51265,1.25376l0.91461,2.50752l0.76832,2.50752l0.29389,1.25376l0.51134,2.50752l0.54955,2.50752l0.40327,2.50752l0.21877,2.50752l0.40327,2.50752l0.29257,1.25376l0.40327,2.50752l0.03558,1.25376l-0.03558,1.25376l-0.40327,2.50752l-0.29257,1.25376l-0.40327,2.50752l-0.07248,1.25376l-0.0369,2.50752l-0.0369,1.25376l-0.07248,1.25376l-0.40327,2.50752l-0.29257,1.25376l-0.25699,1.25376l-0.51134,2.50752l-0.25699,1.25376l-0.29257,1.25376l-0.51265,2.50752l-0.51265,2.50752l-0.54955,2.50752l-0.51134,2.50752l-0.29389,1.25376l-0.40195,1.25376l-0.47575,1.25376l-1.17159,2.50752l-0.58645,1.25376l-0.47575,1.25376l-0.80522,2.50752l-0.43885,1.25376l-0.47575,1.25376l-1.28229,2.50752l-0.76832,1.25376l-1.46416,2.50752l-0.65894,1.25376l-1.61044,2.50752l-1.02531,1.25376l-1.09779,1.25376l-2.52637,2.50752l-1.31788,1.25376l-2.63575,2.40346l-2.63575,2.08876l-1.31788,0.90647l-2.63575,1.63616l-1.31788,0.73094l-1.31788,0.7673l-2.63575,1.42678l-2.63575,1.32397l-2.63575,1.32397l-1.31788,0.69584l-2.63575,1.1497l-1.31788,0.3824l-2.63575,0.69709l-2.63575,0.76605l-1.31788,0.4175l-2.63575,0.83626l-2.63575,0.73094l-1.31788,0.24448l-1.31788,0.17427l-2.63575,0.10406l-1.31788,0l-2.63575,0.10406l-2.63575,0.38365l-2.63575,0.48771l-1.31788,0.17427l-2.63575,0.10406l-1.31788,0l-2.63575,0l-2.63575,0l-1.31788,-0.03511l-1.31788,-0.06896l-2.63575,-0.38365l-1.31788,-0.27833l-2.63575,-0.38365l-1.31788,-0.06896l-1.31788,-0.03511l-2.63575,0l-7.90725,0l0,18.80639l0,6.2688l0,1.25376l0.0369,2.50752l0.07248,1.25376l0.40327,2.50752l0.29257,1.25376l0.40327,2.50752l0.07248,1.25376l0.0369,2.50752l0,1.25376l0,3.76128l0,1.25376l0,12.53759l18.45026,0l21.08601,0l10.543,0l10.543,0l5.2715,0l10.543,0l1.31788,0l5.2715,0l2.63575,0l5.2715,0l10.543,0l6.58938,0l6.58938,0l10.543,0l2.63575,0l10.543,0l10.543,0l5.2715,0l10.543,0l5.2715,0l1.31788,0l3.95363,0l5.2715,0l7.90725,0l10.543,0l5.2715,0l2.63575,0l10.543,0l21.08601,0l6.58938,0l5.2715,0l2.63575,0l1.31788,0l2.63575,0l10.543,0l5.2715,0l10.543,0l10.543,0l2.63575,0l1.31788,0l5.2715,0l2.63575,0l5.2715,0l1.31788,0l6.58938,0l2.63575,0l6.58938,0l1.31788,0l1.31788,0l10.543,0l1.31788,0l5.2715,0l10.543,0l1.31788,0l10.543,0l1.31788,0l6.58938,0l10.543,0l1.31788,0l2.63575,0l2.63575,0l1.31788,0l1.31788,0l2.63575,0l3.87455,0l1.31788,0l2.71482,0l0,-3.83149l0,-2.43731l0,-1.25376l-0.10543,-2.50752l-0.1845,-1.25376l-0.26358,-1.25376l-0.76437,-2.50752l-0.76437,-2.50752l-0.44808,-2.50752l-0.06589,-1.25376l-0.03954,-1.25376l0,-2.50752l0,-6.2688l1.97681,-0.55667l0.73801,-0.27959l1.31788,-0.4175l2.55668,-0.73094l1.31788,-0.27959l2.63575,-0.48646l2.63575,-0.52282l2.63575,-0.4175l1.31788,-0.14042l2.63575,-0.4175l1.31788,-0.27833l2.63575,-0.4175l1.31788,-0.14042l2.63575,-0.4175l1.31788,-0.31344l2.63575,-0.62688l1.31788,-0.27833l1.31788,-0.34855l1.31788,-0.31344l2.63575,-0.90521l2.63575,-1.39293l1.27834,-0.87136l1.25198,-1.00928l2.08224,-2.26429l0.76437,-1.21865l1.17291,-2.50752l0.8039,-2.50752l0.44808,-2.50752l0.06589,-1.25376l0.03954,-1.25376l0,-2.50752l0,-1.25376l0,-2.50752l0,-6.2688l0,-2.50752l0.03954,-2.50752l0.06589,-1.25376l0.40854,-2.50752l0.28993,-1.25376l0.40854,-2.50752l0.06589,-1.25376l0.03954,-2.50752l0,-5.01504l0,-1.25376l0,-12.53759l0,-3.76128l0,-3.76128l0,-35.10526l0,-8.77631l0,-2.50752l-0.03954,-2.50752l-0.06589,-1.25376l-0.40854,-2.50752l-0.28993,-1.25376l-0.40854,-2.50752l-0.14497,-2.50752l-0.06589,-1.25376l-0.44808,-2.50752l-0.39536,-1.21865l-1.21245,-2.22918l-0.88298,-0.94032l-2.26675,-1.25376l-2.59621,-0.52282l-2.63575,-0.20812l-2.63575,-0.38365l-2.63575,-0.48771l-1.31788,-0.17427l-2.63575,-0.20812l-1.31788,-0.17427l-2.55668,-0.48771l-1.31788,-0.20938l-0.73801,-0.17427l-1.97681,-0.10406l0,-2.57773l0,-1.25376l-0.03954,-2.43731l-0.06589,-1.25376l-0.40854,-2.50752l-0.28993,-1.25376l-0.36901,-2.50752l0,-1.25376l0.36901,-2.50752l0.32947,-1.25376l0.65894,-2.50752l0.28993,-1.18355l0.51397,-1.95085l0.32947,-1.88064l1.97681,-0.10406l0.73801,-0.17427l1.31788,-0.20938l1.2388,-0.27833l2.63575,-0.38365l1.31788,-0.06896l2.63575,-0.03511l2.63575,0l1.31788,0l2.63575,0l1.31788,0l2.63575,-0.03511l1.31788,-0.06896l2.63575,-0.38365l1.31788,-0.27833l2.63575,-0.38365l1.31788,-0.06896l2.63575,-0.03511l1.31788,0l6.58938,0l2.63575,0l1.31788,0l5.2715,0l10.543,0l0.57987,1.88064l0.30311,0.69709l0.84344,2.43731l0.35583,1.25376l0.44808,2.50752l0.06589,1.25376l0.03954,2.50752l0.03954,2.50752l0.06589,1.25376l0.40854,2.50752l0.28993,1.25376l0.40854,2.50752l0.06589,1.25376l0.03954,2.50752l0,2.50752l0,11.28383l0,1.25376l0,1.25376l0,12.53759l0,5.01504l-0.03954,2.50752l-0.06589,1.25376l-0.40854,2.50752l-0.28993,1.25376l-0.40854,2.50752l-0.10543,2.50752l0,1.25376l0,3.76128l0,8.77631l0,27.5827l0,10.03007l0,2.50752l-0.03954,2.50752l-0.06589,1.25376l-0.40854,2.50752l-0.28993,1.25376l-0.40854,2.50752l-0.06589,1.25376l-0.03954,2.50752l0,1.25376l0,3.76128l0,2.50752l-0.03954,2.50752l-0.06589,1.25376l-0.40854,2.50752l-0.28993,1.25376l-0.40854,2.50752l-0.06589,1.25376l-0.14497,2.50752l-0.51397,2.50752l-0.47444,1.25376l-0.96205,2.50752l-0.76437,2.50752l-0.72483,2.50752l-0.92251,2.50752l-1.13337,2.50752l-0.69847,1.25376l-0.6194,1.25376l-0.8039,1.25376l-0.76437,1.25376l-1.87138,2.50752l-1.02794,1.25376l-0.98841,1.25376l-2.22721,2.40346l-2.53032,2.12387l-1.31788,0.94032l-1.31788,0.94032l-2.63575,1.6023l-2.63575,1.21865l-2.63575,1.04438l-1.31788,0.52282l-2.63575,0.87136l-1.31788,0.34729l-2.63575,0.41876l-2.63575,0.10406l-1.31788,0l-2.55668,0l-4.0327,0l-0.03954,2.57773l-0.06589,1.25376l-0.40854,2.43731l-0.28993,1.18355l-0.22404,1.25376l-0.1845,0.69709l-0.10543,1.88064l1.97681,0l2.05589,0l5.19243,0l1.31788,0l1.31788,0l2.63575,0l2.63575,0l1.31788,0l5.2715,0l2.63575,0l1.31788,0l2.63575,0l1.31788,0l1.31788,0l1.31788,0l5.2715,0l6.58938,0l5.2715,0l10.543,0l1.31788,0l2.63575,0l1.31788,0l2.63575,0l10.543,0l10.543,0l1.31788,0l1.31788,0l5.2715,0l2.63575,0l1.31788,0l2.63575,0l5.2715,0l6.58938,0l1.31788,0l5.2715,0l2.63575,0l2.63575,0l1.31788,0l84.34403,0l1.31788,0l2.63575,0l1.31788,0l84.34403,0l5.2715,0l5.2715,0l5.2715,0l1.31788,0l1.31788,0l10.543,0l1.31788,0l10.543,0l1.31788,0l1.31788,0l2.63575,0l1.31788,0l1.31788,0l2.63575,0l2.63575,0l1.31788,0l1.31788,0l6.58938,0l2.63575,0l1.31788,0l2.63575,0l5.2715,0l2.63575,0l1.31788,0l5.2715,0l3.95363,0l1.31788,0l5.2715,0l1.31788,0l1.31788,0l5.2715,0l10.543,0l2.63575,0l3.95363,0l5.2715,0l1.31788,0l1.31788,0l1.31788,0l5.2715,0l2.63575,0l1.31788,0l2.63575,0l5.2715,0l1.31788,0l1.31788,0l1.31788,0l1.31788,0l3.95363,0l1.31788,0l5.2715,0l1.31788,0l2.63575,0l2.63575,0l1.31788,0l2.63575,0l1.31788,0l2.63575,0l1.31788,0l1.31788,0l5.2715,0l1.31788,0l1.31788,0l5.2715,0l1.31788,0l1.31788,0l2.55668,0l2.05589,0l1.97681,0l0,-6.2688l0,-3.76128l0,-50.15037l-2.71482,0l-1.31788,0l-2.55668,0l-1.31788,0l-2.63575,0l-1.31788,0.03511l-1.31788,0.10406l-2.63575,0.62688l-2.63575,0.97542l-2.63575,0.62688l-1.31788,0.10406l-2.63575,0.03511l-2.63575,0l-2.63575,0l-2.63575,-0.03511l-1.31788,-0.06896l-2.63575,-0.38365l-1.31788,-0.27833l-2.63575,-0.4175l-1.31788,-0.14042l-2.63575,-0.4175l-1.31788,-0.27833l-2.63575,-0.38365l-2.63575,-0.20812l-2.63575,-0.48771l-1.31788,-0.45261l-2.63575,-0.90647l-1.31788,-0.3824l-2.63575,-0.94032l-1.31788,-0.59177l-2.63575,-1.39293l-1.31788,-0.80115l-1.31788,-0.76605l-1.31788,-0.90647l-2.63575,-1.84553l-1.31788,-0.94032l-2.53032,-2.12387l-2.22721,-2.40346l-0.98841,-1.25376l-1.97681,-2.50752l-0.98841,-1.25376l-1.79231,-2.50752l-0.8039,-1.25376l-1.31788,-2.50752l-0.51397,-1.25376l-0.8039,-2.50752l-0.26358,-1.25376l-0.1845,-1.25376l-0.10543,-2.50752l0,-1.25376l0,-1.25376l0,-2.50752l0,-17.55263l0,-60.18044l-1.31788,-1.25376l-1.97681,-0.10406l-0.73801,-0.17427l-1.31788,-0.24448l-2.55668,-0.835l-2.63575,-1.25376l-1.31788,-0.80115l-2.49078,-1.88064l-1.83185,-2.26429l-0.8039,-2.47241l-0.1845,-2.50752l-0.06589,-1.25376l-0.40854,-2.50752l-0.28993,-1.25376l-0.40854,-2.50752l-0.06589,-1.25376l-0.03954,-2.50752l0,-1.18355l0,-3.83149l1.31788,-1.25376l2.71482,0l2.55668,-0.03511l1.31788,-0.06896l2.63575,-0.38365l2.63575,-0.48771l1.31788,-0.17427l2.63575,-0.10406l1.31788,0l1.31788,0l2.63575,0l10.543,0l2.63575,0l5.2715,0l10.543,0l10.543,0l1.31788,0l1.31788,0l5.2715,0l1.31788,0l5.2715,0l2.63575,0l2.63575,0l1.31788,0l1.31788,0l2.63575,0.03511l1.31788,0.06896l2.55668,0.38365l2.05589,0.45261l1.97681,0.31344l0.10543,1.88064l0.1845,0.69709l0.22404,1.25376l0.28993,1.18355l0.40854,2.50752l0.06589,1.25376l0.03954,2.50752l-0.03954,2.50752l-0.06589,1.25376l-0.40854,2.50752l-0.32947,1.25376l-0.28993,1.25376l-0.36901,1.25376l-0.6194,2.43731l-0.22404,1.25376l-0.1845,0.69709l-0.10543,1.88064l-1.97681,0.03511l-2.05589,0.24323l-2.55668,0.48771l-2.63575,0.38365l-1.31788,0.06896l-1.31788,0.03511l-2.63575,0l-2.63575,0l-1.31788,0l-2.63575,-0.10406l-1.31788,-0.17427l-2.63575,-0.48771l-2.63575,-0.38365l-1.31788,-0.06896l-2.55668,-0.03511l-1.31788,0l-2.71482,0l-1.31788,1.25376l0,8.77631l0,2.50752l-0.03954,2.50752l-0.06589,1.25376l-0.40854,2.50752l-0.28993,1.25376l-0.40854,2.50752l-0.06589,1.25376l-0.03954,2.50752l0,1.25376l0,1.25376l0,5.01504l0,3.76128l0,2.50752l0,2.50752l0,10.03007l0,10.03007l0,2.50752l0.03954,2.50752l0.06589,1.25376l0.40854,2.50752l0.28993,1.25376l0.22404,1.25376l0.36901,2.50752l0.4349,2.50752l0.32947,1.25376l0.28993,1.25376l0.76437,2.50752l0.55351,1.25376l0.51397,1.25376l1.21245,2.43731l0.4349,0.69709l0.65894,1.88064l1.97681,0l2.05589,0l1.2388,0l3.95363,0l2.63575,0l2.63575,-0.03511l1.31788,-0.06896l2.63575,-0.38365l1.31788,-0.31344l1.31788,-0.27833l1.31788,-0.34855l1.31788,-0.27833l1.31788,-0.31344l2.63575,-0.4175l1.31788,-0.14042l1.31788,-0.20812l1.31788,-0.20938l1.31788,-0.27833l2.63575,-0.38365l1.31788,-0.06896l2.63575,-0.03511l1.2388,0l1.31788,0l2.71482,0l0,-65.19548l0,-23.82142l0,-12.53759l0,-6.2688l0,-1.25376l0,-28.83646l0,-1.25376l0,-2.50752l0,-12.53759l0,-6.2688l0,-6.2688l0,-31.34398l0,-6.2688l0,-6.2688l0,-31.34398l0,-1.25376l0,-16.29887l0,-1.25376l0,-10.03007l0,-2.50752l0,-25.07518l0,-3.76128l0,-3.76128l0,-50.15037l0,-5.01504l0,-6.2688l0,-2.50752l0,-12.53759l0,-3.76128l0,-3.76128l0,-1.25376l0,-10.03007l0,-2.50752l0,-25.07518l0,-1.25376l0,-2.50752l0,-5.01504l0,-2.50752l0,-18.80639l0,-3.76128l0,-3.76128l0,-6.2688l0,-31.34398l0,-3.76128l0,-1.25376l0,-10.03007l0,-6.2688l0,-2.50752l0,-5.01504l0,-16.29887l0,-1.25376l0,-5.01504l0,-12.53759l0,-1.25376l0,-32.59774l0,-5.01504l0,-1.25376l0,-16.29887l0,-32.59774l0,-7.45292l0,-3.83091l-42.17202,0l-2.63575,0l-2.63575,0l-1.31788,0l-10.543,0l-1.31788,0l-5.2715,0l-1.31788,0l-5.2715,0l-1.31788,0l-10.543,0l-1.31788,0l-5.2715,0l-1.31788,0l-2.63575,0l-1.31788,0l-2.63575,0l-1.31788,0l-5.2715,0l-1.31788,0l-10.543,0l-1.31788,0l-5.2715,0l-2.63575,0l-1.31788,0l-2.63575,0l-1.31788,0l-1.31788,0l-5.2715,0l-2.63575,0l-1.31788,0l-2.63575,0l-1.31788,0l-10.543,0l-1.31788,0l-2.63575,0l-5.2715,0l-5.2715,0l-1.31788,0l-5.2715,0l-10.543,0l-5.2715,0l-2.63575,0l-3.95363,0l-1.31788,0l-10.543,0l-1.31788,0l-1.31788,0l-5.2715,0l-1.31788,0l-10.543,0l-1.31788,0l-1.31788,0l-5.2715,0l-1.31788,0l-1.31788,0l-1.31788,0l-5.2715,0l-1.31788,0l-5.2715,0l-1.31788,0l-2.63575,0l-5.2715,0l-5.2715,0l-1.31788,0l-5.2715,0l-5.2715,0l-1.31788,0l-5.2715,0l-1.31788,0l-1.31788,0l-5.2715,0l-5.2715,0l-1.31788,0l-1.31788,0l-2.63575,0l-3.95363,0l-10.543,0l-2.63575,0l-1.31788,0l-5.2715,0l-1.31788,0l-5.2715,0l-1.31788,0l-1.31788,0l-1.31788,0l-2.63575,0l-1.31788,0l-2.63575,0l-5.2715,0l-1.31788,0l-1.31788,0l-5.2715,0l-1.31788,0l-10.543,0l-2.63575,0l-5.2715,0l-1.31788,0l-5.2715,0l-2.63575,0l-5.2715,0l-5.2715,0l-2.63575,0l-2.63575,0l-1.31788,0l-1.31788,0l-5.2715,0l-2.63575,0l-1.31788,0l-1.31788,0l-1.31788,0l-5.2715,0l-5.2715,0l-1.31788,0l-1.31788,0l-5.2715,0l-10.543,0l-5.2715,0l-5.2715,0l-1.31788,0l-1.31788,0l-2.63575,0l-3.95363,0l-5.2715,0l-5.2715,0l-1.31788,0l-5.2715,0l-1.31788,0l-1.31788,0l-10.543,0l-2.63575,0l-3.95363,0l-10.543,0l-1.31788,0l-1.31788,0l-2.63575,0l-1.31788,0l-2.63575,0l-1.31788,0l-2.63575,0l-1.31788,0l-5.2715,0l-5.2715,0l-1.31788,0l-1.31788,0l-6.58938,0l-10.543,0l-3.95363,0l-3.95363,0l-1.31788,0l-1.31788,0l-10.543,0l-1.31788,0l-1.31788,0l-3.95363,0l-2.63575,0l-2.63575,0l-21.08601,0l-2.63575,0l-2.63575,0l-1.31788,0l-1.31788,0l-10.543,0l-1.31788,0l-10.543,0l-1.31788,0l-10.543,0l-1.31788,0l-1.31788,0l-1.31788,0l-6.58938,0l-6.58938,0l-84.34403,0l-2.63575,0l-11.86088,0l-5.2715,0l-7.90725,0l-1.31788,0l-2.63575,0l-1.31788,0l-5.2715,0l-5.2715,0l-6.58938,0l-1.31788,0l-1.31788,0l-1.31788,0l-5.2715,0l-5.2715,0l-1.31788,0l-5.2715,0l-3.95363,0l-1.31788,0l-5.2715,0l-6.58938,0l-1.31788,0l-3.95363,0l-2.63575,0l-2.63575,0l-2.63575,0l-2.63575,0l-10.543,0l-3.95363,0l-7.90725,0l-5.2715,0l-1.31788,0l-5.2715,0l-1.31788,0l-2.63575,0l-6.58938,0l-2.63575,0l-5.2715,0l-3.95363,0l-2.63575,0l-13.17876,0l-10.543,0l-6.58938,0l-7.90725,0l-1.31788,0l-5.2715,0l-6.58938,0l-1.31788,0l-6.58938,0l-2.63575,0l-3.95363,0l-2.63575,0l-3.95363,0l-5.2715,0l-21.08601,0l-5.2715,0l-10.543,0l-6.58938,0l-3.95363,0l-5.2715,0l-17.13238,0l-1.31788,0l-7.90725,0l-3.95363,0l-7.90725,0l-5.2715,0l-7.90725,0l-6.58938,0l-6.58938,0l-9.22513,0l-2.63575,0l-2.63575,0l-1.31788,0l-5.2715,0l-10.543,0l-7.90725,0l-1.31788,0l-10.543,0l-2.63575,0l-1.31788,0l-3.95363,0l-18.45026,0l-21.08601,0l-1.31788,0l-5.2715,0l-26.35751,0l-1.31788,0l-3.95363,0l-13.17876,0l-26.35751,0l-5.2715,0l-25.03964,0l-9.22513,0l-26.35751,0l-102.79429,0l-50.07927,0l-1.31788,0l-10.543,0l-22.40388,0l-466.52794,0z"/>
   <path stroke="null" id="svg_2" fill="#fa3081" d="m903.71579,11.56651l-1.31788,0.27854l-2.63575,0.38316l-1.31788,0.06963l-2.63575,0.06963l-1.31788,0.06963l-2.63575,0.38316l-1.31788,0.27854l-1.31788,0.20899l-1.31788,0.20899l-1.31788,0.13927l-2.63575,0.4528l-1.31788,0.34826l-1.31788,0.38307l-2.63575,0.83587l-2.63575,0.83578l-1.31788,0.4528l-2.63575,1.14922l-1.31788,0.76623l-2.63575,1.77619l-1.31788,0.94029l-2.63575,2.12437l-2.63575,2.40308l-2.59885,2.50752l-1.24539,1.25376l-2.23248,2.50752l-0.98841,1.25376l-1.02531,1.25376l-1.83053,2.50752l-0.69584,1.25376l-0.62204,1.25376l-0.84212,2.50752l-0.36505,1.25376l-0.95282,2.50752l-0.47575,1.25376l-0.32947,1.25376l-0.29257,1.25376l-0.54955,2.50752l-0.76832,2.50752l-0.76832,2.50752l-0.44017,2.50752l-0.10938,2.50752l0,1.25376l0,2.50752l0,11.28383l0,6.2688l0,6.2688l0,2.50752l0,21.31391l0,1.25376l0,11.28383l0,2.50752l0,1.25376l0.0369,2.50752l0.07248,1.25376l0.40327,2.50752l0.51265,2.50752l0.18318,1.25376l0.10938,2.50752l0,1.25376l0,3.76128l0,10.03007l0,30.09022l0,6.2688l0,86.50938l0,21.31391l0,7.52255l0,1.25376l-0.0369,2.50752l-0.07248,1.25376l-0.40327,2.50752l-0.29257,1.25376l-0.40327,2.50752l-0.07248,1.25376l-0.0369,2.50752l0,5.01504l0,15.04511l0,10.03007l0,2.50752l0,1.25376l0.10938,2.50752l0.40327,2.50752l0.29257,1.25376l0.51265,2.50752l0.29257,1.25376l0.32947,1.25376l0.51265,1.25376l0.54955,1.25376l1.57354,2.50752l0.98841,1.25376l2.05061,2.50752l0.98841,1.25376l0.84212,1.25376l1.71983,2.50752l2.1231,2.50752l1.24539,1.25376l1.28098,1.25376l2.63575,2.40346l2.63575,2.08876l1.31788,0.90647l1.31788,0.87011l2.63575,1.67126l1.31788,0.83626l2.63575,1.63741l1.31788,0.76605l2.63575,1.25376l2.63575,0.87011l1.31788,0.31344l2.63575,0.62688l1.31788,0.31344l1.31788,0.24448l2.63575,0.48646l1.31788,0.24448l1.31788,0.27833l2.63575,0.38365l1.31788,0.06896l1.31788,0.03511l2.63575,0l7.90725,0l5.2715,0l7.90725,0l1.31788,0l6.58938,0l7.90725,0l1.31788,0l1.31788,0l1.31788,0l5.2715,0l5.2715,0l7.90725,0l5.2715,0l7.90725,0l9.22513,0l5.2715,0l5.2715,0l7.90725,0l21.08601,0l6.58938,0l10.543,0l18.45026,0l1.31788,0l5.2715,0l6.58938,0l10.543,0l3.95363,0l2.63575,0.03511l1.31788,0.06896l2.63575,0.38365l1.31788,0.27833l2.63575,0.38365l1.31788,0.06896l2.63575,0.03511l2.63575,0l7.90725,0l5.2715,0l5.2715,0l2.63575,0l10.543,0l10.543,0l5.2715,0l6.58938,0l1.31788,0l7.90725,0l1.31788,0l2.63575,-0.03511l1.31788,-0.06896l2.63575,-0.38365l1.31788,-0.27833l2.63575,-0.38365l1.31788,-0.06896l2.63575,-0.03511l1.31788,0l5.2715,0l6.58938,0l6.58938,0l2.63575,0l3.95363,0l1.31788,0l1.31788,0l2.63575,-0.10406l2.63575,-0.41876l2.63575,-0.76605l2.63575,-1.00928l1.31788,-0.55792l2.63575,-1.39293l1.31788,-0.80115l2.63575,-1.63616l2.63575,-1.70637l1.31788,-0.90647l2.59885,-2.08876l1.24539,-1.1848l2.19558,-2.47241l0.95282,-1.25376l1.82921,-2.50752l0.91592,-1.25376l0.98841,-1.25376l0.95151,-1.25376l0.98841,-1.25376l1.79363,-2.50752l0.80522,-1.25376l1.31788,-2.50752l0.98841,-2.50752l0.44017,-1.25376l0.84212,-2.50752l0.36505,-1.25376l0.44017,-2.50752l0.10938,-2.50752l0.0369,-2.50752l0.07248,-1.25376l0.40327,-2.50752l0.29257,-1.25376l0.40327,-2.50752l0.07248,-1.25376l0.0369,-2.50752l0,-1.25376l0,-3.76128l0,-1.25376l0.0369,-2.50752l0.07248,-1.25376l0.40327,-2.50752l0.29257,-1.25376l0.40327,-2.50752l0.10938,-2.50752l0,-2.50752l0,-5.01504l0,-1.25376l0,-1.25376l0,-12.53759l0,-46.38909l0,-18.80639l0,-11.28383l0,-1.25376l0,-10.03007l0,-18.80639l0,-80.24059l0,-40.12029l0,-1.25376l0,-1.25376l0,-12.53759l0,-3.76128l0,-1.25376l0,-1.25376l-0.10938,-2.50752l-0.18318,-1.25376l-0.25699,-1.25376l-0.76832,-2.50752l-0.87902,-2.50752l-0.95151,-2.50752l-1.13469,-2.50752l-0.69584,-1.25376l-0.62204,-1.25376l-0.76832,-1.25376l-0.73274,-1.25376l-0.84212,-1.25376l-1.71983,-2.50752l-1.79363,-2.50752l-0.95282,-1.25376l-2.19558,-2.50752l-2.52637,-2.50752l-2.63575,-2.40308l-2.63575,-2.08951l-1.31788,-0.90552l-2.63575,-1.63683l-1.31788,-0.73142l-1.31788,-0.76615l-1.31788,-0.73142l-2.63575,-1.49755l-2.63575,-1.18405l-1.31788,-0.38307l-2.63575,-0.6617l-1.31788,-0.31344l-2.63575,-0.38316l-1.31788,-0.06963l-2.63575,-0.03482l-2.63575,0l-2.63575,0l-5.2715,0l-1.31788,0l-7.90725,0l-1.31788,0l-10.543,0l-21.08601,0l-10.543,0l-10.543,0l-5.2715,0l-5.2715,0l-2.63575,0l-2.63575,0l-2.63575,0.03482l-1.31788,0.06963l-2.63575,0.38316l-1.31788,0.27854l-2.63575,0.38316l-2.63575,0.10445l-2.63575,0l-5.2715,0l-10.543,0l-5.2715,0l-10.543,0l-1.31788,0l-2.63575,0l-2.63575,-0.03482l-1.31788,-0.06963l-2.63575,-0.38316l-1.31788,-0.27854l-2.63575,-0.38316l-2.63575,-0.10445l-2.63575,0l-5.2715,0l-6.58938,0l-7.90725,0l-1.31788,0l-1.31788,0l-2.63575,0l-13.17876,0l-21.08601,0l-10.543,0l-2.63575,0l-3.95363,0l-9.22513,0l-3.95363,0l-3.95363,0l-2.63575,0l-2.63575,-0.03482l-1.31788,-0.06963l-2.63575,-0.38316l-1.31788,-0.27854l-2.63575,-0.38316l-1.31788,-0.06963l-2.63575,-0.03482l-1.31788,0l-2.63575,0l-1.31788,0l-1.31788,0l-1.31788,0l-11.86088,0l-7.90725,0l-2.63575,0l-1.31788,0l-2.63575,0.10445l-2.63575,0.38316z"/>
   <path stroke="null" id="svg_3" fill="#3e3a3d" d="m387.10858,14.84017l0,12.53759l0,3.76128l0,5.01504l0,16.29887l0,12.53759l0,2.50752l0,1.25376l0,2.50752l0.10938,2.50752l0.40327,2.50752l0.29257,1.25376l0.40327,2.50752l0.10938,2.50752l0,2.50752l0,6.2688l0,2.50752l0,6.2688l0,10.03007l0,5.01504l0,50.15037l0,81.49434l0,26.32894l0,8.77631l0,3.76128l0,1.25376l-0.10938,2.50752l-0.40327,2.50752l-0.29257,1.25376l-0.40327,2.50752l-0.10938,2.50752l0,1.25376l0,2.50752l0,7.52255l0,23.82142l0,68.95675l1.31788,1.25376l1.97681,0.10406l0.73274,0.17427l1.31788,0.20938l1.24407,0.27833l2.63575,0.38365l1.31788,0.06896l2.63575,0.03511l2.63575,0l10.543,0l32.94689,0l85.66191,0l101.47642,0l32.94689,0l11.86088,0l3.95363,0l1.31788,0l2.63575,0.10406l2.63575,0.38365l1.31788,0.27833l2.63575,0.38365l1.31788,0.06896l2.63575,0.03511l2.63575,0l7.90725,0l23.72176,0l34.26476,0l5.2715,0l6.58938,0l3.95363,0l1.31788,0l2.63575,-0.10406l1.31788,-0.17427l2.63575,-0.48771l2.63575,-0.38365l1.31788,-0.06896l2.56195,-0.03511l2.70955,0l0,-30.09022l0,-10.03007l0,-3.76128l0.0369,-2.50752l0.07248,-1.25376l0.40327,-2.50752l0.29257,-1.25376l0.40327,-2.50752l0.10938,-2.50752l0,-1.25376l0,-2.50752l0,-6.2688l0,-21.31391l0,-62.68796l0,-10.03007l0,-8.77631l0,-5.01504l0,-3.76128l0,-124.12216l0,-50.15037l0,-16.29887l0,-6.2688l0,-2.50752l-0.10938,-2.50752l-0.40327,-2.50752l-0.29257,-1.25376l-0.40327,-2.50752l-0.07248,-1.18413l-0.0369,-1.25376l0,-2.57715l-6.58938,0l-9.22513,0l-1.31788,0l-2.63575,0l-2.63575,0l-3.95363,0l-7.90725,0l-1.31788,0l-21.08601,0l-201.63496,0l-85.66191,0l-28.99326,0l-9.22513,0l-3.95363,0l-1.31788,0l-2.63575,0.10445l-1.31788,0.17417l-2.63575,0.48752l-2.63575,0.38316l-1.31788,0.06963l-1.31788,0.03482l-2.63575,0l-9.22513,0m914.60562,0l0,10.03007l0,15.04511l0,1.25376l0,5.01504l0,6.2688l0,6.2688l0,10.03007l0,1.25376l0,1.25376l0,5.01504l0,6.2688l0,10.03007l0,10.03007l0,8.77631l0,16.29887l0,43.88157l0,6.2688l0,43.88157l0,5.01504l0,57.67292l0,46.38909l0,15.04511l0,5.01504l0,1.25376l0.0369,2.50752l0.07248,1.25376l0.40327,2.50752l0.29257,1.25376l0.40327,2.50752l0.07248,1.25376l0.0369,2.50752l0,1.25376l0,5.01504l0,1.25376l0,13.79135l0,7.52255l0,2.50752l0,1.25376l-0.10938,2.50752l-0.18318,1.18355l-0.25699,1.25376l-0.76832,2.57773l84.34403,0l21.08601,0l1.31788,0l2.63575,0l1.31788,0l1.31788,0l2.63575,0l2.63575,0l3.95363,0l1.31788,0l2.63575,0l1.31788,0l2.63575,-0.10406l2.63575,-0.38365l1.31788,-0.27833l2.63575,-0.38365l1.31788,-0.06896l2.63575,-0.03511l5.2715,0l10.543,0l2.63575,0l1.31788,0l2.63575,0l1.31788,0l5.2715,0l10.543,0l5.2715,0l1.31788,0l2.63575,0l2.63575,0.10406l2.63575,0.38365l1.31788,0.27833l2.63575,0.38365l2.63575,0.10406l2.63575,0l5.2715,0l2.63575,0l3.95363,0l6.58938,0l2.63575,0l10.543,0l2.63575,0l10.543,0l1.31788,0l10.543,0l1.31788,0l2.63575,0l1.31788,0l2.63575,0l1.31788,0l1.31788,0l6.58938,0l2.63575,0l1.31788,0l5.2715,0l10.543,0l6.58938,0l2.63575,0l2.63575,0l3.95363,0l1.31788,0l1.31788,0l1.31788,0l6.58938,0l2.63575,0l2.63575,0l2.63575,0l1.31788,0l5.2715,0l2.63575,0l2.63575,-0.10406l2.63575,-0.38365l1.31788,-0.27833l2.63575,-0.38365l2.63575,-0.10406l2.63575,0l3.95363,0l5.2715,0l1.31788,0l5.2715,0l5.2715,0l1.31788,0l1.31788,0l5.2715,0l1.31788,0l1.31788,0l5.2715,0l1.31788,0l11.78181,0l1.31788,0l2.71482,0l1.31788,-1.25376l0,-10.03007l0,-17.55263l0,-7.52255l0,-1.25376l0,-87.76314l0,-6.2688l0,-35.10526l0,-13.79135l0,-5.01504l0,-2.50752l0.10543,-2.50752l0.40854,-2.50752l0.28993,-1.25376l0.40854,-2.50752l0.10543,-2.50752l0,-2.50752l0,-5.01504l0,-13.79135l0,-1.25376l0,-6.2688l0,-35.10526l0,-1.25376l0,-1.25376l0,-10.03007l0,-5.01504l0,-6.2688l0,-13.79135l0,-8.77631l0,-1.25376l0,-6.2688l0,-1.25376l0,-1.25376l0,-10.03007l0,-2.50752l0,-1.25376l0,-6.2688l0,-5.01504l0,-6.2688l0,-2.50752l0,-5.01504l0,-2.50752l0,-2.50752l0,-20.06015l0,-5.01504l-1.31788,-1.25376l-2.71482,0l-1.31788,0l-1.2388,0l-5.2715,0l-1.31788,0l-1.31788,0l-1.31788,0l-5.2715,0l-1.31788,0l-2.63575,0l-5.2715,0l-1.31788,0l-1.31788,0l-2.63575,0l-2.63575,-0.03482l-1.31788,-0.06963l-2.63575,-0.38316l-1.31788,-0.27854l-2.63575,-0.38316l-2.63575,-0.10445l-2.63575,0l-5.2715,0l-1.31788,0l-5.2715,0l-1.31788,0l-2.63575,0l-1.31788,0l-5.2715,0l-1.31788,0l-1.31788,0l-21.08601,0l-5.2715,0l-1.31788,0l-2.63575,0l-2.63575,0l-10.543,0l-2.63575,0l-1.31788,0l-1.31788,0l-2.63575,0l-21.08601,0l-21.08601,0l-2.63575,0l-6.58938,0l-2.63575,0l-3.95363,0l-2.63575,0l-10.543,0l-2.63575,0l-1.31788,0l-5.2715,0l-3.95363,0l-2.63575,0l-2.63575,0l-5.2715,0l-5.2715,0l-1.31788,0l-2.63575,0l-1.31788,0l-1.31788,0l-1.31788,0l-5.2715,0l-3.95363,0l-2.63575,0l-2.63575,0l-2.63575,0l-1.31788,0l-5.2715,0l-10.543,0l-1.31788,0l-1.31788,0l-2.63575,0l-2.63575,0l-1.31788,0l-1.31788,0l-5.2715,0l-10.543,0l-1.31788,0l-1.31788,0l-5.2715,0l-10.543,0l-1.31788,0l-2.63575,0l-1.31788,0l-3.95363,0l-2.63575,0l-2.63575,0l-2.63575,0l-1.31788,0l-2.63575,0l-1.31788,0l-5.2715,0l-2.63575,0l-10.543,0l-7.90725,0l-1.31788,0l-10.543,0l-2.63575,0l-5.2715,0l-2.63575,0l-2.63575,0l-1.31788,0l-2.63575,0.10445l-1.31788,0.17417l-2.63575,0.48752l-2.63575,0.38316l-1.31788,0.06963l-1.31788,0.03482l-2.63575,0l-6.58938,0z"/>
   <path stroke="null" id="svg_4" fill="#fa3081" d="m1300.39633,53.70671l0,3.83086l0,4.94545l0,10.03007l0,2.50752l0,1.25376l0,1.25376l0,6.2688l0,6.2688l0,2.50752l0,21.31391l0,1.25376l0,11.28383l0,1.25376l0,12.53759l0,22.56766l0,1.25376l0,2.50752l0,6.2688l0,8.77631l0,1.25376l0,13.79135l0,22.56766l0,12.53759l0,13.79135l0,22.56766l0,5.01504l0,27.5827l0,16.29887l0,22.56766l0,23.82142l0,7.52255l0,2.50752l0,1.25376l0.10938,2.50752l0.40327,2.50752l0.29257,1.25376l0.40327,2.50752l0.07248,1.25376l0.0369,2.50752l0,5.01504l0,12.53759l0.95151,-0.97542l0.0369,-0.66198l0.25567,-1.00928l0.0369,-1.1497l0.0369,-1.21865l0,-1.25376l0,-2.50752l0,-13.79135l0,-13.79135l0,-2.50752l0,-1.25376l-0.0369,-2.50752l-0.07248,-1.25376l-0.40327,-2.50752l-0.29257,-1.25376l-0.40327,-2.50752l-0.07248,-1.25376l-0.0369,-2.50752l0,-1.25376l0,-6.2688l0,-20.06015l0,-6.2688l0,-6.2688l0,-1.25376l0,-12.53759l0,-6.2688l0,-5.01504l0,-57.67292l0,-5.01504l0,-6.2688l0,-87.76314l0,-1.25376l0,-16.29887l0,-32.59774l0,-2.50752l0,-1.25376l0,-12.53759l0,-2.50752l0,-1.25376l-0.0369,-1.2189l-0.0369,-1.14932l-0.25567,-1.01003l-0.0369,-0.66161l-0.95151,-0.97517z"/>
   <path stroke="null" id="svg_5" fill="#fefdfe" d="m1152.79427,66.73188l-1.31788,0.27859l-2.63575,0.38315l-2.63575,0.20888l-2.63575,0.48759l-1.31788,0.48759l-2.63575,1.14932l-1.31788,0.59203l-2.63575,1.42791l-2.63575,1.60205l-1.31788,0.83576l-2.63575,1.70662l-1.31788,0.90546l-2.52637,2.08951l-1.13469,1.18418l-1.06089,1.2189l-1.83053,2.50752l-1.57486,2.50752l-0.73142,1.25376l-1.17159,2.50752l-0.47575,1.25376l-0.91592,2.50752l-0.43885,1.25376l-0.76832,2.50752l-0.25699,1.25376l-0.18318,1.25376l-0.10938,2.50752l0,1.25376l0,1.25376l0,2.50752l0,2.50752l0.10938,2.50752l0.40327,2.50752l0.32947,1.25376l0.29257,1.25376l0.76832,2.50752l1.06221,2.50752l0.69584,1.25376l1.31788,2.50752l0.62204,1.25376l1.50106,2.50752l1.71983,2.50752l0.95282,1.25376l2.19558,2.50752l1.24539,1.21865l1.28098,1.1848l2.63575,2.08876l2.63575,1.77658l2.63575,1.63741l1.31788,0.73094l2.63575,1.04438l2.63575,0.59177l1.31788,0.24448l2.63575,0.48771l1.31788,0.17427l2.63575,0.10406l1.31788,0l1.31788,0l2.63575,0l2.63575,0l1.31788,0l2.63575,-0.03511l1.31788,-0.06896l2.63575,-0.48771l2.63575,-0.87136l1.31788,-0.48771l1.31788,-0.34729l2.63575,-0.80115l2.63575,-1.28886l1.31788,-0.94032l2.63575,-2.22918l2.52637,-2.47241l2.23248,-2.50752l0.98841,-1.25376l1.93991,-2.50752l0.95282,-1.25376l1.57354,-2.50752l0.62204,-1.25376l1.31788,-2.50752l0.69584,-1.25376l1.06221,-2.50752l0.36505,-1.25376l0.40327,-1.25376l0.62204,-2.50752l0.40327,-2.50752l0.07248,-1.25376l0.0369,-1.25376l0,-2.50752l-0.0369,-2.50752l-0.07248,-1.25376l-0.40327,-2.50752l-0.29257,-1.25376l-0.51265,-2.50752l-0.54955,-2.50752l-0.76832,-2.50752l-0.43885,-1.25376l-0.44017,-1.25376l-0.98841,-2.50752l-1.31788,-2.50752l-1.68293,-2.50752l-0.95282,-1.25376l-2.19558,-2.50752l-1.24539,-1.2189l-1.28098,-1.18418l-2.63575,-2.08951l-1.31788,-0.90546l-2.63575,-1.60218l-1.31788,-0.66161l-1.31788,-0.59215l-2.63575,-0.94019l-1.31788,-0.418l-2.63575,-0.83576l-2.63575,-0.83588l-2.63575,-0.73132l-1.31788,-0.24386l-1.31788,-0.17415l-2.63575,-0.10444l-2.63575,0.10444l-2.63575,0.38315m452.03131,2.54237l-2.63575,0.73132l-2.63575,0.87074l-1.31788,0.48746l-2.63575,1.2189l-2.63575,1.42803l-1.31788,0.8009l-1.31788,0.7663l-2.63575,1.77608l-1.31788,0.97517l-1.31788,0.94032l-2.53032,2.12437l-1.13337,1.18418l-2.08224,2.47266l-1.02794,1.25376l-1.83185,2.50752l-1.38377,2.50752l-0.51397,1.25376l-0.8039,2.50752l-0.47444,2.50752l-0.15815,1.25376l-0.21086,1.25376l-0.22404,1.25376l-0.28993,1.25376l-0.40854,2.50752l-0.06589,1.25376l-0.03954,2.50752l0.10543,2.50752l0.40854,2.50752l0.55351,2.50752l0.50079,2.50752l0.30311,1.25376l0.8039,2.50752l0.47444,1.25376l0.57987,1.25376l0.59304,1.25376l1.46284,2.50752l0.84344,1.25376l1.79231,2.50752l0.98841,1.25376l1.97681,2.40346l0.98841,1.07949l2.22721,1.91574l2.53032,1.70637l2.63575,1.5672l2.63575,1.25376l1.31788,0.48771l1.31788,0.45261l2.63575,0.835l2.63575,0.83626l2.63575,0.73094l2.63575,0.41876l1.31788,0.06896l2.63575,0.03511l1.31788,0l2.63575,0l2.63575,0l1.31788,0l1.31788,0l2.63575,-0.10406l2.63575,-0.41876l1.31788,-0.34729l2.63575,-0.90647l2.63575,-1.32272l1.31788,-0.87136l2.63575,-1.84553l2.63575,-1.9847l1.31788,-1.07949c1.34423,-1.19232 2.66211,-2.41223 3.95363,-3.65722l2.53032,-2.50752l1.09384,-1.25376l1.02794,-1.25376l0.8039,-1.25376l1.42331,-2.50752l0.69847,-1.25376l1.06748,-2.50752l0.76437,-2.50752l0.28993,-1.25376l0.32947,-1.25376l0.40854,-2.50752l0.10543,-2.50752l0,-1.25376l0,-3.76128l0,-2.50752l0,-1.25376l0,-1.25376l-0.10543,-2.50752l-0.51397,-2.50752l-0.47444,-1.25376l-1.02794,-2.50752l-1.06748,-2.50752l-1.31788,-2.50752l-0.8039,-1.25376l-1.71324,-2.50752l-1.79231,-2.47266l-0.96205,-1.18418l-2.18767,-2.12437l-1.25198,-0.97517l-2.59621,-2.08951l-1.31788,-1.11459l-2.63575,-1.98508l-2.63575,-1.49749l-1.31788,-0.52244l-2.63575,-0.87061l-1.31788,-0.38315l-1.31788,-0.27859l-1.31788,-0.31344l-2.63575,-0.38315l-1.31788,-0.06958l-2.63575,-0.03485l-1.31788,0l-2.63575,0l-2.63575,0l-1.31788,0l-2.63575,0.10444l-2.63575,0.418m-1020.03566,100.30111l-2.63575,0.73094l-1.31788,0.4175l-2.63575,0.94032l-1.31788,0.59303l-1.31788,0.66073l-1.31788,0.76605l-1.31788,0.80115l-1.31788,0.83626l-2.63575,1.77658l-1.31788,1.00928l-1.31788,1.07949l-2.63575,2.40346l-2.52637,2.50752l-1.13469,1.25376l-1.06089,1.25376l-1.75805,2.50752l-0.69452,1.25376l-1.13601,2.50752l-0.47575,1.25376l-0.43885,1.25376l-0.76832,2.50752l-0.44017,2.50752l-0.07248,1.25376l-0.0369,2.50752l0,1.25376l0,2.50752l0,2.50752l0,1.25376l0,1.25376l0.10938,2.50752l0.18318,1.25376l0.22009,1.25376l0.54955,2.50752l0.54824,2.50752l0.32947,1.25376l1.02531,2.50752l0.69584,1.25376l0.58514,1.25376l0.73274,1.25376l0.58514,1.25376l0.73274,1.25376l0.62204,1.25376l1.61044,2.50752l1.02531,1.25376l2.34318,2.40346l2.59885,2.08876l1.31788,0.87136l1.31788,0.80115l2.63575,1.28761l1.31788,0.52282l1.31788,0.55792l2.63575,0.90521l2.63575,0.48771l1.31788,0.06896l2.63575,0.03511l2.63575,0.03511l1.31788,0.06896l2.63575,0.38365l1.31788,0.27833l2.63575,0.34855l1.31788,0l2.63575,-0.34855l1.31788,-0.27833l2.63575,-0.4175l1.31788,-0.14042l2.63575,-0.45261l2.63575,-0.76605l1.31788,-0.48771l2.63575,-1.25376l2.63575,-1.60105l2.59885,-1.91574l1.24539,-1.07949l1.13469,-1.1848l1.06089,-1.21865l1.86743,-2.50752l0.87902,-1.25376l1.71983,-2.50752l0.80522,-1.25376l1.31788,-2.50752l1.06221,-2.50752l0.54955,-1.25376l0.95151,-2.50752l0.32947,-1.25376l0.29257,-1.25376l0.51265,-2.50752l0.29257,-1.25376l0.40327,-2.50752l0.10938,-2.50752l-0.0369,-2.50752l-0.07248,-1.25376l-0.40327,-2.50752l-0.29257,-1.25376l-0.43885,-2.50752l-0.1476,-1.25376l-0.47575,-2.50752l-0.76832,-2.50752l-0.43885,-1.25376l-0.91592,-2.50752l-1.06089,-2.50752l-0.58645,-1.25376l-1.57354,-2.50752l-2.1231,-2.50752l-2.52637,-2.50752l-2.63575,-2.40346l-1.31788,-1.07949l-1.31788,-1.00928l-2.63575,-1.67251l-2.63575,-1.25376l-1.31788,-0.45261l-1.31788,-0.3824l-2.63575,-0.41876l-1.31788,-0.06896l-2.63575,-0.13917l-1.31788,-0.17427l-2.63575,-0.48771l-1.31788,-0.20938l-1.31788,-0.17427l-1.31788,-0.06896l-2.63575,-0.03511l-1.31788,0l-2.63575,0.10406l-2.63575,0.41876m913.28775,1.21865l-1.31788,0.31344l-1.31788,0.27833l-2.63575,0.73094l-2.63575,1.01053l-1.31788,0.66198l-2.63575,1.32272l-1.31788,0.69709l-1.31788,0.80115l-2.63575,1.74147l-2.63575,2.08876l-1.31788,1.1848l-2.53032,2.47241l-2.12178,2.50752l-1.56827,2.50752l-0.59304,1.25376l-0.57987,1.25376l-0.92251,2.50752l-0.35583,1.25376l-0.26358,1.25376l-0.21086,1.25376l-0.36901,2.50752l-0.51397,2.50752l-0.40854,2.50752l-0.06589,1.25376l0,2.50752l0.06589,1.25376l0.40854,2.50752l0.51397,2.50752l0.1845,1.25376l0.21086,2.50752l0.44808,2.50752l0.8039,2.50752l0.47444,1.25376l0.57987,1.25376l0.55351,1.25376l0.69847,1.25376l1.31788,2.50752l0.6194,1.25376l0.8039,1.25376l0.8039,1.25376l2.12178,2.50752l1.25198,1.25376l2.59621,2.40346l2.63575,1.9847l1.31788,0.69709l1.31788,0.59177l1.31788,0.3824l1.31788,0.38365l1.31788,0.27833l2.63575,0.55792l1.31788,0.24323l2.63575,0.48771l1.31788,0.27833l2.63575,0.38365l1.31788,0.06896l2.63575,0.03511l1.31788,0l3.95363,0l2.63575,0l1.31788,0l1.31788,0l2.63575,-0.10406l2.63575,-0.41876l1.31788,-0.34729l2.63575,-0.87136l2.63575,-1.11459l1.31788,-0.69584l1.31788,-0.69709l2.63575,-1.63616l1.31788,-0.90647l2.59621,-2.08876l2.38535,-2.40346l2.01635,-2.50752l0.8698,-1.25376l0.84344,-1.25376l0.73801,-1.25376l0.72483,-1.25376l0.59304,-1.25376l1.09384,-2.50752l1.06748,-2.50752l0.47444,-1.25376l0.76437,-2.50752l0.22404,-1.25376l0.10543,-2.50752l0,-1.25376l0,-1.25376l0,-3.76128l0,-3.76128l0,-1.25376l0,-1.25376l-0.10543,-2.50752l-0.1845,-1.25376l-0.26358,-1.25376l-0.35583,-1.25376l-0.92251,-2.50752l-1.13337,-2.50752l-0.69847,-1.25376l-1.31788,-2.50752l-0.6194,-1.25376l-0.8039,-1.25376l-0.8039,-1.25376l-2.12178,-2.50752l-1.25198,-1.25376l-1.27834,-1.25376l-2.63575,-2.40346l-2.63575,-2.01981l-2.63575,-1.49699l-1.31788,-0.52282l-2.63575,-0.87011l-1.31788,-0.38365l-1.31788,-0.27833l-1.31788,-0.31344l-2.63575,-0.38365l-1.31788,-0.06896l-2.63575,-0.03511l-1.31788,0l-3.95363,0l-3.95363,0l-1.31788,0l-2.63575,0.10406l-2.63575,0.38365z"/>
   <path stroke="null" id="svg_6" fill="#fa3081" d="m1711.57349,210.4266l0,3.83149l0,32.52753l0.94887,-0.97542l0.03954,-0.66198l0.2504,-1.00928l0.03954,-1.1497l0.03954,-2.47241l0,-1.25376l0,-2.50752l0,-16.29887l0,-2.50752l0,-1.25376l-0.03954,-2.47241l-0.03954,-1.1497l-0.2504,-1.00928l-0.03954,-0.66198l-0.94887,-0.97542z"/>
   <path stroke="null" id="svg_7" fill="#fefdfe" d="m940.6163,268.58723l-2.63575,0.52282l-2.63575,0.48646l-1.31788,0.27959l-2.63575,0.76605l-1.31788,0.48771l-2.63575,1.25376l-1.31788,0.76605l-2.63575,1.70637l-1.31788,0.94032l-2.63575,1.88064l-1.31788,0.94032l-2.63575,2.12387l-2.52637,2.40346l-2.23248,2.50752l-2.01371,2.50752l-0.91461,1.25376l-0.95282,1.25376l-0.80522,1.25376l-1.57354,2.50752l-0.73274,1.25376l-1.06089,2.50752l-0.32947,1.25376l-0.54955,2.50752l-0.29257,1.25376l-0.40327,2.50752l-0.10938,2.50752l0,1.25376l0.10938,2.50752l0.40327,2.50752l0.32947,1.25376l0.29257,1.25376l0.36637,1.25376l0.65894,2.50752l0.29257,1.25376l0.40327,1.25376l0.40195,1.25376l1.24539,2.50752l1.57354,2.50752l1.61044,2.50752l0.80522,1.25376l0.95282,1.25376l1.93991,2.47241l0.98841,1.1848l2.23248,2.12387l2.52637,1.9847l1.31788,1.01053l2.63575,1.88064l1.31788,0.69709l1.31788,0.59177l2.63575,0.80115l1.31788,0.34729l1.31788,0.48771l2.63575,0.87136l2.63575,0.48771l1.31788,0.06896l2.63575,0.03511l1.31788,0l3.95363,0l3.95363,0l1.31788,0l2.63575,-0.03511l1.31788,-0.10406l2.63575,-0.62688l2.63575,-1.01053l2.63575,-0.90521l1.31788,-0.4175l2.63575,-1.1848l2.63575,-1.60105l2.48947,-1.91574l1.97681,-2.22918l0.76832,-1.1497l1.42858,-2.12387l1.49974,-1.9847l0.80654,-1.01053l0.73142,-1.01053l0.76832,-1.00928l1.28229,-2.01981l0.98841,-2.26429l0.84212,-2.47241l0.40195,-1.25376l0.69584,-2.50752l0.29257,-1.25376l0.36637,-1.25376l0.29257,-1.25376l0.36637,-1.25376l0.62204,-2.50752l0.40327,-2.50752l0.07248,-1.25376l0.0369,-1.25376l0,-2.50752l-0.0369,-2.50752l-0.10938,-1.25376l-0.65894,-2.50752l-1.02531,-2.50752l-0.80522,-2.50752l-0.91461,-2.50752l-1.57486,-2.50752l-1.97681,-2.50752l-2.23248,-2.50752l-2.41698,-2.50752l-2.23248,-2.40346l-2.1231,-2.12387l-2.38008,-1.91574l-2.59885,-1.77658l-1.31788,-0.73094l-1.31788,-0.73094l-2.63575,-1.04564l-1.31788,-0.34729l-1.31788,-0.38365l-2.63575,-0.59177l-2.63575,-0.48771l-2.63575,-0.48771l-1.31788,-0.27833l-2.63575,-0.34855l-1.31788,0l-2.63575,0.34855m450.71343,2.50752l-1.31788,0.31344l-2.63575,0.66198l-1.31788,0.34729l-2.63575,1.04564l-1.31788,0.73094l-1.31788,0.73094l-1.31788,0.90647l-2.63575,1.84553l-1.31788,0.94032l-2.59621,2.12387l-1.25198,1.1848l-2.22721,2.47241l-0.98841,1.25376l-1.93728,2.50752l-0.96205,1.25376l-1.56827,2.50752l-0.6194,1.25376l-0.69847,1.25376l-0.51397,1.25376l-0.55351,1.25376l-0.35583,1.25376l-0.40722,1.25376l-0.62204,2.50752l-0.40327,2.50752l-0.07248,1.25376l-0.0369,1.25376l0,2.50752l0,2.50752l0.0369,2.50752l0.07248,1.25376l0.40327,2.50752l0.32947,1.25376l0.69979,2.50752l0.35583,1.25376l0.51397,1.25376l0.47444,1.25376l1.14655,2.50752l1.34423,2.50752l0.8039,1.25376l1.72642,2.50752l1.87138,2.50752l1.0543,1.25376l2.38535,2.40346l2.59621,2.08876l1.31788,0.90647l2.63575,1.63616l2.63575,1.42803l1.31788,0.59177l1.31788,0.66198l1.31788,0.52282l1.31788,0.55667l2.63575,0.87136l1.31788,0.34729l2.63575,0.41876l2.63575,0.10406l1.31788,0l1.31788,0l2.63575,0l2.63575,0l1.31788,0l1.31788,0l2.63575,-0.10406l1.31788,-0.20938l1.31788,-0.27833l2.63575,-0.97542l1.31788,-0.66198l2.63575,-1.32272l1.31788,-0.69709l2.63575,-1.63616l1.31788,-0.90647l2.59621,-2.08876l1.25198,-1.1848l2.22721,-2.47241l0.98841,-1.25376l1.97681,-2.50752l0.98841,-1.25376l0.92251,-1.25376l1.71324,-2.50752l1.50238,-2.50752l0.6194,-1.25376l1.31788,-2.50752l0.69847,-1.25376l0.51397,-1.25376l0.51397,-1.25376l0.28993,-1.25376l0.22404,-1.25376l0.10543,-2.50752l0,-2.50752l0,-2.50752l-0.03954,-2.50752l-0.06589,-1.25376l-0.40854,-2.50752l-0.32947,-1.25376l-0.28993,-1.25376l-0.36901,-1.25376l-0.32947,-1.25376l-0.84344,-2.50752l-0.51397,-1.25376l-1.31788,-2.50752l-0.8039,-1.25376l-1.79231,-2.50752l-0.98841,-1.25376l-1.97681,-2.50752l-0.98841,-1.25376l-2.22721,-2.50752l-2.53032,-2.40346l-1.31788,-1.04438l-1.31788,-0.97542l-1.31788,-0.76605l-1.31788,-0.76605l-1.31788,-0.59177l-2.63575,-1.25376l-1.31788,-0.66198l-2.63575,-0.97542l-2.63575,-0.48771l-2.63575,-0.10406l-1.31788,0l-2.63575,0l-2.63575,0l-1.31788,0l-1.31788,0l-2.63575,0l-2.63575,0.10406l-2.63575,0.38365z"/>
   <path stroke="null" id="svg_8" fill="#3e3a3d" d="m151.20886,562.73292l-1.97681,-0.10406l-0.73221,-0.17427l-1.31788,-0.20938l-2.56248,-0.59177l-1.31788,-0.34855l-1.31788,-0.27833l-1.31788,-0.31344l-2.63575,-0.4175l-1.31788,-0.14042l-1.31788,-0.20812l-1.31788,-0.20938l-1.31788,-0.27833l-2.63575,-0.38365l-1.31788,-0.06896l-2.63575,-0.03511l-2.63575,0l-2.63575,0l-2.63575,0.03511l-1.31788,0.06896l-2.63575,0.38365l-1.31788,0.27833l-2.63575,0.38365l-2.63575,0.10406l-2.63575,0.10406l-2.63575,0.38365l-1.31788,0.31344l-1.31788,0.27833l-1.31788,0.34855l-2.63575,0.69584l-2.63575,0.87136l-1.31788,0.52282l-2.63575,1.04438l-1.31788,0.52282l-2.63575,1.25376l-1.31788,0.73094l-2.63575,1.49699l-1.31788,0.80115l-2.63575,2.01981l-2.63575,2.40346l-1.31788,1.25376l-1.31788,1.25376l-2.52597,2.50752l-2.19637,2.50752l-0.9519,1.25376l-1.83027,2.50752l-0.91526,1.25376l-0.98841,1.25376l-1.94018,2.50752l-1.79376,2.50752l-0.84199,1.25376l-1.46429,2.50752l-1.17147,2.50752l-1.02502,2.50752l-1.13484,2.50752l-0.65894,1.25376l-1.06163,2.50752l-0.36607,1.25376l-0.40269,1.25376l-0.62233,2.50752l-0.51251,2.50752l-0.51251,2.50752l-0.51251,2.50752l-0.18304,1.25376l-0.10982,2.50752l0,1.25376l0,3.76128l0,12.53759l0,3.76128l0,2.50752l0.03661,2.50752l0.07321,1.25376l0.40269,2.50752l0.29286,1.25376l0.21965,1.25376l0.21964,1.25376l0.14644,1.25376l0.43929,2.50752l0.32947,1.25376l0.29286,1.25376l0.69555,2.50752l0.40268,1.25376l0.84198,2.50752l0.9152,2.50752l0.4759,1.25376l1.13484,2.50752l0.69555,1.25376l1.3179,2.50752l0.6223,1.25376l1.50093,2.50752l0.84199,1.25376l1.72049,2.50752l0.87863,1.25376l1.86703,2.50752l2.08659,2.50752l1.06168,1.21865l2.08659,2.26429l1.09819,1.04438l2.37956,1.9847l2.59911,1.98595l1.31788,0.94032l2.63575,1.53209l1.31788,0.59177l1.31788,0.69709l1.31788,0.55667l1.31788,0.66198l1.31788,0.52282l1.31788,0.55667l1.31788,0.45261l2.63575,0.76605l2.63575,0.41876l2.63575,0.20812l2.63575,0.38365l1.31788,0.27833l2.63575,0.38365l1.31788,0.06896l2.63575,0.03511l2.63575,0l3.95363,0l6.58938,0l2.63575,0l1.31788,-0.03511l1.31788,-0.06896l2.63575,-0.38365l2.63575,-0.48771l1.31788,-0.17427l2.63575,-0.20812l2.63575,-0.38365l1.31788,-0.27833l1.31788,-0.24448l2.63575,-0.48646l1.31788,-0.24448l1.31788,-0.27833l2.63575,-0.38365l1.31788,-0.06896l2.63575,-0.03511l2.63575,0l2.63575,0l2.63575,0l1.31788,0.03511l1.31788,0.06896l2.63575,0.38365l1.31788,0.27833l2.63575,0.38365l1.31788,0.06896l2.63575,0.03511l2.63575,0l1.31788,0l2.63575,-0.10406l2.52637,-0.52282l2.0862,-1.25376l1.31788,-1.9847l0.36637,-1.1848l0.54824,-2.47241l0.25699,-1.25376l0.29257,-1.25376l0.40327,-2.50752l0.14628,-2.50752l0.07248,-1.25376l0.40327,-2.50752l0.29257,-1.25376l0.40327,-2.50752l0.07248,-1.25376l0.0369,-2.50752l0,-1.25376l0,-2.50752l0,-13.79135l0,-78.98683l0,-55.1654l0,-15.04511l0,-5.01504l0,-2.50752l-0.10938,-2.50752l-0.18318,-1.18355l-0.25699,-1.25376l-0.76832,-2.57773l-2.70955,0l-1.31788,0.03511l-1.24407,0.06896l-2.63575,0.38365l-2.63575,0.48771l-1.31788,0.17427l-2.63575,0.20812l-2.63575,0.41876l-1.31788,0.34729l-2.63575,0.7673l-2.63575,0.59177l-2.63575,0.34855l-2.63575,0.45261l-1.31788,0.3824l-1.28124,0.48771l-2.23314,1.49824l-0.80535,1.00928l-0.51252,1.1497l-0.29283,1.21865l-0.14642,2.50752l0,2.50752l0,6.2688l0,17.55263l0,5.01504l0,1.25376l-0.03664,2.50752l-0.07314,1.25376l-0.40274,2.50752l-0.29283,1.25376l-0.40274,2.50752l-0.07314,1.25376l-0.03664,2.43731l0,2.57773m270.16448,11.28383l-0.69584,-1.88064l-0.47575,-0.69709l-0.69584,-1.25376l-1.57354,-2.43731l-0.76832,-1.25376l-1.68424,-2.40346l-2.1231,-1.9847l-1.24539,-0.73094l-2.59885,-1.11459l-2.63575,-0.76605l-1.31788,-0.24448l-1.31788,-0.17427l-2.63575,-0.10406l-1.24407,0l-1.31788,0l-2.70955,0l-1.31788,1.25376l-0.0369,2.57773l-0.07248,1.25376l-0.40327,2.43731l-0.29257,1.25376l-0.40327,2.50752l-0.07248,1.25376l-0.0369,2.50752l0,5.01504l0,12.53759l0,3.76128l0,2.50752l-0.10938,2.50752l-0.40327,2.50752l-0.29257,1.25376l-0.40327,2.50752l-0.10938,2.50752l0,1.25376l0,2.50752l0,7.52255l0,21.31391l0,66.44923l34.26476,0l1.31788,-1.25376l0,-82.7481l0,-2.50752l0.0369,-2.50752l0.07248,-1.25376l0.40327,-2.50752l0.29257,-1.25376l0.43885,-2.50752l0.1476,-1.25376l0.43885,-2.50752l0.54955,-2.50752l0.29257,-1.25376l0.80522,-2.50752l0.62204,-1.25376l1.72115,-2.47241l1.06089,-1.1848l1.13469,-1.07949l2.52637,-1.91574l2.63575,-1.60105l2.63575,-1.1497l2.63575,-0.52282l2.63575,-0.10406l2.63575,0l2.63575,0l1.31788,0l2.63575,0.10406l2.63575,0.48771l1.31788,0.48771l2.63575,1.1497l2.63575,1.35782l1.31788,0.76605l2.63575,2.01981l2.52637,2.40346l1.09779,1.25376l1.02531,1.25376l1.57354,2.50752l0.58645,1.25376l1.06089,2.50752l0.80522,2.50752l0.44017,2.50752l0.10938,2.50752l0,2.50752l0.0369,2.50752l0.07248,1.25376l0.40327,2.50752l0.29257,1.25376l0.40327,2.50752l0.07248,1.25376l0.0369,2.50752l0,1.25376l0,2.50752l0,12.53759l0,60.18044l2.70955,0.03511l1.31788,0.06896l2.56195,0.38365l1.31788,0.27833l2.63575,0.38365l1.31788,0.06896l1.31788,0.03511l2.63575,0l2.63575,0l1.31788,-0.03511l1.31788,-0.06896l2.63575,-0.38365l1.31788,-0.27833l2.63575,-0.48771l1.31788,-0.27833l1.24407,-0.27833l1.31788,-0.52282l0.73274,-0.20938l1.97681,-1.21865l0,-18.80639l0,-6.2688l0,-1.25376l0.0369,-2.50752l0.07248,-1.25376l0.40327,-2.50752l0.29257,-1.25376l0.40327,-2.50752l0.10938,-2.50752l0,-1.25376l0,-3.76128l0,-10.03007l0,-30.09022l0,-3.76128l0,-1.25376l0,-1.25376l0.10938,-2.50752l0.40327,-2.50752l0.29257,-1.25376l0.22009,-1.25376l0.40195,-2.50752l0.73274,-2.50752l1.39036,-2.50752l0.84212,-1.25376l1.79363,-2.50752l2.01371,-2.40346l2.38008,-2.01981l2.59885,-1.49699l1.31788,-0.52282l1.31788,-0.48771l2.63575,-0.48771l1.31788,-0.06896l2.63575,-0.03511l2.63575,0l1.31788,0.03511l1.31788,0.06896l2.63575,0.38365l1.31788,0.31344l2.63575,0.66198l1.31788,0.34729l2.63575,1.04564l2.59885,1.49699l2.34318,2.01981l1.02531,1.1848l1.57354,2.47241l0.58645,1.25376l0.58514,1.25376l0.47575,1.25376l0.84212,2.50752l0.32947,1.25376l0.36637,1.25376l0.62204,2.50752l0.25699,1.25376l0.51134,2.50752l0.25699,1.25376l0.29257,1.25376l0.40327,2.50752l0.07248,1.25376l0.0369,2.50752l0,1.25376l0,2.50752l0,12.53759l0,3.76128l0.0369,2.50752l0.07248,1.25376l0.40327,2.50752l0.29257,1.25376l0.40327,2.50752l0.07248,1.25376l0.0369,2.50752l0,3.76128l0,12.53759l0,35.10526l2.70955,0l1.31788,0.03511l1.24407,0.06896l2.63575,0.38365l1.31788,0.27833l2.63575,0.38365l1.31788,0.06896l2.63575,0.03511l2.63575,0l2.63575,0l1.31788,-0.03511l1.31788,-0.06896l2.63575,-0.38365l1.24407,-0.27833l1.31788,-0.20938l0.73274,-0.17427l1.97681,-0.10406l0.76832,-2.57773l0.44017,-2.43731l0.14628,-2.50752l0.07248,-1.25376l0.40327,-2.50752l0.29257,-1.25376l0.40327,-2.50752l0.07248,-1.25376l0.0369,-2.50752l0,-1.25376l0,-5.01504l0,-15.04511l0,-5.01504l0.0369,-2.50752l0.07248,-1.25376l0.40327,-2.50752l0.29257,-1.25376l0.40327,-2.50752l0.07248,-1.25376l0.0369,-2.50752l0,-1.25376l0,-7.52255l0,-20.06015l0,-8.77631l0,-2.50752l-0.0369,-1.25376l-0.07248,-1.25376l-0.40327,-2.50752l-0.29257,-1.25376l-0.40327,-2.50752l-0.07248,-1.25376l-0.14628,-2.50752l-0.18318,-1.25376l-0.22009,-1.25376l-0.32947,-1.25376l-0.65894,-2.50752l-0.32947,-1.25376l-0.40195,-1.25376l-0.91592,-2.50752l-1.13469,-2.50752l-0.69584,-1.25376l-0.62204,-1.25376l-1.61044,-2.50752l-1.02531,-1.25376l-1.09779,-1.25376l-2.52637,-2.50752l-2.63575,-2.47241l-1.31788,-1.1848l-2.63575,-2.01981l-2.63575,-1.53209l-2.63575,-1.28886l-1.31788,-0.55667l-1.31788,-0.66198l-1.31788,-0.52282l-1.31788,-0.55667l-2.63575,-0.97542l-2.63575,-0.97542l-1.31788,-0.48771l-1.31788,-0.34729l-1.31788,-0.38365l-2.63575,-0.59177l-2.63575,-0.38365l-2.63575,-0.20812l-1.31788,-0.17427l-2.63575,-0.48771l-2.63575,-0.38365l-2.63575,0l-1.31788,0.17427l-1.31788,0.24448l-2.63575,0.73094l-1.31788,0.38365l-1.31788,0.3824l-2.63575,0.66198l-1.31788,0.27833l-1.31788,0.34855l-1.31788,0.27833l-2.63575,0.73094l-2.63575,1.04564l-1.31788,0.69584l-2.63575,1.49824l-1.31788,0.80115l-1.31788,0.835l-2.63575,1.67251l-1.31788,0.835l-2.63575,1.6023l-1.31788,0.69709l-2.63575,1.32272l-1.31788,0.62688l-2.63575,0.62688l-2.63575,-0.52156l-2.63575,-1.42803l-2.63575,-1.70637l-1.31788,-0.87136l-2.63575,-1.84553l-1.31788,-0.94032l-2.63575,-1.63741l-2.63575,-1.28761l-1.31788,-0.52282l-2.63575,-1.11459l-1.31788,-0.62688l-2.63575,-1.07949l-2.63575,-0.87136l-1.31788,-0.34729l-2.63575,-0.52282l-2.63575,-0.48771l-1.31788,-0.27833l-2.63575,-0.38365l-1.31788,-0.06896l-2.63575,-0.03511l-2.63575,0.10406l-2.63575,0.48771l-1.31788,0.45261l-2.63575,0.87136l-2.63575,0.59177l-2.63575,0.48771l-2.63575,0.52282l-1.31788,0.24323l-2.63575,0.62688l-1.31788,0.55667l-1.31788,0.69709l-2.63575,1.95085l-1.31788,1.11334l-2.63575,1.98595l-2.63575,1.53209l-1.31788,0.62688l-2.63575,1.42803l-2.56195,1.49699l-1.31788,0.66198l-0.73274,0.45261l-1.97681,0.66198m537.69322,-17.06492l-1.31788,0.31344l-1.31788,0.27833l-2.63575,0.73094l-2.63575,0.90647l-1.31788,0.48771l-2.63575,0.73094l-1.31788,0.31344l-2.63575,0.76605l-1.31788,0.4175l-1.31788,0.45261l-1.31788,0.48771l-2.63575,1.21991l-1.31788,0.73094l-1.31788,0.69584l-1.31788,0.7673l-1.31788,0.73094l-2.63575,1.63616l-2.63575,1.88064l-1.31788,1.01053l-2.63575,2.01981l-2.52637,2.01981l-2.23248,2.26429l-2.0862,2.47241l-2.12442,2.50752l-1.02399,1.25376l-1.86743,2.50752l-0.87902,1.25376l-1.75673,2.50752l-1.75673,2.50752l-0.84212,1.25376l-1.57486,2.50752l-0.73142,1.25376l-0.58645,1.25376l-0.58514,1.25376l-1.02531,2.50752l-0.54955,1.25376l-0.95151,2.50752l-0.32947,1.25376l-0.65894,2.50752l-0.43885,1.25376l-1.02531,2.50752l-0.40195,1.25376l-0.47707,2.50752l-0.21877,1.25376l-0.22009,1.25376l-0.29257,1.25376l-0.40327,2.50752l-0.10938,2.50752l0,1.25376l0,1.25376l0,2.50752l0,6.2688l0,2.50752l0.10938,2.50752l0.18318,1.25376l0.22009,1.25376l0.51265,2.50752l0.18318,1.25376l0.14628,2.50752l0.07248,1.25376l0.22009,1.25376l0.29257,1.25376l0.91592,2.50752l0.47575,1.25376l0.62204,2.50752l0.25567,1.25376l0.65894,2.50752l0.91592,2.50752l0.54955,1.25376l1.06089,2.50752l1.02531,2.50752l0.58514,1.25376l0.58645,1.25376l0.73142,1.25376l0.73274,1.25376l1.61044,2.50752l1.61044,2.50752l0.84212,1.25376l2.1231,2.50752l1.24539,1.25376l2.48947,2.50752l2.23248,2.40346l2.1231,2.12387l1.13469,0.97542l2.52637,2.01981l1.31788,1.01053l1.31788,1.00928l1.31788,0.94032l2.63575,1.84553l1.31788,0.90647l2.63575,1.49699l1.31788,0.59177l1.31788,0.69709l1.31788,0.55667l1.31788,0.66198l2.63575,1.01053l2.63575,0.73094l1.31788,0.27833l1.31788,0.31344l2.63575,0.4175l1.31788,0.14042l2.63575,0.4175l1.31788,0.27833l2.63575,0.38365l2.63575,0.10406l2.63575,0l6.58938,0l1.31788,0l3.95363,0l2.63575,0l2.63575,-0.10406l2.63575,-0.38365l1.31788,-0.31344l2.63575,-0.62688l1.31788,-0.27833l1.31788,-0.34855l1.31788,-0.27833l1.31788,-0.34855l1.31788,-0.31344l2.63575,-0.80115l2.63575,-1.00928l1.31788,-0.52282l1.31788,-0.66198l2.63575,-1.25376l1.31788,-0.59177l1.31788,-0.73094l1.31788,-0.69709l1.31788,-0.80115l2.63575,-1.63616l1.31788,-0.83626l2.63575,-1.77658l1.31788,-1.00928l2.63575,-2.26429l2.63575,-2.47241l1.31788,-1.25376l2.52637,-2.50752l2.19558,-2.50752l0.95282,-1.25376l1.79363,-2.50752l1.71983,-2.50752l0.84212,-1.25376l1.50106,-2.50752l0.62204,-1.25376l0.73274,-1.25376l0.58514,-1.25376l0.69584,-1.25376l1.13469,-2.50752l0.47575,-1.25376l0.47575,-1.25376l0.87902,-2.50752l0.87902,-2.50752l0.84212,-2.50752l0.36505,-1.25376l0.47575,-2.50752l0.1476,-1.25376l0.21877,-1.25376l0.22009,-1.25376l0.29257,-1.25376l0.40327,-2.50752l0.07248,-1.25376l0.0369,-2.50752l0,-2.50752l0,-8.77631l0,-6.2688l0,-2.50752l-0.0369,-1.25376l-0.07248,-1.25376l-0.40327,-2.50752l-0.29257,-1.25376l-0.40327,-2.50752l-0.21877,-2.50752l-0.44017,-2.50752l-0.36505,-1.25376l-0.91592,-2.50752l-0.54955,-1.25376l-1.06089,-2.50752l-0.51265,-1.25376l-1.09779,-2.50752l-0.54955,-1.25376l-0.69584,-1.25376l-1.31788,-2.50752l-0.62204,-1.25376l-1.50106,-2.50752l-0.84212,-1.25376l-1.79363,-2.50752l-0.98841,-1.25376l-0.95151,-1.25376l-1.02531,-1.25376l-0.98841,-1.25376l-2.23248,-2.50752l-1.24539,-1.25376l-2.59885,-2.40346l-2.63575,-2.12387l-1.31788,-0.97542l-2.63575,-2.01981l-1.31788,-0.97542l-1.31788,-0.94032l-2.63575,-1.49699l-2.63575,-1.11459l-2.63575,-0.97542l-2.63575,-1.00928l-1.31788,-0.55792l-1.31788,-0.52282l-2.63575,-1.14844l-1.31788,-0.55792l-2.63575,-0.90521l-1.31788,-0.3824l-2.63575,-0.94032l-1.31788,-0.52282l-2.63575,-0.87136l-1.31788,-0.34729l-2.63575,-0.41876l-2.63575,-0.10406l-1.31788,0l-1.31788,0l-2.63575,0l-3.95363,0l-1.31788,0l-2.63575,0l-2.63575,0.10406l-2.63575,0.38365z"/>
   <path stroke="null" id="svg_9" fill="#fa3081" d="m1071.08598,560.2254l-1.31788,1.25376l-0.10938,1.88064l-0.18318,0.69709l-0.22009,1.25376l-0.29257,1.18355l-0.40327,2.50752l-0.07248,1.25376l-0.0369,2.50752l0,1.25376l0,2.50752l0,13.79135l0,40.12029l0,2.50752l0,58.92668l0,20.06015l0,6.2688l0,2.50752l0,1.25376l0.10938,2.50752l0.40327,2.50752l0.29257,1.25376l0.40327,2.50752l0.07248,1.25376l0.0369,2.50752l0,2.50752l0,8.77631l0,25.07518l5.2715,0l21.08601,0l5.2715,0l2.56195,0l4.02743,0l0,-15.04511l0,-5.01504l-0.0369,-2.50752l-0.07248,-1.25376l-0.40327,-2.50752l-0.29257,-1.25376l-0.40327,-2.50752l-0.07248,-1.25376l-0.0369,-2.50752l0,-1.25376l0,-6.2688l0,-17.55263l5.2715,0l1.31788,0l2.63575,0l1.31788,0.03511l1.31788,0.06896l2.63575,0.38365l1.31788,0.27833l2.63575,0.38365l1.31788,0.06896l1.31788,0.03511l2.63575,0l3.95363,0l2.63575,0l2.63575,-0.10406l1.31788,-0.17427l2.63575,-0.48771l2.63575,-0.38365l2.63575,-0.10406l1.31788,0l2.63575,-0.10406l1.31788,-0.17427l1.31788,-0.24448l2.63575,-0.73094l2.63575,-0.83626l1.31788,-0.4175l2.63575,-0.76605l2.63575,-0.69709l1.31788,-0.3824l2.63575,-1.1497l1.31788,-0.69584l2.63575,-1.32397l2.63575,-1.32397l2.63575,-1.42678l1.31788,-0.7673l1.31788,-0.73094l2.63575,-1.63616l1.31788,-0.90647l2.63575,-2.08876l2.63575,-2.40346l2.52637,-2.50752l1.09779,-1.25376l1.02531,-1.25376l1.61044,-2.50752l0.65894,-1.25376l1.46416,-2.50752l0.76832,-1.25376l1.28229,-2.50752l0.47575,-1.25376l0.43885,-1.25376l0.80522,-2.50752l0.47575,-1.25376l0.58645,-1.25376l1.17159,-2.50752l0.47575,-1.25376l0.40195,-1.25376l0.29389,-1.25376l0.51134,-2.50752l0.54955,-2.50752l0.51265,-2.50752l0.51265,-2.50752l0.29257,-1.25376l0.25699,-1.25376l0.51134,-2.50752l0.25699,-1.25376l0.29257,-1.25376l0.40327,-2.50752l0.07248,-1.25376l0.0369,-1.25376l0.0369,-2.50752l0.07248,-1.25376l0.40327,-2.50752l0.29257,-1.25376l0.40327,-2.50752l0.10938,-2.50752l-0.10938,-2.50752l-0.40327,-2.50752l-0.51265,-2.50752l-0.18318,-1.25376l-0.21877,-2.50752l-0.40327,-2.50752l-0.54955,-2.50752l-0.51134,-2.50752l-0.29389,-1.25376l-0.36505,-1.25376l-0.84212,-2.50752l-0.98841,-2.50752l-0.58645,-1.25376l-1.24407,-2.50752l-0.58645,-1.25376l-0.98841,-2.50752l-0.47575,-1.25376l-0.47575,-1.25376l-1.17159,-2.50752l-0.73142,-1.25376l-0.73274,-1.25376l-1.61044,-2.50752l-1.61044,-2.50752l-0.84212,-1.25376l-2.1231,-2.50752l-2.52637,-2.50752l-1.31788,-1.25376l-2.63575,-2.40346l-1.31788,-1.04438l-1.31788,-0.97542l-2.63575,-1.6023l-2.63575,-1.42678l-1.31788,-0.66198l-2.63575,-1.32397l-2.63575,-1.39293l-1.31788,-0.66198l-1.31788,-0.69584l-1.31788,-0.55792l-1.31788,-0.55667l-2.63575,-0.87136l-1.31788,-0.34729l-1.31788,-0.27959l-2.63575,-0.48646l-2.63575,-0.52282l-2.63575,-0.4175l-1.31788,-0.14042l-2.63575,-0.4175l-1.31788,-0.31344l-2.63575,-0.62688l-1.31788,-0.27833l-1.31788,-0.31344l-2.63575,-0.38365l-2.63575,-0.10406l-1.31788,0.03511l-1.31788,0.06896l-2.63575,0.41876l-2.63575,0.73094l-1.31788,0.38365l-1.31788,0.3824l-1.31788,0.31344l-2.63575,0.66198l-1.31788,0.3824l-2.63575,0.7673l-1.31788,0.3824l-1.31788,0.31344l-2.63575,0.62688l-1.31788,0.31344l-2.63575,0.38365l-2.63575,0.10406l-1.31788,0l-2.63575,-0.10406l-2.63575,-0.38365l-1.31788,-0.31344l-1.31788,-0.27833l-1.31788,-0.34855l-1.31788,-0.27833l-1.31788,-0.31344l-2.63575,-0.38365l-1.31788,-0.06896l-2.63575,-0.03511l-1.31788,0l-2.63575,0l-14.49663,0m602.26912,87.76314l1.97681,-0.10406l0.73801,-0.17427l1.31788,-0.20938l1.2388,-0.27833l2.63575,-0.34855l1.31788,0l2.63575,0.34855l1.31788,0.27833l2.63575,0.38365l1.31788,0.06896l2.63575,0.03511l1.31788,0.03511l1.31788,0.06896l2.63575,0.38365l1.31788,0.27833l2.63575,0.38365l1.31788,0.06896l2.63575,0.03511l2.63575,0l10.543,0l1.31788,0l10.543,0l5.2715,0l1.31788,0l5.2715,0l1.31788,0l1.31788,0l1.31788,0l1.31788,0l5.2715,0l1.31788,0l2.63575,0l2.63575,0l1.31788,0l2.63575,-0.10406l1.31788,-0.17427l1.31788,-0.20938l2.63575,-0.48771l1.31788,-0.17427l2.63575,-0.13917l1.31788,-0.06896l2.63575,-0.48771l2.55668,-0.94032l1.31788,-0.69709l0.73801,-0.27833l1.97681,-1.25376l0,-16.29887l0,-3.76128l0,-1.25376l-0.03954,-2.50752l-0.06589,-1.25376l-0.40854,-2.50752l-0.28993,-1.25376l-0.22404,-1.25376l-0.21086,-1.25376l-0.15815,-1.25376l-0.47444,-2.50752l-0.76437,-2.50752l-0.4349,-1.25376l-0.88298,-2.50752l-0.88298,-2.50752l-0.47444,-1.25376l-0.47444,-1.25376l-1.13337,-2.50752l-0.69847,-1.25376l-0.57987,-1.25376l-0.73801,-1.25376l-0.6194,-1.25376l-1.50238,-2.50752l-0.84344,-1.25376l-1.79231,-2.50752l-0.98841,-1.25376l-1.97681,-2.50752l-0.98841,-1.25376l-2.22721,-2.50752l-2.53032,-2.47241l-1.31788,-1.1848l-2.63575,-2.08876l-1.31788,-0.90647l-2.63575,-1.70637l-2.63575,-1.63616l-1.31788,-0.80115l-2.63575,-1.42803l-1.31788,-0.59177l-1.31788,-0.69709l-1.31788,-0.55667l-1.31788,-0.66198l-2.63575,-1.01053l-1.31788,-0.34729l-2.63575,-0.76605l-2.63575,-0.90647l-1.31788,-0.45261l-2.63575,-0.48771l-2.63575,-0.20812l-1.31788,-0.17427l-2.63575,-0.48771l-1.31788,-0.20938l-1.31788,-0.17427l-2.63575,-0.10406l-1.31788,0l-2.63575,0l-2.63575,0l-1.31788,0.03511l-1.31788,0.06896l-2.63575,0.38365l-1.31788,0.31344l-1.31788,0.27833l-1.31788,0.34855l-2.63575,0.59177l-2.63575,0.48771l-1.31788,0.27833l-1.31788,0.31344l-1.31788,0.45261l-2.63575,0.97542l-2.63575,0.97542l-1.31788,0.52282l-1.31788,0.48646l-1.31788,0.52282l-2.63575,0.90521l-1.31788,0.41876l-2.63575,0.90521l-1.31788,0.55667l-1.31788,0.55792l-1.31788,0.69584l-1.31788,0.69709l-1.31788,0.80115l-2.63575,1.63616l-2.63575,1.70637l-2.63575,1.91574l-2.53032,2.26429l-2.22721,2.47241l-1.02794,1.25376l-2.12178,2.50752l-2.08224,2.50752l-0.96205,1.25376l-1.71324,2.50752l-0.76437,1.25376l-1.58145,2.50752l-1.60781,2.50752l-0.73801,1.25376l-0.76437,1.25376l-0.6194,1.25376l-1.35741,2.50752l-0.76437,1.25376l-0.69847,1.25376l-0.76437,1.25376l-1.29152,2.50752l-0.51397,1.25376l-0.47444,1.25376l-0.4349,1.25376l-0.8039,2.50752l-0.32947,1.25376l-0.69847,2.50752l-0.39536,1.25376l-0.81708,2.50752l-0.35583,1.25376l-0.44808,2.50752l-0.10543,2.50752l0,2.50752l0,2.50752l0,5.01504l0,2.50752l0,1.25376l0.03954,2.50752l0.06589,1.25376l0.40854,2.50752l0.28993,1.25376l0.4349,2.50752l0.15815,1.25376l0.4349,2.50752l0.28993,1.25376l0.4349,2.50752l0.15815,1.25376l0.47444,2.50752l0.35583,1.25376l0.84344,2.50752l0.92251,2.50752l0.47444,1.25376l1.13337,2.50752l0.69847,1.25376l0.57987,1.25376l0.73801,1.25376l0.6194,1.25376l1.50238,2.50752l1.71324,2.50752l0.96205,1.25376l2.18767,2.50752l1.25198,1.25376l2.59621,2.50752l2.63575,2.50752l1.31788,1.21865l2.63575,2.26429l1.31788,1.00928l1.31788,0.90647l2.63575,1.74022l1.31788,0.87136l1.31788,0.94032l2.63575,1.77658l2.63575,1.49699l1.31788,0.59177l1.31788,0.66198l2.63575,1.01053l1.31788,0.34729l2.63575,0.76605l2.63575,0.90647l1.31788,0.45261l2.63575,0.52156l1.31788,0.14042l2.63575,0.4175l1.31788,0.31344l2.63575,0.62688l1.31788,0.27833l1.31788,0.31344l2.63575,0.38365l2.63575,0.10406l2.63575,0l2.63575,0l5.2715,0l1.31788,0l5.2715,0l1.31788,0l2.63575,0l1.31788,-0.03511l1.31788,-0.06896l2.63575,-0.38365l1.31788,-0.27833l2.63575,-0.48771l2.63575,-0.48771l2.63575,-0.59177l1.31788,-0.34855l1.31788,-0.27833l1.31788,-0.34855l1.31788,-0.27833l2.63575,-0.73094l2.63575,-1.01053l1.31788,-0.62688l2.63575,-1.07949l2.63575,-1.01053l2.63575,-1.35782l2.49078,-1.9847l1.83185,-2.40346l0.8039,-2.50752l0.14497,-2.50752l-0.10543,-2.50752l-0.51397,-2.50752l-0.47444,-1.25376l-1.02794,-2.50752l-1.02794,-2.50752l-1.17291,-2.50752l-0.72483,-1.25376l-1.58145,-2.40346l-1.83185,-1.9847l-2.18767,-1.25376l-2.53032,-0.48771l-1.31788,0l-2.63575,0.45261l-2.63575,1.01053l-1.31788,0.69584l-2.63575,1.39293l-2.63575,1.21991l-2.63575,0.87011l-2.63575,0.66198l-1.31788,0.27833l-1.31788,0.31344l-2.63575,0.38365l-2.63575,0.13917l-1.31788,0.06896l-1.31788,0.17427l-2.63575,0.48771l-2.63575,0.38365l-2.63575,0l-2.63575,-0.38365l-1.31788,-0.31344l-2.63575,-0.62688l-1.31788,-0.27833l-1.31788,-0.34855l-1.31788,-0.27833l-1.31788,-0.34855l-2.63575,-0.59177l-1.31788,-0.24448l-2.63575,-0.59177l-1.31788,-0.45261l-2.63575,-1.25376l-2.63575,-1.49699l-1.31788,-0.76605l-2.63575,-1.77658l-1.27834,-0.97542l-2.38535,-1.9847l-1.0543,-1.07949l-0.96205,-1.1848l-1.71324,-2.47241l-0.73801,-1.25376l-0.72483,-1.25376l-0.59304,-1.25376l-0.57987,-1.25376l-0.92251,-2.50752l-0.35583,-1.25376l-0.44808,-2.50752l-0.06589,-1.18355l-0.03954,-1.25376l0,-2.57773m205.58858,-91.03671l-1.31788,0.27833l-2.63575,0.4175l-1.31788,0.14042l-2.63575,0.4175l-2.63575,0.52282l-2.63575,0.48646l-1.31788,0.27959l-1.31788,0.34729l-2.63575,0.87136l-1.31788,0.52282l-2.63575,0.94032l-1.31788,0.34729l-2.63575,0.76605l-1.31788,0.48771l-2.63575,0.97542l-2.63575,0.97542l-1.31788,0.55667l-1.31788,0.52282l-1.31788,0.66198l-1.31788,0.55667l-1.31788,0.69709l-1.31788,0.59177l-2.63575,1.49699l-1.31788,0.90647l-2.63575,1.84553l-1.31788,0.94032l-2.53032,2.12387l-2.22721,2.40346l-0.98841,1.25376l-1.02794,1.25376l-0.94887,1.25376l-0.98841,1.25376l-1.79231,2.50752l-0.84344,1.25376l-1.50238,2.50752l-0.65894,1.25376l-1.50238,2.50752l-1.60781,2.50752l-0.73801,1.25376l-0.76437,1.25376l-1.35741,2.50752l-0.57987,1.25376l-0.73801,1.25376l-0.57987,1.25376l-0.69847,1.25376l-1.06748,2.50752l-0.35583,1.25376l-0.40854,1.25376l-0.6194,2.50752l-0.4349,2.50752l-0.15815,1.25376l-0.21086,1.25376l-0.22404,1.25376l-0.28993,1.25376l-0.40854,2.50752l-0.06589,1.25376l-0.03954,2.50752l0,2.50752l0,10.03007l0,6.2688l0,2.50752l0.03954,1.25376l0.06589,1.25376l0.40854,2.50752l0.28993,1.25376l0.22404,1.25376l0.21086,1.25376l0.15815,1.25376l0.47444,2.50752l0.76437,2.50752l0.8039,2.50752l0.73801,2.50752l0.35583,1.25376l1.06748,2.50752l0.69847,1.25376l0.57987,1.25376l0.73801,1.25376l0.6194,1.25376l1.50238,2.50752l0.84344,1.25376l1.71324,2.50752l1.79231,2.50752l0.96205,1.25376l2.18767,2.50752l1.25198,1.25376l2.59621,2.40346l2.63575,2.12387l1.31788,0.94032l2.63575,1.88064l1.31788,0.94032l1.31788,0.87136l2.63575,1.63616l2.63575,1.42803l1.31788,0.59177l1.31788,0.69709l1.31788,0.55667l1.31788,0.66198l1.31788,0.52282l1.31788,0.55667l2.63575,0.87136l1.31788,0.34729l1.31788,0.27959l2.63575,0.48646l2.63575,0.52282l2.63575,0.4175l1.31788,0.14042l2.63575,0.4175l1.31788,0.27833l1.31788,0.24448l2.63575,0.48646l1.31788,0.24448l1.31788,0.27833l2.63575,0.38365l1.31788,0.06896l2.63575,0.03511l1.31788,0l2.63575,0l2.63575,0l2.63575,-0.03511l1.31788,-0.06896l2.63575,-0.38365l1.31788,-0.27833l2.63575,-0.4175l1.31788,-0.14042l2.63575,-0.4175l1.31788,-0.27833l2.63575,-0.48771l2.63575,-0.48771l1.31788,-0.31344l1.31788,-0.27833l2.63575,-0.73094l1.31788,-0.48771l2.63575,-0.90647l1.31788,-0.3824l2.63575,-0.90521l1.31788,-0.55792l1.31788,-0.59177l1.31788,-0.62688l2.63575,-1.35782l1.31788,-0.80115l2.49078,-1.88064l1.83185,-2.26429l0.8039,-2.47241l0.10543,-1.25376l-0.06589,-2.50752l-0.51397,-2.50752l-0.47444,-1.25376l-0.92251,-2.50752l-0.32947,-1.25376l-0.57987,-2.50752l-0.32947,-1.25376l-1.06748,-2.50752l-0.76437,-1.25376l-1.83185,-2.36835l-2.34582,-1.70637l-1.27834,-0.4175l-2.63575,0.10406l-2.63575,0.97542l-1.31788,0.73094l-1.31788,0.73094l-2.63575,1.74147l-1.31788,0.87136l-2.63575,1.32272l-2.63575,0.90647l-2.63575,0.69584l-2.63575,0.62688l-1.31788,0.34855l-1.31788,0.27833l-1.31788,0.34855l-1.31788,0.27833l-1.31788,0.31344l-2.63575,0.38365l-1.31788,0.06896l-2.63575,0.03511l-2.63575,0l-2.63575,0l-2.63575,0l-1.31788,-0.03511l-1.31788,-0.06896l-2.63575,-0.38365l-1.31788,-0.27833l-1.31788,-0.24448l-2.63575,-0.52156l-1.31788,-0.31344l-2.63575,-1.01053l-1.31788,-0.73094l-1.31788,-0.76605l-1.31788,-0.97542l-1.31788,-1.04438l-2.63575,-2.40346l-2.53032,-2.50752l-1.13337,-1.25376l-1.0543,-1.25376l-0.96205,-1.25376l-1.71324,-2.50752l-1.46284,-2.50752l-0.59304,-1.25376l-0.57987,-1.25376l-1.02794,-2.50752l-1.02794,-2.50752l-0.51397,-1.25376l-0.35583,-1.25376l-0.40854,-1.25376l-0.6194,-2.50752l-0.26358,-1.25376l-0.50079,-2.50752l-0.26358,-1.25376l-0.28993,-1.25376l-0.40854,-2.50752l-0.06589,-1.25376l-0.03954,-2.50752l0,-1.25376l0.10543,-2.50752l0.40854,-2.50752l0.28993,-1.25376l0.22404,-1.25376l0.21086,-1.25376l0.15815,-1.25376l0.4349,-2.50752l0.6194,-2.50752l0.40854,-1.25376l0.35583,-1.25376l1.06748,-2.50752l0.69847,-1.25376l0.57987,-1.25376l0.73801,-1.25376l0.6194,-1.25376l1.50238,-2.50752l1.71324,-2.50752l0.96205,-1.25376l2.18767,-2.40346l2.53032,-2.12387l1.31788,-0.94032l2.63575,-1.88064l1.31788,-0.94032l2.63575,-1.63741l2.63575,-1.25376l2.63575,-0.835l1.31788,-0.24448l1.31788,-0.17427l2.63575,-0.10406l1.31788,0l1.31788,0l2.63575,0l2.63575,0l1.31788,0l2.63575,0l2.63575,0.03511l1.31788,0.06896l2.63575,0.38365l1.31788,0.27833l2.63575,0.4175l1.31788,0.14042l2.63575,0.45261l2.63575,0.76605l2.63575,0.97542l1.31788,0.48646l1.31788,0.52282l2.63575,0.87136l1.31788,0.34729l1.31788,0.24448l2.63575,0.24323l2.63575,-0.10406l1.31788,-0.27833l1.27834,-0.48771l2.26675,-1.74147l1.58145,-2.36835l0.55351,-1.25376l0.47444,-1.25376l0.94887,-2.50752l1.02794,-2.50752l0.47444,-1.25376l0.51397,-2.50752l0.10543,-2.50752l-0.03954,-1.25376l-0.28993,-2.50752l-0.32947,-1.25376l-1.31788,-2.40346l-2.08224,-2.08876l-1.25198,-0.90647l-2.59621,-1.63616l-1.31788,-0.73094l-2.63575,-1.49824l-2.63575,-1.53209l-2.63575,-1.39293l-2.63575,-1.11459l-1.31788,-0.45261l-2.63575,-0.76605l-2.63575,-0.52282l-1.31788,-0.24323l-1.31788,-0.24448l-2.63575,-0.59177l-1.31788,-0.34855l-1.31788,-0.27833l-2.63575,-0.52282l-1.31788,-0.17427l-2.63575,-0.10406l-2.63575,0l-2.63575,0l-2.63575,0.10406l-2.63575,0.38365z"/>
   <path stroke="null" id="svg_10" fill="#3e3a3d" d="m276.40704,558.2407l-1.31788,0.34729l-1.31788,0.38365l-2.63575,0.83626l-2.63575,0.80115l-1.31788,0.34729l-2.63575,0.52282l-2.63575,0.59177l-2.63575,0.97542l-1.31788,0.66198l-2.63575,1.25376l-1.31788,0.55667l-1.31788,0.69709l-1.31788,0.59177l-2.63575,1.42803l-1.31788,0.80115l-2.63575,1.74147l-2.63575,2.08876l-2.63575,2.40346l-1.31788,1.25376l-2.59885,2.50752l-1.24539,1.25376l-2.23248,2.50752l-2.01371,2.50752l-0.91461,1.25376l-0.95282,1.25376l-1.57354,2.50752l-0.62204,1.25376l-0.73274,1.25376l-0.58514,1.25376l-1.31788,2.50752l-0.69584,1.25376l-0.54955,1.25376l-0.58514,1.25376l-1.02531,2.50752l-1.02531,2.50752l-0.51265,1.25376l-0.36505,1.25376l-0.40327,1.25376l-0.29257,1.25376l-0.65894,2.50752l-0.36637,1.25376l-0.62204,2.50752l-0.25699,1.25376l-0.51134,2.50752l-0.25699,1.25376l-0.29257,1.25376l-0.40327,2.50752l-0.07248,1.25376l-0.0369,2.50752l0,1.25376l0,2.50752l0,2.50752l0.0369,2.50752l0.07248,1.25376l0.40327,2.50752l0.29257,1.25376l0.40327,2.50752l0.07248,1.25376l0.0738,2.50752l0.07248,1.25376l0.40327,2.50752l0.29257,1.25376l0.25699,1.25376l0.51134,2.50752l0.25699,1.25376l0.29257,1.25376l0.51265,2.50752l0.54955,2.50752l0.36505,1.25376l0.91592,2.50752l0.54955,1.25376l1.06089,2.50752l1.02531,2.50752l0.58514,1.25376l0.54955,1.25376l0.69584,1.25376l0.62204,1.25376l1.50106,2.50752l0.84212,1.25376l1.71983,2.50752l1.79363,2.50752l0.95282,1.25376l2.19558,2.50752l2.52637,2.50752l1.31788,1.21865l1.31788,1.1848l2.63575,2.08876l2.63575,1.74147l1.31788,0.80115l2.63575,1.42803l1.31788,0.59177l2.63575,1.25376l1.31788,0.66198l2.63575,1.07949l2.63575,0.87136l1.31788,0.3824l1.31788,0.31344l2.63575,0.62688l1.31788,0.31344l2.63575,0.4175l1.31788,0.14042l1.31788,0.20812l1.31788,0.20938l1.31788,0.27833l2.63575,0.38365l1.31788,0.06896l2.63575,0.03511l1.31788,0l3.95363,0l7.90725,0l2.63575,0l1.31788,0l2.63575,-0.10406l1.31788,-0.17427l1.31788,-0.20938l2.63575,-0.48771l1.31788,-0.17427l2.63575,-0.20812l2.63575,-0.48771l1.31788,-0.45261l2.63575,-0.97542l2.63575,-0.97542l1.31788,-0.55667l1.31788,-0.52282l1.31788,-0.66198l1.31788,-0.59177l1.31788,-0.73094l1.31788,-0.69709l1.31788,-0.80115l2.63575,-1.63616l2.63575,-1.70637l1.31788,-0.87136l1.31788,-0.94032l2.63575,-1.88064l1.31788,-0.94032l2.52637,-2.12387l1.13469,-1.1848l1.09779,-1.21865l2.0862,-2.50752l2.12442,-2.50752l1.02399,-1.25376l1.83053,-2.50752l0.84212,-1.25376l1.50106,-2.50752l0.62204,-1.25376l0.73274,-1.25376l0.58514,-1.25376l0.69584,-1.25376l1.13469,-2.50752l0.47575,-1.25376l0.47575,-1.25376l0.87902,-2.50752l0.87902,-2.50752l0.43885,-1.25376l0.76832,-2.50752l0.44017,-2.50752l0.14628,-2.50752l0.07248,-1.25376l0.40327,-2.50752l0.29257,-1.25376l0.40327,-2.50752l0.07248,-1.25376l0.0369,-1.25376l0,-2.50752l0,-7.52255l0,-3.76128l0,-2.50752l-0.0369,-2.50752l-0.07248,-1.25376l-0.40327,-2.50752l-0.29257,-1.25376l-0.43885,-2.50752l-0.1476,-1.25376l-0.43885,-2.50752l-0.62204,-2.50752l-0.36637,-1.25376l-0.29257,-1.25376l-0.36637,-1.25376l-0.29257,-1.25376l-0.69584,-2.50752l-0.84212,-2.50752l-0.47575,-1.25376l-1.13469,-2.50752l-0.69584,-1.25376l-0.58514,-1.25376l-0.73274,-1.25376l-0.58514,-1.25376l-0.73274,-1.25376l-0.62204,-1.25376l-1.50106,-2.50752l-0.84212,-1.25376l-1.79363,-2.50752l-0.98841,-1.25376l-1.97681,-2.50752l-0.98841,-1.25376l-2.23248,-2.47241l-1.24539,-1.1848l-2.59885,-2.12387l-1.31788,-0.94032l-1.31788,-0.97542l-2.63575,-1.77658l-2.63575,-1.49699l-1.31788,-0.59177l-2.63575,-1.25376l-1.31788,-0.69709l-1.31788,-0.55667l-1.31788,-0.66198l-2.63575,-1.07949l-1.31788,-0.45261l-2.63575,-0.87136l-2.63575,-0.80115l-1.31788,-0.3824l-2.63575,-0.66198l-1.31788,-0.27833l-1.31788,-0.34855l-1.31788,-0.27833l-1.31788,-0.34855l-1.31788,-0.27833l-1.31788,-0.31344l-2.63575,-0.38365l-1.31788,-0.06896l-1.31788,-0.03511l-2.63575,0l-6.58938,0l-2.63575,0l-1.31788,0l-1.31788,0l-2.63575,0.10406l-2.63575,0.41876m484.9782,12.01477l-0.36637,-1.88064l-0.25567,-0.69709l-1.06221,-2.33325l-0.76832,-1.04438l-0.80522,-0.94032l-2.1231,-1.28886l-1.24539,-0.3824l-1.28098,-0.38365l-1.31788,-0.27833l-2.63575,-0.52282l-1.31788,-0.17427l-2.63575,-0.20812l-1.31788,-0.17427l-2.63575,-0.45261l-1.31788,-0.10532l-1.28098,0.10532l-1.24539,0.4175l-1.09779,0.73094l-1.83053,2.12512l-0.76832,1.21865l-1.06221,2.50752l-0.51265,2.50752l-0.10938,2.50752l0,1.25376l0,2.50752l0,10.03007l0,30.09022l0,92.77818l4.02743,0l2.56195,0l2.63575,0.03511l1.31788,0.06896l2.63575,0.38365l2.63575,0.48771l1.31788,0.17427l2.63575,0.10406l2.63575,-0.03511l1.31788,-0.06896l2.63575,-0.38365l1.31788,-0.27833l2.56195,-0.38365l1.31788,-0.06896l2.70955,-0.03511l1.31788,-1.25376l0,-73.97179l0,-12.53759l0,-2.50752l0,-1.25376l0,-1.25376l0.10938,-2.50752l0.18318,-1.25376l0.51265,-2.50752l0.54955,-2.50752l0.32947,-1.25376l1.09779,-2.50752l0.80522,-1.21865l0.91592,-1.1848l2.19558,-2.08876l1.24539,-0.90647l2.59885,-1.70637l2.63575,-1.63616l1.31788,-0.76605l2.63575,-1.1497l1.31788,-0.34855l1.31788,-0.27833l2.63575,-0.48771l1.31788,-0.27833l2.63575,-0.38365l2.63575,-0.10406l1.31788,0l1.31788,0l1.31788,0l2.63575,0.10406l1.31788,0.17427l2.63575,0.48771l1.31788,0.24448l1.31788,0.24323l2.63575,0.62688l2.63575,1.25376l2.52637,1.9847l2.19558,2.40346l1.83053,2.50752l1.57486,2.50752l0.73142,1.25376l1.09911,2.50752l0.36505,1.25376l0.40327,1.25376l0.62204,2.50752l0.22009,1.25376l0.29257,2.50752l0.10938,1.25376l0.40327,2.50752l0.29257,1.25376l0.40327,2.50752l0.07248,1.25376l0.0369,2.50752l0,1.25376l0,3.76128l0,16.29887l0,3.76128l0,1.25376l0.0369,2.50752l0.07248,1.25376l0.40327,2.50752l0.51265,2.50752l0.18318,1.25376l0.10938,2.50752l0,2.50752l0,5.01504l0,1.25376l0,12.53759l0,5.01504l0.0369,2.50752l0.07248,1.25376l0.40327,2.50752l0.29257,1.25376l0.40327,2.50752l0.07248,1.25376l0.0369,2.43731l0,2.57773l1.97681,0.31344l2.05061,0.45261l2.56195,0.38365l1.31788,0.06896l2.63575,0.03511l2.63575,0l5.2715,0l2.63575,0l2.63575,-0.10406l2.63575,-0.41876l1.31788,-0.3824l1.28098,-0.48771l2.2338,-1.49824l0.80522,-1.00928l0.54824,-1.1497l0.65894,-2.47241l0.25699,-1.25376l0.29257,-1.25376l0.40327,-2.50752l0.07248,-1.25376l0.0369,-2.50752l0,-2.50752l0,-1.25376l0.0369,-1.25376l0.07248,-1.25376l0.40327,-2.50752l0.29257,-1.25376l0.40327,-2.50752l0.07248,-1.25376l0.0369,-2.50752l0,-1.25376l0,-3.76128l0,-47.64285l0,-11.28383l0,-2.50752l0,-1.25376l-0.0369,-2.50752l-0.07248,-1.25376l-0.40327,-2.50752l-0.32947,-1.25376l-0.29257,-1.25376l-0.36637,-1.25376l-0.62204,-2.50752l-0.51265,-2.50752l-0.29257,-1.25376l-0.32947,-1.25376l-1.02531,-2.50752l-0.69584,-1.25376l-1.31788,-2.50752l-0.62204,-1.25376l-1.57354,-2.50752l-0.95282,-1.25376l-1.93991,-2.50752l-0.98841,-1.25376l-2.23248,-2.40346l-2.52637,-2.12387l-1.31788,-0.97542l-1.31788,-1.04438l-2.63575,-2.15897l-1.31788,-1.01053l-1.31788,-0.97542l-2.63575,-1.53209l-1.31788,-0.59177l-1.31788,-0.66198l-2.63575,-1.01053l-1.31788,-0.34729l-1.31788,-0.38365l-2.63575,-0.69584l-2.63575,-0.87136l-1.31788,-0.52282l-2.63575,-0.90521l-2.63575,-0.48771l-1.31788,-0.06896l-2.63575,-0.03511l-2.63575,0l-5.2715,0l-3.95363,0l-1.31788,0l-1.31788,0l-2.63575,0.10406l-2.63575,0.41876l-2.63575,0.73094l-1.31788,0.4175l-2.63575,0.83626l-2.63575,0.83626l-1.31788,0.4175l-2.63575,0.87011l-1.31788,0.48771l-2.63575,1.21991l-1.31788,0.73094l-1.31788,0.66198l-1.31788,0.73094l-1.31788,0.59177l-1.31788,0.66198l-2.63575,0.97542l-2.63575,0.59177l-1.24407,0.24323l-1.31788,0.27959l-2.70955,0.73094z"/>
   <path stroke="null" id="svg_11" fill="#fa3081" d="m1276.67457,567.74796l-0.43885,-1.88064l-1.02531,-1.84553l-1.72115,-1.95085l-2.19558,-1.49699l-1.24539,-0.52282l-1.28098,-0.48771l-2.63575,-0.48771l-2.63575,-0.10406l-1.31788,0l-2.63575,0l-1.31788,0.03511l-1.31788,0.06896l-2.63575,0.38365l-1.24407,0.27833l-1.31788,0.20938l-0.73274,0.17427l-1.97681,0.10406l-0.91461,1.88064l-0.47707,0.69709l-1.35346,2.43731l-0.54955,1.25376l-0.54955,2.50752l-0.10938,2.50752l-0.0369,2.50752l-0.07248,1.25376l-0.40327,2.50752l-0.29257,1.25376l-0.40327,2.50752l-0.07248,1.25376l-0.0369,2.50752l0,1.25376l0,2.50752l0,1.25376l0,11.28383l0,2.50752l0,1.25376l-0.0369,2.50752l-0.07248,1.25376l-0.40327,2.50752l-0.29257,1.25376l-0.40327,2.50752l-0.07248,1.25376l-0.0369,2.50752l0,2.50752l0,7.52255l0,10.03007l0,3.76128l0,1.25376l0.10938,2.50752l0.18318,1.25376l0.51265,2.50752l0.40327,2.50752l0.07248,1.25376l0.0369,2.50752l0,2.50752l0,10.03007l0,1.25376l0,1.25376l0,21.31391l0,3.76128l0,2.50752l0,1.25376l0.10938,2.50752l0.47575,2.43731l0.76964,1.95085l1.28098,1.88064l1.97681,0.03511l2.05061,0.24323l2.56195,0.48771l2.63575,0.38365l1.31788,0.06896l2.63575,0.03511l1.31788,0l2.63575,0l2.63575,0l1.31788,0l2.63575,-0.03511l1.31788,-0.06896l2.63575,-0.48771l2.56195,-0.90521l0.73274,-0.38365l1.97681,-0.62688l0,-5.01504l0,-7.52255l0,-2.50752l0,-1.25376l-0.0369,-2.50752l-0.07248,-1.25376l-0.40327,-2.50752l-0.51265,-2.50752l-0.18318,-1.25376l-0.10938,-2.50752l0,-1.25376l0,-2.50752l0,-8.77631l0,-3.76128l0,-2.50752l0.0369,-2.50752l0.07248,-1.25376l0.40327,-2.50752l0.51265,-2.50752l0.18318,-1.25376l0.10938,-2.50752l0,-1.25376l0,-2.50752l0,-7.52255l0,-2.50752l0.0369,-2.50752l0.07248,-1.25376l0.40327,-2.50752l0.29257,-1.25376l0.40327,-2.50752l0.07248,-1.25376l0.0738,-2.50752l0.07248,-1.25376l0.40327,-2.50752l0.62204,-2.50752l0.36637,-1.25376l0.32947,-1.25376l0.84212,-2.50752l0.51265,-1.25376l1.31788,-2.50752l0.80522,-1.25376l1.83053,-2.50752l1.06089,-1.25376l2.38008,-2.50752l2.59885,-2.40346l1.31788,-1.04438l1.31788,-0.94032l2.63575,-1.28886l2.63575,-0.76605l1.31788,-0.31344l1.31788,-0.3824l1.31788,-0.38365l2.63575,-0.73094l2.63575,-0.31344l1.31788,0.10406l2.63575,0.48771l1.31788,0.31344l2.63575,0.97542l1.31788,0.69584l2.63575,1.35907l1.31788,0.45261l1.31788,0.27833l2.63575,0.03511l2.63575,-0.48771l1.31788,-0.45261l2.59885,-1.01053l1.24539,-0.55667l2.19558,-1.53335l1.83053,-2.15897l0.80522,-1.21865l1.24539,-2.50752l0.40195,-1.25376l0.73274,-2.50752l0.40195,-1.25376l0.40327,-1.25376l0.76832,-2.50752l0.25699,-1.25376l0.25567,-2.50752l0.0369,-2.50752l0,-1.25376l-0.10938,-2.50752l-0.54955,-2.47241l-1.31788,-2.15897l-2.0862,-1.49824l-2.52637,-0.87011l-1.31788,-0.24448l-1.31788,-0.17427l-2.63575,-0.10406l-1.31788,0l-1.31788,0l-2.63575,0l-1.31788,0l-2.63575,0.10406l-1.31788,0.17427l-1.31788,0.20938l-2.63575,0.48771l-1.31788,0.17427l-2.63575,0.20812l-1.31788,0.17427l-1.31788,0.20938l-2.63575,0.59177l-1.31788,0.34855l-1.31788,0.27833l-1.31788,0.34855l-2.63575,0.66198l-1.31788,0.34729l-2.63575,1.01053l-1.31788,0.66198l-1.31788,0.55667l-1.31788,0.69709l-1.31788,0.55667l-1.31788,0.66198l-2.63575,0.97542l-2.63575,0.48771l-2.63575,0.10406l-1.31788,0l-2.56195,0l-2.05061,0l-1.97681,0m148.91994,-9.54236l-2.63575,0.52282l-2.63575,0.48646l-1.31788,0.27959l-1.31788,0.34729l-2.63575,0.7673l-1.31788,0.34729l-1.31788,0.27959l-2.63575,0.48646l-1.31788,0.27959l-2.63575,0.73094l-1.31788,0.4175l-1.31788,0.41876l-2.63575,0.94032l-1.31788,0.59177l-1.31788,0.66198l-2.63575,1.5672l-2.63575,1.67126l-2.63575,1.77658l-1.31788,0.97417l-1.31788,1.01053l-2.53032,2.01981l-1.13337,0.97542l-2.12178,2.12387l-2.20085,2.40346l-2.22721,2.50752l-1.02794,1.25376l-0.8039,1.25376l-0.8039,1.25376l-0.65894,1.25376l-1.50238,2.50752l-0.84344,1.25376l-0.84344,1.25376l-1.71324,2.50752l-0.8039,1.25376l-1.31788,2.50752l-0.98841,2.50752l-0.44808,1.25376l-0.47444,1.25376l-1.02794,2.50752l-0.47444,1.25376l-0.47444,1.25376l-0.51397,2.50752l-0.21086,2.50752l-0.40854,2.50752l-0.32947,1.25376l-0.28993,1.25376l-0.36769,1.25376l-0.29257,1.25376l-0.32947,1.25376l-0.40327,2.50752l-0.07248,1.25376l-0.0369,2.50752l0,2.50752l0,3.76128l0,6.2688l0,2.50752l0.0369,1.25376l0.07248,1.25376l0.40327,2.50752l0.29257,1.25376l0.43885,2.50752l0.15287,1.25376l0.47444,2.50752l0.35583,1.25376l0.81708,2.50752l0.39536,1.25376l0.8039,2.50752l0.47444,1.25376l1.10702,2.50752l0.51397,1.25376l1.01476,2.50752l1.17291,2.50752l0.6194,1.25376l0.55351,1.25376l1.21245,2.50752l1.46284,2.50752l0.84344,1.25376l1.71324,2.50752l1.79231,2.50752l0.96205,1.25376l2.18767,2.50752l2.53032,2.50752l2.63575,2.47241l2.63575,2.26429l1.31788,1.00928l1.31788,0.90647l2.63575,1.70637l1.31788,0.80115l1.31788,0.76605l2.63575,1.35782l1.31788,0.62688l2.63575,1.11459l1.31788,0.4175l2.63575,0.59177l1.31788,0.24448l2.63575,0.59177l1.31788,0.34855l1.31788,0.27833l1.31788,0.31344l2.63575,0.4175l1.31788,0.14042l2.63575,0.4175l1.31788,0.27833l2.63575,0.38365l2.63575,0.20812l1.31788,0.17427l2.63575,0.48771l1.31788,0.20938l1.31788,0.17427l2.63575,0.10406l1.31788,0l1.31788,0l1.31788,0l2.63575,-0.10406l2.63575,-0.38365l1.31788,-0.31344l1.31788,-0.27833l1.31788,-0.34855l2.63575,-0.59177l1.31788,-0.24448l2.63575,-0.48646l1.31788,-0.27959l2.63575,-0.73094l1.31788,-0.4175l2.63575,-0.94032l2.63575,-1.21991l1.31788,-0.73094l1.31788,-0.66198l1.31788,-0.73094l1.31788,-0.59177l1.31788,-0.69709l1.31788,-0.59177l2.63575,-1.42803l2.63575,-1.63616l1.31788,-0.90647l2.63575,-2.08876l2.59621,-2.40346l1.25198,-1.25376l1.13337,-1.25376l1.0543,-1.25376l1.87138,-2.50752l0.88298,-1.25376l1.71324,-2.50752l0.84344,-1.25376l0.73801,-1.25376l0.76437,-1.25376l0.6194,-1.25376l0.69847,-1.25376l0.55351,-1.25376l0.57987,-1.25376l1.02794,-2.50752l1.02794,-2.50752l0.51397,-1.25376l0.35583,-1.25376l0.40854,-1.25376l0.28993,-1.25376l0.65894,-2.50752l0.65894,-2.50752l0.36901,-1.25376l0.28993,-1.25376l0.36901,-1.25376l0.6194,-2.50752l0.40854,-2.50752l0.21086,-2.50752l0.40854,-2.50752l0.28993,-1.25376l0.40854,-2.50752l0.06589,-1.25376l0.14497,-2.50752l0.1845,-1.25376l0.51397,-2.50752l0.22404,-1.25376l0.1845,-1.25376l0.10543,-2.50752l0,-1.25376l0,-1.25376l-0.03954,-2.50752l-0.06589,-1.25376l-0.40854,-2.50752l-0.28993,-1.25376l-0.22404,-1.25376l-0.36901,-2.50752l-0.47444,-2.50752l-0.35583,-1.25376l-0.92251,-2.50752l-0.55351,-1.25376l-1.0543,-2.50752l-1.02794,-2.50752l-0.55351,-1.25376l-1.0543,-2.50752l-1.02794,-2.50752l-0.55351,-1.25376l-0.50079,-1.25376l-0.59304,-1.25376l-1.21245,-2.50752l-0.6853,-1.25376l-1.64734,-2.50752l-1.76595,-2.50752l-1.75277,-2.50752l-0.90933,-1.25376l-0.96205,-1.25376l-2.18767,-2.50752l-2.53032,-2.50752l-1.31788,-1.21865l-1.31788,-1.1848l-2.63575,-2.08876l-2.63575,-1.74147l-1.31788,-0.80115l-1.31788,-0.69709l-1.31788,-0.69584l-1.31788,-0.55792l-1.31788,-0.55667l-2.63575,-0.97542l-2.63575,-1.07949l-1.31788,-0.62688l-1.31788,-0.52282l-2.63575,-1.00928l-2.63575,-0.80115l-1.31788,-0.31344l-2.63575,-0.62688l-1.31788,-0.31344l-1.31788,-0.20938l-2.63575,-0.27833l-1.31788,-0.10406l-2.63575,-0.38365l-1.31788,-0.27833l-2.63575,-0.38365l-1.31788,-0.06896l-1.31788,-0.03511l-2.63575,0l-2.63575,0l-1.31788,0l-2.63575,0.10406l-2.63575,0.38365m110.70154,3.27357l-0.8039,2.57773l-0.32947,1.25376l-0.36901,1.18355l-0.28993,1.25376l-0.32947,1.25376l-0.40854,2.50752l-0.06589,1.25376l0.06589,2.50752l0.40854,2.50752l0.28993,1.25376l0.40854,2.50752l0.06589,1.25376l0.03954,2.43731l0,2.57773l1.97681,0.31344l0.73801,0.17427l2.55668,0.48771l1.31788,0.17427l2.63575,0.20812l1.31788,0.17427l2.63575,0.48771l2.63575,0.38365l2.63575,0.20812l1.31788,0.20938l1.31788,0.31344l2.49078,1.25376l1.93728,1.9847l1.21245,2.40346l0.39536,1.25376l0.44808,2.50752l0.06589,1.25376l0.14497,2.50752l0.40854,2.50752l0.28993,1.25376l0.40854,2.50752l0.06589,1.25376l0.03954,1.25376l0,2.50752l0,7.52255l0,3.76128l0,3.76128l0,35.10526l0,1.25376l0,12.53759l0,3.76128l0,1.25376l-0.03954,2.50752l-0.06589,1.25376l-0.40854,2.50752l-0.28993,1.25376l-0.40854,2.50752l-0.06589,1.25376l-0.03954,2.50752l0,2.50752l0,7.52255l0,2.50752l0,2.50752l-0.03954,1.25376l-0.06589,1.25376l-0.44808,2.50752l-0.8039,2.50752l-0.51397,1.25376l-0.65894,1.25376l-0.76437,1.25376l-2.08224,2.40346l-1.25198,1.07949l-1.27834,1.00928l-2.63575,1.63741l-1.31788,0.62688l-2.63575,0.90521l-1.31788,0.31344l-1.31788,0.34855l-1.31788,0.27833l-2.63575,0.62688l-1.31788,0.31344l-2.63575,0.4175l-1.31788,0.14042l-2.63575,0.4175l-1.31788,0.27833l-2.63575,0.4175l-1.31788,0.14042l-2.63575,0.4175l-2.63575,0.52282l-2.63575,0.48646l-2.55668,0.59303l-1.31788,0.45261l-0.73801,0.20812l-1.97681,1.01053l0,7.52255l0,2.50752l0.03954,1.25376l0.06589,1.25376l0.44808,2.50752l0.76437,2.50752l0.76437,2.50752l0.26358,1.25376l0.1845,1.25376l0.10543,2.50752l0,1.25376l0,1.18355l0,3.83149l2.71482,0l1.31788,0l3.87455,0l1.31788,0l1.31788,0l5.2715,0l1.31788,0l2.63575,0l6.58938,0l2.63575,0l1.2388,0l1.31788,0l2.71482,0l0.32947,-1.88064l0.47444,-1.95085l0.40854,-2.43731l0.06589,-1.18355l0.03954,-1.25376l0,-2.57773l2.71482,0l1.31788,0l2.55668,0l2.63575,0l1.31788,-0.03511l1.31788,-0.06896l2.63575,-0.41876l1.31788,-0.34729l2.63575,-0.87136l1.31788,-0.52282l2.63575,-1.04438l1.31788,-0.55667l2.63575,-1.42803l2.63575,-1.77658l2.53032,-1.9847l2.22721,-2.26429l0.98841,-1.21865l1.93728,-2.50752l0.96205,-1.25376l1.56827,-2.50752l0.6194,-1.25376l0.69847,-1.25376l0.55351,-1.25376l0.57987,-1.25376l0.92251,-2.50752l0.39536,-1.25376l0.32947,-1.25376l0.76437,-2.50752l0.51397,-1.25376l0.44808,-1.25376l0.76437,-2.50752l0.22404,-1.25376l0.06589,-1.25376l0.14497,-2.50752l0.1845,-1.25376l0.51397,-2.50752l0.40854,-2.50752l0.06589,-1.25376l0.03954,-2.50752l0,-6.2688l0,-1.25376l0.03954,-2.50752l0.06589,-1.25376l0.40854,-2.50752l0.28993,-1.25376l0.40854,-2.50752l0.06589,-1.25376l0.03954,-2.50752l0,-3.76128l0,-10.03007l0,-30.09022l0,-7.52255l0,-2.50752l0.03954,-1.25376l0.06589,-1.25376l0.40854,-2.50752l0.28993,-1.25376l0.40854,-2.50752l0.06589,-1.25376l0.03954,-1.25376l0,-2.50752l0,-8.77631l0,-18.80639l0,-6.2688l0,-2.50752l-0.03954,-1.25376l-0.06589,-1.25376l-0.40854,-2.50752l-0.28993,-1.25376l-0.40854,-2.50752l-0.06589,-1.25376l-0.03954,-2.50752l-0.03954,-2.50752l-0.06589,-1.25376l-0.44808,-2.50752l-0.32947,-1.18355l-0.47444,-1.25376l-0.21086,-0.69709l-1.06748,-1.88064l-2.71482,0l-3.87455,0l-2.63575,0l-2.63575,0l-5.2715,0l-1.31788,0l-2.63575,0l-2.63575,0l-1.31788,0l-2.63575,0l-1.31788,0l-2.63575,0.03511l-1.31788,0.06896l-2.63575,0.38365l-1.31788,0.27833l-2.63575,0.38365l-1.31788,0.06896l-2.63575,0.03511l-1.31788,0l-2.63575,0l-1.31788,0l-2.63575,0l-2.63575,0.03511l-1.31788,0.06896l-2.55668,0.38365l-2.05589,0.45261l-1.97681,0.31344z"/>
   <path stroke="null" id="svg_12" fill="#3e3a3d" d="m634.86918,585.30058l1.31788,1.25376l1.97681,0.10406l2.05061,0.48771l2.56195,0.97542l1.31788,0.62688l2.56195,0.97542l2.05061,0.48771l1.97681,0.10406l0,2.57773l0.0369,1.25376l0.07248,1.18355l0.40327,2.50752l0.29257,1.25376l0.40327,2.50752l0.07248,1.25376l0.0369,1.25376l0,2.50752l0,7.52255l0,1.25376l0.0369,2.50752l0.07248,1.25376l0.40327,2.50752l0.29257,1.25376l0.40327,2.50752l0.07248,1.25376l0.0369,2.50752l0,5.01504l0,12.53759l0,27.5827l0,8.77631l0,3.76128l0,1.25376l0,2.50752l0.0369,1.25376l0.07248,1.25376l0.40327,2.50752l0.29257,1.25376l0.40327,2.50752l0.07248,1.25376l0.0369,2.50752l0,1.18355l0,3.83149l2.70955,0.76605l1.31788,0.31344l1.24407,0.34855l1.31788,0.27833l2.63575,0.52282l1.31788,0.17427l2.63575,0.10406l2.63575,0l2.63575,0l2.63575,-0.03511l1.31788,-0.06896l2.63575,-0.38365l1.31788,-0.31344l1.31788,-0.31344l2.48947,-1.00928l1.02531,-0.80115l0.80522,-0.97542l0.51265,-1.1497l0.29257,-1.21865l0.14628,-2.50752l0,-1.25376l0,-3.76128l0,-1.25376l0.10938,-2.50752l0.18318,-1.25376l0.51265,-2.50752l0.40327,-2.50752l0.07248,-1.25376l0.0369,-2.50752l0,-1.25376l0,-2.50752l0,-11.28383l0,-3.76128l0,-2.50752l0.0369,-2.50752l0.07248,-1.25376l0.40327,-2.50752l0.51265,-2.50752l0.18318,-1.25376l0.10938,-2.50752l0,-1.25376l0,-2.50752l0,-7.52255l0,-23.82142l0,-23.82142l0,-7.52255l0,-2.50752l0,-1.25376l-0.10938,-2.50752l-0.18318,-1.25376l-0.51265,-2.50752l-0.40327,-2.50752l-0.07248,-1.25376l-0.0369,-2.50752l0,-1.18355l0,-3.83149l-1.31788,-1.25376l-4.02743,0l-1.24407,0l-2.63575,0.03511l-1.31788,0.06896l-2.63575,0.38365l-1.31788,0.27833l-2.63575,0.38365l-1.31788,0.06896l-2.63575,0.03511l-3.95363,0l-13.17876,0l-2.63575,0l-1.31788,0l-2.63575,0.10406l-2.63575,0.41876l-1.28098,0.3824l-1.20849,0.48771l-1.93991,1.49824l-1.20849,2.15897l-0.40195,1.21865l-0.44017,2.50752l-0.07248,1.25376l-0.0369,2.50752l0,2.50752l0,8.77631z"/>
   <path stroke="null" id="svg_13" fill="#fa3081" d="m1951.42684,561.47916l-1.31788,1.25376l0,3.83149l0,2.43731l0.03954,2.50752l0.06589,1.25376l0.40854,2.50752l0.28993,1.25376l0.40854,2.50752l0.06589,1.25376l0.1845,2.50752l0.8039,2.40346l0.8039,1.07949l2.24039,1.88064l1.27834,0.80115l2.63575,1.25376l2.63575,0.835l1.2388,0.24448l2.05589,0.24323l1.97681,0.03511l1.31788,1.25376l0,5.01504l0,2.50752l0,3.76128l0,10.03007l0,40.12029l0,17.55263l0,2.50752l0,1.25376l0,1.25376l0.10543,2.50752l0.1845,1.25376l0.26358,1.25376l0.8039,2.50752l0.51397,1.25376l1.31788,2.50752l0.8039,1.25376l1.79231,2.50752l0.98841,1.25376l0.94887,1.25376l2.01635,2.47241l2.22721,2.26429l2.53032,1.9847l2.63575,1.84553l1.31788,0.90647l2.63575,1.5672l2.63575,1.39293l1.31788,0.59177l2.63575,0.94032l1.31788,0.3824l2.63575,0.90647l1.31788,0.45261l2.63575,0.48771l2.63575,0.20812l2.63575,0.38365l1.31788,0.27833l2.63575,0.4175l1.31788,0.14042l2.63575,0.4175l1.31788,0.27833l2.63575,0.38365l1.31788,0.06896l2.63575,0.03511l1.31788,0l2.63575,0l2.63575,0l1.31788,0l2.63575,-0.03511l1.31788,-0.10406l2.63575,-0.62688l2.63575,-0.97542l2.63575,-0.62688l1.31788,-0.10406l1.31788,-0.03511l2.63575,0l2.55668,0l2.05589,0l1.97681,0l0,-33.8515l-2.71482,0l-1.31788,0l-1.2388,0l-2.63575,0l-2.63575,0.10406l-1.31788,0.17427l-2.63575,0.48771l-2.63575,0.4175l-1.31788,0.14042l-2.63575,0.4175l-1.31788,0.31344l-1.31788,0.27833l-1.31788,0.34855l-1.31788,0.27833l-1.31788,0.31344l-2.63575,0.38365l-1.31788,0.06896l-1.31788,0.03511l-2.63575,0l-2.63575,0l-1.31788,0l-5.2715,0l-0.36901,-1.88064l-0.76437,-1.95085l-0.51397,-1.18355l-0.65894,-1.25376l-1.06748,-2.50752l-0.35583,-1.25376l-0.40854,-1.25376l-0.6194,-2.50752l-0.4349,-2.50752l-0.15815,-1.25376l-0.4349,-2.50752l-0.28993,-1.25376l-0.40854,-2.50752l-0.06589,-1.25376l-0.03954,-2.50752l0,-2.50752l0,-10.03007l0,-17.55263l0,-5.01504l0,-1.25376l0.03954,-2.50752l0.06589,-1.25376l0.40854,-2.50752l0.28993,-1.25376l0.40854,-2.50752l0.06589,-1.25376l0.03954,-2.50752l0,-2.50752l0,-10.03007l1.31788,-1.25376l2.71482,0l2.55668,0.03511l1.31788,0.06896l2.63575,0.38365l1.31788,0.27833l2.63575,0.38365l1.31788,0.06896l2.63575,0.03511l2.63575,0l1.31788,0l2.63575,0l2.63575,-0.03511l1.31788,-0.06896l2.63575,-0.38365l1.2388,-0.27833l1.31788,-0.20938l0.73801,-0.17427l1.97681,-0.10406l0.32947,-1.88064l0.51397,-1.95085l0.28993,-1.18355l0.36901,-1.25376l0.28993,-1.25376l0.32947,-1.25376l0.40854,-2.50752l0.06589,-1.25376l0.03954,-1.25376l0,-2.50752l0,-2.50752l-0.03954,-1.25376l-0.06589,-1.25376l-0.40854,-2.43731l-0.47444,-1.95085l-0.32947,-1.88064l-2.71482,-0.73094l-1.31788,-0.24448l-1.2388,-0.17427l-2.63575,-0.10406l-1.31788,0l-1.31788,0l-3.95363,0l-2.63575,0l-10.543,0l-2.63575,0l-1.31788,0l-10.543,0l-2.63575,0l-1.31788,0l-1.31788,0l-2.63575,0l-1.31788,0l-2.63575,0l-1.31788,0l-5.2715,0l-2.63575,0l-10.543,0l-3.95363,0l-1.31788,0l-2.63575,0.10406l-2.63575,0.38365l-1.31788,0.27833l-2.63575,0.38365l-1.2388,0.06896l-1.31788,0.03511l-2.71482,0z"/>
   <path stroke="null" id="svg_14" fill="#fefdfe" d="m280.36066,589.65364l-1.31788,0.48771l-1.31788,0.48771l-1.31788,0.66198l-2.63575,1.32272l-1.31788,0.69709l-2.63575,1.63616l-1.31788,0.90647l-2.63575,2.08876l-2.52637,2.40346l-2.1231,2.50752l-0.80522,1.25376l-0.80522,1.25376l-0.62204,1.25376l-1.31788,2.50752l-0.69584,1.25376l-1.02531,2.50752l-0.54824,2.50752l-0.1476,1.25376l-0.43885,2.50752l-0.29257,1.25376l-0.43885,2.50752l-0.1476,1.25376l-0.43885,2.50752l-0.29257,1.25376l-0.40327,2.50752l-0.07248,1.25376l-0.0369,2.50752l0,2.50752l0,2.50752l0,1.25376l0.10938,2.50752l0.18318,1.25376l0.22009,1.25376l0.51265,2.50752l0.18318,1.25376l0.21877,2.50752l0.51265,2.50752l0.47575,1.25376l1.02531,2.50752l1.02531,2.50752l0.58514,1.25376l1.24539,2.50752l0.58514,1.25376l0.73274,1.25376l0.62204,1.25376l1.50106,2.50752l1.71983,2.50752l0.95282,1.25376l1.06089,1.25376l2.38008,2.40346l2.59885,2.01981l1.31788,0.76605l1.31788,0.73094l2.63575,1.04564l1.31788,0.34729l2.63575,0.66198l1.31788,0.31344l2.63575,0.38365l2.63575,0.10406l1.31788,0l2.63575,-0.10406l2.63575,-0.38365l1.31788,-0.31344l1.31788,-0.27833l2.63575,-0.73094l2.63575,-1.01053l1.31788,-0.66198l2.63575,-1.35782l1.31788,-0.76605l1.31788,-0.97542l1.31788,-1.04438l2.59885,-2.40346l2.38008,-2.50752l1.06089,-1.25376l0.95282,-1.25376l1.71983,-2.50752l0.73274,-1.25376l0.73142,-1.25376l0.58645,-1.25376l0.58514,-1.25376l0.47575,-1.25376l0.91592,-2.50752l0.84212,-2.50752l0.36505,-1.25376l0.44017,-2.50752l0.10938,-2.50752l0,-2.50752l0.0369,-1.25376l0.07248,-1.25376l0.40327,-2.50752l0.29257,-1.25376l0.40327,-2.50752l0.07248,-1.25376l0.0369,-1.25376l-0.10938,-2.50752l-0.40327,-2.50752l-0.51265,-2.50752l-0.18318,-1.25376l-0.21877,-2.50752l-0.44017,-2.50752l-0.36505,-1.25376l-0.80654,-2.50752l-0.40195,-1.25376l-0.69584,-2.50752l-0.32947,-1.25376l-0.84212,-2.50752l-0.47575,-1.25376l-1.13469,-2.50752l-0.69584,-1.25376l-0.62204,-1.25376l-0.76832,-1.25376l-1.57486,-2.50752l-1.83053,-2.50752l-2.19558,-2.40346l-2.52637,-2.08876l-1.31788,-0.87136l-1.31788,-0.76605l-2.63575,-1.04438l-2.63575,-0.59177l-1.31788,-0.24448l-1.31788,-0.27833l-2.63575,-0.38365l-1.31788,-0.06896l-1.31788,-0.03511l-2.63575,0l-2.63575,0l-1.31788,0l-2.63575,0.10406l-2.63575,0.48771m1143.91596,0.17427l-2.63575,1.01053l-1.31788,0.48771l-2.63575,1.11334l-2.53032,1.77658l-1.13337,1.1497l-2.12178,2.47241l-2.22721,2.50752l-2.49078,2.50752l-1.25198,1.25376l-2.18767,2.50752l-1.76595,2.50752l-0.6853,1.25376l-0.63258,1.25376l-0.98841,2.50752c-0.44808,1.23871 -0.85662,2.49373 -1.19927,3.76128l-0.26358,1.25376l-0.1845,1.25376l-0.14497,2.50752l-0.06589,1.25376l-0.1845,1.25376l-0.51397,2.50752l-0.22404,1.25376l-0.1845,1.25376l-0.10543,2.50752l0,1.25376l0,1.25376l0,3.76128l0,2.50752l0,1.25376l0.10543,2.50752l0.44808,2.50752l0.76437,2.50752l0.40854,1.25376l0.39536,1.25376l0.69847,2.50752l0.32947,1.25376l0.39536,1.25376l0.92251,2.50752l0.57987,1.25376l1.25198,2.50752l0.57987,1.25376l0.73801,1.25376l0.57987,1.25376l0.73801,1.25376l0.6194,1.25376l1.60781,2.50752l1.02794,1.25376l2.34582,2.47241l2.59621,2.26429l1.31788,1.00928l2.63575,1.67251l2.63575,1.25376l2.63575,0.835l2.63575,0.41876l2.63575,0.10406l1.31788,0l2.63575,0l2.63575,0l1.31788,0l2.63575,-0.10406l2.63575,-0.48771l1.31788,-0.45261l2.63575,-0.97542l2.63575,-1.01053l1.31788,-0.62688l1.31788,-0.73094l1.31788,-0.90521l1.27834,-0.97542l1.25198,-1.01053l2.18767,-1.9847l0.96205,-1.04438l1.71324,-2.26429l0.73801,-1.21865l0.76437,-1.25376l0.6194,-1.25376l1.31788,-2.50752l0.69847,-1.25376l1.02794,-2.50752l0.54033,-2.50752l0.15815,-1.25376l0.4349,-2.50752l0.32947,-1.25376l0.28993,-1.25376l0.36901,-1.25376l0.6194,-2.50752l0.26358,-1.25376l0.50079,-2.50752l0.26358,-1.25376l0.28993,-1.25376l0.40854,-2.50752l0.06589,-1.25376l0.03954,-2.50752l0,-2.50752l0,-3.76128l0,-3.76128l0,-1.25376l0,-1.25376l-0.10543,-2.50752l-0.1845,-1.25376l-0.26358,-1.25376l-0.76437,-2.50752l-0.8039,-2.50752l-0.32947,-1.25376l-0.8039,-2.50752l-0.6194,-1.25376l-0.73801,-1.25376l-2.05589,-2.50752l-2.26675,-2.50752l-2.12178,-2.47241l-1.09384,-1.1848l-1.13337,-1.07949l-1.25198,-1.00928l-1.27834,-0.90647l-2.63575,-1.70637l-2.63575,-1.63616l-1.31788,-0.80115l-2.63575,-1.39293l-1.31788,-0.52282l-1.31788,-0.48771l-1.31788,-0.27833l-1.31788,-0.20938l-2.63575,-0.10406l-1.31788,0l-2.63575,0l-2.63575,0l-1.31788,0.03511l-1.31788,0.10406l-2.63575,0.62688m-1306.01465,0.97542l-1.31788,0.31344l-2.63575,0.62688l-1.31788,0.31344l-2.63575,0.87011l-1.31788,0.59303l-2.63575,1.42678l-2.63575,1.63741l-2.63575,1.77658l-2.63575,2.08876l-2.52597,2.40346l-2.19637,2.50752l-0.9519,1.25376l-1.68385,2.50752l-1.31788,2.50752l-0.51252,1.25376l-0.84199,2.50752l-0.32947,1.25376l-0.65894,2.50752l-0.36611,1.25376l-0.29283,1.25376l-0.65894,2.50752l-0.32947,1.25376l-0.40274,2.50752l-0.07314,1.25376l-0.03664,2.50752l0,2.50752l0,2.50752l0,1.25376l0,1.25376l0.10978,2.50752l0.40274,2.50752l0.29283,1.25376l0.21969,1.25376l0.36611,2.50752l0.21956,1.25376l0.25633,1.25376l0.36597,1.25376l0.91526,2.50752l0.54916,1.25376l1.06155,2.50752l1.06168,2.50752l0.6223,1.25376l1.50093,2.50752l1.72049,2.50752l0.87863,1.25376l1.86703,2.50752l2.19637,2.40346l1.24473,1.04438l1.28124,0.97542l2.63575,1.53209l1.31788,0.59177l1.31788,0.66198l2.63575,1.07949l2.63575,0.87136l1.31788,0.34729l2.63575,0.41876l1.31788,0.06896l2.63575,0.03511l1.31788,0l3.95363,0l2.63575,0l1.31788,0l1.31788,0l2.63575,-0.10406l2.63575,-0.38365l1.31788,-0.27833l1.31788,-0.20938l2.63575,-0.3824l2.63575,-0.80115l2.48934,-1.74147l1.94018,-2.36835l0.69557,-1.25376l0.91513,-2.50752l0.47588,-2.50752l0.14655,-1.25376l0.43925,-2.50752l0.29283,-1.25376l0.40274,-2.50752l0.07314,-1.25376l0.03664,-2.50752l0,-2.50752l0,-8.77631l0,-21.31391l0,-7.52255l0,-2.50752l-0.10978,-2.50752l-0.40274,-2.50752l-0.29283,-1.25376l-0.40274,-2.50752l-0.21956,-2.50752l-0.18305,-1.25376l-0.6223,-2.50752l-0.43938,-1.25376l-1.17146,-2.40346l-0.76872,-1.04438l-0.98841,-0.97542l-2.34292,-1.49699l-2.59911,-1.01053l-2.63575,-0.48771l-1.31788,-0.06896l-2.63575,-0.07021l-1.31788,-0.06896l-2.63575,-0.38365l-1.31788,-0.27833l-2.63575,-0.38365l-2.63575,-0.10406l-1.31788,0l-2.63575,0.10406l-2.63575,0.38365m842.12247,0.10406l-1.31788,0.48771l-1.31788,0.52282l-2.63575,1.49699l-2.63575,2.01981l-2.63575,2.40346l-1.31788,1.25376l-1.31788,1.25376l-1.31788,1.25376l-2.52637,2.50752l-2.1231,2.50752l-1.57354,2.50752l-0.58645,1.25376l-0.58514,1.25376l-0.91592,2.50752l-0.40195,1.25376l-0.32947,1.25376l-0.65894,2.50752l-0.32947,1.25376l-0.40327,2.50752l-0.07248,1.25376l-0.0369,1.25376l0,2.50752l0,8.77631l0,6.2688l0,2.50752l0,2.50752l0.10938,2.50752l0.18318,1.25376l0.25699,1.25376l0.76832,2.50752l0.43885,1.25376l0.91592,2.50752l0.47575,1.25376l1.13469,2.50752l0.69584,1.25376l0.62204,1.25376l1.50106,2.50752l0.84212,1.25376l1.71983,2.50752l0.87902,1.25376l1.86743,2.50752l1.06089,1.21865l1.13469,1.1848l2.52637,2.01981l2.63575,1.49699l1.31788,0.55792l1.31788,0.55667l2.63575,0.87136l1.31788,0.34729l2.63575,0.41876l1.31788,0.06896l1.31788,0.03511l2.63575,-0.10406l2.63575,-0.38365l1.31788,-0.31344l2.63575,-0.62688l1.31788,-0.31344l2.63575,-0.87011l2.63575,-1.21991l1.31788,-0.73094l2.63575,-1.46314l1.31788,-0.73094l2.52637,-1.63616l2.19558,-1.91574l1.83053,-2.26429l0.84212,-1.21865l1.46416,-2.50752l0.58645,-1.25376l0.58514,-1.25376l1.02531,-2.50752l1.02531,-2.50752l0.51265,-1.25376l0.36505,-1.25376l0.40327,-1.25376l0.62204,-2.50752l0.22009,-1.25376l0.21877,-1.25376l0.36637,-2.50752l0.22009,-1.25376l0.29257,-1.25376l0.40327,-2.50752l0.07248,-1.25376l0.0369,-1.25376l0,-2.50752l0,-6.2688l0,-6.2688l0,-2.50752l-0.0369,-1.25376l-0.07248,-1.25376l-0.40327,-2.50752l-0.29257,-1.25376l-0.51265,-2.50752l-0.62204,-2.50752l-0.95151,-2.50752l-0.58645,-1.25376l-1.20849,-2.50752l-0.69452,-1.25376l-1.75805,-2.50752l-2.19558,-2.50752l-1.24539,-1.25376l-2.59885,-2.40346l-2.63575,-2.01981l-1.31788,-0.76605l-2.63575,-1.35782l-2.63575,-1.1497l-1.31788,-0.48771l-2.63575,-0.48771l-2.63575,-0.10406l-1.31788,0l-1.31788,0l-2.63575,0l-2.63575,0l-2.63575,0.03511l-1.31788,0.06896l-2.63575,0.48771m151.55569,3.1695l-0.98841,1.77658l-0.62204,0.52156l-0.84212,1.04564l-0.87902,0.90521l-1.28098,2.12387l-0.32947,1.1848l-0.29257,2.47241l-0.0369,2.50752l0,1.25376l0,1.25376l0,3.76128l0,8.77631l0,32.59774l0,6.2688l0,2.50752l0,2.50752l0.10938,2.50752l0.51265,2.50752l0.47575,1.25376l1.06221,2.50752l1.31788,2.36835l1.93991,1.84553l1.20849,0.66198l2.59885,0.87011l2.63575,0.45261l1.31788,0.14042l2.63575,0.4175l1.31788,0.27833l2.63575,0.38365l2.63575,0.10406l1.31788,0l1.31788,0l2.63575,0l2.63575,0l2.63575,-0.03511l1.31788,-0.06896l2.63575,-0.38365l1.31788,-0.31344l1.31788,-0.27833l1.31788,-0.34855l2.63575,-0.59177l1.31788,-0.24448l2.63575,-0.59177l2.63575,-1.00928l1.31788,-0.69709l1.31788,-0.69584l2.59885,-1.6023l1.24539,-0.97542l1.13469,-1.04438l1.06089,-1.1848l1.72115,-2.47241l0.65894,-1.25376l0.95151,-2.50752l0.69584,-2.50752l0.29257,-1.25376l0.36637,-1.25376l0.62204,-2.50752l0.25699,-1.25376l0.25567,-1.25376l0.51265,-2.50752l0.29257,-1.25376l0.40327,-2.50752l0.07248,-1.25376l0.0369,-2.50752l0.0369,-2.50752l0.07248,-1.25376l0.40327,-2.50752l0.29257,-1.25376l0.40327,-2.50752l0.07248,-1.25376l0.0369,-2.50752l0,-1.25376l-0.0369,-2.50752l-0.07248,-1.25376l-0.40327,-2.50752l-0.29257,-1.25376l-0.40327,-2.50752l-0.07248,-1.25376l-0.14628,-2.50752l-0.40327,-2.50752l-0.32947,-1.25376l-0.76832,-2.50752l-0.51265,-1.25376l-0.65894,-1.25376l-1.72115,-2.50752l-1.06089,-1.25376l-2.38008,-2.40346l-2.59885,-2.12387l-1.31788,-0.94032l-2.63575,-1.84553l-1.31788,-0.90647l-2.63575,-1.49699l-1.31788,-0.59177l-1.31788,-0.66198l-2.63575,-0.97542l-2.63575,-0.52156l-1.31788,-0.14042l-2.63575,-0.4175l-1.31788,-0.27833l-2.63575,-0.38365l-2.63575,-0.10406l-1.31788,0l-2.63575,0.10406l-2.63575,0.38365l-1.31788,0.27833l-1.31788,0.24448l-2.63575,0.48646l-1.31788,0.24448l-2.63575,0.59177l-1.31788,0.34855l-1.31788,0.27833l-1.24407,0.31344l-1.31788,0.20938l-0.73274,0.17427l-1.97681,0.10406m565.3686,25.07518l2.71482,0l1.31788,0l1.2388,0l1.31788,0l5.2715,0l1.31788,0l1.31788,0l3.95363,0l1.31788,0l2.63575,-0.03511l1.31788,-0.06896l2.63575,-0.38365l1.31788,-0.27833l2.63575,-0.38365l1.31788,-0.06896l1.31788,-0.03511l2.63575,0l2.63575,0l2.63575,0.03511l1.31788,0.06896l2.63575,0.38365l1.31788,0.27833l2.63575,0.38365l1.31788,0.06896l2.63575,0.03511l1.31788,0l2.63575,0l2.63575,0l1.31788,0l2.63575,-0.10406l2.55668,-0.45261l2.05589,-0.7322l1.97681,-1.21865l0,-2.57773l-0.10543,-2.43731l-0.22404,-1.25376l-0.28993,-1.25376l-1.06748,-2.40346l-1.46284,-2.12387l-0.84344,-0.97542l-1.83185,-2.01981l-1.0543,-1.01053l-1.13337,-0.97417l-2.53032,-1.77658l-1.31788,-0.83626l-1.31788,-0.835l-2.63575,-1.5672l-2.63575,-1.28886l-1.31788,-0.55792l-2.63575,-1.14844l-2.63575,-0.90521l-1.31788,-0.24448l-1.31788,-0.10406l-2.63575,-0.03511l-2.63575,0.03511l-1.31788,0.06896l-2.63575,0.38365l-1.31788,0.27833l-2.63575,0.48771l-2.63575,0.48771l-1.31788,0.27833l-2.63575,0.48771l-2.63575,0.59177l-1.31788,0.45261l-2.63575,1.01053l-2.63575,1.25376l-1.31788,0.83626l-1.31788,1.00928l-1.31788,1.1497l-2.63575,2.47241l-2.49078,2.50752l-1.0543,1.25376l-0.88298,1.25376l-1.21245,2.50752l-0.65894,2.50752l-0.1845,1.25376l-0.06589,1.25376l-0.03954,2.43731l0,2.57773z"/>
   <path stroke="null" id="svg_15" fill="#fa3081" d="m781.15337,592.82314l1.31788,1.25376l-1.31788,-1.25376m-256.98573,1.25376l1.31788,1.25376l-1.31788,-1.25376m247.7606,5.01504l1.31788,1.25376l-1.31788,-1.25376m-208.22433,1.25376l1.31788,1.25376l-1.31788,-1.25376m260.93936,5.01504l1.31788,1.25376l-1.31788,-1.25376m-777.54657,23.82142l0,17.55263l0.9518,-0.97542l0.03661,-0.66198l0.25625,-1.00928l0.03661,-1.1497l0.03661,-1.21865l0,-1.25376l0,-2.50752l0,-2.50752l0,-1.25376l-0.03661,-1.21865l-0.03661,-1.1497l-0.25625,-1.00928l-0.03661,-0.66198l-0.9518,-0.97542m847.39397,16.29887l0,3.76128l0.91461,-0.94032l0,-1.32397l0,-0.55667l-0.91461,-0.94032m-846.07609,8.77631l0,3.76128l0.91519,-0.94032l0,-0.55667l0,-1.32397l-0.91519,-0.94032m848.71184,3.76128l0,3.76128l0.91461,-0.94032l0,-1.32397l0,-0.55667l-0.91461,-0.94032m-847.39397,3.76128l1.31788,1.25376l-1.31788,-1.25376m856.6191,18.80639l1.31788,1.25376l-1.31788,-1.25376m-506.06421,27.5827l1.02531,0.90521l0.69584,0.03511l1.06089,0.24323l1.20849,0.03511l1.28098,0.03511l1.31788,0l2.63575,0l13.17876,0l-1.02531,-0.90521l-0.69584,-0.03511l-1.06089,-0.24323l-1.20849,-0.03511l-1.28098,-0.03511l-1.31788,0l-2.63575,0l-13.17876,0m172.6417,0l1.02531,0.90521l0.69584,0.03511l0.98841,0.24323l1.20717,0.03511l2.67265,0.03511l-1.02531,-0.90521l-0.69584,-0.03511l-0.98841,-0.24323l-1.20717,-0.03511l-2.67265,-0.03511m24.60078,0.4175l0,0.41876l0.87771,0l0,-0.41876l-0.87771,0m141.45153,-0.4175l1.02531,0.90521l0.69584,0.03511l1.06089,0.24323l1.13469,0.03511l1.28098,0.03511l2.70955,0l-1.02531,-0.90521l-0.69584,-0.03511l-1.06089,-0.24323l-1.13469,-0.03511l-1.28098,-0.03511l-2.70955,0m-639.60888,2.92502l0.43925,0.41876l0.43925,0l-0.43925,-0.41876l-0.43925,0m853.98374,1.25376l0,0.41876l0.87771,0l-0.43885,-0.41876l-0.43885,0z"/>
  </g>
 </g>
</svg>