<?xml version="1.0" standalone="yes"?>
<svg xmlns="http://www.w3.org/2000/svg" width="2098" height="767">
<path style="fill:#ffffff; stroke:none;" d="M0 0L0 8L0 12L0 17L0 41L0 46L0 54L0 62L0 63L0 65L0 66L0 72L0 94L0 104L0 109L0 115L0 116L0 125L0 126L0 133L0 135L0 140L0 148L0 152L0 156L0 160L0 163L0 171L0 172L0 179L0 187L0 189L0 206L0 215L0 234L0 767L506 767L619 767L653 767L658 767L662 767L665 767L670 767L678 767L679 767L680 767L691 767L694 767L698 767L700 767L708 767L726 767L730 767L732 767L735 767L753 767L772 767L773 767L777 767L785 767L790 767L798 767L806 767L814 767L818 767L823 767L824 767L832 767L837 767L845 767L851 767L852 767L854 767L857 767L865 767L869 767L871 767L879 767L883 767L884 767L892 767L900 767L904 767L914 767L922 767L954 767L962 767L970 767L972 767L977 767L981 767L982 767L984 767L985 767L991 767L999 767L1003 767L1007 767L1008 767L1014 767L1018 767L1023 767L1025 767L1026 767L1027 767L1028 767L1032 767L1033 767L1035 767L1040 767L1048 767L1050 767L1052 767L1057 767L1061 767L1069 767L1070 767L1071 767L1072 767L1080 767L1081 767L1089 767L1091 767L1093 767L1101 767L1102 767L1104 767L1105 767L1106 767L1114 767L1116 767L1117 767L1118 767L1120 767L1121 767L1123 767L1124 767L1140 767L1142 767L1147 767L1152 767L1157 767L1158 767L1166 767L1198 767L1199 767L1201 767L1202 767L1203 767L1219 767L1221 767L1223 767L1224 767L1228 767L1229 767L1231 767L1233 767L1234 767L1235 767L1236 767L1238 767L1239 767L1240 767L1242 767L1250 767L1255 767L1263 767L1265 767L1269 767L1270 767L1275 767L1276 767L1284 767L1285 767L1286 767L1290 767L1294 767L1298 767L1299 767L1303 767L1304 767L1305 767L1306 767L1308 767L1312 767L1313 767L1314 767L1318 767L1322 767L1326 767L1327 767L1328 767L1332 767L1333 767L1334 767L1335 767L1339 767L1343 767L1344 767L1348 767L1349 767L1351 767L1355 767L1360 767L1362 767L1366 767L1367 767L1371 767L1372 767L1373 767L1374 767L1375 767L1376 767L1380 767L1384 767L1388 767L1392 767L1393 767L1397 767L1401 767L1402 767L1403 767L1406 767L1408 767L1416 767L1420 767L1421 767L1422 767L1423 767L1425 767L1426 767L1428 767L1432 767L1434 767L1435 767L1439 767L1442 767L1445 767L1453 767L1457 767L1461 767L1462 767L1464 767L1465 767L1466 767L1470 767L1471 767L1472 767L1473 767L1477 767L1479 767L1480 767L1482 767L1486 767L1487 767L1488 767L1492 767L1496 767L1497 767L1513 767L1514 767L1518 767L1522 767L1523 767L1527 767L1529 767L1531 767L1532 767L1533 767L1538 767L1540 767L1545 767L1547 767L1550 767L1551 767L1552 767L1553 767L1555 767L1558 767L1559 767L1567 767L1571 767L1572 767L1573 767L1575 767L1579 767L1580 767L1581 767L1585 767L1586 767L1588 767L1592 767L1594 767L1598 767L1600 767L1602 767L1603 767L1607 767L1611 767L1612 767L1614 767L1615 767L1617 767L1618 767L1619 767L1620 767L1621 767L1629 767L1630 767L1638 767L1639 767L1640 767L1643 767L1647 767L1648 767L1649 767L1652 767L1660 767L1662 767L1663 767L1665 767L1670 767L1672 767L1676 767L1677 767L1681 767L1682 767L1683 767L1684 767L1685 767L1693 767L1697 767L1701 767L1702 767L1706 767L1707 767L1708 767L1710 767L1711 767L1715 767L1716 767L1724 767L1728 767L1733 767L1749 767L1757 767L1765 767L1769 767L1770 767L1773 767L1777 767L1781 767L1782 767L1786 767L1790 767L1791 767L1794 767L1796 767L1797 767L1798 767L1799 767L1803 767L1804 767L1812 767L1813 767L1817 767L1821 767L1822 767L1830 767L1838 767L1839 767L1840 767L1848 767L1850 767L1852 767L1853 767L1855 767L1857 767L1860 767L1862 767L1864 767L1865 767L1866 767L1867 767L1868 767L1870 767L1871 767L1879 767L1883 767L1886 767L1888 767L1889 767L1893 767L1894 767L1902 767L1904 767L1906 767L1907 767L1908 767L1909 767L1911 767L1915 767L1917 767L1919 767L1920 767L1924 767L1925 767L1928 767L1930 767L1934 767L1938 767L1939 767L1943 767L1944 767L1952 767L1953 767L1955 767L1958 767L1960 767L1964 767L1965 767L1966 767L1970 767L1971 767L1973 767L1977 767L1978 767L1982 767L1983 767L1987 767L1991 767L1992 767L1996 767L1997 767L1998 767L2002 767L2003 767L2005 767L2009 767L2010 767L2015 767L2017 767L2018 767L2026 767L2030 767L2031 767L2034 767L2038 767L2042 767L2044 767L2048 767L2064 767L2065 767L2067 767L2069 767L2073 767L2074 767L2075 767L2076 767L2078 767L2079 767L2080 767L2081 767L2082 767L2086 767L2087 767L2088 767L2089 767L2090 767L2092 767L2093 767L2098 767L2098 759L2098 751L2098 750L2098 735L2098 725L2098 721L2098 708L2098 703L2098 698L2098 697L2098 684L2098 680L2098 674L2098 668L2098 657L2098 651L2098 645L2098 640L2098 632L2098 624L2098 621L2098 498L2098 496L2098 494L2098 490L2098 217L2098 214L2098 212L2098 174L2098 173L2098 166L2098 165L2098 164L2098 152L2098 149L2098 141L2098 132L2098 124L2098 120L2098 116L2098 112L2098 106L2098 102L2098 94L2098 90L2098 85L2098 77L2098 73L2098 71L2098 68L2098 66L2098 63L2098 58L2098 57L2098 56L2098 55L2098 51L2098 48L2098 44L2098 39L2098 31L2098 23L2098 21L2098 18L2098 14L2098 11L2098 0L2094.94 0L2094 0L2093 0L2085 0L2084 0L2076 0L2075 0L2071 0L2063 0L2061 0L2060 0L2056 0L2054 0L2053 0L2049 0L2047 0L2046 0L2042 0L2038 0L2037 0L2029 0L2028 0L2024 0L2022 0L2014 0L2011 0L2009 0L2008 0L2004 0L2002 0L1998 0L1997 0L1993 0L1991 0L1989 0L1987 0L1986 0L1984 0L1983 0L1981 0L1979 0L1963 0L1961 0L1960 0L1956 0L1948 0L1947 0L1943 0L1942 0L1941 0L1940 0L1936 0L1933 0L1930 0L1928 0L1927 0L1923 0L1922 0L1918 0L1917 0L1916 0L1915 0L1911 0L1910 0L1909 0L1845 0L1837 0L1833 0L1832 0L1830 0L1828 0L1820 0L1818 0L1817 0L1813 0L1809 0L1808 0L1806 0L1805 0L1803 0L1795 0L1791 0L1790 0L1786 0L1754 0L1750 0L1749 0L1748 0L1746 0L1745 0L1743 0L1741 0L1739 0L1737 0L1736 0L1735 0L1731 0L1730 0L1726 0L1725 0L1723 0L1722 0L1718 0L1717 0L1716 0L1708 0L1704 0L1703 0L1699 0L1691 0L1687 0L1683 0L1682 0L1681 0L1680 0L1678 0L1674 0L1669 0L1668 0L1664 0L1663 0L1661 0L1660 0L1656 0L1655 0L1654 0L1652 0L1651 0L1647 0L1646 0L1642 0L1634 0L1633 0L1632 0L1628 0L1620 0L1619 0L1603 0L1601 0L1593 0L1592 0L1588 0L1580 0L1579 0L1571 0L1567 0L1551 0L1550 0L1549 0L1548 0L1544 0L1542 0L1534 0L1532 0L1529 0L1528 0L1527 0L1523 0L1522 0L1514 0L1512 0L1511 0L1510 0L1506 0L1505 0L1502 0L1498 0L1497 0L1493 0L1492 0L1491 0L1489 0L1487 0L1486 0L1485 0L1481 0L1480 0L1478 0L1476 0L1468 0L1467 0L1461 0L1457 0L1453 0L1445 0L1437 0L1433 0L1432 0L1428 0L1427 0L1425 0L1421 0L1420 0L1416 0L1415 0L1414 0L1413 0L1409 0L1408 0L1407 0L1403 0L1402 0L1398 0L1397 0L1396 0L1392 0L1390 0L1386 0L1385 0L1377 0L1375 0L1373 0L1365 0L1361 0L1360 0L1352 0L1351 0L1347 0L1345 0L1341 0L1340 0L1336 0L1335 0L1331 0L1323 0L1321 0L1320 0L1316 0L1314 0L1312 0L1311 0L1309 0L1307 0L1306 0L1304 0L1300 0L1296 0L1295 0L1291 0L1290 0L1288 0L1280 0L1279 0L1278 0L1277 0L1273 0L1265 0L1264 0L1263 0L1261 0L1257 0L1256 0L1252 0L1251 0L1250 0L1245 0L1244 0L1236 0L1235 0L1234 0L1232 0L1228 0L1224 0L1223 0L1222 0L1220 0L1219 0L1217 0L1216 0L1212 0L1210 0L1209 0L1207 0L1203 0L1202 0L1200 0L1196 0L1195 0L1190 0L1189 0L1185 0L1184 0L1180 0L1179 0L1177 0L1173 0L1169 0L1168 0L1167 0L1166 0L1162 0L1160 0L1159 0L1156 0L1154 0L1150 0L1149 0L1145 0L1143 0L1142 0L1141 0L1135 0L1134 0L1130 0L1129 0L1125 0L1121 0L1120 0L1116 0L1115 0L1110 0L1108 0L1107 0L1106 0L1105 0L1101 0L1093 0L1092 0L1090 0L1089 0L1088 0L1084 0L1083 0L1081 0L1080 0L1076 0L1072 0L1071 0L1063 0L1062 0L1061 0L1060 0L1058 0L1056 0L1051 0L1050 0L1034 0L1033 0L1032 0L1031 0L1030 0L1026 0L1025 0L1017 0L1016 0L1014 0L1011 0L1009 0L993 0L991 0L987 0L986 0L978 0L977 0L972 0L844 0L841 0L840 0L834 0L830 0L829 0L824 0L816 0L806 0L790 0L785 0L781 0L777 0L772 0L767 0L764 0L700 0L698 0L667 0L659 0L627 0L624 0L593 0L529 0L528 0L527 0L523 0L521 0L518 0L487 0L454 0L439 0L423 0L418 0L363 0L343 0L310 0L297 0L295 0L274 0L272 0L251 0L234 0L221 0L0 0z"/>
<path style="fill:#f3b103; stroke:none;" d="M420 8.38892L418 8.80554L416 9.19446L415 9.38892L414 9.61108L413 9.80554L411 10.1945L410 10.3889L409 10.6111L407 11L405 11.4722L403 12.2778L402 12.8611L400 14.1667L399 14.8611L398 15.6389L396 17.1389L395 17.8611L393 19.3611L392 20.1389L391 20.8611L390 21.6389L389 22.3889L387.083 24.0833L385.389 26L384.639 27L383.139 29L382.389 30L381.028 32L380.389 33L379.25 35L378.778 36L378.222 37L377.778 38L376.833 40L376.389 41L375.611 43L374.806 45L374.389 46L373.694 48L373.417 49L373.083 51L373.028 52L373 53L373 55L373 61L373 69L373 73L373 79L373 81L373 106L373 110L373 113L373 115L373 122L373 130L373 135L373 140L373 144L373 148L373 151L373 155L373 168L373 175L373 180L373 186L373 187L373 188L373 196L373 204L373 206L373 216L373 233L373 238L373 306L373 359L373 375L373 379L373 381L373.028 383L373.083 384L373.472 386L374.194 388L374.611 389L375.389 391L375.806 392L376.611 394L377.389 396L377.833 397L378.25 398L378.778 399L379.25 400L380.389 402L381.694 404L382.389 405L383.139 406L384.639 408L385.389 409L387.083 410.972L388.028 411.917L390 413.611L391 414.361L392 415.139L394 416.556L396 417.75L397 418.222L399 419.222L400 419.778L402 420.75L403 421.167L405 422L406 422.389L408 423.25L409 423.75L411 424.528L412 424.75L413 424.917L415 425L416 425L418 425L421 425L437 425L475 425L549 425L565 425L591 425L596 425L602 425L618 425L621 425L625 425L628 425L645 425L653 425L655 425L661 425L662 425L666 425L671 425L672 425L688 425L689 425L694 425L700 425L705 425L710 425L713 425L717 425L721 425L722 425L727 425L735 425L737 425L740 425L744 425L746 425L747 425L749 424.917L750 424.75L751 424.528L753 423.75L754 423.222L755 422.778L756 422.222L757 421.778L758 421.25L760 420.389L762 419.611L764 418.806L765 418.361L767 417.361L768 416.694L769 415.889L770 414.972L772 413L773 412L775 410L777 408L778 407L779 406L780.917 404L782.528 402L783.75 400L784.222 399L784.75 398L785.167 397L785.611 396L786.306 394L786.583 393L786.806 392L787.194 390L787.611 388L788 386L788.389 384L788.611 383L788.806 382L789.194 380L789.389 379L789.611 378L789.917 376L789.972 375L790 373L790 371L790 368L790 353L790 320L790 308L790 292L790 288L790 283L790 277L790 276L790 236L790 234L790 230L790 225L790 215L790 214L790 211L790 210L790 206L790 195L790 187L790 186L790 175L790 170L790 160L790 158L790 142L790 124L790 123L790 112L790 98L790 93L790 92L790 90L790 69L790 64L790 63L790 61L789.972 60L789.917 59L789.611 57L789.389 56L789.194 55L788.806 53L788.611 52L788.389 51L788.194 50L787.806 48L787.389 46L787.194 45L786.806 43L786.583 42L786.306 41L785.611 39L784.75 37L784.222 36L783.75 35L782.528 33L781.75 32L780.917 31L779 29L778 28L777 27L775 25L773 23L772 22L770 20.0278L769 19.0833L767 17.4722L765 16.1945L764 15.6111L763 15L761 13.8333L760 13.25L758 12.25L757 11.8611L756 11.4445L755 11.1667L754 10.8611L753 10.6389L751 10.1389L750 9.86108L748 9.38892L747 9.19446L745 8.80554L744 8.61108L743 8.38892L741 8.08331L740 8.02777L738 8L737 8L735 8L724 8L719 8L711 8L710 8L709 8L701 8L691 8L690 8L689 8L687 8L660 8L657 8L656 8L643 8L640 8L636 8L508 8L504 8L450 8L432 8L428 8L426 8L424 8L422 8.08331L420 8.38892z"/>
<path style="fill:#211b17; stroke:none;" d="M841 8L841 16L841 17L841 21L841 23L841 24L841 26L841 34L841 37L841 39L841 103L841 104L841 112L841 113L841 122L841 131L841 135L841 137L841 142L841 146L841 148L841 156L841 157L841 166L841 171L841 172L841 180L841 181L841 185L841 190L841 191L841 194L841 196L841 204L841 205L841 214L841 215L841 218L841 224L841 229L841 236L841 237L841 246L841 247L841 256L841 272L841 325L841 326L841 335L841 344L841 348L841 355L841 362L841 425L843.056 425L844.056 425L854 425L855 425L858 425L862 425L870 425L877 425L885 425L889 425L891 425L892 425L896 425L900 425L905 425L913 425L918 425L937 425L943 425L944 425L948 425L953 425L955 425L959 425L963 425L965 425L966 425L974 425L975 425L977 425L980 425L981 425L982 425L986 425L994 425L998 425L1003 425L1011 425L1012 425L1017 425L1025 425L1026 425L1028 425L1029 425L1031 425L1033 425L1034 425L1035 425L1038 425L1040 425L1044 425L1045 425L1050 425L1052 425L1057 425L1058 425L1060 425L1092 425L1102 425L1103 425L1104 425L1112 425L1113 425L1114 425L1122 425L1123 425L1125 425L1130 425L1138 425L1139 425L1140 425L1148 425L1149 425L1157 425L1158 425L1166 425L1167 425L1169 425L1170 425L1174 425L1179 425L1183 425L1191 425L1192 425L1194 425L1195 425L1203 425L1211 425L1215 425L1220 425L1221 425L1223 425L1225 425L1233 425L1235 425L1239 425L1255.94 425L1258 425L1258 391L1258 390L1258 386L1258 384L1258 374L1258 357L1258 354L1258 352L1258 331L1258 326L1258 325L1258 323L1258 322L1258 301L1258 281L1258 246L1258 245L1258 243L1258 233L1258 232L1258 224L1258 216L1258 214L1258 211L1258 210L1258 202L1258 197L1258 190L1258 189L1258 181L1258 180L1258 175L1258 174L1258 163L1258 158L1258 157L1258 152L1258 149L1258 145L1258 141L1258 139L1258 137L1258 132L1258 128L1258 123L1258 113L1258 111L1258 107L1258 105L1258 101L1258 93L1258 91L1258 88L1258 81L1258 80L1258 48L1258 40L1258 8L1194 8L1193 8L1129 8L1121 8L1120 8L1119 8L1117 8L1116 8L1112 8L1111 8L1107 8L1105 8L1104 8L1103 8L1102 8L1098 8L1094 8L1093 8L1091 8L1090 8L1089 8L1087 8L1086 8L1084 8L1081 8L1079 8L1077 8L1075 8L1074 8L1073 8L1072 8L1071 8L1070 8L1065 8L1064 8L1062 8L1061 8L1057 8L1055 8L1054 8L1050 8L1042 8L1041 8L1040 8L1036 8L1035 8L1034 8L1033 8L1029 8L1028 8L1025 8L1021 8L1016 8L1012 8L1011 8L1010 8L1007 8L1003 8L995 8L992 8L990 8L989 8L973 8L971 8L968 8L966 8L963 8L961 8L959 8L957 8L949 8L945 8L942 8L938 8L937 8L873 8L841 8M1308 8L1308 24L1308 28L1308 36L1308 38L1308 39L1308 43L1308 59L1308 63L1308 71L1308 72L1308 89L1308 91L1308 95L1308 96L1308 104L1308 108L1308 109L1308 117L1308 126L1308 132L1308 136L1308 152L1308 153L1308 154L1308 162L1308 165L1308 170L1308 171L1308 190L1308 192L1308 212L1308 214L1308 231L1308 255L1308 256L1308 259L1308 260L1308 265L1308 288L1308 289L1308 295L1308 298L1308 302L1308 306L1308 322L1308 323L1308 324L1308 332L1308 335L1308 340L1308 353L1308 357L1308 360L1308 425L1316 425L1317 425L1319 425L1383 425L1387 425L1403 425L1411 425L1415 425L1420 425L1421 425L1425 425L1428 425L1430 425L1431 425L1432 425L1433 425L1436 425L1444 425L1448 425L1449 425L1452 425L1456 425L1460 425L1461 425L1465 425L1466 425L1470 425L1471 425L1472 425L1474 425L1475 425L1477 425L1479 425L1483 425L1484 425L1485 425L1487 425L1488 425L1492 425L1496 425L1497 425L1501 425L1502 425L1503 425L1504 425L1508 425L1509 425L1510 425L1511 425L1512 425L1520 425L1523 425L1525 425L1533 425L1537 425L1545 425L1546 425L1550 425L1551 425L1555 425L1556 425L1557 425L1558 425L1563 425L1567 425L1568 425L1569 425L1570 425L1571 425L1575 425L1576 425L1577 425L1578 425L1586 425L1587 425L1589 425L1592 425L1595 425L1597 425L1598 425L1600 425L1601 425L1602 425L1605 425L1610 425L1611 425L1615 425L1616 425L1624 425L1625 425L1629 425L1633 425L1634 425L1635 425L1637 425L1638 425L1640 425L1642 425L1646 425L1649 425L1653 425L1654 425L1655 425L1658 425L1663 425L1664 425L1665 425L1668 425L1672 425L1673 425L1674 425L1682 425L1683 425L1688 425L1696 425L1697 425L1701 425L1702 425L1710 425L1711 425L1712 425L1714 425L1716 425L1717 425L1721 425L1722.94 425L1723.94 425L1726 425L1726 383L1726 381L1726 365L1726 362L1726 361L1726 360L1726 356L1726 350L1726 348L1726 332L1726 286L1726 284L1726 281L1726 278L1726 277L1726 276L1726 272L1726 266L1726 264L1726 248L1726 244L1726 242L1726 238L1726 234L1726 226L1726 225L1726 224L1726 220L1726 214L1726 206L1726 204L1726 188L1726 185L1726 177L1726 173L1726 171L1726 167L1726 135L1726 128L1726 126L1726 123L1726 121L1726 117L1726 115L1726 111L1726 107L1726 103L1726 101L1726 98L1726 97L1726 89L1726 85L1726 84L1726 80L1726 77L1726 75L1726 72L1726 8L1724.5 8L1722.94 8L1722 8L1721 8L1719 8L1714 8L1713 8L1711 8L1710 8L1708 8L1707 8L1704 8L1700 8L1698 8L1694 8L1693 8L1689 8L1685 8L1684 8L1683 8L1681 8L1673 8L1669 8L1668 8L1667 8L1665 8L1663 8L1661 8L1660 8L1656 8L1655 8L1654 8L1646 8L1642 8L1640 8L1638 8L1635 8L1631 8L1623 8L1619 8L1611 8L1610 8L1608 8L1605 8L1603 8L1602 8L1600 8L1596 8L1592 8L1584 8L1583 8L1581 8L1573 8L1569 8L1565 8L1564 8L1559 8L1558 8L1554 8L1553 8L1552 8L1548 8L1546 8L1545 8L1544 8L1543 8L1539 8L1538 8L1534 8L1533 8L1529 8L1525 8L1521 8L1520 8L1519 8L1517 8L1516 8L1500 8L1496 8L1494 8L1492 8L1491 8L1483 8L1482 8L1476 8L1472 8L1468 8L1467 8L1435 8L1433 8L1430 8L1426 8L1418 8L1414 8L1413 8L1405 8L1397 8L1389 8L1385 8L1382 8L1380 8L1378 8L1377 8L1375 8L1367 8L1366 8L1365 8L1363 8L1362 8L1358 8L1357 8L1353 8L1349 8L1348 8L1344 8L1342 8L1340 8L1339 8L1338 8L1336 8L1335 8L1331 8L1328 8L1326 8L1325 8L1321 8L1320 8L1318 8L1317 8L1315 8L1311.06 8L1309.5 8L1308 8z"/>
<path style="fill:#ffffff; stroke:none;" d="M1149 67.3889L1148 67.6389L1146 68.1389L1145 68.3889L1144 68.6945L1142 69.3889L1140 70.25L1139 70.7778L1137 71.7778L1136 72.25L1135 72.8611L1134 73.4722L1133 74.25L1131 76.0278L1130 77L1128.08 79L1126.42 81L1125.69 82L1125 83L1123.67 85L1122.33 87L1121.67 88L1120.42 90L1119.42 92L1119.03 93L1118.39 95L1118.14 96L1117.64 98L1117.36 99L1117.14 100L1116.86 101L1116.64 102L1116.36 103L1116.14 104L1115.64 106L1115.39 107L1115.17 109L1115.39 111L1115.64 112L1116.14 114L1116.36 115L1116.64 116L1116.86 117L1117.14 118L1117.36 119L1117.64 120L1118.14 122L1118.39 123L1119.03 125L1119.42 126L1120.47 128L1121.86 130L1122.61 131L1123.97 133L1125.19 135L1125.83 136L1126.47 137L1128.08 139L1130 141L1131 141.972L1133 143.75L1134 144.528L1136 145.75L1137 146.222L1138 146.778L1139 147.222L1140 147.75L1142 148.556L1143 148.833L1144 149.139L1145 149.361L1147 149.861L1148 150.139L1149 150.361L1150 150.611L1152 150.917L1153 150.972L1155 151L1156 151L1157 151L1159 151L1161 151L1162 151L1163 151L1164 151L1166 150.917L1167 150.778L1168 150.583L1170 150L1171 149.667L1173 148.972L1174 148.611L1176 147.75L1177 147.222L1179 146.222L1180 145.75L1182 144.528L1184 142.917L1185 141.972L1186.92 140L1188.58 138L1189.31 137L1190 136L1191.33 134L1192.67 132L1193.97 130L1195.17 128L1195.72 127L1196.17 126L1196.61 125L1197.31 123L1197.61 122L1197.86 121L1198.36 119L1198.64 118L1198.86 117L1199.14 116L1199.36 115L1199.86 113L1200.14 112L1200.53 110L1200.53 108L1200.33 107L1199.86 105L1199.36 103L1199.14 102L1198.86 101L1198.64 100L1198.36 99L1197.86 97L1197.64 96L1197.36 95L1197.11 94L1196.39 92L1195.31 90L1194.67 89L1194 88L1192.67 86L1191.33 84L1190 82L1189.31 81L1188.58 80L1186.92 78L1185 76.0278L1183 74.25L1182 73.4722L1181 72.8611L1180 72.25L1179 71.7778L1177 70.7778L1176 70.25L1174 69.3889L1173 69.0278L1171 68.3333L1170 68L1168 67.4167L1167 67.2222L1166 67.0833L1164 67L1163 67L1161 67L1159 67L1158 67L1156 67L1155 67L1153 67L1151 67.0833L1149 67.3889M1617 67.3889L1616 67.6389L1614 68.1389L1613 68.3889L1611 69.0278L1610 69.4166L1608 70.4166L1607 71.0278L1605 72.4167L1603 74.0833L1601 76L1600 77L1598 79L1596 81L1595 82L1593 84L1591.08 86L1589.42 88L1588.08 90L1587.08 92L1586.39 94L1586.14 95L1585.64 97L1585.39 98L1585.08 100L1585.03 101L1585 102L1585 104L1585 110L1585 113L1585 115L1585.03 117L1585.08 118L1585.39 120L1585.64 121L1586.17 123L1586.44 124L1586.86 125L1587.83 127L1588.39 128L1589.69 130L1590.42 131L1592.08 133L1593.03 134L1594 135L1596 137L1597 138L1599 140L1600 141L1602 142.972L1603 143.917L1605 145.583L1607 146.972L1608 147.583L1610 148.528L1612 149.139L1613 149.361L1614 149.639L1615 149.861L1617 150.361L1618 150.611L1620 150.917L1621 150.972L1623 151L1624 151L1625 151L1627 151L1630 151L1632 151L1634 150.917L1636 150.611L1637 150.361L1639 149.861L1640 149.611L1642 148.972L1643 148.583L1645 147.583L1647 146.306L1648 145.583L1650 143.917L1651 142.972L1653 141L1654 140L1657 137L1659 135L1660 134L1661.92 132L1663.58 130L1664.28 129L1664.92 128L1665.92 126L1666.61 124L1666.86 123L1667.14 122L1667.36 121L1667.61 120L1667.92 118L1667.97 117L1668 116L1668 114L1668 113L1668 111L1668 107L1668 106L1668 104L1668 102L1667.97 100L1667.92 99L1667.61 97L1667.36 96L1666.83 94L1666.53 93L1665.58 91L1664.33 89L1663.67 88L1663 87L1661.58 85L1660.78 84L1659.92 83L1658 81L1657 80L1655 78L1654 77L1652 75.0833L1650 73.4167L1648 72L1647 71.3333L1646 70.6945L1644 69.6111L1642 68.8889L1641 68.6389L1640 68.3611L1639 68.1389L1638 67.8611L1637 67.6389L1636 67.3889L1634 67.0833L1633 67.0278L1631 67L1629 67L1627 67L1626 67L1623 67L1621 67L1619 67.0833L1617 67.3889M579 175.417L578 175.639L576 176.139L575 176.361L573 176.861L572 177.139L571 177.361L570 177.639L569 177.861L568 178.139L567 178.389L565 179.028L563 179.833L562 180.25L561 180.778L560 181.222L559 181.778L558 182.25L556 183.389L555 184.028L554 184.694L552 186.222L550.083 188.028L549.222 189L548.417 190L547.694 191L546.389 193L545.25 195L544.778 196L544.222 197L543.778 198L543.25 199L542.389 201L542.028 202L541.667 203L541.333 204L540.667 206L540 208L539.694 209L539.417 210L539 212L538.806 213L538.611 214L538.306 216L538.417 218L538.778 220L538.944 221L539.056 222L539.389 224L539.639 225L540.139 227L540.389 228L540.694 229L541.333 231L542.028 233L542.389 234L543.25 236L543.778 237L544.222 238L544.778 239L545.25 240L546.389 242L547.667 244L548.333 244.972L549.694 246.778L550.417 247.583L552.083 249L553.028 249.667L555 250.972L556 251.611L557 252.167L559 253.222L560 253.778L561 254.222L562 254.75L564 255.611L565 255.972L567 256.611L569 257.139L570 257.361L571 257.639L572 257.861L573 258.139L574 258.361L576 258.861L577 259.139L579 259.611L581 259.889L583 259.778L585 259.361L587 258.861L588 258.639L589 258.361L591 257.861L592 257.639L593 257.361L594 257.139L595 256.861L596 256.611L598 255.917L600 254.917L602 253.667L603 253L605 251.667L607 250.333L607.972 249.667L608.917 249L610.583 247.583L611.306 246.778L612.667 244.972L613.333 244L614.611 242L615.167 241L615.75 240L616.222 239L616.778 238L617.222 237L618.25 235L619.389 233L620.667 231L621.889 229L622.361 228L622.889 226L622.972 225L623 223L623 221L623 217L623 214L623 213L622.972 211L622.917 210L622.583 208.028L622.278 207.083L621.917 206.222L620.944 204.611L620.361 203.778L619.25 201.972L618.778 201L618.222 200L617.778 199L616.75 197L616.167 196L615.611 195L614.389 193L613.806 192L612.528 190L610.917 188.083L609.972 187.222L609 186.417L607 185L605 183.667L603 182.333L602 181.667L600 180.417L598 179.417L597 179.028L595 178.389L594 178.139L592 177.639L591 177.361L590 177.139L589 176.861L587 176.389L586 176.194L584 175.806L582 175.417L581 175.306L579 175.417M1514 175.389L1513 175.639L1511 176.139L1510 176.361L1508 176.861L1507 177.139L1506 177.361L1505 177.639L1503 178.139L1502 178.389L1500 179.083L1498 180.083L1496 181.333L1495 182L1493 183.333L1491 184.694L1490 185.417L1488.08 187.083L1487.22 188.028L1486.42 189L1485.69 190L1484.39 192L1483.25 194L1482.78 195L1482.22 196L1481.78 197L1480.75 199L1480.17 200L1479.61 201L1478.33 203L1477.67 204L1476.42 206L1475.5 208L1475.25 209L1475.03 211L1475 213L1475 215L1475 219L1475 222L1475 223L1475.08 225L1475.5 227L1475.92 228L1476.42 229L1477.61 231L1478.75 233L1479.22 234L1479.78 235L1480.22 236L1480.78 237L1481.22 238L1482.25 240L1482.83 241L1483.39 242L1484.67 244L1485.33 244.972L1486.69 246.778L1487.42 247.583L1489.08 249L1490.03 249.667L1491 250.333L1493 251.667L1495 253L1496 253.667L1498 254.917L1499 255.444L1500 255.917L1502 256.667L1503 257L1505 257.611L1506 257.861L1508 258.361L1509 258.639L1510 258.861L1511 259.139L1512 259.361L1513 259.611L1515 259.917L1517 259.972L1518 259.917L1520 259.611L1521 259.361L1523 258.861L1525 258.361L1526 258.139L1527 257.861L1528 257.639L1529 257.361L1530 257.139L1531 256.861L1533 256.306L1535 255.611L1536 255.167L1537 254.75L1538 254.222L1539 253.778L1540 253.222L1541 252.75L1543 251.611L1545 250.306L1546 249.583L1547.92 247.917L1549.58 246L1550.31 245L1551.61 243L1552.75 241L1553.22 240L1554.22 238L1554.78 237L1555.22 236L1555.75 235L1556.61 233L1556.97 232L1557.67 230L1558.31 228L1558.61 227L1558.86 226L1559.36 224L1559.61 223L1559.81 222L1560.19 220L1560.53 218L1560.53 216L1560.14 214L1559.86 213L1559.36 211L1559.14 210L1558.61 208L1558.31 207L1557.67 205L1556.97 203L1556.61 202L1556.17 201L1555.75 200L1555.22 199L1554.78 198L1554.22 197L1553.22 195L1552.75 194L1552.17 193L1551.61 192L1550.97 191L1550.31 190L1548.78 188.083L1546.97 186.417L1546 185.694L1544 184.333L1542 183.028L1541 182.389L1539 181.25L1538 180.778L1537 180.25L1535 179.389L1534 179.028L1532 178.389L1530 177.861L1529 177.639L1528 177.361L1527 177.139L1526 176.861L1525 176.639L1523 176.139L1522 175.861L1520 175.389L1518 175.083L1517 175.056L1516 175.083L1514 175.389M931 284.417L930 284.694L928 285.333L926 286.028L925 286.389L923 287.25L922 287.778L920 288.778L919 289.25L918 289.861L917 290.472L916 291.25L914 293.028L913 294L911.083 296L909.417 298L908.694 299L907.333 301L906 303L904.667 305L904.028 306L902.833 308L902.278 309L901.444 311L900.861 313L900.639 314L900.139 316L899.861 317L899.639 318L899.139 320L898.861 321L898.389 323L898.083 325L898.056 326L898.083 327L898.389 329L898.639 330L899.139 332L899.361 333L899.639 334L900.139 336L900.361 337L900.639 338L900.861 339L901.139 340L901.389 341L902.083 343L903.083 345L903.694 346L905 348L906.333 350L907.667 352L908.333 353L909.694 355L910.417 356L912.083 358L914 359.917L915 360.75L916 361.528L918 362.75L920 363.778L921 364.222L922 364.75L924 365.611L925 365.972L927 366.667L928 367L930 367.583L931 367.778L932 367.917L934 368L935 368L937 368L938 368L940 368L941 368L943 368L944 368L946 367.972L947 367.917L949 367.611L950 367.389L952 367L954 366.583L955 366.306L957 365.611L959 364.75L960 364.222L962 363.222L963 362.75L965 361.528L967 359.917L967.972 358.972L968.917 358L970.583 356L972 354L972.667 353L974 351L976 348L976.667 347L977.333 346L978.583 344L979.528 342L979.833 341L980.361 339L980.861 337L981.139 336L981.361 335L981.639 334L981.861 333L982.139 332L982.611 330L982.917 328L982.972 326L982.917 325L982.611 323L982.361 322L981.861 320L981.639 319L981.361 318L981.139 317L980.861 316L980.361 314L979.833 312L979.556 311L978.722 309L977.611 307L976.972 306L976.333 305L975.028 303L973.806 301L973.167 300L972.528 299L970.917 297L969 295L968 294L966 292.083L965 291.25L964 290.472L962 289.25L961 288.778L960 288.222L959 287.778L958 287.25L956 286.444L955 286.167L954 285.861L953 285.639L951 285.139L950 284.861L949 284.639L948 284.389L946 284.083L945 284.028L943 284L942 284L940 284L937 284L936 284L935 284L933 284.083L931 284.417M1400 284.417L1399 284.694L1397 285.306L1396 285.611L1395 285.861L1393 286.444L1391 287.25L1390 287.778L1388 288.778L1386 289.778L1385 290.25L1384 290.861L1383 291.472L1381.03 293.083L1380.08 294.028L1378.42 296L1377.69 297L1376.33 299L1375 301L1373.67 303L1373 304L1372.33 305L1371.03 307L1370.42 308L1369.47 310L1368.86 312L1368.64 313L1368.14 315L1367.86 316L1367.64 317L1367.36 318L1367.14 319L1366.64 321L1366.39 322L1366.08 324L1366 326L1366.03 327L1366.08 328L1366.39 330L1366.86 332L1367.14 333L1367.36 334L1367.64 335L1367.86 336L1368.14 337L1368.64 339L1368.86 340L1369.44 342L1370.28 344L1370.83 345L1372.03 347L1373.33 349L1374.67 351L1376 353L1376.69 354L1377.42 355L1379.08 357L1381 358.972L1383 360.75L1384 361.528L1385 362.139L1386 362.75L1387 363.222L1389 364.222L1390 364.75L1392 365.611L1394 366.306L1395 366.611L1396 366.861L1398 367.361L1399 367.611L1401 367.917L1402 367.972L1404 368L1406 368L1409 368L1411 368L1412 368L1413 368L1415 368L1417 367.917L1419 367.611L1420 367.361L1422 366.861L1423 366.639L1425 366.111L1427 365.389L1428 364.889L1430 363.583L1432 361.917L1434 360L1435 359L1436 358L1437.92 356L1438.78 355L1439.58 354L1441 352L1442.33 350L1443 349L1444.33 347L1445.67 345L1446.33 344L1447.61 342L1448.17 341L1449.22 339L1449.75 338L1450.53 336L1450.92 334L1450.97 333L1451 331L1451 329L1451 325L1451 323L1451 322L1451 321L1450.92 319L1450.53 317L1450.14 316L1449.75 315L1448.78 313L1448.22 312L1447.22 310L1446.75 309L1445.61 307L1444.97 306L1443.67 304L1443 303L1441.67 301L1440.31 299L1439.58 298L1437.92 296L1436 294L1434 292.083L1432 290.417L1430 289L1429 288.333L1428 287.694L1426 286.611L1424 285.889L1423 285.639L1422 285.361L1421 285.139L1420 284.861L1419 284.639L1418 284.389L1416 284.083L1415 284.028L1413 284L1412 284L1409 284L1406 284L1405 284L1404 284L1402 284.083L1400 284.417z"/>
<path style="fill:#211b17; stroke:none;" d="M119 539L118 540L118 602L116.5 601.028L114.944 600.444L113 600.056L112 599.944L110 599.528L109 599.167L107 598.444L106 598.167L104 597.556L103 597.167L101 596.472L100 596.25L99 596.083L97 596L96 596L94 596L86 596L75 596L73 596L72 596L70 596.028L69 596.083L67 596.389L66 596.639L64 597.167L63 597.444L61 598.278L59 599.389L57 600.611L56 601.167L55 601.722L54 602.167L53 602.611L51 603.389L50 603.833L49 604.278L48 604.833L47 605.389L46 606.028L45 606.667L43 608L41 609.333L40 610L38 611.417L37 612.222L35 614.028L34 615L32.0833 617L30.4167 619L29.6944 620L28.3056 622L27.5833 623L25.9167 625L24.0278 627L23.0833 628L21.5 630L20.4167 632L19.6667 634L19.3333 635L18.6111 637L18.1667 638L17.75 639L17.2222 640L16.7778 641L16.2222 642L15.7778 643L15.25 644L14.4444 646L14.1667 647L13.8611 648L13.6389 649L13.1389 651L12.8611 652L12.6389 653L12.1389 655L11.6389 657L11.3889 658L11.0833 660L11 662L11 664L11 667L11 682L11 692L11 695L11 696L11.0833 698L11.3889 700L11.6389 701L11.8611 702L12.1389 703L12.3889 704L13 706L13.3333 707L14 709L14.3056 710L14.6111 711L15.1389 713L15.3611 714L15.6389 715L15.8611 716L16.4444 718L17.2778 720L17.8333 721L18.3889 722L19.6111 724L20.1667 725L20.7222 726L21.6111 728L22 729L22.4167 729.972L23.5 731.778L25.0833 733.306L26.0278 734L27.9167 735.417L28.7778 736.222L29.5833 737.083L31 739L32.4167 740.917L34.0833 742.583L35.0278 743.306L37 744.694L38 745.417L40 747.056L41 747.944L43 749.5L45 750.583L46 750.972L48 751.667L50 752.306L51 752.611L53 753.139L54 753.361L55 753.639L56 753.861L58 754.389L59 754.694L61 755.306L62 755.583L64 755.917L65 755.972L66 756L68 756L70 756.083L72 756.389L73 756.639L74 756.861L76 757.361L77 757.611L79 757.806L81 757.389L83 756.611L85 756.111L86 756.028L88 756L89 756L91 756L92 756L94 755.889L96 755.389L98 754.611L99 754.306L101 754L103 753.694L104 753.389L105 752.972L107 752L108 751.5L111 750L112.944 749.028L113.944 748.611L114.5 748.333L116 748L116.25 746.556L116.583 745.444L117 744L117.722 745.5L117.75 746.056L117.944 747.056L117.972 748L118 749L118 750.944L118 754L155 754L155 532L152.944 532.083L151 532.389L149 532.806L147 533.194L146 533.389L144 533.861L143 534.139L142 534.361L141 534.611L140 534.806L138 535.194L137 535.389L135 535.861L134 536.139L133 536.361L132 536.611L131 536.806L129 537.194L128 537.389L126 537.861L125 538.139L124 538.361L123 538.611L122.056 538.778L120.5 538.972L119 539z"/>
<path style="fill:#f3b103; stroke:none;" d="M1178 539L1178 549L1178 754L1179.5 754L1181.06 754L1182 754L1184 754L1200 754L1205 754L1206 754L1211.94 754L1214 754L1214 751.944L1214 747L1214 742L1214 732L1214 677L1214 676L1214 655L1214 651L1214 649L1214 648L1214.11 646L1214.69 644L1215.22 643L1216.42 641L1217.61 639.028L1218.31 638.111L1220.03 636.611L1222 635.389L1223 634.722L1224 634L1226 632.611L1228 631.5L1229 631L1231 630L1234 628.5L1235 628L1237 627.028L1239 626.306L1240 626.111L1241 626.028L1243 626L1244 626L1247 626L1251 626L1253 626L1255 626.028L1256 626.111L1257 626.306L1258 626.611L1260 627.472L1261 627.944L1262 628.361L1264 629.278L1266 630.472L1267 631.25L1268 632.083L1270 634L1271 635L1272.92 637L1274.53 639L1275.72 641L1276.17 642L1277.06 644L1277.53 645L1278.39 647L1278.89 649L1278.97 650L1279 651L1279.03 653L1279.11 654L1279.61 656L1280.39 658L1280.89 660L1280.97 661L1281 663L1281 665L1281 668L1281 682L1281 686L1281 754L1285 754L1286 754L1290 754L1291 754L1292 754L1293 754L1294 754L1296 754L1304 754L1308 754L1316 754L1316 751.944L1316 738L1316 725L1316 678L1316 654L1316 649L1316 647L1316 645L1315.92 643L1315.58 641L1315.31 640L1315 639L1314.33 637L1313.67 635L1313.33 634L1312.97 633L1312.61 632L1311.75 630L1311.25 629L1310.83 628L1310.39 627L1310.03 626L1309.67 625L1309.33 624L1308.58 622L1307.5 620L1306.75 619L1305.92 618L1304 616L1302 614L1301 613L1299 611L1297 609L1296 608L1295 607L1293 605.083L1291 603.472L1289 602.278L1288 601.833L1287 601.389L1285 600.667L1284 600.333L1282 599.667L1281 599.333L1279 598.667L1278 598.333L1276 597.667L1275 597.333L1274 597L1272 596.417L1270 596.083L1269 596.028L1268 596L1266 596L1262 596L1261 596L1257 596L1256 596L1255 596L1251 596L1250 596L1247 596L1245 596L1244 596L1242 596.083L1240 596.472L1239 596.833L1237 597.528L1236 597.75L1235 597.917L1233 598.028L1232 598.083L1230 598.417L1229 598.694L1227 599.389L1226 599.833L1225 600.278L1223 601.472L1221 603.056L1220 603.944L1218 605.583L1216.06 606.917L1215.5 607.306L1214 608L1214 606.5L1214 599L1214 596L1214 532L1211.94 532.083L1210 532.389L1208 532.806L1206 533.194L1205 533.389L1204 533.639L1203 533.861L1202 534.139L1200 534.611L1199 534.806L1197 535.194L1196 535.389L1194 535.861L1193 536.139L1192 536.361L1191 536.611L1190 536.806L1188 537.194L1187 537.389L1186 537.611L1185 537.806L1183 538.194L1182 538.389L1180.06 538.778L1179.5 538.917L1178 539z"/>
<path style="fill:#211b17; stroke:none;" d="M237 596.417L236 596.694L234 597.333L232 598L231 598.306L229 598.861L228 599.167L227 599.444L225 600.278L224 600.833L223 601.389L222 602.028L220 603.333L218 604.667L215 606.667L212 608.667L211 609.333L209.028 610.694L208.083 611.417L206.417 613.083L205 615L203.583 616.917L202.778 617.778L201.917 618.583L200 620L198.083 621.417L196.472 623.083L195.25 625L194.778 626L194.222 627L193.75 628L192.611 630L191.972 631L191.333 632L190.667 633L189.417 635L188.417 637L188.028 638L187.333 640L186.694 642L186.389 643L185.861 645L185.639 646L185.361 647L185.139 648L184.861 649L184.639 650L184.139 652L183.861 653L183.639 654L183.389 655L183.083 657L183.028 658L183 660L183 662L183 665L183 679L183 689L183 691L183 692L183.028 694L183.083 695L183.389 697L183.639 698L183.861 699L184.139 700L184.639 702L184.861 703L185.139 704L185.361 705L185.639 706L185.861 707L186.139 708L186.639 710L186.861 711L187.139 712L187.361 713L187.639 714L187.889 715L188.611 717L189.694 719L190.333 720L191 721L192.333 723L194.333 726L197.667 731L199 733L199.694 733.972L200.417 734.917L202.083 736.583L203.028 737.306L204 738L206 739.417L207 740.222L208 741.083L210 742.917L212 744.583L213 745.306L215 746.667L217 747.972L218 748.611L220 749.75L221 750.222L222 750.75L223 751.167L224 751.611L226 752.333L227 752.667L229 753.333L231 754L232 754.306L233 754.611L234 754.861L236 755.361L237 755.611L239 755.917L240 755.972L241 756L243 756L245 756.028L246 756.083L248 756.389L249 756.639L250 756.861L251 757.139L252 757.361L253 757.611L254 757.778L256 757.972L258 757.917L259 757.778L260 757.611L262 757.139L263 756.861L264 756.639L266 756.222L267 756.083L269 756L270 756L272 756L274 755.917L276 755.611L277 755.361L279 754.861L280 754.639L281 754.361L282 754.139L284 753.611L286 752.972L287 752.611L289 751.75L290 751.222L291 750.778L292 750.222L293 749.778L294 749.222L295 748.75L296 748.167L297 747.611L299 746.306L300 745.583L302 743.917L303 743L305 741.222L306 740.417L308 739L310 737.583L311.917 735.917L312.778 734.972L314.306 733L315.667 731L317 729L319 726L321 723L321.667 722L322.333 721L323.583 719L324.528 717L324.833 716L325.139 715L325.639 713L325.861 712L326.389 710L327 708L327.333 707L327.667 706L328.667 703L329 702L329.306 701L329.611 700L330.139 698L330.361 697L330.611 696L330.806 695L331.194 693L331.389 692L331.611 691L331.806 690L332.194 688L332.389 687L332.611 686L332.917 684L332.972 683L333 682L333 680L333 675L333 672L333 671L332.972 669L332.917 668L332.611 666L332.389 665L332 663L331.806 662L331.389 660L331.194 659L330.806 657L330.611 656L330.361 655L330.139 654L329.611 652L329.306 651L329 650L328.667 649L328 647L327.694 646L327.139 644L326.861 643L326.639 642L326.361 641L326.139 640L325.861 639L325.611 638L324.972 636L324.583 635L323.583 633L322.333 631L321.667 630L320.333 628L317.667 624L315 620L313.667 618L312.306 616L310.778 614.083L308.972 612.417L307 611L306 610.333L304 609L301 607L296 603.667L294 602.333L293 601.667L291 600.417L289 599.472L288 599.167L286 598.639L284 598.139L283 597.861L282 597.639L281 597.361L280 597.139L278 596.639L277 596.389L275 596.083L274 596.028L272 596L271 596L268 596L256 596L245 596L243 596L242 596L241 596L239 596.083L237 596.417M395 612L394.472 610.5L394.111 609.944L393.583 608.944L392.389 607L391.25 605L390.75 604L389.611 602L388.389 600.056L388.056 599.5L387 598L363 598L363 754L399 754L399 686L399 657L399 648L399 646L399 645L399.111 643L399.611 641L400.389 639.056L400.694 638.056L400.889 637.5L401 636L402.5 635.889L404.056 635.278L406 633.889L407 632.972L409 631.028L411 629.333L413 628.306L414 628L416 627.389L418 626.611L420 626.111L421 626.028L423 626L425 626L428 626L430 626L431 626L433 626.028L434 626.111L436 626.611L438 627.389L439 627.722L440 627.972L441.944 628.389L443.5 628.75L445 629L445.111 631.056L445.333 632.056L446.333 634L447.111 634.972L448.944 636.667L450.5 637.639L452 638L452 640.056L452.028 641.056L452.111 642L452.306 643L453 645L453.389 646L453.694 647L453.889 648L454 650L454 651L454 654L454 662L454 685L454 754L490 754L490 670L490 651L490 648L490 646L490.028 644L490.111 643L490.306 642L491.028 640L491.5 639L492.611 637L493.306 636L495.028 634L496 633.028L497 632.111L498 631.306L499 630.611L500 630.028L501 629.5L503 628.5L505 627.5L506 627.028L507 626.611L509 626.111L510 626.028L511 626L513 626L518 626L521 626L523 626L525 626.028L527 626.306L529 627.111L531 628.333L533 629.611L534 630.194L535.972 631.472L537.75 633.083L538.528 634.028L539.722 636L540.167 637L540.611 638L541.333 640L541.667 641L542.333 643L543.333 646L543.667 647L544 648L544.583 650L544.778 651L544.917 652L545 654L545 656L545 658L545 663L545 684L545 687L545 689L545 754L561 754L581 754L581 655L581 649L581 647L580.972 646L580.917 645L580.583 643L580 641L579.417 639L579.222 638L579.083 637L579 635L578.917 633L578.75 632L578.528 631L577.75 629L577.25 628L576.389 626L576.028 625L575.667 624L574.972 622L574.083 620L573.5 619L571.944 617L571.056 616L569.472 614L568.167 612L567.528 611L565.917 609L564 607.083L563 606.25L562 605.472L560 604.25L559 603.778L558 603.222L557 602.778L556 602.25L554 601.389L553 601.028L551 600.333L550 599.972L549 599.611L547 598.75L546 598.25L544 597.389L542 596.694L541 596.417L540 596.222L539 596.083L537 596L536 596L534 596L531 596L522 596L519 596L517 596L515 596L513 596.083L511 596.472L510 596.833L508 597.528L507 597.75L506 597.917L504 598.111L502 598.639L500 599.639L498 600.722L497 601.167L495 602.083L494 602.639L492 604L490 605.306L488.056 606.111L487.056 606.389L485 607L484.667 608.5L484.389 609L483.667 610.5L483 612L481 612L480.222 610.5L479.694 609.944L478.889 608.972L477.972 608.083L476 606.417L475 605.694L473 604.389L471 603.25L470 602.778L469 602.25L467 601.389L466 601.028L464 600.333L463 600L460 599L457 598L455 597.333L454 597L452 596.417L451 596.222L450 596.083L448 596L447 596L445 596L436 596L427 596L425 596L424 596L422 596.083L420 596.472L418 597.25L417 597.75L415 598.611L414 598.972L413 599.333L412 599.667L410 600.389L408 601.25L407 601.778L406 602.25L404 603.472L402 605.083L400 607L399 608L398.056 608.944L395 612M742 612L741.917 610.5L741.528 608.944L740.75 607L740.25 606L739.389 604L738.611 602L738.194 601.056L737.806 600.056L737.5 599.5L737 598L735.5 598L733 598L728 598L727 598L719 598L717 598L716 598L710 598L710 601.056L710 614L710 623L710 754L711.5 754L713.056 754L725 754L731 754L747 754L747 752.5L747 674L747 672L747 651L747 648L747 646L747.028 644L747.111 643L747.722 641L748.333 640L750.028 638L751 637.028L753 635.306L754 634.611L756 633.389L757 632.722L759 631.278L760 630.611L761 630.028L763 629L765 628L767 627.028L769 626.306L770 626.111L771 626.028L773 626L775 626L776 626L778 626L783 626L785 626L787 626L789 626.083L790 626.25L791 626.472L793 627.194L794 627.639L795 628.056L797 629.056L798 629.639L800 630.833L801 631.472L802.889 633.083L803.694 634.028L804.917 636L805.361 637L806.278 638.972L807.417 640.667L808.583 641.639L810 642L810 644.056L810 645.056L810.083 647L810.25 648L810.472 649L811.167 651L811.528 652L811.917 654L812 656L812 657L812 660L812 667L812 688L812 690L812 754L814.056 754L815.056 754L820 754L824 754L826 754L827 754L828 754L836 754L837 754L841 754L843 754L846.5 754L848 754L848 678L848 655L848 651L848 649L848 647L847.972 646L847.917 645L847.583 643L847.306 642L846.667 640L845.667 637L843 629L842 626L841.667 625L841.333 624L840.583 622L839.5 620L838.75 619L837.917 618L836 616L835 615L832 612L829 609L827 607L825 605.083L824 604.25L823 603.472L822 602.861L821 602.278L819 601.389L818 601.028L817 600.667L816 600.333L814 599.667L810 598.333L808 597.667L806 597L804 596.417L803 596.222L802 596.083L800 596L799 596L798 596L796 596L795 596L791 596L787 596L785 596L780 596L779 596L777 596L776 596L775 596L773 596.083L772 596.222L771 596.417L769 597L768 597.333L766 598L764 598.667L763 599.028L762 599.389L760 600.25L759 600.778L758 601.25L757 601.833L756 602.389L754 603.667L753 604.333L752 604.972L750 606.194L749 606.833L748 607.472L746 609.056L745.056 609.917L744.056 610.694L743.5 611.222L742 612M934 596.389L933 596.639L932 596.861L930 597.389L929 597.694L927 598.333L925 599.028L924 599.389L923 599.833L922 600.278L921 600.833L920 601.389L919 602.028L917 603.333L915 604.667L912 606.667L910 608L909 608.667L908 609.333L906 610.694L905 611.417L903 613.083L901 615L899 617L897.028 619L895.25 621L894.472 622L893.25 624L892.778 625L891.778 627L891.222 628L890.75 629L889.611 631L888.972 632L887.667 634L886.417 636L885.417 638L885.028 639L884.389 641L884.139 642L883.861 643L883.639 644L883.361 645L883.139 646L882.861 647L882.639 648L882.361 649L881.861 651L881.639 652L881.361 653L881.139 654L880.861 655L880.639 656L880.361 657L880.139 658L879.861 659L879.361 661L879.139 662L878.861 663L878.639 664L878.222 666L878.083 667L878 669L878 671L878 672L878 675L878 681L878 683L878.028 684L878.083 685L878.389 687L878.639 688L879.139 690L879.361 691L879.639 692L879.861 693L880.139 694L880.361 695L880.861 697L881.139 698L881.639 700L881.861 701L882.361 703L882.639 704L882.861 705L883.139 706L883.361 707L883.639 708L884.139 710L884.361 711L884.639 712L885.139 714L885.389 715L886.083 717L887.083 719L888.333 721L889 722L890.333 724L892.333 727L893 728L895 731L896.333 733L897.694 735L899.222 736.972L900.083 737.917L902 739.583L903 740.306L905 741.667L906 742.333L909 744.333L914 747.667L916 749L918 750.333L920 751.583L922 752.528L923 752.833L925 753.361L927 753.861L928 754.139L929 754.361L930 754.639L931 754.861L933 755.361L934 755.611L936 755.917L937 755.972L939 756L940 756L942 756L944 756.083L946 756.389L947 756.639L948 756.861L949 757.139L950 757.361L951 757.611L953 757.917L954 757.944L955 757.917L957 757.611L958 757.361L959 757.139L960 756.861L961 756.639L962 756.389L964 756.083L965 756.028L967 756L969 756L970 756L972 755.917L974 755.611L975 755.361L976 755.139L978 754.611L979 754.306L981 753.667L982 753.333L984 752.583L985 752.111L986 751.583L988 750.333L989 749.667L991 748.333L995 745.667L1001 741.667L1003 740.333L1004 739.667L1006 738.333L1006.97 737.667L1007.92 737L1009.58 735.583L1010.31 734.778L1011 733.917L1012.33 732L1013.67 730L1014.33 729L1015.67 727L1017.67 724L1019 722L1019.67 721L1020.92 719L1021.44 718L1021.92 717L1022.61 715L1022.86 714L1023.39 712L1024 710L1024.33 709L1025 707L1025.31 706L1025.61 705L1026.14 703L1026.36 702L1026.64 701L1026.86 700L1027.14 699L1027.36 698L1027.61 697L1027.92 695L1027.97 694L1028 692L1028 690L1028 687L1028 674L1028 663L1028 660L1028 659L1027.97 657L1027.92 656L1027.61 654L1027.36 653L1026.86 651L1026.61 650L1026 648L1025.67 647L1024.67 644L1024.33 643L1023.69 641L1023.39 640L1023.14 639L1022.86 638L1022.61 637L1021.97 635L1021.58 634L1020.58 632L1019.33 630L1018.67 629L1018 628L1016 625L1014 622L1012.67 620L1011.31 618.028L1010.58 617.083L1008.92 615.417L1007 614L1005 612.667L1003 611.333L999 608.667L994 605.333L992 604L990 602.667L989 602.028L988 601.389L987 600.833L986 600.278L985 599.833L984 599.389L983 599.028L981 598.333L979 597.694L978 597.389L976 596.861L975 596.639L974 596.389L972 596.083L970 596L968 596L965 596L957 596L953 596L950 596L948 596L947 596L943 596L942 596L940 596L939 596L938 596L936 596.083L934 596.389z"/>
<path style="fill:#f3b103; stroke:none;" d="M1467 714L1465.53 715.972L1464.72 716.806L1463.92 717.528L1462 718.75L1461 719.222L1459 720.222L1458 720.778L1457 721.222L1455 722.222L1454 722.75L1452 723.611L1451 723.972L1449 724.667L1447 725.306L1446 725.583L1444 725.917L1442 726.083L1441 726.222L1440 726.417L1439 726.694L1437 727.306L1436 727.583L1434 727.917L1433 727.972L1432 728L1430 728L1428 728L1427 727.972L1426 727.917L1424 727.528L1422 726.833L1421 726.472L1419 726.056L1418 725.944L1416 725.528L1415 725.167L1413 724.472L1411 724.056L1410 723.944L1408 723.528L1406 722.722L1405 722.139L1404 721.556L1403 720.833L1401 719.444L1400 718.833L1398.08 717.528L1396.47 715.917L1395.83 714.972L1394.56 713L1393.83 712L1392.44 710L1391.83 709L1390.56 707L1389.17 705L1388.44 704L1387.28 702L1386.47 700L1386.06 698L1385.94 697L1385.53 695L1385.17 694L1384.47 692L1384.25 691.056L1384.03 689.5L1384 688L1385.5 688L1386.06 688L1388 688L1391 688L1392 688L1393 688L1401 688L1409 688L1410 688L1411 688L1412 688L1414 688L1416 688L1417 688L1418 688L1426 688L1428 688L1432 688L1433 688L1437 688L1438 688L1439 688L1447 688L1451 688L1452 688L1455 688L1459 688L1461 688L1465 688L1466 688L1467 688L1468 688L1469 688L1473 688L1474 688L1475 688L1478 688L1479 688L1483 688L1484 688L1485 688L1486 688L1490 688L1492 688L1493 688L1497 688L1497.58 685.944L1497.92 684L1498.03 682L1498.11 681L1498.61 679L1499.39 677L1499.89 675L1499.97 674L1500 672L1500 671L1500 668L1500 662L1500 660L1499.97 659L1499.92 658L1499.61 656L1499.36 655L1499.14 654L1498.86 653L1498.64 652L1498.39 651L1498.08 649L1497.92 647L1497.78 646L1497.58 645L1496.92 643L1495.94 641L1495.36 640L1494.28 638L1493.83 637L1493.39 636L1492.61 634L1492.17 633L1491.72 632L1491.17 631L1490.61 630L1489.97 629L1489.33 628L1488 626L1486.67 624L1486 623L1484.58 621L1482.92 619L1481 617L1480 616L1478 614L1477 613L1475 611L1474 610L1472 608.028L1470 606.333L1469 605.694L1467 604.889L1465 604.361L1464 604.139L1463 603.833L1462 603.528L1460 602.583L1458 601.333L1456 600.083L1455 599.556L1454 599.083L1452 598.333L1451 598L1450 597.694L1448 597.139L1447 596.861L1446 596.639L1445 596.389L1443 596.083L1441 596L1440 596L1439 596L1436 596L1428 596L1424 596L1422 596L1420 596L1419 596L1418 596L1416 596L1414 596L1413 596L1411 596L1410 596L1409 596L1407 596.083L1405 596.389L1404 596.639L1403 596.889L1401 597.611L1400 598.111L1399 598.694L1397 599.972L1396 600.583L1394 601.583L1392 602.333L1391 602.667L1389 603.417L1387 604.417L1385 605.667L1384 606.333L1382 607.667L1380 609L1378 610.417L1376 612.083L1375 613.028L1373 615L1372 616L1370 618L1368 620L1367 621L1366 622L1364.08 624L1363.22 625L1362.42 626L1361 628L1359.67 630L1358.33 632L1357.67 633L1357.03 634L1356.39 635L1355.25 637L1354.78 638L1354.22 639L1353.78 640L1353.22 641L1352.78 642L1352.25 643L1351.39 645L1351.03 646L1350.67 647L1350 649L1349.39 651L1349.14 652L1348.64 654L1348.22 656L1348.08 657L1348 659L1348 660L1348 661L1348 664L1348 678L1348 691L1348 694L1348 695L1348.03 697L1348.08 698L1348.42 700L1349 702L1349.58 704L1349.81 705L1350.19 707L1350.69 709L1351.39 711L1351.83 712L1352.25 713L1352.78 714L1353.22 715L1353.78 716L1354.22 717L1354.75 718L1355.61 720L1356.33 722L1356.67 723L1357.42 725L1357.89 726L1359.03 728L1360.42 729.972L1361.22 730.917L1362.08 731.778L1364 733.389L1366 735.083L1366.97 736.028L1367.92 737L1369.61 739L1370.39 740L1372.08 741.917L1374 743.583L1376 745L1378 746.333L1380 747.667L1381 748.333L1383 749.583L1385 750.528L1387 751.139L1388 751.361L1389 751.639L1390 751.861L1392 752.389L1393 752.694L1394 753L1396 753.667L1398 754.306L1399 754.583L1400 754.806L1401 755L1403 755.389L1404 755.611L1406 755.917L1407 755.972L1409 756L1411 756L1412 756.028L1413 756.083L1415 756.417L1417 757L1419 757.583L1421 757.917L1423 758L1424 758L1426 757.972L1427 757.917L1429 757.611L1430 757.389L1431 757.194L1433 756.806L1434 756.611L1435 756.389L1437 756.083L1438 756.028L1440 756L1442 756L1444 755.917L1445 755.778L1447 755.361L1448 755.139L1449 754.861L1450 754.639L1451 754.389L1453 754.083L1454 754.028L1456 754L1458 754L1460 753.917L1462 753.528L1463 753.167L1465 752.361L1466 751.944L1468 750.917L1470 749.667L1472 748.417L1473 747.889L1474 747.417L1476 746.583L1477 746.083L1478.89 744.75L1480.25 742.972L1480.64 741L1480.5 740L1480.14 739L1479.22 737L1478.78 736L1478.22 735L1477.78 734L1476.78 732L1476.22 731L1475.78 730L1475.22 729L1474.78 728L1474.22 727L1473.78 726L1473.22 725L1472.78 724L1472.22 723L1471.78 722L1471.22 721L1470.78 720L1469.78 718L1469.22 717.028L1468.81 716.111L1468.22 715.306L1468 714.778L1467 714M1536 603L1536.03 604.5L1536.22 606.056L1536.42 607L1536.69 608L1537.31 610L1537.61 611L1538.14 613L1538.39 614L1539 616L1539.67 618L1540 619L1540.61 621L1541.14 623L1541.39 624L1541.69 625L1542.31 627L1542.61 628L1543.17 629.944L1543.25 630.5L1544 632L1545.5 631.472L1546.06 631.111L1547.06 630.583L1548 630L1550 628.917L1551 628.5L1552 628.222L1553 628L1555 627.528L1556 627.167L1558 626.472L1559 626.25L1560 626.083L1562 626L1563 626L1564 626L1566 626L1570 626L1575 626L1577 626L1579 626L1581 626L1582 626L1586 626L1588 626L1589 626L1591 626.083L1593 626.417L1595 627L1596 627.333L1597 627.694L1599 628.639L1600 629.306L1601 630.111L1603 632L1604 633L1606 635L1608 637L1608.97 638L1610.67 640L1611.67 642L1611.89 643L1612.03 645L1612.08 646L1612.22 647L1612.42 648L1612.69 649L1613.33 650.944L1613.56 651.5L1614 653L1612.5 652.75L1610.94 652.389L1609 652.083L1608 652.028L1606 652L1605 652L1603 652L1599 652L1598 652L1597 652L1594 652L1592 652L1591 652L1589 652L1588 652L1584 652L1582 652L1581 652L1579 652.028L1578 652.083L1576 652.389L1575 652.639L1574 652.861L1573 653.139L1572 653.361L1571 653.639L1569 654.139L1568 654.361L1567 654.639L1566 654.861L1564 655.389L1563 655.694L1562 656L1561 656.333L1559 657L1558 657.333L1556 658L1555 658.333L1553 659.083L1551 660.083L1549 661.333L1547 662.583L1545 663.583L1544 663.972L1542 664.694L1540 665.639L1539 666.306L1538 667.111L1536 669L1534.03 671L1533.08 672L1531.39 674L1530.64 675L1529.86 676L1528.44 678L1527.25 680L1526.78 681L1526.25 682L1525.83 683L1525.39 684L1524.67 686L1524 688L1523.67 689L1523 691L1522.67 692L1522.33 693L1521.67 695L1521.33 696L1520.67 698L1520 700L1519.42 702L1519.08 704L1519 706L1519 707L1519 709L1519 711L1519 712L1519.08 714L1519.25 715L1519.47 716L1520.17 718L1520.53 719L1520.75 720L1520.92 721L1521.03 723L1521.08 724L1521.47 726L1521.86 727L1522.25 728L1523.22 730L1523.78 731L1524.22 732L1524.78 733L1525.78 735L1526.25 736L1527.47 738L1529.08 740L1530.03 741L1532 743L1533 744L1534 745L1536 746.917L1537 747.75L1538 748.528L1540 749.75L1541 750.222L1542 750.778L1543 751.222L1544 751.75L1546 752.611L1547 752.972L1548 753.333L1550 754.028L1551 754.389L1552 754.806L1554 755.528L1556 755.917L1557 755.972L1559 756L1560 756L1562 756L1563 756L1565 756.028L1566 756.083L1568 756.417L1570 757L1572 757.583L1573 757.75L1574 757.806L1576 757.389L1578 756.611L1580 756.111L1581 756.028L1583 756L1585 756L1586 756L1588 755.972L1589 755.917L1591 755.528L1593 754.833L1594 754.472L1595 754.222L1597 753.722L1598 753.361L1600 752.361L1601 751.833L1602 751.278L1604 750.444L1605 750.139L1607 749.306L1609 747.889L1611 746L1613 744L1614 743.028L1615.94 741.333L1617.5 740.361L1619 740L1619.11 741.5L1619.64 743.056L1620.11 744L1620.69 745L1622 747L1623.42 749L1624.22 750L1625.08 750.972L1627 752.694L1628 753.389L1630 754.5L1631 754.972L1632 755.389L1634 755.889L1635 755.972L1637 756L1638 756L1640 756L1642 756L1646 756L1647 756L1649 756L1650 755.972L1651 755.889L1653 755.389L1654.94 754.611L1655.5 754.333L1657 754L1657.78 752.5L1658.31 751.944L1659.11 750.944L1660.89 749.056L1661.69 748.056L1662.22 747.5L1663 746L1661.03 744.528L1660.19 743.722L1659.47 742.917L1658.25 741L1657.78 740L1657.22 739L1656.78 738L1656.22 737L1655.78 736L1654.78 734L1654.22 733L1653.78 732L1652.78 730L1652.25 729L1651.47 727L1651.08 725L1651.03 724L1651 722L1651 721L1651 718L1651 716L1651 715L1650.92 713L1650.78 712L1650.58 711L1650 709L1649.42 707L1649.08 705L1649 703L1649 702L1649 700L1649 693L1649 665L1649 656L1649 654L1649 653L1648.97 651L1648.92 650L1648.61 648L1648.36 647L1648.14 646L1647.86 645L1647.64 644L1647.14 642L1646.86 641L1646.64 640L1646.36 639L1646.14 638L1645.86 637L1645.61 636L1645 634L1644.67 633L1644 631L1643.69 630L1643.39 629L1642.86 627L1642.64 626L1642.36 625L1642.14 624L1641.53 622L1640.5 620L1639.75 619L1637.97 617L1636 615L1633 612L1630 609L1629 608L1627 606.028L1625 604.306L1623 603.111L1622 602.694L1621 602.333L1620 602L1618 601.333L1617 601L1615 600.333L1613 599.667L1612 599.333L1610 598.667L1609 598.333L1607 597.694L1606 597.389L1605 597.139L1603 596.639L1602 596.389L1600 596.083L1599 596.028L1598 596L1596 596L1594 596L1593 596L1591 596L1575 596L1573 596L1572 596L1571 596L1569 596L1567 596L1566 596L1564 596L1563 596L1561 596.083L1559 596.472L1558 596.833L1556 597.528L1554 597.917L1553 597.972L1552 598L1550 598.083L1548 598.472L1547 598.833L1545 599.611L1543 600.333L1542 600.667L1540 601.389L1538.06 602.194L1537.5 602.5L1536 603M1921 714L1919.5 714.361L1917.94 715.333L1916 717L1915 717.917L1913 719.528L1911 720.722L1910 721.167L1909 721.611L1907 722.333L1906 722.667L1905 723.028L1904 723.389L1902 724.25L1901 724.75L1900 725.139L1899 725.528L1897 725.917L1896 725.972L1894 726.083L1893 726.25L1892 726.472L1891 726.833L1889 727.528L1888 727.75L1887 727.917L1885 728L1883 728L1881 728L1880 727.972L1879 727.917L1877 727.528L1875 726.833L1874 726.472L1872 726.056L1871 725.944L1869 725.528L1868 725.167L1866 724.472L1864 724.056L1863 723.944L1861 723.528L1859 722.722L1858 722.139L1857 721.556L1856 720.833L1854 719.444L1853.03 718.833L1851.25 717.528L1850.47 716.75L1849.83 715.917L1848.53 714L1847 712L1845.47 710L1844.17 708L1843.56 707L1842.17 705L1841.44 704L1840.28 702L1839.86 701L1839.47 700L1839.08 698L1839 697L1838.69 695L1838.39 694L1837.61 692L1837.31 691.056L1837.03 689.5L1837 688L1839.06 688L1840.06 688L1842 688L1843 688L1845 688L1848 688L1850 688L1866 688L1870 688L1871 688L1875 688L1876 688L1878 688L1879 688L1883 688L1887 688L1888 688L1896 688L1900 688L1905 688L1909 688L1913 688L1914 688L1915 688L1919 688L1923 688L1924 688L1925 688L1928 688L1930 688L1931 688L1935 688L1936 688L1937 688L1938 688L1939 688L1943 688L1945 688L1946 688L1946.94 688L1947.94 688L1950 688L1950.58 685.944L1950.78 684.944L1950.92 684L1951 682L1951.03 680L1951.11 679L1951.61 677L1952.39 675L1952.89 673L1952.97 672L1953 670L1953 669L1953 668L1953 666L1953 661L1953 659L1952.97 658L1952.92 657L1952.61 655L1952.36 654L1951.86 652L1951.61 651L1951 649L1950.33 647L1950 646L1949.33 644L1949 643L1948.67 642L1948.33 641L1947.67 639L1947 637L1946.33 635L1945.58 633L1945.11 632L1944.58 631L1943.33 629L1942 627L1940.67 625L1940 624L1938.58 622L1937.78 621L1936.92 620L1935 618L1934 617L1932 615L1930 613L1929 612L1927 610.083L1925 608.417L1924 607.694L1922 606.417L1920 605.417L1918 604.667L1917 604.333L1915 603.583L1914 603.111L1913 602.583L1911 601.333L1909 600.083L1908 599.556L1907 599.083L1905 598.333L1904 598L1902 597.389L1901 597.139L1899 596.639L1898 596.389L1896 596.083L1894 596L1892 596L1889 596L1887 596L1883 596L1882 596L1874 596L1872 596L1870 596L1869 596L1865 596L1863 596L1862 596L1860 596.083L1858 596.389L1857 596.639L1856 596.889L1854 597.611L1853 598.111L1852 598.694L1851 599.333L1849 600.583L1847 601.528L1846 601.833L1845 602.139L1843 602.639L1842 602.861L1840 603.472L1838 604.417L1836 605.667L1835 606.333L1833 607.667L1831 609L1830 609.694L1829.03 610.417L1827.22 612.083L1825.69 614L1825 615L1824.31 616L1823.58 617L1821.92 619L1820 621L1818.08 623L1817.22 624L1816.42 625L1815 627L1814.33 628L1813.67 629L1812.33 631L1811.67 632L1810.33 634L1809.67 635L1808.39 637L1807.83 638L1807.25 639L1806.78 640L1805.78 642L1805.25 643L1804.39 645L1803.67 647L1803 649L1802.69 650L1802.39 651L1802.14 652L1801.64 654L1801.39 655L1801.08 657L1801.03 658L1801 660L1801 661L1801 664L1801 665L1800.92 667L1800.61 669L1800.36 670L1800.14 671L1799.64 673L1799.39 674L1799.08 676L1799 678L1799.03 679L1799.08 680L1799.39 682L1799.64 683L1799.86 684L1800.14 685L1800.36 686L1800.61 687L1800.92 689L1800.97 690L1801 692L1801 693L1801 695L1801.03 697L1801.08 698L1801.47 700L1802.17 702L1802.56 703L1803.14 705L1803.36 706L1803.86 708L1804.36 710L1804.64 711L1804.86 712L1805.14 713L1805.64 715L1805.86 716L1806.44 718L1807.28 720L1807.83 721L1808.39 722L1809.03 723L1809.67 724L1810.97 726L1811.61 727L1812.19 728L1813.47 729.972L1815.08 731.778L1817 733.306L1818 734L1819.92 735.417L1820.78 736.222L1821.58 737.083L1823 739L1823.69 740L1825.22 741.917L1827.03 743.583L1828 744.306L1829 745L1831 746.333L1833 747.667L1834 748.333L1836 749.583L1838 750.583L1840 751.333L1841 751.667L1843 752.306L1844 752.611L1846 753.139L1847 753.361L1848 753.639L1849 753.861L1851 754.361L1852 754.639L1853 754.861L1854 755.139L1855 755.361L1856 755.611L1858 755.917L1859 755.972L1861 756L1862 756L1864 756L1866 756.083L1868 756.389L1869 756.639L1870 756.861L1871 757.139L1872 757.361L1873 757.611L1875 757.917L1876 757.972L1878 758L1879 757.972L1880 757.917L1882 757.611L1883 757.389L1884 757.194L1886 756.806L1887 756.611L1888 756.389L1890 756.083L1891 756.028L1893 756L1895 756L1896 755.972L1897 755.917L1899 755.611L1900 755.361L1901 755.139L1902 754.861L1904 754.389L1905 754.222L1906 754.083L1908 754L1910 753.972L1911 753.917L1913 753.611L1914 753.361L1916 752.861L1917 752.611L1919 751.917L1921 750.917L1923 749.667L1925 748.417L1926 747.889L1927 747.417L1929 746.583L1930.97 745.5L1932.67 743.917L1933.25 742.972L1933.58 742L1933.5 740L1933.14 739L1932.22 737L1931.78 736L1931.22 735L1930.78 734L1930.22 733L1929.78 732L1929.22 731L1928.78 730L1928.22 729L1927.22 727L1926.78 726L1926.22 725L1925.78 724L1925.22 723L1924.78 722L1924.22 721L1923.78 720L1923.22 719L1922.25 717.056L1921.83 716.056L1921.5 715.5L1921 714M2019 612L2019 608L2019 606L2019 598L2016.94 598L2015.94 598L2015 598L2014 598L2010 598L2007 598L2006 598L2005 598L2001 598L2000 598L1996 598L1995 598L1991 598L1989 598L1988 598L1986.06 598L1985.06 598L1983 598L1983 608L1983 613L1983 678L1983 679L1983 681L1983 686L1983 687L1983 689L1983 693L1983 695L1983 703L1983 716L1983 721L1983 731L1983 733L1983 741L1983 754L1985.06 754L1987 754L1988 754L1992 754L1993 754L1994 754L1998 754L1999 754L2003 754L2005 754L2009 754L2010 754L2012 754L2014 754L2015 754L2016.94 754L2018.5 754L2020 754L2020 748L2020 718L2020 717L2020 685L2020 675L2020 674L2020 664L2020 660L2020 658L2020 657L2020.08 655L2020.25 654L2020.47 653L2020.86 652L2021.28 651L2021.83 650L2022.36 649L2023.36 647L2023.72 646L2024.31 644L2025.33 642L2027.03 640L2029 638L2030 637L2032 635L2033 634L2035 632.083L2037 630.472L2038 629.833L2040 628.556L2041 627.861L2043 626.694L2044 626.333L2046 626.028L2048 626L2049 626L2052 626L2053 626L2057 626L2059 626L2060 626.028L2061 626.111L2063 626.611L2065 627.389L2066 627.722L2067 628L2069 628.722L2070.94 630L2071.94 630.722L2072.5 631.222L2074 632L2074.5 630.5L2074.83 629.944L2075.25 628.944L2075.78 628L2076.22 627L2077.22 625L2077.78 624L2078.75 622L2079.17 621L2079.61 620L2080.39 618L2080.83 617L2081.25 616L2081.78 615L2082.22 614L2082.78 613L2083.22 612L2084.17 610L2084.61 609L2085.39 607L2086.17 605L2086.53 604L2086.81 602L2086.64 601.028L2086.28 600.111L2084.89 598.722L2083.97 598.306L2082 597.722L2081 597.389L2079 596.611L2077 596.111L2076 596.028L2075 596L2073 596L2069 596L2068 596L2067 596L2063 596L2062 596L2060 596L2056 596L2055 596L2054 596L2052 596L2051 596L2050 596L2048 596.028L2047 596.083L2045 596.417L2043 597L2042 597.333L2040 598L2038 598.667L2037 599.028L2036 599.389L2034 600.25L2033 600.778L2032 601.222L2031 601.778L2030 602.25L2028 603.472L2027 604.25L2026 605.083L2024.03 607L2023.08 608L2021.44 609.889L2020.67 610.694L2020.25 611.222L2019 612z"/>
<path style="fill:#211b17; stroke:none;" d="M611 598L611 628L615 628L620 628L624 628L632 628L632 635L632 754L648 754L656 754L661 754L668 754L668 752.5L668 736L668 726L668 598L662 598L659 598L655 598L654 598L649 598L642 598L641 598L640 598L632 598L627 598L619 598L611 598z"/>
<path style="fill:#f3b103; stroke:none;" d="M1045 598L1045 626L1047.06 626L1050 626L1055 626L1056 626L1058 626L1060.94 626L1061.94 626L1064 626L1064 681L1064 701L1064 708L1064 710L1064.03 711L1064.08 712L1064.47 714L1065.17 716L1065.53 717L1065.75 718L1065.92 719L1065.97 720L1066.08 722L1066.47 724L1066.83 725L1067.19 726L1067.97 728L1068.67 730L1069.03 731L1069.39 732L1070.25 734L1070.78 735L1071.25 736L1072.44 738L1073.83 740L1074.56 741L1075.83 743L1076.47 744L1077.25 745L1079.03 746.917L1081 748.528L1082 749.139L1083 749.75L1084 750.222L1086 751.222L1087 751.778L1088 752.222L1089 752.778L1090 753.222L1092 754.222L1093 754.75L1095 755.528L1097 755.917L1099 756L1100 756L1101 756L1103 756L1105 756.083L1107 756.472L1109 757.167L1110 757.528L1111 757.75L1113 757.944L1114 757.917L1116 757.583L1118 757L1120 756.417L1122 756.083L1124 756L1125 756L1127 756L1128 756L1133 756L1134 756L1136 756L1137 755.972L1138 755.917L1140 755.528L1142 754.833L1143 754.472L1143.94 754.25L1145.5 754.028L1147 754L1148 753L1148 721L1146.5 721.75L1145.94 722.194L1144 723.306L1142 724L1141 724.278L1140 724.611L1138 725.389L1136 725.889L1135 725.972L1133 726L1131 726L1130 726.028L1129.03 726.111L1127.31 726.667L1126.78 726.861L1126 728L1124.5 727.028L1122.94 726.444L1121 726.083L1119 726L1117 725.972L1116 725.889L1114 725.389L1112 724.5L1110.03 723.389L1109.11 722.694L1108.31 721.889L1107.61 720.972L1106.39 719L1105.72 718L1104.31 716L1103.72 715L1103.31 714L1103.03 713L1102.53 711L1102.17 710L1101.47 708L1101.08 706L1101.03 705L1101 703L1101 702L1101 700L1101 690L1101 626L1102.5 626L1104.06 626L1108 626L1116 626L1117 626L1118 626L1120 626L1121 626L1125 626L1130 626L1131 626L1132 626L1133 626L1134 626L1135 626L1139 626L1140.94 626L1141.94 626L1144 626L1144 624.5L1144 598L1142.5 598L1140.94 598L1138 598L1137 598L1129 598L1128 598L1127 598L1126 598L1118 598L1117 598L1115 598L1110 598L1102 598L1099 598L1096 598L1095 598L1093 598L1092 598L1091 598L1083 598L1082 598L1081 598L1080 598L1078 598L1075 598L1074 598L1072 598L1068 598L1064 598L1063 598L1055 598L1054 598L1053 598L1049 598L1048.06 598L1045 598M1679 598L1679 607L1679 626L1683 626L1688 626L1691 626L1691.94 626L1692.94 626L1695 626L1695 627.5L1695 628.056L1695 629.056L1695 630L1695 632L1695 640L1695 681L1695 701L1695 703L1695 708L1695 710L1695.03 711L1695.08 712L1695.47 714L1696.17 716L1696.53 717L1696.75 718L1696.92 719L1696.97 720L1697.08 722L1697.25 723L1697.47 724L1698.19 726L1698.61 727L1699.33 729L1699.67 730L1700.33 732L1700.67 733L1701.42 735L1702.47 737L1703.83 739L1704.56 740L1705.83 742L1706.47 743L1708.08 745L1710 746.917L1711 747.75L1712 748.528L1714 749.75L1715 750.222L1717 751.222L1718 751.778L1719 752.222L1720 752.778L1721 753.222L1723 754.222L1724 754.75L1726 755.528L1728 755.917L1730 756L1731 756L1733 756L1735 756.028L1736 756.083L1738 756.417L1740 757L1742 757.583L1744 757.917L1745 757.944L1747 757.75L1748 757.528L1749 757.167L1751 756.472L1753 756.083L1754 756.028L1755 756L1757 756L1765 756L1767 756L1768 755.972L1769 755.917L1771 755.528L1773 754.833L1774 754.472L1776 754.083L1777.94 754L1780 754L1781 753L1781 750.944L1781 749L1781 747L1781 746L1781 742L1781 736L1781 720L1779.5 720.528L1778.94 720.917L1777.94 721.472L1777 722.139L1775 723.306L1773 724L1772 724.278L1771 724.611L1770 725L1768 725.694L1767 725.889L1766 725.972L1765 726L1763 726L1762 726L1761 726.028L1759.11 726.278L1758.31 726.667L1757.78 726.861L1757 728L1755.5 727.028L1753.94 726.444L1752 726.083L1750 726L1748 725.972L1747 725.889L1745 725.389L1743 724.5L1741.03 723.389L1740.11 722.694L1739.31 721.889L1738.03 720L1737.5 719L1737 718L1736 716L1735.03 714L1734.58 713L1733.86 711L1733.56 710L1733.17 709L1732.47 707L1732.08 705L1732 703L1732 702L1732 700L1732 699L1732 690L1732 626L1736 626L1737 626L1739 626L1743 626L1744 626L1746 626L1747 626L1751 626L1754 626L1756 626L1757 626L1761 626L1765 626L1766 626L1770 626L1771 626L1772.94 626L1775 626L1775 598L1772.94 598L1771.94 598L1771 598L1767 598L1766 598L1764 598L1762 598L1760 598L1758 598L1757 598L1755 598L1753 598L1752 598L1751 598L1749 598L1747 598L1743 598L1735 598L1731 598L1727 598L1725 598L1720 598L1712 598L1711 598L1710 598L1709 598L1705 598L1704 598L1702 598L1701 598L1693 598L1689 598L1685 598L1684 598L1682.06 598L1681.06 598L1679 598z"/>
<path style="fill:#ffffff; stroke:none;" d="M233 722L234.5 722.25L236.056 722.694L238 723.389L239 723.833L240 724.25L241 724.778L242 725.222L244 726.222L245 726.75L247 727.528L249 727.917L251 728L252 728L253 728L255 728L259 728L261 728L262 728L264 727.917L266 727.528L268 726.75L269 726.222L270 725.778L271 725.222L272 724.75L274 723.556L275 722.833L277 721.444L278 720.833L280 719.528L281.917 717.917L283.528 716L284.75 714L285.222 713L286.222 711L286.778 710L287.222 709L287.778 708L288.222 707L288.778 706L289.222 705L290.222 703L290.75 702L291.528 700L291.917 698L292.028 696L292.083 695L292.25 694L292.472 693L293.167 691L293.528 690L293.917 688L293.972 687L294 685L294 684L294 681L294 668L294 666L294 665L293.972 663L293.917 662L293.611 660L293.389 659L293.194 658L292.806 656L292.611 655L292.139 653L291.861 652L291.639 651L291.361 650L291.139 649L290.611 647L290.306 646L289.611 644L289.167 643L288.222 641L287.778 640L287.222 639L286.75 638.028L285.528 636.222L284.75 635.417L282.972 634L281 632.667L280 632.028L278 630.806L277 630.194L276 629.639L275 629.056L273 628.083L271 627.389L270 627.139L268 626.639L267 626.361L266 626.139L265 625.861L263 625.361L262 625.139L260 624.639L259 624.389L257 624.083L255 624L253 624.083L251 624.472L249 625.167L248 625.528L246 625.944L245 626.083L243 626.694L242 627.25L240 628.556L238 629.833L237 630.444L235 631.833L234.028 632.556L232.25 633.833L231.472 634.472L230.833 635.25L229.556 637.028L228.167 639L227.444 640L226.25 642L225.222 644L224.778 645L224.25 646L223.833 647L223.389 648L222.667 650L222.333 651L221.694 653L221.417 654L221.056 656L220.944 657L220.528 659L220.167 660L219.472 662L219.083 664L219 666L219 667L219 669L219 679L219 685L219 687L219.028 688L219.083 689L219.389 691L219.611 692L220 694L220.389 696L220.861 698L221.167 699L221.444 700L222.25 702L222.778 703L223.778 705L224.222 706L224.778 707L225.222 708L226.222 710L226.778 711L227.222 712L228.25 714L229.389 716L230.667 718L231.306 718.944L231.917 719.944L232.306 720.5L233 722M949 624.472L948 624.833L947 625.167L945 625.75L944 625.917L942 626.083L941 626.25L940 626.5L938 627.472L937 628.167L936 628.833L935 629.556L934 630.167L932 631.472L930.083 633.083L928.472 635L927.167 636.917L926.528 637.75L925.75 638.528L924.944 639.167L923.25 640.472L921.944 642.083L921.5 643.028L921.056 645L920.944 646L920.778 647L920.583 648L920 650L919.667 651L918.972 653L918.611 654L917.75 656L917.25 657L916.472 659L916.25 660L916.028 662L916 663L916 665L916 666L916 668L916 672L916 681L916 683L916 684L916.028 686L916.083 687L916.389 689L916.611 690L916.806 691L917.194 693L917.389 694L917.611 695L917.806 696L918.194 698L918.389 699L918.861 701L919.139 702L919.361 703L919.639 704L920.167 706L920.444 707L921.25 709L921.778 710L922.222 711L922.778 712L923.25 713L924.472 715L925.25 716L926.083 717L928 718.972L929 719.917L931 721.5L932 722.083L934 722.972L936 723.667L937 724.028L938 724.389L940 725.25L941 725.778L942 726.222L943 726.75L945 727.528L947 727.917L949 728L950 728L951 728L953 728L954 728L957 728L958 728L959 728L961 727.917L962 727.75L963 727.528L964 727.139L965 726.722L967 725.556L968 724.833L970 723.444L972 722.167L973 721.556L975 720.167L976 719.444L977 718.833L978.972 717.528L980.75 715.917L981.528 714.972L982.75 713L983.222 712L984.222 710L984.778 709L985.222 708L985.778 707L986.222 706L986.778 705L987.222 704L988.222 702L988.75 701L989.528 699L989.917 697L990.028 695L990.083 694L990.25 693L990.472 692L990.833 691L991.528 689L991.917 687L992 685L992 684L992 682L992 674L992 668L992 666L991.972 665L991.917 664L991.611 662L991.361 661L991.139 660L990.861 659L990.389 657L990.194 656L989.778 654L989.528 653L988.75 651L988.222 650L987.778 649L987.222 648L986.778 647L986.222 646L985.778 645L984.778 643L984.222 642L983.778 641L983.222 640L982.75 639L981.528 637L980.75 636L978.972 634.028L978 633.083L976 631.417L974 630.028L972 628.833L971 628.278L970 627.861L969 627.444L968 627.167L966 626.639L965 626.361L964 626.139L963 625.861L961 625.389L960 625.194L959 625L957 624.611L956 624.389L954 624.083L952 624.028L951 624.083L949 624.472M98 728L98 726L100.056 726L101.056 725.972L102 725.889L103 725.694L105 725L107 724.278L108 724L110 723.389L111.917 722.5L112.778 722L114.389 720.917L115.194 720.278L116.694 718.778L117.278 717.917L117.889 716L118 714L118 713L118 711L118 699L118 654L118 641L118 639L118 638L117.889 636L117.278 634.028L115.889 632.25L114.972 631.5L113 630.472L112 630.167L110 629.556L108 628.722L107 628.167L105 627.083L104 626.639L102 626.111L100 626L99 626L97 626L91 626L88 626L87 626L85 626.028L84 626.083L82 626.472L81 626.833L79 627.528L78 627.75L77 627.917L75 628.083L73 628.472L72 628.861L70 629.778L69 630.25L67 631.472L65 633.083L64 634.028L62 636L61 637L60 638L58.0278 640L57.0833 641L55.4722 643L54.25 645L53.7778 646L52.7778 648L52.2222 649L51.7778 650L51.2222 651L50.25 653L49.8611 654L49.4722 655L49.0833 657L48.9722 659L48.9167 660L48.75 661L48.5278 662L47.8333 664L47.4722 665L47.0833 667L47.0278 668L47 669L47 671L47 678L47 684L47 686L47.0278 687L47.0833 688L47.3889 690L47.6111 691L47.8056 692L48.1944 694L48.3889 695L48.8611 697L49.1667 698L49.4444 699L50.25 701L50.7778 702L51.2222 703L51.7778 704L52.7778 706L53.25 707L54.4722 709L56 711L56.8056 712L57.6111 713L59.2222 714.917L61.0278 716.583L62 717.306L64 718.611L66 719.75L67 720.222L68 720.778L69 721.222L70 721.778L71 722.222L72 722.75L74 723.611L75 723.972L77 724.611L79 725.139L80 725.361L81 725.611L82 725.806L84 726.194L85 726.389L86 726.611L88 726.944L89 727.056L91 727.389L92 727.611L94 727.917L94.9444 727.972L95.9444 728L98 728M1387 660L1389.06 660L1390.06 660L1391 660L1392 660L1393 660L1394 660L1398 660L1399 660L1400 660L1401 660L1403 660L1406 660L1408 660L1416 660L1420 660L1421 660L1425 660L1426 660L1427 660L1431 660L1432 660L1433 660L1441 660L1445 660L1446 660L1450 660L1451 660L1452 660L1453 660L1454 660L1458 660L1459.94 660L1460.94 660L1463 660L1462.97 658.5L1462.78 656.944L1462.61 656L1462.14 654L1461.86 653L1461.61 652L1461.31 651L1460.67 649L1460.33 648L1459.67 646L1459.33 645L1458.67 643L1458.33 642L1457.58 640L1456.5 638L1454.92 636.083L1453.97 635.222L1453 634.417L1451 633L1450 632.333L1448 631.083L1446 630.083L1445 629.694L1443 629L1442 628.667L1440 628L1438 627.333L1437 627L1435 626.417L1434 626.222L1433 626.083L1431 626L1430 626L1428 626L1426 626L1425 626L1423 626L1422 626L1421 626L1420 626L1418 626.083L1417 626.222L1416 626.417L1414 627L1413 627.333L1411 628L1409 628.667L1408 629.028L1407 629.389L1406 629.833L1405 630.278L1404 630.833L1403 631.389L1402 632.028L1400 633.417L1399 634.222L1398 635.083L1396.03 637L1395.08 638L1393.42 640L1392.03 642L1390.89 644L1390.42 645L1389.67 647L1389.33 648L1388.69 650L1388.39 651L1388.14 652L1387.86 653L1387.39 655L1387.08 656.944L1387.03 657.944L1387 660M1840 660L1843.06 660L1844 660L1848 660L1849 660L1850 660L1852 660L1856 660L1857 660L1858 660L1862 660L1864 660L1865 660L1869 660L1873 660L1874 660L1875 660L1877 660L1878 660L1882 660L1883 660L1884 660L1885 660L1886 660L1887 660L1890 660L1894 660L1895 660L1896 660L1900 660L1901 660L1909 660L1911 660L1912.94 660L1913.94 660L1916 660L1915.92 657.944L1915.61 656L1915.14 654L1914.86 653L1914.61 652L1914.31 651L1913.67 649L1912.97 647L1912.61 646L1911.72 644L1911.17 643L1910.61 642L1909.97 641L1908.58 639L1906.92 637L1905 635L1903 633.028L1902 632.083L1900 630.5L1899 629.917L1898 629.417L1897 629.028L1895 628.389L1894 628.139L1892 627.639L1891 627.361L1890 627.139L1889 626.861L1888 626.639L1887 626.389L1885 626.083L1884 626.028L1882 626L1881 626L1879 626L1878 626L1876 626L1875 626L1874 626L1872 626.083L1871 626.222L1870 626.417L1868 627L1867 627.333L1866 627.667L1864 628.333L1862 629L1861 629.333L1859 630.083L1857 631.083L1855 632.333L1854 633L1852 634.417L1851 635.222L1849.08 637.028L1848.22 638L1847.42 639L1846.03 641L1844.83 643L1844.28 644L1843.83 645L1843.39 646L1843.03 647L1842.33 649L1841.69 651L1841.39 652L1841.14 653L1840.86 654L1840.39 656L1840.08 657.944L1840 660M1614 680L1612.5 680L1610.94 680L1609 680L1607 679.972L1606 679.889L1604 679.389L1602 678.611L1601 678.306L1600 678.139L1599 678.111L1597 678.389L1596 678.611L1595 678.806L1593 679.194L1592 679.389L1590 679.778L1589 679.917L1587 680L1586 680L1584 680L1582 680.028L1581 680.083L1579 680.389L1578 680.639L1576 681.139L1575 681.389L1573 682.028L1572 682.417L1571 682.917L1570 683.472L1568 684.861L1567 685.639L1566 686.389L1564 688.083L1563 689.028L1561.03 691L1560.08 692L1558.5 694L1557.92 695L1557.42 696L1556.69 698L1556.42 699L1556.08 701L1556.03 702L1556 703L1556 705L1556 706L1556 708L1556 709L1556 710L1556.08 712L1556.25 713L1556.47 714L1556.86 715L1557.28 716L1558.44 718L1559.17 719L1560.56 720.972L1561.83 722.75L1562.47 723.528L1564.08 724.75L1565.03 725.222L1567 726.222L1568 726.75L1570 727.528L1572 727.917L1574 728L1575 728L1577 728L1580 728L1583 728L1585 728L1587 727.972L1588 727.917L1590 727.583L1592 727L1593 726.667L1595 726L1597 725.333L1598 725L1600 724.306L1602 723.361L1603 722.694L1604 721.889L1606 720L1607.92 718L1608.75 717L1609.5 716L1610.58 714L1611.33 712L1611.67 711L1612.33 709L1613 707L1613.58 705L1613.78 704L1613.92 703L1614 701L1614 699L1614 695L1614 694L1614 690L1614 688L1614 680z"/>
</svg>
