<svg width="2100" height="800" xmlns="http://www.w3.org/2000/svg">

 <g>
  <title>Layer 1</title>
  <path id="svg_1" fill="#ffffff" d="m0,0l0,8l0,4l0,5l0,24l0,5l0,8l0,8l0,1l0,2l0,1l0,6l0,22l0,10l0,5l0,6l0,1l0,9l0,1l0,7l0,2l0,5l0,8l0,4l0,4l0,4l0,3l0,8l0,1l0,7l0,8l0,2l0,17l0,9l0,19l0,533l506,0l113,0l34,0l5,0l4,0l3,0l5,0l8,0l1,0l1,0l11,0l3,0l4,0l2,0l8,0l18,0l4,0l2,0l3,0l18,0l19,0l1,0l4,0l8,0l5,0l8,0l8,0l8,0l4,0l5,0l1,0l8,0l5,0l8,0l6,0l1,0l2,0l3,0l8,0l4,0l2,0l8,0l4,0l1,0l8,0l8,0l4,0l10,0l8,0l32,0l8,0l8,0l2,0l5,0l4,0l1,0l2,0l1,0l6,0l8,0l4,0l4,0l1,0l6,0l4,0l5,0l2,0l1,0l1,0l1,0l4,0l1,0l2,0l5,0l8,0l2,0l2,0l5,0l4,0l8,0l1,0l1,0l1,0l8,0l1,0l8,0l2,0l2,0l8,0l1,0l2,0l1,0l1,0l8,0l2,0l1,0l1,0l2,0l1,0l2,0l1,0l16,0l2,0l5,0l5,0l5,0l1,0l8,0l32,0l1,0l2,0l1,0l1,0l16,0l2,0l2,0l1,0l4,0l1,0l2,0l2,0l1,0l1,0l1,0l2,0l1,0l1,0l2,0l8,0l5,0l8,0l2,0l4,0l1,0l5,0l1,0l8,0l1,0l1,0l4,0l4,0l4,0l1,0l4,0l1,0l1,0l1,0l2,0l4,0l1,0l1,0l4,0l4,0l4,0l1,0l1,0l4,0l1,0l1,0l1,0l4,0l4,0l1,0l4,0l1,0l2,0l4,0l5,0l2,0l4,0l1,0l4,0l1,0l1,0l1,0l1,0l1,0l4,0l4,0l4,0l4,0l1,0l4,0l4,0l1,0l1,0l3,0l2,0l8,0l4,0l1,0l1,0l1,0l2,0l1,0l2,0l4,0l2,0l1,0l4,0l3,0l3,0l8,0l4,0l4,0l1,0l2,0l1,0l1,0l4,0l1,0l1,0l1,0l4,0l2,0l1,0l2,0l4,0l1,0l1,0l4,0l4,0l1,0l16,0l1,0l4,0l4,0l1,0l4,0l2,0l2,0l1,0l1,0l5,0l2,0l5,0l2,0l3,0l1,0l1,0l1,0l2,0l3,0l1,0l8,0l4,0l1,0l1,0l2,0l4,0l1,0l1,0l4,0l1,0l2,0l4,0l2,0l4,0l2,0l2,0l1,0l4,0l4,0l1,0l2,0l1,0l2,0l1,0l1,0l1,0l1,0l8,0l1,0l8,0l1,0l1,0l3,0l4,0l1,0l1,0l3,0l8,0l2,0l1,0l2,0l5,0l2,0l4,0l1,0l4,0l1,0l1,0l1,0l1,0l8,0l4,0l4,0l1,0l4,0l1,0l1,0l2,0l1,0l4,0l1,0l8,0l4,0l5,0l16,0l8,0l8,0l4,0l1,0l3,0l4,0l4,0l1,0l4,0l4,0l1,0l3,0l2,0l1,0l1,0l1,0l4,0l1,0l8,0l1,0l4,0l4,0l1,0l8,0l8,0l1,0l1,0l8,0l2,0l2,0l1,0l2,0l2,0l3,0l2,0l2,0l1,0l1,0l1,0l1,0l2,0l1,0l8,0l4,0l3,0l2,0l1,0l4,0l1,0l8,0l2,0l2,0l1,0l1,0l1,0l2,0l4,0l2,0l2,0l1,0l4,0l1,0l3,0l2,0l4,0l4,0l1,0l4,0l1,0l8,0l1,0l2,0l3,0l2,0l4,0l1,0l1,0l4,0l1,0l2,0l4,0l1,0l4,0l1,0l4,0l4,0l1,0l4,0l1,0l1,0l4,0l1,0l2,0l4,0l1,0l5,0l2,0l1,0l8,0l4,0l1,0l3,0l4,0l4,0l2,0l4,0l16,0l1,0l2,0l2,0l4,0l1,0l1,0l1,0l2,0l1,0l1,0l1,0l1,0l4,0l1,0l1,0l1,0l1,0l2,0l1,0l5,0l0,-8l0,-8l0,-1l0,-15l0,-10l0,-4l0,-13l0,-5l0,-5l0,-1l0,-13l0,-4l0,-6l0,-6l0,-11l0,-6l0,-6l0,-5l0,-8l0,-8l0,-3l0,-123l0,-2l0,-2l0,-4l0,-273l0,-3l0,-2l0,-38l0,-1l0,-7l0,-1l0,-1l0,-12l0,-3l0,-8l0,-9l0,-8l0,-4l0,-4l0,-4l0,-6l0,-4l0,-8l0,-4l0,-5l0,-8l0,-4l0,-2l0,-3l0,-2l0,-3l0,-5l0,-1l0,-1l0,-1l0,-4l0,-3l0,-4l0,-5l0,-8l0,-8l0,-2l0,-3l0,-4l0,-3l0,-11l-3.06,0l-0.94,0l-1,0l-8,0l-1,0l-8,0l-1,0l-4,0l-8,0l-2,0l-1,0l-4,0l-2,0l-1,0l-4,0l-2,0l-1,0l-4,0l-4,0l-1,0l-8,0l-1,0l-4,0l-2,0l-8,0l-3,0l-2,0l-1,0l-4,0l-2,0l-4,0l-1,0l-4,0l-2,0l-2,0l-2,0l-1,0l-2,0l-1,0l-2,0l-2,0l-16,0l-2,0l-1,0l-4,0l-8,0l-1,0l-4,0l-1,0l-1,0l-1,0l-4,0l-3,0l-3,0l-2,0l-1,0l-4,0l-1,0l-4,0l-1,0l-1,0l-1,0l-4,0l-1,0l-1,0l-64,0l-8,0l-4,0l-1,0l-2,0l-2,0l-8,0l-2,0l-1,0l-4,0l-4,0l-1,0l-2,0l-1,0l-2,0l-8,0l-4,0l-1,0l-4,0l-32,0l-4,0l-1,0l-1,0l-2,0l-1,0l-2,0l-2,0l-2,0l-2,0l-1,0l-1,0l-4,0l-1,0l-4,0l-1,0l-2,0l-1,0l-4,0l-1,0l-1,0l-8,0l-4,0l-1,0l-4,0l-8,0l-4,0l-4,0l-1,0l-1,0l-1,0l-2,0l-4,0l-5,0l-1,0l-4,0l-1,0l-2,0l-1,0l-4,0l-1,0l-1,0l-2,0l-1,0l-4,0l-1,0l-4,0l-8,0l-1,0l-1,0l-4,0l-8,0l-1,0l-16,0l-2,0l-8,0l-1,0l-4,0l-8,0l-1,0l-8,0l-4,0l-16,0l-1,0l-1,0l-1,0l-4,0l-2,0l-8,0l-2,0l-3,0l-1,0l-1,0l-4,0l-1,0l-8,0l-2,0l-1,0l-1,0l-4,0l-1,0l-3,0l-4,0l-1,0l-4,0l-1,0l-1,0l-2,0l-2,0l-1,0l-1,0l-4,0l-1,0l-2,0l-2,0l-8,0l-1,0l-6,0l-4,0l-4,0l-8,0l-8,0l-4,0l-1,0l-4,0l-1,0l-2,0l-4,0l-1,0l-4,0l-1,0l-1,0l-1,0l-4,0l-1,0l-1,0l-4,0l-1,0l-4,0l-1,0l-1,0l-4,0l-2,0l-4,0l-1,0l-8,0l-2,0l-2,0l-8,0l-4,0l-1,0l-8,0l-1,0l-4,0l-2,0l-4,0l-1,0l-4,0l-1,0l-4,0l-8,0l-2,0l-1,0l-4,0l-2,0l-2,0l-1,0l-2,0l-2,0l-1,0l-2,0l-4,0l-4,0l-1,0l-4,0l-1,0l-2,0l-8,0l-1,0l-1,0l-1,0l-4,0l-8,0l-1,0l-1,0l-2,0l-4,0l-1,0l-4,0l-1,0l-1,0l-5,0l-1,0l-8,0l-1,0l-1,0l-2,0l-4,0l-4,0l-1,0l-1,0l-2,0l-1,0l-2,0l-1,0l-4,0l-2,0l-1,0l-2,0l-4,0l-1,0l-2,0l-4,0l-1,0l-5,0l-1,0l-4,0l-1,0l-4,0l-1,0l-2,0l-4,0l-4,0l-1,0l-1,0l-1,0l-4,0l-2,0l-1,0l-3,0l-2,0l-4,0l-1,0l-4,0l-2,0l-1,0l-1,0l-6,0l-1,0l-4,0l-1,0l-4,0l-4,0l-1,0l-4,0l-1,0l-5,0l-2,0l-1,0l-1,0l-1,0l-4,0l-8,0l-1,0l-2,0l-1,0l-1,0l-4,0l-1,0l-2,0l-1,0l-4,0l-4,0l-1,0l-8,0l-1,0l-1,0l-1,0l-2,0l-2,0l-5,0l-1,0l-16,0l-1,0l-1,0l-1,0l-1,0l-4,0l-1,0l-8,0l-1,0l-2,0l-3,0l-2,0l-16,0l-2,0l-4,0l-1,0l-8,0l-1,0l-5,0l-128,0l-3,0l-1,0l-6,0l-4,0l-1,0l-5,0l-8,0l-10,0l-16,0l-5,0l-4,0l-4,0l-5,0l-5,0l-3,0l-64,0l-2,0l-31,0l-8,0l-32,0l-3,0l-31,0l-64,0l-1,0l-1,0l-4,0l-2,0l-3,0l-31,0l-33,0l-15,0l-16,0l-5,0l-55,0l-20,0l-33,0l-13,0l-2,0l-21,0l-2,0l-21,0l-17,0l-13,0l-221,0z"/>
  <path id="svg_2" fill="#f3b103" d="m420,8.38892l-2,0.41662l-2,0.38892l-1,0.19446l-1,0.22216l-1,0.19446l-2,0.38896l-1,0.1944l-1,0.2222l-2,0.3889l-2,0.4722l-2,0.8056l-1,0.5833l-2,1.3056l-1,0.6944l-1,0.7778l-2,1.5l-1,0.7222l-2,1.5l-1,0.7778l-1,0.7222l-1,0.7778l-1,0.75l-1.917,1.6944l-1.694,1.9167l-0.75,1l-1.5,2l-0.75,1l-1.361,2l-0.639,1l-1.139,2l-0.472,1l-0.556,1l-0.444,1l-0.945,2l-0.444,1l-0.778,2l-0.805,2l-0.417,1l-0.695,2l-0.277,1l-0.334,2l-0.055,1l-0.028,1l0,2l0,6l0,8l0,4l0,6l0,2l0,25l0,4l0,3l0,2l0,7l0,8l0,5l0,5l0,4l0,4l0,3l0,4l0,13l0,7l0,5l0,6l0,1l0,1l0,8l0,8l0,2l0,10l0,17l0,5l0,68l0,53l0,16l0,4l0,2l0.028,2l0.055,1l0.389,2l0.722,2l0.417,1l0.778,2l0.417,1l0.805,2l0.778,2l0.444,1l0.417,1l0.528,1l0.472,1l1.139,2l1.305,2l0.695,1l0.75,1l1.5,2l0.75,1l1.694,1.972l0.945,0.945l1.972,1.694l1,0.75l1,0.778l2,1.417l2,1.194l1,0.472l2,1l1,0.556l2,0.972l1,0.417l2,0.833l1,0.389l2,0.861l1,0.5l2,0.778l1,0.222l1,0.167l2,0.083l1,0l2,0l3,0l16,0l38,0l74,0l16,0l26,0l5,0l6,0l16,0l3,0l4,0l3,0l17,0l8,0l2,0l6,0l1,0l4,0l5,0l1,0l16,0l1,0l5,0l6,0l5,0l5,0l3,0l4,0l4,0l1,0l5,0l8,0l2,0l3,0l4,0l2,0l1,0l2,-0.083l1,-0.167l1,-0.222l2,-0.778l1,-0.528l1,-0.444l1,-0.556l1,-0.444l1,-0.528l2,-0.861l2,-0.778l2,-0.805l1,-0.445l2,-1l1,-0.667l1,-0.805l1,-0.917l2,-1.972l1,-1l2,-2l2,-2l1,-1l1,-1l1.917,-2l1.611,-2l1.222,-2l0.472,-1l0.528,-1l0.417,-1l0.444,-1l0.695,-2l0.277,-1l0.223,-1l0.388,-2l0.417,-2l0.389,-2l0.389,-2l0.222,-1l0.195,-1l0.388,-2l0.195,-1l0.222,-1l0.306,-2l0.055,-1l0.028,-2l0,-2l0,-3l0,-15l0,-33l0,-12l0,-16l0,-4l0,-5l0,-6l0,-1l0,-40l0,-2l0,-4l0,-5l0,-10l0,-1l0,-3l0,-1l0,-4l0,-11l0,-8l0,-1l0,-11l0,-5l0,-10l0,-2l0,-16l0,-18l0,-1l0,-11l0,-14l0,-5l0,-1l0,-2l0,-21l0,-5l0,-1l0,-2l-0.028,-1l-0.055,-1l-0.306,-2l-0.222,-1l-0.195,-1l-0.388,-2l-0.195,-1l-0.222,-1l-0.195,-1l-0.388,-2l-0.417,-2l-0.195,-1l-0.388,-2l-0.223,-1l-0.277,-1l-0.695,-2l-0.861,-2l-0.528,-1l-0.472,-1l-1.222,-2l-0.778,-1l-0.833,-1l-1.917,-2l-1,-1l-1,-1l-2,-2l-2,-2l-1,-1l-2,-1.9722l-1,-0.9445l-2,-1.6111l-2,-1.2777l-1,-0.5834l-1,-0.6111l-2,-1.1667l-1,-0.5833l-2,-1l-1,-0.3889l-1,-0.4166l-1,-0.2778l-1,-0.3056l-1,-0.2222l-2,-0.5l-1,-0.27782l-2,-0.47216l-1,-0.19446l-2,-0.38892l-1,-0.19446l-1,-0.22216l-2,-0.30561l-1,-0.05554l-2,-0.02777l-1,0l-2,0l-11,0l-5,0l-8,0l-1,0l-1,0l-8,0l-10,0l-1,0l-1,0l-2,0l-27,0l-3,0l-1,0l-13,0l-3,0l-4,0l-128,0l-4,0l-54,0l-18,0l-4,0l-2,0l-2,0l-2,0.08331l-2,0.30561z"/>
  <path id="svg_3" fill="#211b17" d="m841,8l0,8l0,1l0,4l0,2l0,1l0,2l0,8l0,3l0,2l0,64l0,1l0,8l0,1l0,9l0,9l0,4l0,2l0,5l0,4l0,2l0,8l0,1l0,9l0,5l0,1l0,8l0,1l0,4l0,5l0,1l0,3l0,2l0,8l0,1l0,9l0,1l0,3l0,6l0,5l0,7l0,1l0,9l0,1l0,9l0,16l0,53l0,1l0,9l0,9l0,4l0,7l0,7l0,63l2.056,0l1,0l9.944,0l1,0l3,0l4,0l8,0l7,0l8,0l4,0l2,0l1,0l4,0l4,0l5,0l8,0l5,0l19,0l6,0l1,0l4,0l5,0l2,0l4,0l4,0l2,0l1,0l8,0l1,0l2,0l3,0l1,0l1,0l4,0l8,0l4,0l5,0l8,0l1,0l5,0l8,0l1,0l2,0l1,0l2,0l2,0l1,0l1,0l3,0l2,0l4,0l1,0l5,0l2,0l5,0l1,0l2,0l32,0l10,0l1,0l1,0l8,0l1,0l1,0l8,0l1,0l2,0l5,0l8,0l1,0l1,0l8,0l1,0l8,0l1,0l8,0l1,0l2,0l1,0l4,0l5,0l4,0l8,0l1,0l2,0l1,0l8,0l8,0l4,0l5,0l1,0l2,0l2,0l8,0l2,0l4,0l16.94,0l2.06,0l0,-34l0,-1l0,-4l0,-2l0,-10l0,-17l0,-3l0,-2l0,-21l0,-5l0,-1l0,-2l0,-1l0,-21l0,-20l0,-35l0,-1l0,-2l0,-10l0,-1l0,-8l0,-8l0,-2l0,-3l0,-1l0,-8l0,-5l0,-7l0,-1l0,-8l0,-1l0,-5l0,-1l0,-11l0,-5l0,-1l0,-5l0,-3l0,-4l0,-4l0,-2l0,-2l0,-5l0,-4l0,-5l0,-10l0,-2l0,-4l0,-2l0,-4l0,-8l0,-2l0,-3l0,-7l0,-1l0,-32l0,-8l0,-32l-64,0l-1,0l-64,0l-8,0l-1,0l-1,0l-2,0l-1,0l-4,0l-1,0l-4,0l-2,0l-1,0l-1,0l-1,0l-4,0l-4,0l-1,0l-2,0l-1,0l-1,0l-2,0l-1,0l-2,0l-3,0l-2,0l-2,0l-2,0l-1,0l-1,0l-1,0l-1,0l-1,0l-5,0l-1,0l-2,0l-1,0l-4,0l-2,0l-1,0l-4,0l-8,0l-1,0l-1,0l-4,0l-1,0l-1,0l-1,0l-4,0l-1,0l-3,0l-4,0l-5,0l-4,0l-1,0l-1,0l-3,0l-4,0l-8,0l-3,0l-2,0l-1,0l-16,0l-2,0l-3,0l-2,0l-3,0l-2,0l-2,0l-2,0l-8,0l-4,0l-3,0l-4,0l-1,0l-64,0l-32,0m467,0l0,16l0,4l0,8l0,2l0,1l0,4l0,16l0,4l0,8l0,1l0,17l0,2l0,4l0,1l0,8l0,4l0,1l0,8l0,9l0,6l0,4l0,16l0,1l0,1l0,8l0,3l0,5l0,1l0,19l0,2l0,20l0,2l0,17l0,24l0,1l0,3l0,1l0,5l0,23l0,1l0,6l0,3l0,4l0,4l0,16l0,1l0,1l0,8l0,3l0,5l0,13l0,4l0,3l0,65l8,0l1,0l2,0l64,0l4,0l16,0l8,0l4,0l5,0l1,0l4,0l3,0l2,0l1,0l1,0l1,0l3,0l8,0l4,0l1,0l3,0l4,0l4,0l1,0l4,0l1,0l4,0l1,0l1,0l2,0l1,0l2,0l2,0l4,0l1,0l1,0l2,0l1,0l4,0l4,0l1,0l4,0l1,0l1,0l1,0l4,0l1,0l1,0l1,0l1,0l8,0l3,0l2,0l8,0l4,0l8,0l1,0l4,0l1,0l4,0l1,0l1,0l1,0l5,0l4,0l1,0l1,0l1,0l1,0l4,0l1,0l1,0l1,0l8,0l1,0l2,0l3,0l3,0l2,0l1,0l2,0l1,0l1,0l3,0l5,0l1,0l4,0l1,0l8,0l1,0l4,0l4,0l1,0l1,0l2,0l1,0l2,0l2,0l4,0l3,0l4,0l1,0l1,0l3,0l5,0l1,0l1,0l3,0l4,0l1,0l1,0l8,0l1,0l5,0l8,0l1,0l4,0l1,0l8,0l1,0l1,0l2,0l2,0l1,0l4,0l1.94,0l1,0l2.06,0l0,-42l0,-2l0,-16l0,-3l0,-1l0,-1l0,-4l0,-6l0,-2l0,-16l0,-46l0,-2l0,-3l0,-3l0,-1l0,-1l0,-4l0,-6l0,-2l0,-16l0,-4l0,-2l0,-4l0,-4l0,-8l0,-1l0,-1l0,-4l0,-6l0,-8l0,-2l0,-16l0,-3l0,-8l0,-4l0,-2l0,-4l0,-32l0,-7l0,-2l0,-3l0,-2l0,-4l0,-2l0,-4l0,-4l0,-4l0,-2l0,-3l0,-1l0,-8l0,-4l0,-1l0,-4l0,-3l0,-2l0,-3l0,-64l-1.5,0l-1.56,0l-0.94,0l-1,0l-2,0l-5,0l-1,0l-2,0l-1,0l-2,0l-1,0l-3,0l-4,0l-2,0l-4,0l-1,0l-4,0l-4,0l-1,0l-1,0l-2,0l-8,0l-4,0l-1,0l-1,0l-2,0l-2,0l-2,0l-1,0l-4,0l-1,0l-1,0l-8,0l-4,0l-2,0l-2,0l-3,0l-4,0l-8,0l-4,0l-8,0l-1,0l-2,0l-3,0l-2,0l-1,0l-2,0l-4,0l-4,0l-8,0l-1,0l-2,0l-8,0l-4,0l-4,0l-1,0l-5,0l-1,0l-4,0l-1,0l-1,0l-4,0l-2,0l-1,0l-1,0l-1,0l-4,0l-1,0l-4,0l-1,0l-4,0l-4,0l-4,0l-1,0l-1,0l-2,0l-1,0l-16,0l-4,0l-2,0l-2,0l-1,0l-8,0l-1,0l-6,0l-4,0l-4,0l-1,0l-32,0l-2,0l-3,0l-4,0l-8,0l-4,0l-1,0l-8,0l-8,0l-8,0l-4,0l-3,0l-2,0l-2,0l-1,0l-2,0l-8,0l-1,0l-1,0l-2,0l-1,0l-4,0l-1,0l-4,0l-4,0l-1,0l-4,0l-2,0l-2,0l-1,0l-1,0l-2,0l-1,0l-4,0l-3,0l-2,0l-1,0l-4,0l-1,0l-2,0l-1,0l-2,0l-3.94,0l-1.56,0l-1.5,0z"/>
  <path id="svg_4" fill="#ffffff" d="m1149,67.3889l-1,0.25l-2,0.5l-1,0.25l-1,0.3056l-2,0.6944l-2,0.8611l-1,0.5278l-2,1l-1,0.4722l-1,0.6111l-1,0.6111l-1,0.7778l-2,1.7778l-1,0.9722l-1.92,2l-1.66,2l-0.73,1l-0.69,1l-1.33,2l-1.34,2l-0.66,1l-1.25,2l-1,2l-0.39,1l-0.64,2l-0.25,1l-0.5,2l-0.28,1l-0.22,1l-0.28,1l-0.22,1l-0.28,1l-0.22,1l-0.5,2l-0.25,1l-0.22,2l0.22,2l0.25,1l0.5,2l0.22,1l0.28,1l0.22,1l0.28,1l0.22,1l0.28,1l0.5,2l0.25,1l0.64,2l0.39,1l1.05,2l1.39,2l0.75,1l1.36,2l1.22,2l0.64,1l0.64,1l1.61,2l1.92,2l1,0.972l2,1.778l1,0.778l2,1.222l1,0.472l1,0.556l1,0.444l1,0.528l2,0.806l1,0.277l1,0.306l1,0.222l2,0.5l1,0.278l1,0.222l1,0.25l2,0.306l1,0.055l2,0.028l1,0l1,0l2,0l2,0l1,0l1,0l1,0l2,-0.083l1,-0.139l1,-0.195l2,-0.583l1,-0.333l2,-0.695l1,-0.361l2,-0.861l1,-0.528l2,-1l1,-0.472l2,-1.222l2,-1.611l1,-0.945l1.92,-1.972l1.66,-2l0.73,-1l0.69,-1l1.33,-2l1.34,-2l1.3,-2l1.2,-2l0.55,-1l0.45,-1l0.44,-1l0.7,-2l0.3,-1l0.25,-1l0.5,-2l0.28,-1l0.22,-1l0.28,-1l0.22,-1l0.5,-2l0.28,-1l0.39,-2l0,-2l-0.2,-1l-0.47,-2l-0.5,-2l-0.22,-1l-0.28,-1l-0.22,-1l-0.28,-1l-0.5,-2l-0.22,-1l-0.28,-1l-0.25,-1l-0.72,-2l-1.08,-2l-0.64,-1l-0.67,-1l-1.33,-2l-1.34,-2l-1.33,-2l-0.69,-1l-0.73,-1l-1.66,-2l-1.92,-1.9722l-2,-1.7778l-1,-0.7778l-1,-0.6111l-1,-0.6111l-1,-0.4722l-2,-1l-1,-0.5278l-2,-0.8611l-1,-0.3611l-2,-0.6945l-1,-0.3333l-2,-0.5833l-1,-0.1945l-1,-0.1389l-2,-0.0833l-1,0l-2,0l-2,0l-1,0l-2,0l-1,0l-2,0l-2,0.0833l-2,0.3056m468,0l-1,0.25l-2,0.5l-1,0.25l-2,0.6389l-1,0.3888l-2,1l-1,0.6112l-2,1.3889l-2,1.6666l-2,1.9167l-1,1l-2,2l-2,2l-1,1l-2,2l-1.92,2l-1.66,2l-1.34,2l-1,2l-0.69,2l-0.25,1l-0.5,2l-0.25,1l-0.31,2l-0.05,1l-0.03,1l0,2l0,6l0,3l0,2l0.03,2l0.05,1l0.31,2l0.25,1l0.53,2l0.27,1l0.42,1l0.97,2l0.56,1l1.3,2l0.73,1l1.66,2l0.95,1l0.97,1l2,2l1,1l2,2l1,1l2,1.972l1,0.945l2,1.666l2,1.389l1,0.611l2,0.945l2,0.611l1,0.222l1,0.278l1,0.222l2,0.5l1,0.25l2,0.306l1,0.055l2,0.028l1,0l1,0l2,0l3,0l2,0l2,-0.083l2,-0.306l1,-0.25l2,-0.5l1,-0.25l2,-0.639l1,-0.389l2,-1l2,-1.277l1,-0.723l2,-1.666l1,-0.945l2,-1.972l1,-1l3,-3l2,-2l1,-1l1.92,-2l1.66,-2l0.7,-1l0.64,-1l1,-2l0.69,-2l0.25,-1l0.28,-1l0.22,-1l0.25,-1l0.31,-2l0.05,-1l0.03,-1l0,-2l0,-1l0,-2l0,-4l0,-1l0,-2l0,-2l-0.03,-2l-0.05,-1l-0.31,-2l-0.25,-1l-0.53,-2l-0.3,-1l-0.95,-2l-1.25,-2l-0.66,-1l-0.67,-1l-1.42,-2l-0.8,-1l-0.86,-1l-1.92,-2l-1,-1l-2,-2l-1,-1l-2,-1.9167l-2,-1.6666l-2,-1.4167l-1,-0.6667l-1,-0.6388l-2,-1.0834l-2,-0.7222l-1,-0.25l-1,-0.2778l-1,-0.2222l-1,-0.2778l-1,-0.2222l-1,-0.25l-2,-0.3056l-1,-0.0555l-2,-0.0278l-2,0l-2,0l-1,0l-3,0l-2,0l-2,0.0833l-2,0.3056m-1038,108.0281l-1,0.222l-2,0.5l-1,0.222l-2,0.5l-1,0.278l-1,0.222l-1,0.278l-1,0.222l-1,0.278l-1,0.25l-2,0.639l-2,0.805l-1,0.417l-1,0.528l-1,0.444l-1,0.556l-1,0.472l-2,1.139l-1,0.639l-1,0.666l-2,1.528l-1.917,1.806l-0.861,0.972l-0.805,1l-0.723,1l-1.305,2l-1.139,2l-0.472,1l-0.556,1l-0.444,1l-0.528,1l-0.861,2l-0.361,1l-0.361,1l-0.334,1l-0.666,2l-0.667,2l-0.306,1l-0.277,1l-0.417,2l-0.194,1l-0.195,1l-0.305,2l0.111,2l0.361,2l0.166,1l0.112,1l0.333,2l0.25,1l0.5,2l0.25,1l0.305,1l0.639,2l0.695,2l0.361,1l0.861,2l0.528,1l0.444,1l0.556,1l0.472,1l1.139,2l1.278,2l0.666,0.972l1.361,1.806l0.723,0.805l1.666,1.417l0.945,0.667l1.972,1.305l1,0.639l1,0.556l2,1.055l1,0.556l1,0.444l1,0.528l2,0.861l1,0.361l2,0.639l2,0.528l1,0.222l1,0.278l1,0.222l1,0.278l1,0.222l2,0.5l1,0.278l2,0.472l2,0.278l2,-0.111l2,-0.417l2,-0.5l1,-0.222l1,-0.278l2,-0.5l1,-0.222l1,-0.278l1,-0.222l1,-0.278l1,-0.25l2,-0.694l2,-1l2,-1.25l1,-0.667l2,-1.333l2,-1.334l0.972,-0.666l0.945,-0.667l1.666,-1.417l0.723,-0.805l1.361,-1.806l0.666,-0.972l1.278,-2l0.556,-1l0.583,-1l0.472,-1l0.556,-1l0.444,-1l1.028,-2l1.139,-2l1.278,-2l1.222,-2l0.472,-1l0.528,-2l0.083,-1l0.028,-2l0,-2l0,-4l0,-3l0,-1l-0.028,-2l-0.055,-1l-0.334,-1.972l-0.305,-0.945l-0.361,-0.861l-0.973,-1.611l-0.583,-0.833l-1.111,-1.806l-0.472,-0.972l-0.556,-1l-0.444,-1l-1.028,-2l-0.583,-1l-0.556,-1l-1.222,-2l-0.583,-1l-1.278,-2l-1.611,-1.917l-0.945,-0.861l-0.972,-0.805l-2,-1.417l-2,-1.333l-2,-1.334l-1,-0.666l-2,-1.25l-2,-1l-1,-0.389l-2,-0.639l-1,-0.25l-2,-0.5l-1,-0.278l-1,-0.222l-1,-0.278l-2,-0.472l-1,-0.195l-2,-0.388l-2,-0.389l-1,-0.111l-2,0.111m935,-0.028l-1,0.25l-2,0.5l-1,0.222l-2,0.5l-1,0.278l-1,0.222l-1,0.278l-2,0.5l-1,0.25l-2,0.694l-2,1l-2,1.25l-1,0.667l-2,1.333l-2,1.361l-1,0.723l-1.92,1.666l-0.86,0.945l-0.8,0.972l-0.73,1l-1.3,2l-1.14,2l-0.47,1l-0.56,1l-0.44,1l-1.03,2l-0.58,1l-0.56,1l-1.28,2l-0.66,1l-1.25,2l-0.92,2l-0.25,1l-0.22,2l-0.03,2l0,2l0,4l0,3l0,1l0.08,2l0.42,2l0.42,1l0.5,1l1.19,2l1.14,2l0.47,1l0.56,1l0.44,1l0.56,1l0.44,1l1.03,2l0.58,1l0.56,1l1.28,2l0.66,0.972l1.36,1.806l0.73,0.805l1.66,1.417l0.95,0.667l0.97,0.666l2,1.334l2,1.333l1,0.667l2,1.25l1,0.527l1,0.473l2,0.75l1,0.333l2,0.611l1,0.25l2,0.5l1,0.278l1,0.222l1,0.278l1,0.222l1,0.25l2,0.306l2,0.055l1,-0.055l2,-0.306l1,-0.25l2,-0.5l2,-0.5l1,-0.222l1,-0.278l1,-0.222l1,-0.278l1,-0.222l1,-0.278l2,-0.555l2,-0.695l1,-0.444l1,-0.417l1,-0.528l1,-0.444l1,-0.556l1,-0.472l2,-1.139l2,-1.305l1,-0.723l1.92,-1.666l1.66,-1.917l0.73,-1l1.3,-2l1.14,-2l0.47,-1l1,-2l0.56,-1l0.44,-1l0.53,-1l0.86,-2l0.36,-1l0.7,-2l0.64,-2l0.3,-1l0.25,-1l0.5,-2l0.25,-1l0.2,-1l0.38,-2l0.34,-2l0,-2l-0.39,-2l-0.28,-1l-0.5,-2l-0.22,-1l-0.53,-2l-0.3,-1l-0.64,-2l-0.7,-2l-0.36,-1l-0.44,-1l-0.42,-1l-0.53,-1l-0.44,-1l-0.56,-1l-1,-2l-0.47,-1l-0.58,-1l-0.56,-1l-0.64,-1l-0.66,-1l-1.53,-1.917l-1.81,-1.666l-0.97,-0.723l-2,-1.361l-2,-1.305l-1,-0.639l-2,-1.139l-1,-0.472l-1,-0.528l-2,-0.861l-1,-0.361l-2,-0.639l-2,-0.528l-1,-0.222l-1,-0.278l-1,-0.222l-1,-0.278l-1,-0.222l-2,-0.5l-1,-0.278l-2,-0.472l-2,-0.306l-1,-0.027l-1,0.027l-2,0.306m-583,109.028l-1,0.277l-2,0.639l-2,0.695l-1,0.361l-2,0.861l-1,0.528l-2,1l-1,0.472l-1,0.611l-1,0.611l-1,0.778l-2,1.778l-1,0.972l-1.917,2l-1.666,2l-0.723,1l-1.361,2l-1.333,2l-1.333,2l-0.639,1l-1.195,2l-0.555,1l-0.834,2l-0.583,2l-0.222,1l-0.5,2l-0.278,1l-0.222,1l-0.5,2l-0.278,1l-0.472,2l-0.306,2l-0.027,1l0.027,1l0.306,2l0.25,1l0.5,2l0.222,1l0.278,1l0.5,2l0.222,1l0.278,1l0.222,1l0.278,1l0.25,1l0.694,2l1,2l0.611,1l1.306,2l1.333,2l1.334,2l0.666,1l1.361,2l0.723,1l1.666,2l1.917,1.917l1,0.833l1,0.778l2,1.222l2,1.028l1,0.444l1,0.528l2,0.861l1,0.361l2,0.695l1,0.333l2,0.583l1,0.195l1,0.139l2,0.083l1,0l2,0l1,0l2,0l1,0l2,0l1,0l2,-0.028l1,-0.055l2,-0.306l1,-0.222l2,-0.389l2,-0.417l1,-0.277l2,-0.695l2,-0.861l1,-0.528l2,-1l1,-0.472l2,-1.222l2,-1.611l0.972,-0.945l0.945,-0.972l1.666,-2l1.417,-2l0.667,-1l1.333,-2l2,-3l0.667,-1l0.666,-1l1.25,-2l0.945,-2l0.305,-1l0.528,-2l0.5,-2l0.278,-1l0.222,-1l0.278,-1l0.222,-1l0.278,-1l0.472,-2l0.306,-2l0.055,-2l-0.055,-1l-0.306,-2l-0.25,-1l-0.5,-2l-0.222,-1l-0.278,-1l-0.222,-1l-0.278,-1l-0.5,-2l-0.528,-2l-0.277,-1l-0.834,-2l-1.111,-2l-0.639,-1l-0.639,-1l-1.305,-2l-1.222,-2l-0.639,-1l-0.639,-1l-1.611,-2l-1.917,-2l-1,-1l-2,-1.917l-1,-0.833l-1,-0.778l-2,-1.222l-1,-0.472l-1,-0.556l-1,-0.444l-1,-0.528l-2,-0.806l-1,-0.277l-1,-0.306l-1,-0.222l-2,-0.5l-1,-0.278l-1,-0.222l-1,-0.25l-2,-0.306l-1,-0.055l-2,-0.028l-1,0l-2,0l-3,0l-1,0l-1,0l-2,0.083l-2,0.334m469,0l-1,0.277l-2,0.612l-1,0.305l-1,0.25l-2,0.583l-2,0.806l-1,0.528l-2,1l-2,1l-1,0.472l-1,0.611l-1,0.611l-1.97,1.611l-0.95,0.945l-1.66,1.972l-0.73,1l-1.36,2l-1.33,2l-1.33,2l-0.67,1l-0.67,1l-1.3,2l-0.61,1l-0.95,2l-0.61,2l-0.22,1l-0.5,2l-0.28,1l-0.22,1l-0.28,1l-0.22,1l-0.5,2l-0.25,1l-0.31,2l-0.08,2l0.03,1l0.05,1l0.31,2l0.47,2l0.28,1l0.22,1l0.28,1l0.22,1l0.28,1l0.5,2l0.22,1l0.58,2l0.84,2l0.55,1l1.2,2l1.3,2l1.34,2l1.33,2l0.69,1l0.73,1l1.66,2l1.92,1.972l2,1.778l1,0.778l1,0.611l1,0.611l1,0.472l2,1l1,0.528l2,0.861l2,0.695l1,0.305l1,0.25l2,0.5l1,0.25l2,0.306l1,0.055l2,0.028l2,0l3,0l2,0l1,0l1,0l2,0l2,-0.083l2,-0.306l1,-0.25l2,-0.5l1,-0.222l2,-0.528l2,-0.722l1,-0.5l2,-1.306l2,-1.666l2,-1.917l1,-1l1,-1l1.92,-2l0.86,-1l0.8,-1l1.42,-2l1.33,-2l0.67,-1l1.33,-2l1.34,-2l0.66,-1l1.28,-2l0.56,-1l1.05,-2l0.53,-1l0.78,-2l0.39,-2l0.05,-1l0.03,-2l0,-2l0,-4l0,-2l0,-1l0,-1l-0.08,-2l-0.39,-2l-0.39,-1l-0.39,-1l-0.97,-2l-0.56,-1l-1,-2l-0.47,-1l-1.14,-2l-0.64,-1l-1.3,-2l-0.67,-1l-1.33,-2l-1.36,-2l-0.73,-1l-1.66,-2l-1.92,-2l-2,-1.917l-2,-1.666l-2,-1.417l-1,-0.667l-1,-0.639l-2,-1.083l-2,-0.722l-1,-0.25l-1,-0.278l-1,-0.222l-1,-0.278l-1,-0.222l-1,-0.25l-2,-0.306l-1,-0.055l-2,-0.028l-1,0l-3,0l-3,0l-1,0l-1,0l-2,0.083l-2,0.334z"/>
  <path id="svg_5" fill="#211b17" d="m119,539l-1,1l0,62l-1.5,-0.972l-1.556,-0.584l-1.944,-0.388l-1,-0.112l-2,-0.416l-1,-0.361l-2,-0.723l-1,-0.277l-2,-0.611l-1,-0.389l-2,-0.695l-1,-0.222l-1,-0.167l-2,-0.083l-1,0l-2,0l-8,0l-11,0l-2,0l-1,0l-2,0.028l-1,0.055l-2,0.306l-1,0.25l-2,0.528l-1,0.277l-2,0.834l-2,1.111l-2,1.222l-1,0.556l-1,0.555l-1,0.445l-1,0.444l-2,0.778l-1,0.444l-1,0.445l-1,0.555l-1,0.556l-1,0.639l-1,0.639l-2,1.333l-2,1.333l-1,0.667l-2,1.417l-1,0.805l-2,1.806l-1,0.972l-1.9167,2l-1.6666,2l-0.7223,1l-1.3888,2l-0.7223,1l-1.6666,2l-1.8889,2l-0.9445,1l-1.5833,2l-1.0833,2l-0.75,2l-0.3334,1l-0.7222,2l-0.4444,1l-0.4167,1l-0.5278,1l-0.4444,1l-0.5556,1l-0.4444,1l-0.5278,1l-0.8056,2l-0.2777,1l-0.3056,1l-0.2222,1l-0.5,2l-0.2778,1l-0.2222,1l-0.5,2l-0.5,2l-0.25,1l-0.3056,2l-0.0833,2l0,2l0,3l0,15l0,10l0,3l0,1l0.0833,2l0.3056,2l0.25,1l0.2222,1l0.2778,1l0.25,1l0.6111,2l0.3333,1l0.6667,2l0.3056,1l0.3055,1l0.5278,2l0.2222,1l0.2778,1l0.2222,1l0.5833,2l0.8334,2l0.5555,1l0.5556,1l1.2222,2l0.5556,1l0.5555,1l0.8889,2l0.3889,1l0.4167,0.972l1.0833,1.806l1.5833,1.528l0.9445,0.694l1.8889,1.417l0.8611,0.805l0.8055,0.861l1.4167,1.917l1.4167,1.917l1.6666,1.666l0.9445,0.723l1.9722,1.388l1,0.723l2,1.639l1,0.888l2,1.556l2,1.083l1,0.389l2,0.695l2,0.639l1,0.305l2,0.528l1,0.222l1,0.278l1,0.222l2,0.528l1,0.305l2,0.612l1,0.277l2,0.334l1,0.055l1,0.028l2,0l2,0.083l2,0.306l1,0.25l1,0.222l2,0.5l1,0.25l2,0.195l2,-0.417l2,-0.778l2,-0.5l1,-0.083l2,-0.028l1,0l2,0l1,0l2,-0.111l2,-0.5l2,-0.778l1,-0.305l2,-0.306l2,-0.306l1,-0.305l1,-0.417l2,-0.972l1,-0.5l3,-1.5l1.944,-0.972l1,-0.417l0.556,-0.278l1.5,-0.333l0.25,-1.444l0.333,-1.112l0.417,-1.444l0.722,1.5l0.028,0.556l0.194,1l0.028,0.944l0.028,1l0,1.944l0,3.056l37,0l0,-222l-2.056,0.083l-1.944,0.306l-2,0.417l-2,0.388l-1,0.195l-2,0.472l-1,0.278l-1,0.222l-1,0.25l-1,0.195l-2,0.388l-1,0.195l-2,0.472l-1,0.278l-1,0.222l-1,0.25l-1,0.195l-2,0.388l-1,0.195l-2,0.472l-1,0.278l-1,0.222l-1,0.25l-0.944,0.167l-1.556,0.194l-1.5,0.028z"/>
  <path id="svg_6" fill="#f3b103" d="m1178,539l0,10l0,205l1.5,0l1.56,0l0.94,0l2,0l16,0l5,0l1,0l5.94,0l2.06,0l0,-2.056l0,-4.944l0,-5l0,-10l0,-55l0,-1l0,-21l0,-4l0,-2l0,-1l0.11,-2l0.58,-2l0.53,-1l1.2,-2l1.19,-1.972l0.7,-0.917l1.72,-1.5l1.97,-1.222l1,-0.667l1,-0.722l2,-1.389l2,-1.111l1,-0.5l2,-1l3,-1.5l1,-0.5l2,-0.972l2,-0.722l1,-0.195l1,-0.083l2,-0.028l1,0l3,0l4,0l2,0l2,0.028l1,0.083l1,0.195l1,0.305l2,0.861l1,0.472l1,0.417l2,0.917l2,1.194l1,0.778l1,0.833l2,1.917l1,1l1.92,2l1.61,2l1.19,2l0.45,1l0.89,2l0.47,1l0.86,2l0.5,2l0.08,1l0.03,1l0.03,2l0.08,1l0.5,2l0.78,2l0.5,2l0.08,1l0.03,2l0,2l0,3l0,14l0,4l0,68l4,0l1,0l4,0l1,0l1,0l1,0l1,0l2,0l8,0l4,0l8,0l0,-2.056l0,-13.944l0,-13l0,-47l0,-24l0,-5l0,-2l0,-2l-0.08,-2l-0.34,-2l-0.27,-1l-0.31,-1l-0.67,-2l-0.66,-2l-0.34,-1l-0.36,-1l-0.36,-1l-0.86,-2l-0.5,-1l-0.42,-1l-0.44,-1l-0.36,-1l-0.36,-1l-0.34,-1l-0.75,-2l-1.08,-2l-0.75,-1l-0.83,-1l-1.92,-2l-2,-2l-1,-1l-2,-2l-2,-2l-1,-1l-1,-1l-2,-1.917l-2,-1.611l-2,-1.194l-1,-0.445l-1,-0.444l-2,-0.722l-1,-0.334l-2,-0.666l-1,-0.334l-2,-0.666l-1,-0.334l-2,-0.666l-1,-0.334l-1,-0.333l-2,-0.583l-2,-0.334l-1,-0.055l-1,-0.028l-2,0l-4,0l-1,0l-4,0l-1,0l-1,0l-4,0l-1,0l-3,0l-2,0l-1,0l-2,0.083l-2,0.389l-1,0.361l-2,0.695l-1,0.222l-1,0.167l-2,0.111l-1,0.055l-2,0.334l-1,0.277l-2,0.695l-1,0.444l-1,0.445l-2,1.194l-2,1.584l-1,0.888l-2,1.639l-1.94,1.334l-0.56,0.389l-1.5,0.694l0,-1.5l0,-7.5l0,-3l0,-64l-2.06,0.083l-1.94,0.306l-2,0.417l-2,0.388l-1,0.195l-1,0.25l-1,0.222l-1,0.278l-2,0.472l-1,0.195l-2,0.388l-1,0.195l-2,0.472l-1,0.278l-1,0.222l-1,0.25l-1,0.195l-2,0.388l-1,0.195l-1,0.222l-1,0.195l-2,0.388l-1,0.195l-1.94,0.389l-0.56,0.139l-1.5,0.083z"/>
  <path id="svg_7" fill="#211b17" d="m237,596.417l-1,0.277l-2,0.639l-2,0.667l-1,0.306l-2,0.555l-1,0.306l-1,0.277l-2,0.834l-1,0.555l-1,0.556l-1,0.639l-2,1.305l-2,1.334l-3,2l-3,2l-1,0.666l-1.972,1.361l-0.945,0.723l-1.666,1.666l-1.417,1.917l-1.417,1.917l-0.805,0.861l-0.861,0.805l-1.917,1.417l-1.917,1.417l-1.611,1.666l-1.222,1.917l-0.472,1l-0.556,1l-0.472,1l-1.139,2l-0.639,1l-0.639,1l-0.666,1l-1.25,2l-1,2l-0.389,1l-0.695,2l-0.639,2l-0.305,1l-0.528,2l-0.222,1l-0.278,1l-0.222,1l-0.278,1l-0.222,1l-0.5,2l-0.278,1l-0.222,1l-0.25,1l-0.306,2l-0.055,1l-0.028,2l0,2l0,3l0,14l0,10l0,2l0,1l0.028,2l0.055,1l0.306,2l0.25,1l0.222,1l0.278,1l0.5,2l0.222,1l0.278,1l0.222,1l0.278,1l0.222,1l0.278,1l0.5,2l0.222,1l0.278,1l0.222,1l0.278,1l0.25,1l0.722,2l1.083,2l0.639,1l0.667,1l1.333,2l2,3l3.334,5l1.333,2l0.694,0.972l0.723,0.945l1.666,1.666l0.945,0.723l0.972,0.694l2,1.417l1,0.805l1,0.861l2,1.834l2,1.666l1,0.723l2,1.361l2,1.305l1,0.639l2,1.139l1,0.472l1,0.528l1,0.417l1,0.444l2,0.722l1,0.334l2,0.666l2,0.667l1,0.306l1,0.305l1,0.25l2,0.5l1,0.25l2,0.306l1,0.055l1,0.028l2,0l2,0.028l1,0.055l2,0.306l1,0.25l1,0.222l1,0.278l1,0.222l1,0.25l1,0.167l2,0.194l2,-0.055l1,-0.139l1,-0.167l2,-0.472l1,-0.278l1,-0.222l2,-0.417l1,-0.139l2,-0.083l1,0l2,0l2,-0.083l2,-0.306l1,-0.25l2,-0.5l1,-0.222l1,-0.278l1,-0.222l2,-0.528l2,-0.639l1,-0.361l2,-0.861l1,-0.528l1,-0.444l1,-0.556l1,-0.444l1,-0.556l1,-0.472l1,-0.583l1,-0.556l2,-1.305l1,-0.723l2,-1.666l1,-0.917l2,-1.778l1,-0.805l2,-1.417l2,-1.417l1.917,-1.666l0.861,-0.945l1.528,-1.972l1.361,-2l1.333,-2l2,-3l2,-3l0.667,-1l0.666,-1l1.25,-2l0.945,-2l0.305,-1l0.306,-1l0.5,-2l0.222,-1l0.528,-2l0.611,-2l0.333,-1l0.334,-1l1,-3l0.333,-1l0.306,-1l0.305,-1l0.528,-2l0.222,-1l0.25,-1l0.195,-1l0.388,-2l0.195,-1l0.222,-1l0.195,-1l0.388,-2l0.195,-1l0.222,-1l0.306,-2l0.055,-1l0.028,-1l0,-2l0,-5l0,-3l0,-1l-0.028,-2l-0.055,-1l-0.306,-2l-0.222,-1l-0.389,-2l-0.194,-1l-0.417,-2l-0.195,-1l-0.388,-2l-0.195,-1l-0.25,-1l-0.222,-1l-0.528,-2l-0.305,-1l-0.306,-1l-0.333,-1l-0.667,-2l-0.306,-1l-0.555,-2l-0.278,-1l-0.222,-1l-0.278,-1l-0.222,-1l-0.278,-1l-0.25,-1l-0.639,-2l-0.389,-1l-1,-2l-1.25,-2l-0.666,-1l-1.334,-2l-2.666,-4l-2.667,-4l-1.333,-2l-1.361,-2l-1.528,-1.917l-1.806,-1.666l-1.972,-1.417l-1,-0.667l-2,-1.333l-3,-2l-5,-3.333l-2,-1.334l-1,-0.666l-2,-1.25l-2,-0.945l-1,-0.305l-2,-0.528l-2,-0.5l-1,-0.278l-1,-0.222l-1,-0.278l-1,-0.222l-2,-0.5l-1,-0.25l-2,-0.306l-1,-0.055l-2,-0.028l-1,0l-3,0l-12,0l-11,0l-2,0l-1,0l-1,0l-2,0.083l-2,0.334m158,15.583l-0.528,-1.5l-0.361,-0.556l-0.528,-1l-1.194,-1.944l-1.139,-2l-0.5,-1l-1.139,-2l-1.222,-1.944l-0.333,-0.556l-1.056,-1.5l-24,0l0,156l36,0l0,-68l0,-29l0,-9l0,-2l0,-1l0.111,-2l0.5,-2l0.778,-1.944l0.305,-1l0.195,-0.556l0.111,-1.5l1.5,-0.111l1.556,-0.611l1.944,-1.389l1,-0.917l2,-1.944l2,-1.695l2,-1.027l1,-0.306l2,-0.611l2,-0.778l2,-0.5l1,-0.083l2,-0.028l2,0l3,0l2,0l1,0l2,0.028l1,0.083l2,0.5l2,0.778l1,0.333l1,0.25l1.944,0.417l1.556,0.361l1.5,0.25l0.111,2.056l0.222,1l1,1.944l0.778,0.972l1.833,1.695l1.556,0.972l1.5,0.361l0,2.056l0.028,1l0.083,0.944l0.195,1l0.694,2l0.389,1l0.305,1l0.195,1l0.111,2l0,1l0,3l0,8l0,23l0,69l36,0l0,-84l0,-19l0,-3l0,-2l0.028,-2l0.083,-1l0.195,-1l0.722,-2l0.472,-1l1.111,-2l0.695,-1l1.722,-2l0.972,-0.972l1,-0.917l1,-0.805l1,-0.695l1,-0.583l1,-0.528l2,-1l2,-1l1,-0.472l1,-0.417l2,-0.5l1,-0.083l1,-0.028l2,0l5,0l3,0l2,0l2,0.028l2,0.278l2,0.805l2,1.222l2,1.278l1,0.583l1.972,1.278l1.778,1.611l0.778,0.945l1.194,1.972l0.445,1l0.444,1l0.722,2l0.334,1l0.666,2l1,3l0.334,1l0.333,1l0.583,2l0.195,1l0.139,1l0.083,2l0,2l0,2l0,5l0,21l0,3l0,2l0,65l16,0l20,0l0,-99l0,-6l0,-2l-0.028,-1l-0.055,-1l-0.334,-2l-0.583,-2l-0.583,-2l-0.195,-1l-0.139,-1l-0.083,-2l-0.083,-2l-0.167,-1l-0.222,-1l-0.778,-2l-0.5,-1l-0.861,-2l-0.361,-1l-0.361,-1l-0.695,-2l-0.889,-2l-0.583,-1l-1.556,-2l-0.888,-1l-1.584,-2l-1.305,-2l-0.639,-1l-1.611,-2l-1.917,-1.917l-1,-0.833l-1,-0.778l-2,-1.222l-1,-0.472l-1,-0.556l-1,-0.444l-1,-0.528l-2,-0.861l-1,-0.361l-2,-0.695l-1,-0.361l-1,-0.361l-2,-0.861l-1,-0.5l-2,-0.861l-2,-0.695l-1,-0.277l-1,-0.195l-1,-0.139l-2,-0.083l-1,0l-2,0l-3,0l-9,0l-3,0l-2,0l-2,0l-2,0.083l-2,0.389l-1,0.361l-2,0.695l-1,0.222l-1,0.167l-2,0.194l-2,0.528l-2,1l-2,1.083l-1,0.445l-2,0.916l-1,0.556l-2,1.361l-2,1.306l-1.944,0.805l-1,0.278l-2.056,0.611l-0.333,1.5l-0.278,0.5l-0.722,1.5l-0.667,1.5l-2,0l-0.778,-1.5l-0.528,-0.556l-0.805,-0.972l-0.917,-0.889l-1.972,-1.666l-1,-0.723l-2,-1.305l-2,-1.139l-1,-0.472l-1,-0.528l-2,-0.861l-1,-0.361l-2,-0.695l-1,-0.333l-3,-1l-3,-1l-2,-0.667l-1,-0.333l-2,-0.583l-1,-0.195l-1,-0.139l-2,-0.083l-1,0l-2,0l-9,0l-9,0l-2,0l-1,0l-2,0.083l-2,0.389l-2,0.778l-1,0.5l-2,0.861l-1,0.361l-1,0.361l-1,0.334l-2,0.722l-2,0.861l-1,0.528l-1,0.472l-2,1.222l-2,1.611l-2,1.917l-1,1l-0.944,0.944l-3.056,3.056m347,0l-0.083,-1.5l-0.389,-1.556l-0.778,-1.944l-0.5,-1l-0.861,-2l-0.778,-2l-0.417,-0.944l-0.388,-1l-0.306,-0.556l-0.5,-1.5l-1.5,0l-2.5,0l-5,0l-1,0l-8,0l-2,0l-1,0l-6,0l0,3.056l0,12.944l0,9l0,131l1.5,0l1.556,0l11.944,0l6,0l16,0l0,-1.5l0,-78.5l0,-2l0,-21l0,-3l0,-2l0.028,-2l0.083,-1l0.611,-2l0.611,-1l1.695,-2l0.972,-0.972l2,-1.722l1,-0.695l2,-1.222l1,-0.667l2,-1.444l1,-0.667l1,-0.583l2,-1.028l2,-1l2,-0.972l2,-0.722l1,-0.195l1,-0.083l2,-0.028l2,0l1,0l2,0l5,0l2,0l2,0l2,0.083l1,0.167l1,0.222l2,0.722l1,0.445l1,0.417l2,1l1,0.583l2,1.194l1,0.639l1.889,1.611l0.805,0.945l1.223,1.972l0.444,1l0.917,1.972l1.139,1.695l1.166,0.972l1.417,0.361l0,2.056l0,1l0.083,1.944l0.167,1l0.222,1l0.695,2l0.361,1l0.389,2l0.083,2l0,1l0,3l0,7l0,21l0,2l0,64l2.056,0l1,0l4.944,0l4,0l2,0l1,0l1,0l8,0l1,0l4,0l2,0l3.5,0l1.5,0l0,-76l0,-23l0,-4l0,-2l0,-2l-0.028,-1l-0.055,-1l-0.334,-2l-0.277,-1l-0.639,-2l-1,-3l-2.667,-8l-1,-3l-0.333,-1l-0.334,-1l-0.75,-2l-1.083,-2l-0.75,-1l-0.833,-1l-1.917,-2l-1,-1l-3,-3l-3,-3l-2,-2l-2,-1.917l-1,-0.833l-1,-0.778l-1,-0.611l-1,-0.583l-2,-0.889l-1,-0.361l-1,-0.361l-1,-0.334l-2,-0.666l-4,-1.334l-2,-0.666l-2,-0.667l-2,-0.583l-1,-0.195l-1,-0.139l-2,-0.083l-1,0l-1,0l-2,0l-1,0l-4,0l-4,0l-2,0l-5,0l-1,0l-2,0l-1,0l-1,0l-2,0.083l-1,0.139l-1,0.195l-2,0.583l-1,0.333l-2,0.667l-2,0.667l-1,0.361l-1,0.361l-2,0.861l-1,0.528l-1,0.472l-1,0.583l-1,0.556l-2,1.278l-1,0.666l-1,0.639l-2,1.222l-1,0.639l-1,0.639l-2,1.584l-0.944,0.861l-1,0.777l-0.556,0.528l-1.5,0.778m192,-15.611l-1,0.25l-1,0.222l-2,0.528l-1,0.305l-2,0.639l-2,0.695l-1,0.361l-1,0.444l-1,0.445l-1,0.555l-1,0.556l-1,0.639l-2,1.305l-2,1.334l-3,2l-2,1.333l-1,0.667l-1,0.666l-2,1.361l-1,0.723l-2,1.666l-2,1.917l-2,2l-1.972,2l-1.778,2l-0.778,1l-1.222,2l-0.472,1l-1,2l-0.556,1l-0.472,1l-1.139,2l-0.639,1l-1.305,2l-1.25,2l-1,2l-0.389,1l-0.639,2l-0.25,1l-0.278,1l-0.222,1l-0.278,1l-0.222,1l-0.278,1l-0.222,1l-0.278,1l-0.5,2l-0.222,1l-0.278,1l-0.222,1l-0.278,1l-0.222,1l-0.278,1l-0.222,1l-0.278,1l-0.5,2l-0.222,1l-0.278,1l-0.222,1l-0.417,2l-0.139,1l-0.083,2l0,2l0,1l0,3l0,6l0,2l0.028,1l0.055,1l0.306,2l0.25,1l0.5,2l0.222,1l0.278,1l0.222,1l0.278,1l0.222,1l0.5,2l0.278,1l0.5,2l0.222,1l0.5,2l0.278,1l0.222,1l0.278,1l0.222,1l0.278,1l0.5,2l0.222,1l0.278,1l0.5,2l0.25,1l0.694,2l1,2l1.25,2l0.667,1l1.333,2l2,3l0.667,1l2,3l1.333,2l1.361,2l1.528,1.972l0.861,0.945l1.917,1.666l1,0.723l2,1.361l1,0.666l3,2l5,3.334l2,1.333l2,1.333l2,1.25l2,0.945l1,0.305l2,0.528l2,0.5l1,0.278l1,0.222l1,0.278l1,0.222l2,0.5l1,0.25l2,0.306l1,0.055l2,0.028l1,0l2,0l2,0.083l2,0.306l1,0.25l1,0.222l1,0.278l1,0.222l1,0.25l2,0.306l1,0.027l1,-0.027l2,-0.306l1,-0.25l1,-0.222l1,-0.278l1,-0.222l1,-0.25l2,-0.306l1,-0.055l2,-0.028l2,0l1,0l2,-0.083l2,-0.306l1,-0.25l1,-0.222l2,-0.528l1,-0.305l2,-0.639l1,-0.334l2,-0.75l1,-0.472l1,-0.528l2,-1.25l1,-0.666l2,-1.334l4,-2.666l6,-4l2,-1.334l1,-0.666l2,-1.334l0.97,-0.666l0.95,-0.667l1.66,-1.417l0.73,-0.805l0.69,-0.861l1.33,-1.917l1.34,-2l0.66,-1l1.34,-2l2,-3l1.33,-2l0.67,-1l1.25,-2l0.52,-1l0.48,-1l0.69,-2l0.25,-1l0.53,-2l0.61,-2l0.33,-1l0.67,-2l0.31,-1l0.3,-1l0.53,-2l0.22,-1l0.28,-1l0.22,-1l0.28,-1l0.22,-1l0.25,-1l0.31,-2l0.05,-1l0.03,-2l0,-2l0,-3l0,-13l0,-11l0,-3l0,-1l-0.03,-2l-0.05,-1l-0.31,-2l-0.25,-1l-0.5,-2l-0.25,-1l-0.61,-2l-0.33,-1l-1,-3l-0.34,-1l-0.64,-2l-0.3,-1l-0.25,-1l-0.28,-1l-0.25,-1l-0.64,-2l-0.39,-1l-1,-2l-1.25,-2l-0.66,-1l-0.67,-1l-2,-3l-2,-3l-1.33,-2l-1.36,-1.972l-0.73,-0.945l-1.66,-1.666l-1.92,-1.417l-2,-1.333l-2,-1.334l-4,-2.666l-5,-3.334l-2,-1.333l-2,-1.333l-1,-0.639l-1,-0.639l-1,-0.556l-1,-0.555l-1,-0.445l-1,-0.444l-1,-0.361l-2,-0.695l-2,-0.639l-1,-0.305l-2,-0.528l-1,-0.222l-1,-0.25l-2,-0.306l-2,-0.083l-2,0l-3,0l-8,0l-4,0l-3,0l-2,0l-1,0l-4,0l-1,0l-2,0l-1,0l-1,0l-2,0.083l-2,0.306z"/>
  <path id="svg_8" fill="#f3b103" d="m1467,714l-1.47,1.972l-0.81,0.834l-0.8,0.722l-1.92,1.222l-1,0.472l-2,1l-1,0.556l-1,0.444l-2,1l-1,0.528l-2,0.861l-1,0.361l-2,0.695l-2,0.639l-1,0.277l-2,0.334l-2,0.166l-1,0.139l-1,0.195l-1,0.277l-2,0.612l-1,0.277l-2,0.334l-1,0.055l-1,0.028l-2,0l-2,0l-1,-0.028l-1,-0.055l-2,-0.389l-2,-0.695l-1,-0.361l-2,-0.416l-1,-0.112l-2,-0.416l-1,-0.361l-2,-0.695l-2,-0.416l-1,-0.112l-2,-0.416l-2,-0.806l-1,-0.583l-1,-0.583l-1,-0.723l-2,-1.389l-1,-0.611l-1.92,-1.305l-1.61,-1.611l-0.64,-0.945l-1.27,-1.972l-0.73,-1l-1.39,-2l-0.61,-1l-1.27,-2l-1.39,-2l-0.73,-1l-1.16,-2l-0.81,-2l-0.41,-2l-0.12,-1l-0.41,-2l-0.36,-1l-0.7,-2l-0.22,-0.944l-0.22,-1.556l-0.03,-1.5l1.5,0l0.56,0l1.94,0l3,0l1,0l1,0l8,0l8,0l1,0l1,0l1,0l2,0l2,0l1,0l1,0l8,0l2,0l4,0l1,0l4,0l1,0l1,0l8,0l4,0l1,0l3,0l4,0l2,0l4,0l1,0l1,0l1,0l1,0l4,0l1,0l1,0l3,0l1,0l4,0l1,0l1,0l1,0l4,0l2,0l1,0l4,0l0.58,-2.056l0.34,-1.944l0.11,-2l0.08,-1l0.5,-2l0.78,-2l0.5,-2l0.08,-1l0.03,-2l0,-1l0,-3l0,-6l0,-2l-0.03,-1l-0.05,-1l-0.31,-2l-0.25,-1l-0.22,-1l-0.28,-1l-0.22,-1l-0.25,-1l-0.31,-2l-0.16,-2l-0.14,-1l-0.2,-1l-0.66,-2l-0.98,-2l-0.58,-1l-1.08,-2l-0.45,-1l-0.44,-1l-0.78,-2l-0.44,-1l-0.45,-1l-0.55,-1l-0.56,-1l-0.64,-1l-0.64,-1l-1.33,-2l-1.33,-2l-0.67,-1l-1.42,-2l-1.66,-2l-1.92,-2l-1,-1l-2,-2l-1,-1l-2,-2l-1,-1l-2,-1.972l-2,-1.695l-1,-0.639l-2,-0.805l-2,-0.528l-1,-0.222l-1,-0.306l-1,-0.305l-2,-0.945l-2,-1.25l-2,-1.25l-1,-0.527l-1,-0.473l-2,-0.75l-1,-0.333l-1,-0.306l-2,-0.555l-1,-0.278l-1,-0.222l-1,-0.25l-2,-0.306l-2,-0.083l-1,0l-1,0l-3,0l-8,0l-4,0l-2,0l-2,0l-1,0l-1,0l-2,0l-2,0l-1,0l-2,0l-1,0l-1,0l-2,0.083l-2,0.306l-1,0.25l-1,0.25l-2,0.722l-1,0.5l-1,0.583l-2,1.278l-1,0.611l-2,1l-2,0.75l-1,0.334l-2,0.75l-2,1l-2,1.25l-1,0.666l-2,1.334l-2,1.333l-2,1.417l-2,1.666l-1,0.945l-2,1.972l-1,1l-2,2l-2,2l-1,1l-1,1l-1.92,2l-0.86,1l-0.8,1l-1.42,2l-1.33,2l-1.34,2l-0.66,1l-0.64,1l-0.64,1l-1.14,2l-0.47,1l-0.56,1l-0.44,1l-0.56,1l-0.44,1l-0.53,1l-0.86,2l-0.36,1l-0.36,1l-0.67,2l-0.61,2l-0.25,1l-0.5,2l-0.42,2l-0.14,1l-0.08,2l0,1l0,1l0,3l0,14l0,13l0,3l0,1l0.03,2l0.05,1l0.34,2l0.58,2l0.58,2l0.23,1l0.38,2l0.5,2l0.7,2l0.44,1l0.42,1l0.53,1l0.44,1l0.56,1l0.44,1l0.53,1l0.86,2l0.72,2l0.34,1l0.75,2l0.47,1l1.14,2l1.39,1.972l0.8,0.945l0.86,0.861l1.92,1.611l2,1.694l0.97,0.945l0.95,0.972l1.69,2l0.78,1l1.69,1.917l1.92,1.666l2,1.417l2,1.333l2,1.334l1,0.666l2,1.25l2,0.945l2,0.611l1,0.222l1,0.278l1,0.222l2,0.528l1,0.305l1,0.306l2,0.667l2,0.639l1,0.277l1,0.223l1,0.194l2,0.389l1,0.222l2,0.306l1,0.055l2,0.028l2,0l1,0.028l1,0.055l2,0.334l2,0.583l2,0.583l2,0.334l2,0.083l1,0l2,-0.028l1,-0.055l2,-0.306l1,-0.222l1,-0.195l2,-0.388l1,-0.195l1,-0.222l2,-0.306l1,-0.055l2,-0.028l2,0l2,-0.083l1,-0.139l2,-0.417l1,-0.222l1,-0.278l1,-0.222l1,-0.25l2,-0.306l1,-0.055l2,-0.028l2,0l2,-0.083l2,-0.389l1,-0.361l2,-0.806l1,-0.417l2,-1.027l2,-1.25l2,-1.25l1,-0.528l1,-0.472l2,-0.834l1,-0.5l1.89,-1.333l1.36,-1.778l0.39,-1.972l-0.14,-1l-0.36,-1l-0.92,-2l-0.44,-1l-0.56,-1l-0.44,-1l-1,-2l-0.56,-1l-0.44,-1l-0.56,-1l-0.44,-1l-0.56,-1l-0.44,-1l-0.56,-1l-0.44,-1l-0.56,-1l-0.44,-1l-0.56,-1l-0.44,-1l-1,-2l-0.56,-0.972l-0.41,-0.917l-0.59,-0.805l-0.22,-0.528l-1,-0.778m69,-111l0.03,1.5l0.19,1.556l0.2,0.944l0.27,1l0.62,2l0.3,1l0.53,2l0.25,1l0.61,2l0.67,2l0.33,1l0.61,2l0.53,2l0.25,1l0.3,1l0.62,2l0.3,1l0.56,1.944l0.08,0.556l0.75,1.5l1.5,-0.528l0.56,-0.361l1,-0.528l0.94,-0.583l2,-1.083l1,-0.417l1,-0.278l1,-0.222l2,-0.472l1,-0.361l2,-0.695l1,-0.222l1,-0.167l2,-0.083l1,0l1,0l2,0l4,0l5,0l2,0l2,0l2,0l1,0l4,0l2,0l1,0l2,0.083l2,0.334l2,0.583l1,0.333l1,0.361l2,0.945l1,0.667l1,0.805l2,1.889l1,1l2,2l2,2l0.97,1l1.7,2l1,2l0.22,1l0.14,2l0.05,1l0.14,1l0.2,1l0.27,1l0.64,1.944l0.23,0.556l0.44,1.5l-1.5,-0.25l-1.56,-0.361l-1.94,-0.306l-1,-0.055l-2,-0.028l-1,0l-2,0l-4,0l-1,0l-1,0l-3,0l-2,0l-1,0l-2,0l-1,0l-4,0l-2,0l-1,0l-2,0.028l-1,0.055l-2,0.306l-1,0.25l-1,0.222l-1,0.278l-1,0.222l-1,0.278l-2,0.5l-1,0.222l-1,0.278l-1,0.222l-2,0.528l-1,0.305l-1,0.306l-1,0.333l-2,0.667l-1,0.333l-2,0.667l-1,0.333l-2,0.75l-2,1l-2,1.25l-2,1.25l-2,1l-1,0.389l-2,0.722l-2,0.945l-1,0.667l-1,0.805l-2,1.889l-1.97,2l-0.95,1l-1.69,2l-0.75,1l-0.78,1l-1.42,2l-1.19,2l-0.47,1l-0.53,1l-0.42,1l-0.44,1l-0.72,2l-0.67,2l-0.33,1l-0.67,2l-0.33,1l-0.34,1l-0.66,2l-0.34,1l-0.66,2l-0.67,2l-0.58,2l-0.34,2l-0.08,2l0,1l0,2l0,2l0,1l0.08,2l0.17,1l0.22,1l0.7,2l0.36,1l0.22,1l0.17,1l0.11,2l0.05,1l0.39,2l0.39,1l0.39,1l0.97,2l0.56,1l0.44,1l0.56,1l1,2l0.47,1l1.22,2l1.61,2l0.95,1l1.97,2l1,1l1,1l2,1.917l1,0.833l1,0.778l2,1.222l1,0.472l1,0.556l1,0.444l1,0.528l2,0.861l1,0.361l1,0.361l2,0.695l1,0.361l1,0.417l2,0.722l2,0.389l1,0.055l2,0.028l1,0l2,0l1,0l2,0.028l1,0.055l2,0.334l2,0.583l2,0.583l1,0.167l1,0.056l2,-0.417l2,-0.778l2,-0.5l1,-0.083l2,-0.028l2,0l1,0l2,-0.028l1,-0.055l2,-0.389l2,-0.695l1,-0.361l1,-0.25l2,-0.5l1,-0.361l2,-1l1,-0.528l1,-0.555l2,-0.834l1,-0.305l2,-0.833l2,-1.417l2,-1.889l2,-2l1,-0.972l1.94,-1.695l1.56,-0.972l1.5,-0.361l0.11,1.5l0.53,1.556l0.47,0.944l0.58,1l1.31,2l1.42,2l0.8,1l0.86,0.972l1.92,1.722l1,0.695l2,1.111l1,0.472l1,0.417l2,0.5l1,0.083l2,0.028l1,0l2,0l2,0l4,0l1,0l2,0l1,-0.028l1,-0.083l2,-0.5l1.94,-0.778l0.56,-0.278l1.5,-0.333l0.78,-1.5l0.53,-0.556l0.8,-1l1.78,-1.888l0.8,-1l0.53,-0.556l0.78,-1.5l-1.97,-1.472l-0.84,-0.806l-0.72,-0.805l-1.22,-1.917l-0.47,-1l-0.56,-1l-0.44,-1l-0.56,-1l-0.44,-1l-1,-2l-0.56,-1l-0.44,-1l-1,-2l-0.53,-1l-0.78,-2l-0.39,-2l-0.05,-1l-0.03,-2l0,-1l0,-3l0,-2l0,-1l-0.08,-2l-0.14,-1l-0.2,-1l-0.58,-2l-0.58,-2l-0.34,-2l-0.08,-2l0,-1l0,-2l0,-7l0,-28l0,-9l0,-2l0,-1l-0.03,-2l-0.05,-1l-0.31,-2l-0.25,-1l-0.22,-1l-0.28,-1l-0.22,-1l-0.5,-2l-0.28,-1l-0.22,-1l-0.28,-1l-0.22,-1l-0.28,-1l-0.25,-1l-0.61,-2l-0.33,-1l-0.67,-2l-0.31,-1l-0.3,-1l-0.53,-2l-0.22,-1l-0.28,-1l-0.22,-1l-0.61,-2l-1.03,-2l-0.75,-1l-1.78,-2l-1.97,-2l-3,-3l-3,-3l-1,-1l-2,-1.972l-2,-1.722l-2,-1.195l-1,-0.417l-1,-0.361l-1,-0.333l-2,-0.667l-1,-0.333l-2,-0.667l-2,-0.666l-1,-0.334l-2,-0.666l-1,-0.334l-2,-0.639l-1,-0.305l-1,-0.25l-2,-0.5l-1,-0.25l-2,-0.306l-1,-0.055l-1,-0.028l-2,0l-2,0l-1,0l-2,0l-16,0l-2,0l-1,0l-1,0l-2,0l-2,0l-1,0l-2,0l-1,0l-2,0.083l-2,0.389l-1,0.361l-2,0.695l-2,0.389l-1,0.055l-1,0.028l-2,0.083l-2,0.389l-1,0.361l-2,0.778l-2,0.722l-1,0.334l-2,0.722l-1.94,0.805l-0.56,0.306l-1.5,0.5m385,111l-1.5,0.361l-1.56,0.972l-1.94,1.667l-1,0.917l-2,1.611l-2,1.194l-1,0.445l-1,0.444l-2,0.722l-1,0.334l-1,0.361l-1,0.361l-2,0.861l-1,0.5l-1,0.389l-1,0.389l-2,0.389l-1,0.055l-2,0.111l-1,0.167l-1,0.222l-1,0.361l-2,0.695l-1,0.222l-1,0.167l-2,0.083l-2,0l-2,0l-1,-0.028l-1,-0.055l-2,-0.389l-2,-0.695l-1,-0.361l-2,-0.416l-1,-0.112l-2,-0.416l-1,-0.361l-2,-0.695l-2,-0.416l-1,-0.112l-2,-0.416l-2,-0.806l-1,-0.583l-1,-0.583l-1,-0.723l-2,-1.389l-0.97,-0.611l-1.78,-1.305l-0.78,-0.778l-0.64,-0.833l-1.3,-1.917l-1.53,-2l-1.53,-2l-1.3,-2l-0.61,-1l-1.39,-2l-0.73,-1l-1.16,-2l-0.42,-1l-0.39,-1l-0.39,-2l-0.08,-1l-0.31,-2l-0.3,-1l-0.78,-2l-0.3,-0.944l-0.28,-1.556l-0.03,-1.5l2.06,0l1,0l1.94,0l1,0l2,0l3,0l2,0l16,0l4,0l1,0l4,0l1,0l2,0l1,0l4,0l4,0l1,0l8,0l4,0l5,0l4,0l4,0l1,0l1,0l4,0l4,0l1,0l1,0l3,0l2,0l1,0l4,0l1,0l1,0l1,0l1,0l4,0l2,0l1,0l0.94,0l1,0l2.06,0l0.58,-2.056l0.2,-1l0.14,-0.944l0.08,-2l0.03,-2l0.08,-1l0.5,-2l0.78,-2l0.5,-2l0.08,-1l0.03,-2l0,-1l0,-1l0,-2l0,-5l0,-2l-0.03,-1l-0.05,-1l-0.31,-2l-0.25,-1l-0.5,-2l-0.25,-1l-0.61,-2l-0.67,-2l-0.33,-1l-0.67,-2l-0.33,-1l-0.33,-1l-0.34,-1l-0.66,-2l-0.67,-2l-0.67,-2l-0.75,-2l-0.47,-1l-0.53,-1l-1.25,-2l-1.33,-2l-1.33,-2l-0.67,-1l-1.42,-2l-0.8,-1l-0.86,-1l-1.92,-2l-1,-1l-2,-2l-2,-2l-1,-1l-2,-1.917l-2,-1.666l-1,-0.723l-2,-1.277l-2,-1l-2,-0.75l-1,-0.334l-2,-0.75l-1,-0.472l-1,-0.528l-2,-1.25l-2,-1.25l-1,-0.527l-1,-0.473l-2,-0.75l-1,-0.333l-2,-0.611l-1,-0.25l-2,-0.5l-1,-0.25l-2,-0.306l-2,-0.083l-2,0l-3,0l-2,0l-4,0l-1,0l-8,0l-2,0l-2,0l-1,0l-4,0l-2,0l-1,0l-2,0.083l-2,0.306l-1,0.25l-1,0.25l-2,0.722l-1,0.5l-1,0.583l-1,0.639l-2,1.25l-2,0.945l-1,0.305l-1,0.306l-2,0.5l-1,0.222l-2,0.611l-2,0.945l-2,1.25l-1,0.666l-2,1.334l-2,1.333l-1,0.694l-0.97,0.723l-1.81,1.666l-1.53,1.917l-0.69,1l-0.69,1l-0.73,1l-1.66,2l-1.92,2l-1.92,2l-0.86,1l-0.8,1l-1.42,2l-0.67,1l-0.66,1l-1.34,2l-0.66,1l-1.34,2l-0.66,1l-1.28,2l-0.56,1l-0.58,1l-0.47,1l-1,2l-0.53,1l-0.86,2l-0.72,2l-0.67,2l-0.31,1l-0.3,1l-0.25,1l-0.5,2l-0.25,1l-0.31,2l-0.05,1l-0.03,2l0,1l0,3l0,1l-0.08,2l-0.31,2l-0.25,1l-0.22,1l-0.5,2l-0.25,1l-0.31,2l-0.08,2l0.03,1l0.05,1l0.31,2l0.25,1l0.22,1l0.28,1l0.22,1l0.25,1l0.31,2l0.05,1l0.03,2l0,1l0,2l0.03,2l0.05,1l0.39,2l0.7,2l0.39,1l0.58,2l0.22,1l0.5,2l0.5,2l0.28,1l0.22,1l0.28,1l0.5,2l0.22,1l0.58,2l0.84,2l0.55,1l0.56,1l0.64,1l0.64,1l1.3,2l0.64,1l0.58,1l1.28,1.972l1.61,1.806l1.92,1.528l1,0.694l1.92,1.417l0.86,0.805l0.8,0.861l1.42,1.917l0.69,1l1.53,1.917l1.81,1.666l0.97,0.723l1,0.694l2,1.333l2,1.334l1,0.666l2,1.25l2,1l2,0.75l1,0.334l2,0.639l1,0.305l2,0.528l1,0.222l1,0.278l1,0.222l2,0.5l1,0.278l1,0.222l1,0.278l1,0.222l1,0.25l2,0.306l1,0.055l2,0.028l1,0l2,0l2,0.083l2,0.306l1,0.25l1,0.222l1,0.278l1,0.222l1,0.25l2,0.306l1,0.055l2,0.028l1,-0.028l1,-0.055l2,-0.306l1,-0.222l1,-0.195l2,-0.388l1,-0.195l1,-0.222l2,-0.306l1,-0.055l2,-0.028l2,0l1,-0.028l1,-0.055l2,-0.306l1,-0.25l1,-0.222l1,-0.278l2,-0.472l1,-0.167l1,-0.139l2,-0.083l2,-0.028l1,-0.055l2,-0.306l1,-0.25l2,-0.5l1,-0.25l2,-0.694l2,-1l2,-1.25l2,-1.25l1,-0.528l1,-0.472l2,-0.834l1.97,-1.083l1.7,-1.583l0.58,-0.945l0.33,-0.972l-0.08,-2l-0.36,-1l-0.92,-2l-0.44,-1l-0.56,-1l-0.44,-1l-0.56,-1l-0.44,-1l-0.56,-1l-0.44,-1l-0.56,-1l-1,-2l-0.44,-1l-0.56,-1l-0.44,-1l-0.56,-1l-0.44,-1l-0.56,-1l-0.44,-1l-0.56,-1l-0.97,-1.944l-0.42,-1l-0.33,-0.556l-0.5,-1.5m98,-102l0,-4l0,-2l0,-8l-2.06,0l-1,0l-0.94,0l-1,0l-4,0l-3,0l-1,0l-1,0l-4,0l-1,0l-4,0l-1,0l-4,0l-2,0l-1,0l-1.94,0l-1,0l-2.06,0l0,10l0,5l0,65l0,1l0,2l0,5l0,1l0,2l0,4l0,2l0,8l0,13l0,5l0,10l0,2l0,8l0,13l2.06,0l1.94,0l1,0l4,0l1,0l1,0l4,0l1,0l4,0l2,0l4,0l1,0l2,0l2,0l1,0l1.94,0l1.56,0l1.5,0l0,-6l0,-30l0,-1l0,-32l0,-10l0,-1l0,-10l0,-4l0,-2l0,-1l0.08,-2l0.17,-1l0.22,-1l0.39,-1l0.42,-1l0.55,-1l0.53,-1l1,-2l0.36,-1l0.59,-2l1.02,-2l1.7,-2l1.97,-2l1,-1l2,-2l1,-1l2,-1.917l2,-1.611l1,-0.639l2,-1.277l1,-0.695l2,-1.167l1,-0.361l2,-0.305l2,-0.028l1,0l3,0l1,0l4,0l2,0l1,0.028l1,0.083l2,0.5l2,0.778l1,0.333l1,0.278l2,0.722l1.94,1.278l1,0.722l0.56,0.5l1.5,0.778l0.5,-1.5l0.33,-0.556l0.42,-1l0.53,-0.944l0.44,-1l1,-2l0.56,-1l0.97,-2l0.42,-1l0.44,-1l0.78,-2l0.44,-1l0.42,-1l0.53,-1l0.44,-1l0.56,-1l0.44,-1l0.95,-2l0.44,-1l0.78,-2l0.78,-2l0.36,-1l0.28,-2l-0.17,-0.972l-0.36,-0.917l-1.39,-1.389l-0.92,-0.416l-1.97,-0.584l-1,-0.333l-2,-0.778l-2,-0.5l-1,-0.083l-1,-0.028l-2,0l-4,0l-1,0l-1,0l-4,0l-1,0l-2,0l-4,0l-1,0l-1,0l-2,0l-1,0l-1,0l-2,0.028l-1,0.055l-2,0.334l-2,0.583l-1,0.333l-2,0.667l-2,0.667l-1,0.361l-1,0.361l-2,0.861l-1,0.528l-1,0.444l-1,0.556l-1,0.472l-2,1.222l-1,0.778l-1,0.833l-1.97,1.917l-0.95,1l-1.64,1.889l-0.77,0.805l-0.42,0.528l-1.25,0.778z"/>
  <path id="svg_9" fill="#211b17" d="m611,598l0,30l4,0l5,0l4,0l8,0l0,7l0,119l16,0l8,0l5,0l7,0l0,-1.5l0,-16.5l0,-10l0,-128l-6,0l-3,0l-4,0l-1,0l-5,0l-7,0l-1,0l-1,0l-8,0l-5,0l-8,0l-8,0z"/>
  <path id="svg_10" fill="#f3b103" d="m1045,598l0,28l2.06,0l2.94,0l5,0l1,0l2,0l2.94,0l1,0l2.06,0l0,55l0,20l0,7l0,2l0.03,1l0.05,1l0.39,2l0.7,2l0.36,1l0.22,1l0.17,1l0.05,1l0.11,2l0.39,2l0.36,1l0.36,1l0.78,2l0.7,2l0.36,1l0.36,1l0.86,2l0.53,1l0.47,1l1.19,2l1.39,2l0.73,1l1.27,2l0.64,1l0.78,1l1.78,1.917l1.97,1.611l1,0.611l1,0.611l1,0.472l2,1l1,0.556l1,0.444l1,0.556l1,0.444l2,1l1,0.528l2,0.778l2,0.389l2,0.083l1,0l1,0l2,0l2,0.083l2,0.389l2,0.695l1,0.361l1,0.222l2,0.194l1,-0.027l2,-0.334l2,-0.583l2,-0.583l2,-0.334l2,-0.083l1,0l2,0l1,0l5,0l1,0l2,0l1,-0.028l1,-0.055l2,-0.389l2,-0.695l1,-0.361l0.94,-0.222l1.56,-0.222l1.5,-0.028l1,-1l0,-32l-1.5,0.75l-0.56,0.444l-1.94,1.112l-2,0.694l-1,0.278l-1,0.333l-2,0.778l-2,0.5l-1,0.083l-2,0.028l-2,0l-1,0.028l-0.97,0.083l-1.72,0.556l-0.53,0.194l-0.78,1.139l-1.5,-0.972l-1.56,-0.584l-1.94,-0.361l-2,-0.083l-2,-0.028l-1,-0.083l-2,-0.5l-2,-0.889l-1.97,-1.111l-0.92,-0.695l-0.8,-0.805l-0.7,-0.917l-1.22,-1.972l-0.67,-1l-1.41,-2l-0.59,-1l-0.41,-1l-0.28,-1l-0.5,-2l-0.36,-1l-0.7,-2l-0.39,-2l-0.05,-1l-0.03,-2l0,-1l0,-2l0,-10l0,-64l1.5,0l1.56,0l3.94,0l8,0l1,0l1,0l2,0l1,0l4,0l5,0l1,0l1,0l1,0l1,0l1,0l4,0l1.94,0l1,0l2.06,0l0,-1.5l0,-26.5l-1.5,0l-1.56,0l-2.94,0l-1,0l-8,0l-1,0l-1,0l-1,0l-8,0l-1,0l-2,0l-5,0l-8,0l-3,0l-3,0l-1,0l-2,0l-1,0l-1,0l-8,0l-1,0l-1,0l-1,0l-2,0l-3,0l-1,0l-2,0l-4,0l-4,0l-1,0l-8,0l-1,0l-1,0l-4,0l-0.94,0l-3.06,0m634,0l0,9l0,19l4,0l5,0l3,0l0.94,0l1,0l2.06,0l0,1.5l0,0.556l0,1l0,0.944l0,2l0,8l0,41l0,20l0,2l0,5l0,2l0.03,1l0.05,1l0.39,2l0.7,2l0.36,1l0.22,1l0.17,1l0.05,1l0.11,2l0.17,1l0.22,1l0.72,2l0.42,1l0.72,2l0.34,1l0.66,2l0.34,1l0.75,2l1.05,2l1.36,2l0.73,1l1.27,2l0.64,1l1.61,2l1.92,1.917l1,0.833l1,0.778l2,1.222l1,0.472l2,1l1,0.556l1,0.444l1,0.556l1,0.444l2,1l1,0.528l2,0.778l2,0.389l2,0.083l1,0l2,0l2,0.028l1,0.055l2,0.334l2,0.583l2,0.583l2,0.334l1,0.027l2,-0.194l1,-0.222l1,-0.361l2,-0.695l2,-0.389l1,-0.055l1,-0.028l2,0l8,0l2,0l1,-0.028l1,-0.055l2,-0.389l2,-0.695l1,-0.361l2,-0.389l1.94,-0.083l2.06,0l1,-1l0,-2.056l0,-1.944l0,-2l0,-1l0,-4l0,-6l0,-16l-1.5,0.528l-0.56,0.389l-1,0.555l-0.94,0.667l-2,1.167l-2,0.694l-1,0.278l-1,0.333l-1,0.389l-2,0.694l-1,0.195l-1,0.083l-1,0.028l-2,0l-1,0l-1,0.028l-1.89,0.25l-0.8,0.389l-0.53,0.194l-0.78,1.139l-1.5,-0.972l-1.56,-0.584l-1.94,-0.361l-2,-0.083l-2,-0.028l-1,-0.083l-2,-0.5l-2,-0.889l-1.97,-1.111l-0.92,-0.695l-0.8,-0.805l-1.28,-1.889l-0.53,-1l-0.5,-1l-1,-2l-0.97,-2l-0.45,-1l-0.72,-2l-0.3,-1l-0.39,-1l-0.7,-2l-0.39,-2l-0.08,-2l0,-1l0,-2l0,-1l0,-9l0,-64l4,0l1,0l2,0l4,0l1,0l2,0l1,0l4,0l3,0l2,0l1,0l4,0l4,0l1,0l4,0l1,0l1.94,0l2.06,0l0,-28l-2.06,0l-1,0l-0.94,0l-4,0l-1,0l-2,0l-2,0l-2,0l-2,0l-1,0l-2,0l-2,0l-1,0l-1,0l-2,0l-2,0l-4,0l-8,0l-4,0l-4,0l-2,0l-5,0l-8,0l-1,0l-1,0l-1,0l-4,0l-1,0l-2,0l-1,0l-8,0l-4,0l-4,0l-1,0l-1.94,0l-1,0l-2.06,0z"/>
  <path id="svg_11" fill="#ffffff" d="m233,722l1.5,0.25l1.556,0.444l1.944,0.695l1,0.444l1,0.417l1,0.528l1,0.444l2,1l1,0.528l2,0.778l2,0.389l2,0.083l1,0l1,0l2,0l4,0l2,0l1,0l2,-0.083l2,-0.389l2,-0.778l1,-0.528l1,-0.444l1,-0.556l1,-0.472l2,-1.194l1,-0.723l2,-1.389l1,-0.611l2,-1.305l1.917,-1.611l1.611,-1.917l1.222,-2l0.472,-1l1,-2l0.556,-1l0.444,-1l0.556,-1l0.444,-1l0.556,-1l0.444,-1l1,-2l0.528,-1l0.778,-2l0.389,-2l0.111,-2l0.055,-1l0.167,-1l0.222,-1l0.695,-2l0.361,-1l0.389,-2l0.055,-1l0.028,-2l0,-1l0,-3l0,-13l0,-2l0,-1l-0.028,-2l-0.055,-1l-0.306,-2l-0.222,-1l-0.195,-1l-0.388,-2l-0.195,-1l-0.472,-2l-0.278,-1l-0.222,-1l-0.278,-1l-0.222,-1l-0.528,-2l-0.305,-1l-0.695,-2l-0.444,-1l-0.945,-2l-0.444,-1l-0.556,-1l-0.472,-0.972l-1.222,-1.806l-0.778,-0.805l-1.778,-1.417l-1.972,-1.333l-1,-0.639l-2,-1.222l-1,-0.612l-1,-0.555l-1,-0.583l-2,-0.973l-2,-0.694l-1,-0.25l-2,-0.5l-1,-0.278l-1,-0.222l-1,-0.278l-2,-0.5l-1,-0.222l-2,-0.5l-1,-0.25l-2,-0.306l-2,-0.083l-2,0.083l-2,0.389l-2,0.695l-1,0.361l-2,0.416l-1,0.139l-2,0.611l-1,0.556l-2,1.306l-2,1.277l-1,0.611l-2,1.389l-0.972,0.723l-1.778,1.277l-0.778,0.639l-0.639,0.778l-1.277,1.778l-1.389,1.972l-0.723,1l-1.194,2l-1.028,2l-0.444,1l-0.528,1l-0.417,1l-0.444,1l-0.722,2l-0.334,1l-0.639,2l-0.277,1l-0.361,2l-0.112,1l-0.416,2l-0.361,1l-0.695,2l-0.389,2l-0.083,2l0,1l0,2l0,10l0,6l0,2l0.028,1l0.055,1l0.306,2l0.222,1l0.389,2l0.389,2l0.472,2l0.306,1l0.277,1l0.806,2l0.528,1l1,2l0.444,1l0.556,1l0.444,1l1,2l0.556,1l0.444,1l1.028,2l1.139,2l1.278,2l0.639,0.944l0.611,1l0.389,0.556l0.694,1.5m716,-97.528l-1,0.361l-1,0.334l-2,0.583l-1,0.167l-2,0.166l-1,0.167l-1,0.25l-2,0.972l-1,0.695l-1,0.666l-1,0.723l-1,0.611l-2,1.305l-1.917,1.611l-1.611,1.917l-1.305,1.917l-0.639,0.833l-0.778,0.778l-0.806,0.639l-1.694,1.305l-1.306,1.611l-0.444,0.945l-0.444,1.972l-0.112,1l-0.166,1l-0.195,1l-0.583,2l-0.333,1l-0.695,2l-0.361,1l-0.861,2l-0.5,1l-0.778,2l-0.222,1l-0.222,2l-0.028,1l0,2l0,1l0,2l0,4l0,9l0,2l0,1l0.028,2l0.055,1l0.306,2l0.222,1l0.195,1l0.388,2l0.195,1l0.222,1l0.195,1l0.388,2l0.195,1l0.472,2l0.278,1l0.222,1l0.278,1l0.528,2l0.277,1l0.806,2l0.528,1l0.444,1l0.556,1l0.472,1l1.222,2l0.778,1l0.833,1l1.917,1.972l1,0.945l2,1.583l1,0.583l2,0.889l2,0.695l1,0.361l1,0.361l2,0.861l1,0.528l1,0.444l1,0.528l2,0.778l2,0.389l2,0.083l1,0l1,0l2,0l1,0l3,0l1,0l1,0l2,-0.083l1,-0.167l1,-0.222l1,-0.389l1,-0.417l2,-1.166l1,-0.723l2,-1.389l2,-1.277l1,-0.611l2,-1.389l1,-0.723l1,-0.611l1.972,-1.305l1.778,-1.611l0.778,-0.945l1.222,-1.972l0.472,-1l1,-2l0.556,-1l0.444,-1l0.556,-1l0.444,-1l0.556,-1l0.444,-1l1,-2l0.528,-1l0.778,-2l0.389,-2l0.111,-2l0.055,-1l0.167,-1l0.222,-1l0.361,-1l0.695,-2l0.389,-2l0.083,-2l0,-1l0,-2l0,-8l0,-6l0,-2l-0.028,-1l-0.055,-1l-0.306,-2l-0.25,-1l-0.222,-1l-0.278,-1l-0.472,-2l-0.195,-1l-0.416,-2l-0.25,-1l-0.778,-2l-0.528,-1l-0.444,-1l-0.556,-1l-0.444,-1l-0.556,-1l-0.444,-1l-1,-2l-0.556,-1l-0.444,-1l-0.556,-1l-0.472,-1l-1.222,-2l-0.778,-1l-1.778,-1.972l-0.972,-0.945l-2,-1.666l-2,-1.389l-2,-1.195l-1,-0.555l-1,-0.417l-1,-0.417l-1,-0.277l-2,-0.528l-1,-0.278l-1,-0.222l-1,-0.278l-2,-0.472l-1,-0.195l-1,-0.194l-2,-0.389l-1,-0.222l-2,-0.306l-2,-0.055l-1,0.055l-2,0.389m-851,103.528l0,-2l2.056,0l1,-0.028l0.944,-0.083l1,-0.195l2,-0.694l2,-0.722l1,-0.278l2,-0.611l1.917,-0.889l0.861,-0.5l1.611,-1.083l0.805,-0.639l1.5,-1.5l0.584,-0.861l0.611,-1.917l0.111,-2l0,-1l0,-2l0,-12l0,-45l0,-13l0,-2l0,-1l-0.111,-2l-0.611,-1.972l-1.389,-1.778l-0.917,-0.75l-1.972,-1.028l-1,-0.305l-2,-0.611l-2,-0.834l-1,-0.555l-2,-1.084l-1,-0.444l-2,-0.528l-2,-0.111l-1,0l-2,0l-6,0l-3,0l-1,0l-2,0.028l-1,0.055l-2,0.389l-1,0.361l-2,0.695l-1,0.222l-1,0.167l-2,0.166l-2,0.389l-1,0.389l-2,0.917l-1,0.472l-2,1.222l-2,1.611l-1,0.945l-2,1.972l-1,1l-1,1l-1.9722,2l-0.9445,1l-1.6111,2l-1.2222,2l-0.4722,1l-1,2l-0.5556,1l-0.4444,1l-0.5556,1l-0.9722,2l-0.3889,1l-0.3889,1l-0.3889,2l-0.1111,2l-0.0555,1l-0.1667,1l-0.2222,1l-0.6945,2l-0.3611,1l-0.3889,2l-0.0555,1l-0.0278,1l0,2l0,7l0,6l0,2l0.0278,1l0.0555,1l0.3056,2l0.2222,1l0.1945,1l0.3888,2l0.1945,1l0.4722,2l0.3056,1l0.2777,1l0.8056,2l0.5278,1l0.4444,1l0.5556,1l1,2l0.4722,1l1.2222,2l1.5278,2l0.8056,1l0.8055,1l1.6111,1.917l1.8056,1.666l0.9722,0.723l2,1.305l2,1.139l1,0.472l1,0.556l1,0.444l1,0.556l1,0.444l1,0.528l2,0.861l1,0.361l2,0.639l2,0.528l1,0.222l1,0.25l1,0.195l2,0.388l1,0.195l1,0.222l2,0.333l1,0.112l2,0.333l1,0.222l2,0.306l0.9444,0.055l1,0.028l2.0556,0m1289,-68l2.06,0l1,0l0.94,0l1,0l1,0l1,0l4,0l1,0l1,0l1,0l2,0l3,0l2,0l8,0l4,0l1,0l4,0l1,0l1,0l4,0l1,0l1,0l8,0l4,0l1,0l4,0l1,0l1,0l1,0l1,0l4,0l1.94,0l1,0l2.06,0l-0.03,-1.5l-0.19,-1.556l-0.17,-0.944l-0.47,-2l-0.28,-1l-0.25,-1l-0.3,-1l-0.64,-2l-0.34,-1l-0.66,-2l-0.34,-1l-0.66,-2l-0.34,-1l-0.75,-2l-1.08,-2l-1.58,-1.917l-0.95,-0.861l-0.97,-0.805l-2,-1.417l-1,-0.667l-2,-1.25l-2,-1l-1,-0.389l-2,-0.694l-1,-0.333l-2,-0.667l-2,-0.667l-1,-0.333l-2,-0.583l-1,-0.195l-1,-0.139l-2,-0.083l-1,0l-2,0l-2,0l-1,0l-2,0l-1,0l-1,0l-1,0l-2,0.083l-1,0.139l-1,0.195l-2,0.583l-1,0.333l-2,0.667l-2,0.667l-1,0.361l-1,0.361l-1,0.444l-1,0.445l-1,0.555l-1,0.556l-1,0.639l-2,1.389l-1,0.805l-1,0.861l-1.97,1.917l-0.95,1l-1.66,2l-1.39,2l-1.14,2l-0.47,1l-0.75,2l-0.34,1l-0.64,2l-0.3,1l-0.25,1l-0.28,1l-0.47,2l-0.31,1.944l-0.05,1l-0.03,2.056m453,0l3.06,0l0.94,0l4,0l1,0l1,0l2,0l4,0l1,0l1,0l4,0l2,0l1,0l4,0l4,0l1,0l1,0l2,0l1,0l4,0l1,0l1,0l1,0l1,0l1,0l3,0l4,0l1,0l1,0l4,0l1,0l8,0l2,0l1.94,0l1,0l2.06,0l-0.08,-2.056l-0.31,-1.944l-0.47,-2l-0.28,-1l-0.25,-1l-0.3,-1l-0.64,-2l-0.7,-2l-0.36,-1l-0.89,-2l-0.55,-1l-0.56,-1l-0.64,-1l-1.39,-2l-1.66,-2l-1.92,-2l-2,-1.972l-1,-0.945l-2,-1.583l-1,-0.583l-1,-0.5l-1,-0.389l-2,-0.639l-1,-0.25l-2,-0.5l-1,-0.278l-1,-0.222l-1,-0.278l-1,-0.222l-1,-0.25l-2,-0.306l-1,-0.055l-2,-0.028l-1,0l-2,0l-1,0l-2,0l-1,0l-1,0l-2,0.083l-1,0.139l-1,0.195l-2,0.583l-1,0.333l-1,0.334l-2,0.666l-2,0.667l-1,0.333l-2,0.75l-2,1l-2,1.25l-1,0.667l-2,1.417l-1,0.805l-1.92,1.806l-0.86,0.972l-0.8,1l-1.39,2l-1.2,2l-0.55,1l-0.45,1l-0.44,1l-0.36,1l-0.7,2l-0.64,2l-0.3,1l-0.25,1l-0.28,1l-0.47,2l-0.31,1.944l-0.08,2.056m-226,20l-1.5,0l-1.56,0l-1.94,0l-2,-0.028l-1,-0.083l-2,-0.5l-2,-0.778l-1,-0.305l-1,-0.167l-1,-0.028l-2,0.278l-1,0.222l-1,0.195l-2,0.388l-1,0.195l-2,0.389l-1,0.139l-2,0.083l-1,0l-2,0l-2,0.028l-1,0.055l-2,0.306l-1,0.25l-2,0.5l-1,0.25l-2,0.639l-1,0.389l-1,0.5l-1,0.555l-2,1.389l-1,0.778l-1,0.75l-2,1.694l-1,0.945l-1.97,1.972l-0.95,1l-1.58,2l-0.58,1l-0.5,1l-0.73,2l-0.27,1l-0.34,2l-0.05,1l-0.03,1l0,2l0,1l0,2l0,1l0,1l0.08,2l0.17,1l0.22,1l0.39,1l0.42,1l1.16,2l0.73,1l1.39,1.972l1.27,1.778l0.64,0.778l1.61,1.222l0.95,0.472l1.97,1l1,0.528l2,0.778l2,0.389l2,0.083l1,0l2,0l3,0l3,0l2,0l2,-0.028l1,-0.055l2,-0.334l2,-0.583l1,-0.333l2,-0.667l2,-0.667l1,-0.333l2,-0.694l2,-0.945l1,-0.667l1,-0.805l2,-1.889l1.92,-2l0.83,-1l0.75,-1l1.08,-2l0.75,-2l0.34,-1l0.66,-2l0.67,-2l0.58,-2l0.2,-1l0.14,-1l0.08,-2l0,-2l0,-4l0,-1l0,-4l0,-2l0,-8z"/>
 </g>
</svg>